<?xml version="1.0" encoding="UTF-8" standalone="no"?>


<svg
   width="320"
   height="320"
   viewBox="0 0 84.666665 84.666669"
   version="1.1"
   id="svg5"
   shape-rendering="crispEdges"
   xmlns="http://www.w3.org/2000/svg"
   xmlns:svg="http://www.w3.org/2000/svg">
  <defs
     id="defs2" />
  <rect
     style="fill:#110019;fill-rule:evenodd;stroke-width:0.264999;fill-opacity:1"
     id="rect874"
     width="84.666664"
     height="84.666664"
     x="0"
     y="0" />
  <path
     id="rect4588"
     style="fill:#cdfadd;fill-opacity:1;fill-rule:evenodd;stroke-width:1.00157"
     d="M 130 10 L 130 20 L 140 20 L 140 10 L 130 10 z M 20 20 L 20 30 L 30 30 L 30 20 L 20 20 z M 220 20 L 220 30 L 230 30 L 230 20 L 220 20 z M 290 30 L 290 40 L 300 40 L 300 30 L 290 30 z M 70 40 L 70 50 L 50 50 L 50 60 L 70 60 L 70 70 L 80 70 L 80 60 L 100 60 L 100 50 L 80 50 L 80 40 L 70 40 z M 190 40 L 190 50 L 200 50 L 200 40 L 190 40 z M 260 60 L 260 80 L 250 80 L 250 90 L 260 90 L 260 110 L 270 110 L 270 90 L 280 90 L 280 80 L 270 80 L 270 60 L 260 60 z M 140 80 L 140 90 L 150 90 L 150 80 L 140 80 z M 50 110 L 50 120 L 40 120 L 40 130 L 50 130 L 50 140 L 60 140 L 60 130 L 70 130 L 70 120 L 60 120 L 60 110 L 50 110 z M 170 110 L 170 120 L 180 120 L 180 110 L 170 110 z M 290 130 L 290 140 L 280 140 L 280 150 L 290 150 L 290 160 L 300 160 L 300 150 L 310 150 L 310 140 L 300 140 L 300 130 L 290 130 z M 230 160 L 230 170 L 240 170 L 240 160 L 230 160 z M 40 170 L 40 180 L 50 180 L 50 170 L 40 170 z M 70 190 L 70 200 L 80 200 L 80 190 L 70 190 z M 280 210 L 280 220 L 290 220 L 290 210 L 280 210 z M 80 250 L 80 260 L 90 260 L 90 250 L 80 250 z M 240 270 L 240 280 L 250 280 L 250 270 L 240 270 z M 10 290 L 10 300 L 20 300 L 20 290 L 10 290 z M 270 290 L 270 300 L 280 300 L 280 290 L 270 290 z "
     transform="scale(0.26458333)" />
</svg>
