<?xml version="1.0" encoding="UTF-8" standalone="no"?>


<svg
   width="320"
   height="320"
   viewBox="0 0 84.666665 84.666669"
   version="1.1"
   id="svg5"
   shape-rendering="crispEdges"
   xmlns="http://www.w3.org/2000/svg"
   xmlns:svg="http://www.w3.org/2000/svg">
  <defs
     id="defs2" />
  <path
     id="rect932"
     style="fill:#000000;fill-rule:evenodd;stroke-width:0.276782"
     d="M 23.8125,52.916666 H 60.854164 V 84.666664 H 23.8125 Z" />
  <path
     id="rect1026"
     style="fill:#69feba;fill-opacity:1;fill-rule:evenodd;stroke-width:1.22667"
     d="M 160 200 L 160 210 L 150 210 L 150 220 L 140 220 L 140 230 L 130 230 L 130 240 L 130 250 L 120 250 L 120 220 L 110 220 L 110 230 L 100 230 L 100 260 L 110 260 L 110 270 L 120 270 L 120 280 L 130 280 L 130 290 L 140 290 L 150 290 L 150 300 L 120 300 L 120 310 L 130 310 L 130 320 L 160 320 L 160 310 L 170 310 L 170 300 L 180 300 L 180 290 L 190 290 L 190 280 L 190 270 L 200 270 L 200 300 L 210 300 L 210 290 L 220 290 L 220 260 L 210 260 L 210 250 L 200 250 L 200 240 L 190 240 L 190 230 L 170 230 L 170 220 L 200 220 L 200 210 L 190 210 L 190 200 L 160 200 z M 200 220 L 200 230 L 210 230 L 210 220 L 200 220 z M 200 300 L 190 300 L 190 310 L 200 310 L 200 300 z M 120 300 L 120 290 L 110 290 L 110 300 L 120 300 z M 120 220 L 130 220 L 130 210 L 120 210 L 120 220 z M 150 240 L 170 240 L 170 250 L 180 250 L 180 270 L 170 270 L 170 280 L 150 280 L 150 270 L 140 270 L 140 250 L 150 250 L 150 240 z "
     transform="scale(0.26458333)" />
</svg>
