<?xml version="1.0" encoding="UTF-8" standalone="no"?>
<!-- Created with Inkscape (http://www.inkscape.org/) -->

<svg
   width="320"
   height="320"
   viewBox="0 0 84.666665 84.666669"
   version="1.1"
   id="svg5"
   shape-rendering="crispEdges"
   xmlns="http://www.w3.org/2000/svg"
   xmlns:svg="http://www.w3.org/2000/svg">
  <defs
     id="defs2" />
  <path
     id="path2276"
     style="fill:#341762;fill-opacity:1;fill-rule:evenodd;stroke-width:1.00157"
     d="M 80 200 L 80 210 L 100 210 L 100 200 L 80 200 z M 100 210 L 100 220 L 110 220 L 110 210 L 100 210 z M 80 210 L 70 210 L 70 240 L 80 240 L 80 210 z M 70 240 L 60 240 L 60 290 L 70 290 L 70 240 z M 70 290 L 70 300 L 80 300 L 80 290 L 70 290 z M 80 290 L 90 290 L 90 270 L 80 270 L 80 290 z M 90 270 L 100 270 L 100 250 L 90 250 L 90 270 z "
     transform="scale(0.26458333)" />
  <path
     id="rect865"
     style="fill:#5227a7;fill-opacity:1;fill-rule:evenodd;stroke-width:1.00157"
     d="M 80 210 L 80 240 L 70 240 L 70 290 L 80 290 L 80 270 L 90 270 L 90 250 L 100 250 L 100 210 L 90 210 L 80 210 z "
     transform="scale(0.26458333)" />
</svg>
