<?xml version="1.0" encoding="UTF-8" standalone="no"?>
<!-- Created with Inkscape (http://www.inkscape.org/) -->

<svg
   width="320"
   height="320"
   viewBox="0 0 84.666665 84.666669"
   version="1.1"
   id="svg5"
   shape-rendering="crispEdges"
   xmlns="http://www.w3.org/2000/svg"
   xmlns:svg="http://www.w3.org/2000/svg">
  <defs
     id="defs2" />
  <path
     id="rect932"
     style="fill-rule:evenodd;stroke-width:0.264999;fill:#ff0000"
     d="M 23.8125,55.5625 H 60.854164 V 84.666664 H 23.8125 Z" />
  <path
     id="rect1299"
     style="fill:#000000;fill-rule:evenodd;stroke-width:1.00157"
     d="m 100,230 v 70 h 20 v -10 h 10 v -50 h -10 v -10 z m 80,0 v 70 h 30 10 v -30 h -10 v -10 h 10 v -10 h -10 v -20 z m -40,20 v 50 h 30 v -50 z"
     transform="scale(0.26458333)" />
  <path
     id="rect3068"
     style="fill:#ff0000;fill-opacity:1;fill-rule:evenodd;stroke-width:1.00157"
     d="m 110,240 v 50 h 10 v -50 z m 80,0 v 10 h 10 v 10 h -10 v 40 h 20 v -40 -10 -10 z m -40,20 v 10 h 10 v -10 z m 0,20 v 10 h 20 v -10 z"
     transform="scale(0.26458333)" />
</svg>
