<?xml version="1.0" encoding="UTF-8" standalone="no"?>
<!-- Created with Inkscape (http://www.inkscape.org/) -->

<svg
   width="320"
   height="320"
   viewBox="0 0 84.666665 84.666669"
   version="1.1"
   id="svg5"
   shape-rendering="crispEdges"
   xmlns="http://www.w3.org/2000/svg"
   xmlns:svg="http://www.w3.org/2000/svg">
  <defs
     id="defs2" />
  <path
     id="rect932"
     style="fill:#5227a7;fill-opacity:1;fill-rule:evenodd;stroke-width:1.00157"
     d="m 20,180 v 20 h 10 v 40 h 10 v 20 h 10 v -20 h 10 v 50 h 30 v 30 h 140 v -30 h 30 v -50 h 10 v 20 h 10 v -20 h 10 v -40 h 10 v -20 h -10 v 10 h -30 v 10 h -30 v 10 H 90 V 200 H 60 V 190 H 30 v -10 z"
     transform="scale(0.26458333)" />
  <path
     id="rect10113"
     style="fill:#341762;fill-opacity:1;fill-rule:evenodd;stroke-width:1.00157"
     d="m 10,180 v 10 h 10 v -10 z m 290,0 v 10 h 10 V 180 Z M 20,200 v 10 h 10 v -10 z m 270,0 v 10 h 10 V 200 Z M 30,220 v 20 h 10 v -20 z m 250,0 v 20 h 10 V 220 Z M 50,240 v 30 h 10 v -30 z m 210,0 v 30 h 10 V 240 Z M 70,250 v 50 h 10 v -50 z m 170,0 v 50 h 10 v -50 z"
     transform="scale(0.26458333)" />
</svg>
