<?xml version="1.0" encoding="UTF-8" standalone="no"?>
<!-- Created with Inkscape (http://www.inkscape.org/) -->

<svg
   width="320"
   height="320"
   viewBox="0 0 84.666665 84.666669"
   version="1.1"
   id="svg5"
   shape-rendering="crispEdges"
   xmlns="http://www.w3.org/2000/svg"
   xmlns:svg="http://www.w3.org/2000/svg">
  <defs
     id="defs2" />
  <path
     id="rect932"
     style="fill:#5227a7;fill-opacity:1;fill-rule:evenodd;stroke-width:1.00157"
     d="M 90 210 L 90 300 L 80 300 L 80 310 L 90 310 L 90 320 L 230 320 L 230 210 L 90 210 z "
     transform="scale(0.26458333)" />
  <path
     id="rect4284-1"
     style="fill:#ffb70f;fill-opacity:1;fill-rule:evenodd;stroke-width:1.00157"
     d="M 20 290 L 20 310 L 30 310 L 30 290 L 20 290 z M 30 310 L 30 320 L 90 320 L 90 310 L 50 310 L 50 290 L 40 290 L 40 310 L 30 310 z "
     transform="scale(0.26458333)" />
  <path
     id="rect3298"
     style="fill:#ffb70f;fill-opacity:1;fill-rule:evenodd;stroke-width:1.00157"
     d="M 50 270 L 50 280 L 60 280 L 60 270 L 50 270 z M 60 280 L 60 290 L 90 290 L 90 280 L 80 280 L 80 270 L 70 270 L 70 280 L 60 280 z "
     transform="scale(0.26458333)" />
  <path
     id="rect1011"
     style="fill:#341762;fill-opacity:1;fill-rule:evenodd;stroke-width:1.00157"
     d="M 110 220 L 110 230 L 120 230 L 120 220 L 110 220 z M 110 230 L 100 230 L 100 270 L 110 270 L 110 280 L 120 280 L 120 290 L 130 290 L 150 290 L 150 280 L 130 280 L 130 270 L 120 270 L 120 260 L 110 260 L 110 230 z M 150 290 L 150 300 L 170 300 L 170 310 L 210 310 L 210 300 L 210 290 L 200 290 L 200 300 L 180 300 L 180 290 L 150 290 z M 200 290 L 200 260 L 190 260 L 190 290 L 200 290 z M 190 260 L 190 240 L 180 240 L 180 230 L 170 230 L 170 220 L 160 220 L 150 220 L 150 230 L 160 230 L 160 240 L 170 240 L 170 250 L 180 250 L 180 260 L 190 260 z "
     transform="scale(0.26458333)" />
</svg>
