<?xml version="1.0" encoding="UTF-8" standalone="no"?>


<svg
   width="160"
   height="160"
   viewBox="0 0 42.333332 42.333334"
   version="1.1"
   id="svg5"
   shape-rendering="crispEdges"
   sodipodi:docname="head-pooly-bot.svg"
   inkscape:version="1.1.2 (b8e25be833, 2022-02-05)"
   xmlns:inkscape="http://www.inkscape.org/namespaces/inkscape"
   xmlns:sodipodi="http://sodipodi.sourceforge.net/DTD/sodipodi-0.dtd"
   xmlns="http://www.w3.org/2000/svg"
   xmlns:svg="http://www.w3.org/2000/svg">
  <sodipodi:namedview
     id="namedview11"
     pagecolor="#505050"
     bordercolor="#eeeeee"
     borderopacity="1"
     inkscape:pageshadow="0"
     inkscape:pageopacity="0"
     inkscape:pagecheckerboard="0"
     showgrid="false"
     inkscape:zoom="2.01875"
     inkscape:cx="100.06192"
     inkscape:cy="109.96904"
     inkscape:window-width="1920"
     inkscape:window-height="974"
     inkscape:window-x="-11"
     inkscape:window-y="-11"
     inkscape:window-maximized="1"
     inkscape:current-layer="svg5" />
  <defs
     id="defs2" />
  <path
     id="rect5294"
     style="fill:#808080;fill-opacity:1;fill-rule:evenodd;stroke-width:0.264999"
     d="M 5.2916666,0 V 2.6458333 H 7.9374999 V 5.2916666 H 10.583333 V 7.9374999 H 5.2916666 2.6458333 v 2.6458331 h 2.6458333 v 2.645834 H 10.583333 V 15.875 H 7.9374999 2.6458333 0 v 2.645833 h 2.6458333 v 2.645833 H 7.9374999 V 23.8125 H 10.583333 V 42.333333 H 39.6875 42.333333 V 2.6458333 H 39.6875 V 0 H 10.583333 7.9374999 Z" />
  <path
     id="rect5412"
     style="fill:#404040;fill-opacity:1;fill-rule:evenodd;stroke-width:0.264999"
     d="m 10.583333,2.6458333 v 2.6458333 h 2.645834 V 2.6458333 Z m 0,7.9374997 v 2.645834 h 2.645834 v -2.645834 z m 0,7.9375 v 2.645833 h 2.645834 v -2.645833 z m 10.583333,2.645833 V 23.8125 h -2.645833 v 5.291666 h 2.645833 V 31.75 H 23.8125 v 2.645833 h 2.645833 v 2.645833 h 2.645833 V 34.395833 H 31.75 V 31.75 h 2.645833 v -2.645834 h 2.645833 V 23.8125 h -2.645833 v -2.645834 z" />
  <path
     id="rect5424"
     style="fill:#000000;fill-opacity:1;fill-rule:evenodd;stroke-width:0.264999"
     d="m 29.104166,10.583333 v 7.9375 h 7.9375 v -7.9375 z M 23.8125,23.8125 v 2.645833 h 2.645833 V 23.8125 Z m 5.291666,0 v 2.645833 H 31.75 V 23.8125 Z" />
  <rect
     style="fill:#000000;fill-opacity:1;fill-rule:evenodd;stroke-width:0.264999"
     id="rect1127"
     width="7.9375"
     height="7.9375"
     x="15.875"
     y="10.583334" />
  <rect
     style="fill:#ffffff;fill-opacity:1;fill-rule:evenodd;stroke-width:0.264999"
     id="rect1131"
     width="2.6458333"
     height="2.6458333"
     x="29.104168"
     y="10.583334" />
  <rect
     style="fill:#a0a0a0;fill-opacity:1;fill-rule:evenodd;stroke-width:0.264999"
     id="rect5250"
     width="7.9375"
     height="7.9375"
     x="15.875"
     y="10.583334" />
  <rect
     style="fill:#ff0000;fill-opacity:1;fill-rule:evenodd;stroke-width:0.264999"
     id="rect5154"
     width="2.6458311"
     height="2.6458311"
     x="18.520832"
     y="13.229166" />
</svg>
