<?xml version="1.0" encoding="UTF-8" standalone="no"?>


<svg
   width="200"
   height="190"
   viewBox="0 0 52.916666 50.270835"
   version="1.1"
   id="svg5"
   shape-rendering="crispEdges"
   sodipodi:docname="head-pooly-crazycraw.svg"
   inkscape:version="1.1.2 (b8e25be833, 2022-02-05)"
   xmlns:inkscape="http://www.inkscape.org/namespaces/inkscape"
   xmlns:sodipodi="http://sodipodi.sourceforge.net/DTD/sodipodi-0.dtd"
   xmlns="http://www.w3.org/2000/svg"
   xmlns:svg="http://www.w3.org/2000/svg">
  <sodipodi:namedview
     id="namedview9"
     pagecolor="#505050"
     bordercolor="#eeeeee"
     borderopacity="1"
     inkscape:pageshadow="0"
     inkscape:pageopacity="0"
     inkscape:pagecheckerboard="0"
     showgrid="false"
     inkscape:zoom="2.01875"
     inkscape:cx="100.06192"
     inkscape:cy="140.18576"
     inkscape:window-width="1920"
     inkscape:window-height="974"
     inkscape:window-x="-11"
     inkscape:window-y="-11"
     inkscape:window-maximized="1"
     inkscape:current-layer="svg5" />
  <defs
     id="defs2" />
  <path
     id="rect4587"
     style="fill:#5227a7;fill-opacity:1;fill-rule:evenodd;stroke-width:0.264999"
     d="m 10.583333,0 v 2.6458333 2.6458333 h 2.645834 V 7.9374999 H 10.583333 7.9374999 V 5.2916666 H 5.2916666 V 2.6458333 H 2.6458333 v 5.2916666 h 2.6458333 v 2.6458331 h 2.6458333 v 2.645834 H 10.583333 V 15.875 H 5.2916666 V 13.229167 H 2.6458333 V 10.583333 H 0 V 15.875 h 2.6458333 v 2.645833 h 2.6458333 v 2.645833 h 5.2916664 v 29.104167 h 31.75 V 21.166666 h 5.291666 v -2.645833 h 2.645834 V 15.875 h 2.645833 v -5.291667 h -2.645833 v 2.645834 H 47.624999 V 15.875 h -5.291666 v -2.645833 h 2.645833 v -2.645834 h 2.645833 V 7.9374999 h 2.645834 V 2.6458333 H 47.624999 V 5.2916666 H 44.979166 V 7.9374999 H 42.333333 39.6875 V 5.2916666 h 2.645833 V 2.6458333 0 H 39.6875 V 2.6458333 H 37.041666 V 5.2916666 H 34.395833 V 7.9374999 H 31.75 V 5.2916666 2.6458333 H 29.104166 V 5.2916666 H 23.8125 V 2.6458333 H 21.166666 V 5.2916666 7.9374999 H 18.520833 V 5.2916666 H 15.875 V 2.6458333 H 13.229167 V 0 Z" />
  <path
     id="rect8494"
     style="fill:#f2a52b;fill-opacity:1;fill-rule:evenodd;stroke-width:0.264999"
     d="M 21.166666,29.104166 V 31.75 h -2.645833 v 5.291666 h 2.645833 V 39.6875 H 23.8125 v 2.645833 h 2.645833 v 2.645833 h 2.645833 V 42.333333 H 31.75 V 39.6875 h 2.645833 v -2.645834 h 2.645833 V 31.75 h -2.645833 v -2.645834 z" />
  <path
     id="rect12247"
     style="fill:#7f3300;fill-opacity:1;fill-rule:evenodd;stroke-width:0.264999"
     d="m 23.8125,31.75 v 2.645833 h 2.645833 V 31.75 Z m 5.291666,0 v 2.645833 H 31.75 V 31.75 Z" />
  <path
     id="rect1125"
     style="fill:#000000;fill-opacity:1;fill-rule:evenodd;stroke-width:0.264999"
     d="m 15.875,18.520833 v 7.9375 h 7.9375 v -7.9375 z m 13.229166,0 v 7.9375 h 7.9375 v -7.9375 z" />
  <path
     id="rect1129"
     style="fill:#ffffff;fill-opacity:1;fill-rule:evenodd;stroke-width:0.264999"
     d="m 15.875,18.520833 v 2.645833 h 2.645833 v -2.645833 z m 13.229166,0 v 2.645833 H 31.75 v -2.645833 z" />
</svg>
