<?xml version="1.0" encoding="UTF-8" standalone="no"?>


<svg
   width="120"
   height="190"
   viewBox="0 0 31.749999 50.270835"
   version="1.1"
   id="svg5"
   shape-rendering="crispEdges"
   sodipodi:docname="head-pooly-pigeon.svg"
   inkscape:version="1.1.2 (b8e25be833, 2022-02-05)"
   xmlns:inkscape="http://www.inkscape.org/namespaces/inkscape"
   xmlns:sodipodi="http://sodipodi.sourceforge.net/DTD/sodipodi-0.dtd"
   xmlns="http://www.w3.org/2000/svg"
   xmlns:svg="http://www.w3.org/2000/svg">
  <sodipodi:namedview
     id="namedview11"
     pagecolor="#505050"
     bordercolor="#eeeeee"
     borderopacity="1"
     inkscape:pageshadow="0"
     inkscape:pageopacity="0"
     inkscape:pagecheckerboard="0"
     showgrid="false"
     inkscape:zoom="2.01875"
     inkscape:cx="59.93808"
     inkscape:cy="119.87616"
     inkscape:window-width="1920"
     inkscape:window-height="974"
     inkscape:window-x="-11"
     inkscape:window-y="-11"
     inkscape:window-maximized="1"
     inkscape:current-layer="svg5" />
  <defs
     id="defs2" />
  <path
     id="rect1179"
     style="fill:#5227a7;fill-opacity:1;fill-rule:evenodd;stroke-width:0.256584"
     d="M 7.9374999,0 V 2.6458333 H 2.6458333 V 5.2916666 H 0 V 44.979166 H 31.75 V 5.2916666 H 29.104166 V 2.6458333 H 23.8125 V 0 Z" />
  <path
     id="rect1476"
     style="fill:#ffffff;fill-opacity:1;fill-rule:evenodd;stroke-width:0.264999"
     d="m 7.9374999,39.6875 v 2.645833 H 13.229167 V 39.6875 Z m 5.2916671,2.645833 v 2.645833 h 7.937499 v -2.645833 z m 7.937499,0 H 23.8125 V 39.6875 h -2.645834 z" />
  <path
     id="rect1329"
     style="fill:#00ffff;fill-opacity:1;fill-rule:evenodd;stroke-width:0.264999"
     d="M 0,37.041666 V 39.6875 H 2.6458333 V 37.041666 Z M 2.6458333,39.6875 v 2.645833 H 5.2916666 V 39.6875 Z m 2.6458333,2.645833 v 2.645833 h 2.6458333 v -2.645833 z m 2.6458333,2.645833 v 2.645833 h 5.2916671 v -2.645833 z m 5.2916671,2.645833 v 2.645834 h 7.937499 v -2.645834 z m 7.937499,0 H 23.8125 V 44.979166 H 21.166666 Z M 23.8125,44.979166 h 2.645833 V 42.333333 H 23.8125 Z m 2.645833,-2.645833 h 2.645833 V 39.6875 H 26.458333 Z M 29.104166,39.6875 H 31.75 v -2.645834 h -2.645834 z" />
  <path
     id="rect1289"
     style="fill:#b200ff;fill-opacity:1;fill-rule:evenodd;stroke-width:0.264999"
     d="m 0,31.75 v 5.291666 H 2.6458333 V 31.75 Z m 2.6458333,5.291666 V 39.6875 H 5.2916666 V 37.041666 Z M 5.2916666,39.6875 v 2.645833 H 7.9374999 V 39.6875 Z m 2.6458333,2.645833 v 2.645833 h 5.2916671 v -2.645833 z m 5.2916671,2.645833 v 2.645833 h 7.937499 v -2.645833 z m 7.937499,0 H 23.8125 V 42.333333 H 21.166666 Z M 23.8125,42.333333 h 2.645833 V 39.6875 H 23.8125 Z M 26.458333,39.6875 h 2.645833 v -2.645834 h -2.645833 z m 2.645833,-2.645834 H 31.75 V 31.75 h -2.645834 z" />
  <path
     id="rect8494"
     style="fill:#f2a52b;fill-opacity:1;fill-rule:evenodd;stroke-width:0.264999"
     d="m 10.583333,23.8125 v 2.645833 H 7.9374999 V 31.75 h 2.6458331 v 2.645833 h 2.645834 v 2.645833 H 15.875 V 39.6875 h 2.645833 v -2.645834 h 2.645833 V 34.395833 H 23.8125 V 31.75 h 2.645833 V 26.458333 H 23.8125 V 23.8125 Z" />
  <path
     id="rect12247"
     style="fill:#7f3300;fill-opacity:1;fill-rule:evenodd;stroke-width:0.264999"
     d="m 13.229167,26.458333 v 2.645833 H 15.875 v -2.645833 z m 5.291666,0 v 2.645833 h 2.645833 v -2.645833 z" />
  <path
     id="rect12380"
     style="fill:#000000;fill-opacity:1;fill-rule:evenodd;stroke-width:0.264999"
     d="m 5.2916666,13.229167 v 7.937499 h 7.9375004 v -7.937499 z m 13.2291664,0 v 7.937499 h 7.9375 v -7.937499 z" />
</svg>
