<?xml version="1.0" encoding="UTF-8" standalone="no"?>


<svg
   width="160"
   height="160"
   viewBox="0 0 42.333332 42.333334"
   version="1.1"
   id="svg5"
   shape-rendering="crispEdges"
   sodipodi:docname="hatAcc-snorkel-green.svg"
   inkscape:version="1.1.2 (b8e25be833, 2022-02-05)"
   xmlns:inkscape="http://www.inkscape.org/namespaces/inkscape"
   xmlns:sodipodi="http://sodipodi.sourceforge.net/DTD/sodipodi-0.dtd"
   xmlns="http://www.w3.org/2000/svg"
   xmlns:svg="http://www.w3.org/2000/svg">
  <sodipodi:namedview
     id="namedview7"
     pagecolor="#505050"
     bordercolor="#eeeeee"
     borderopacity="1"
     inkscape:pageshadow="0"
     inkscape:pageopacity="0"
     inkscape:pagecheckerboard="0"
     showgrid="false"
     inkscape:zoom="2.01875"
     inkscape:cx="90.154799"
     inkscape:cy="160"
     inkscape:window-width="1920"
     inkscape:window-height="974"
     inkscape:window-x="-11"
     inkscape:window-y="-11"
     inkscape:window-maximized="1"
     inkscape:current-layer="svg5" />
  <defs
     id="defs2" />
  <path
     id="rect8282"
     style="opacity:1;fill:#00c900;fill-opacity:1;fill-rule:evenodd;stroke-width:0.264999"
     d="M 0,0 V 2.6458333 H 5.2916666 V 0 Z M 5.2916666,7.9374999 V 18.520833 h 2.6458333 v 2.645833 H 10.583333 V 23.8125 h 2.645834 5.291666 V 21.166666 H 13.229167 V 18.520833 H 10.583333 V 15.875 H 7.9374999 V 10.583333 H 39.6875 V 15.875 h -2.645834 v 2.645833 h -2.645833 v 2.645833 H 29.104166 V 23.8125 h 5.291667 2.645833 V 21.166666 H 39.6875 v -2.645833 h 2.645833 V 7.9374999 H 39.6875 7.9374999 Z M 29.104166,21.166666 v -2.645833 h -2.645833 v 2.645833 z M 26.458333,18.520833 V 15.875 h -5.291667 v 2.645833 z m -5.291667,0 h -2.645833 v 2.645833 h 2.645833 z m -10.583333,15.875 v 2.645833 H 15.875 v -2.645833 z" />
  <path
     id="rect8408"
     style="opacity:1;fill:#00ffff;fill-opacity:0.75;fill-rule:evenodd;stroke-width:0.264999"
     d="M 7.9374999,10.583333 V 15.875 h 2.6458331 v 2.645833 h 2.645834 v 2.645833 h 5.291666 v -2.645833 h 2.645833 V 15.875 h 5.291667 v 2.645833 h 2.645833 v 2.645833 h 5.291667 v -2.645833 h 2.645833 V 15.875 H 39.6875 v -5.291667 z" />
  <path
     id="rect8817"
     style="opacity:1;fill:#099516;fill-opacity:1;fill-rule:evenodd;stroke-width:0.264999"
     d="M 0,2.6458333 V 37.041666 39.6875 h 2.6458333 v 2.645833 H 13.229167 V 39.6875 H 15.875 V 37.041666 H 5.2916666 V 2.6458333 Z" />
</svg>
