<?xml version="1.0" encoding="UTF-8" standalone="no"?>


<svg
   width="160"
   height="70"
   viewBox="0 0 42.333332 18.520834"
   version="1.1"
   id="svg5"
   shape-rendering="crispEdges"
   sodipodi:docname="hatAcc-gigabrain.svg"
   inkscape:version="1.1.2 (b8e25be833, 2022-02-05)"
   xmlns:inkscape="http://www.inkscape.org/namespaces/inkscape"
   xmlns:sodipodi="http://sodipodi.sourceforge.net/DTD/sodipodi-0.dtd"
   xmlns="http://www.w3.org/2000/svg"
   xmlns:svg="http://www.w3.org/2000/svg">
  <sodipodi:namedview
     id="namedview6"
     pagecolor="#505050"
     bordercolor="#eeeeee"
     borderopacity="1"
     inkscape:pageshadow="0"
     inkscape:pageopacity="0"
     inkscape:pagecheckerboard="0"
     showgrid="false"
     inkscape:zoom="2.01875"
     inkscape:cx="80.247678"
     inkscape:cy="160"
     inkscape:window-width="1920"
     inkscape:window-height="974"
     inkscape:window-x="-11"
     inkscape:window-y="-11"
     inkscape:window-maximized="1"
     inkscape:current-layer="svg5" />
  <defs
     id="defs2" />
  <path
     id="rect5024"
     style="fill:#5227a7;fill-opacity:1;fill-rule:evenodd;stroke-width:0.264999"
     d="M 5.2916666,0 V 2.6458333 H 2.6458333 V 5.2916666 H 0 V 15.875 h 2.6458333 v 2.645833 H 39.6875 V 15.875 h 2.645833 V 5.2916666 H 39.6875 V 2.6458333 H 37.041666 V 0 H 23.8125 V 2.6458333 H 18.520833 V 0 Z" />
  <path
     id="rect5026"
     style="fill:#57007f;fill-opacity:1;fill-rule:evenodd;stroke-width:0.264999"
     d="M 7.9374999,0 V 2.6458333 H 10.583333 V 0 Z m 2.6458331,2.6458333 v 7.9374997 h 2.645834 V 7.9374999 H 15.875 V 5.2916666 H 13.229167 V 2.6458333 Z M 15.875,7.9374999 v 2.6458331 h 2.645833 V 7.9374999 Z M 26.458333,0 v 5.2916666 h 2.645833 V 0 Z m 0,5.2916666 H 23.8125 v 2.6458333 h 2.645833 z M 31.75,7.9374999 v 2.6458331 h -2.645834 v 2.645834 h 7.9375 V 10.583333 H 34.395833 V 7.9374999 Z m 5.291666,5.2916671 V 15.875 H 39.6875 V 13.229167 Z M 2.6458333,10.583333 v 2.645834 h 2.6458333 v -2.645834 z m 2.6458333,2.645834 v 5.291666 h 2.6458333 v -5.291666 z m 15.8749994,0 V 15.875 H 23.8125 v -2.645833 z m 0,2.645833 h -2.645833 v 2.645833 h 2.645833 z" />
</svg>
