<?xml version="1.0" encoding="UTF-8" standalone="no"?>
<!-- Created with Inkscape (http://www.inkscape.org/) -->

<svg
   width="170"
   height="60"
   viewBox="0 0 44.979166 15.875"
   version="1.1"
   id="svg5"
   shape-rendering="crispEdges"
   sodipodi:docname="hatAcc-king.svg"
   inkscape:version="1.1.2 (b8e25be833, 2022-02-05)"
   xmlns:inkscape="http://www.inkscape.org/namespaces/inkscape"
   xmlns:sodipodi="http://sodipodi.sourceforge.net/DTD/sodipodi-0.dtd"
   xmlns="http://www.w3.org/2000/svg"
   xmlns:svg="http://www.w3.org/2000/svg">
  <sodipodi:namedview
     id="namedview8"
     pagecolor="#505050"
     bordercolor="#eeeeee"
     borderopacity="1"
     inkscape:pageshadow="0"
     inkscape:pageopacity="0"
     inkscape:pagecheckerboard="0"
     showgrid="false"
     inkscape:zoom="2.01875"
     inkscape:cx="90.154799"
     inkscape:cy="150.09288"
     inkscape:window-width="1920"
     inkscape:window-height="974"
     inkscape:window-x="-11"
     inkscape:window-y="-11"
     inkscape:window-maximized="1"
     inkscape:current-layer="svg5" />
  <defs
     id="defs2" />
  <path
     id="rect7473"
     style="opacity:1;fill:#ffd800;fill-opacity:1;fill-rule:evenodd;stroke-width:0.264999"
     d="M 0,0 V 2.6458333 10.583333 H 2.6458333 V 15.875 H 42.333333 v -5.291667 h 2.645833 V 2.6458333 0 H 42.333333 V 2.6458333 H 39.6875 V 7.9374999 H 37.041666 V 2.6458333 H 34.395833 V 0 H 31.75 V 2.6458333 H 29.104166 V 7.9374999 H 26.458333 V 2.6458333 H 23.8125 V 0 H 21.166666 V 2.6458333 H 18.520833 V 7.9374999 H 15.875 V 2.6458333 H 13.229167 V 0 H 10.583333 V 2.6458333 H 7.9374999 V 7.9374999 H 5.2916666 V 2.6458333 H 2.6458333 V 0 Z" />
  <path
     id="rect7581"
     style="opacity:1;mix-blend-mode:normal;fill:#0026ff;fill-opacity:1;fill-rule:evenodd;stroke-width:0.264999"
     d="m 5.2916666,10.583333 v 2.645834 h 2.6458333 v -2.645834 z m 10.5833334,0 v 2.645834 h 2.645833 v -2.645834 z m 10.583333,0 v 2.645834 h 2.645833 v -2.645834 z m 10.583333,0 v 2.645834 H 39.6875 v -2.645834 z" />
  <path
     id="rect7549"
     style="opacity:1;fill:#007f46;fill-opacity:1;fill-rule:evenodd;stroke-width:0.264999"
     d="M 2.6458333,7.9374999 V 10.583333 H 5.2916666 V 7.9374999 Z m 7.9374997,0 v 2.6458331 h 2.645834 V 7.9374999 Z m 10.583333,0 V 10.583333 H 23.8125 V 7.9374999 Z m 10.583334,0 v 2.6458331 h 2.645833 V 7.9374999 Z m 7.9375,0 v 2.6458331 h 2.645833 V 7.9374999 Z" />
  <path
     id="rect7517"
     style="opacity:1;fill:#ff0000;fill-opacity:1;fill-rule:evenodd;stroke-width:0.264999"
     d="M 0,2.6458333 V 5.2916666 H 2.6458333 V 2.6458333 Z m 10.583333,0 v 2.6458333 h 2.645834 V 2.6458333 Z m 10.583333,0 V 5.2916666 H 23.8125 V 2.6458333 Z m 10.583334,0 v 2.6458333 h 2.645833 V 2.6458333 Z m 10.583333,0 v 2.6458333 h 2.645833 V 2.6458333 Z" />
</svg>
