<?xml version="1.0" encoding="UTF-8" standalone="no"?>
<!-- Created with Inkscape (http://www.inkscape.org/) -->

<svg
   width="170"
   height="90"
   viewBox="0 0 44.979166 23.812501"
   version="1.1"
   id="svg5"
   shape-rendering="crispEdges"
   sodipodi:docname="hatAcc-egghead.svg"
   inkscape:version="1.1.2 (b8e25be833, 2022-02-05)"
   xmlns:inkscape="http://www.inkscape.org/namespaces/inkscape"
   xmlns:sodipodi="http://sodipodi.sourceforge.net/DTD/sodipodi-0.dtd"
   xmlns="http://www.w3.org/2000/svg"
   xmlns:svg="http://www.w3.org/2000/svg">
  <sodipodi:namedview
     id="namedview6"
     pagecolor="#505050"
     bordercolor="#eeeeee"
     borderopacity="1"
     inkscape:pageshadow="0"
     inkscape:pageopacity="0"
     inkscape:pagecheckerboard="0"
     showgrid="false"
     inkscape:zoom="2.01875"
     inkscape:cx="80.247678"
     inkscape:cy="150.09288"
     inkscape:window-width="1920"
     inkscape:window-height="974"
     inkscape:window-x="-11"
     inkscape:window-y="-11"
     inkscape:window-maximized="1"
     inkscape:current-layer="svg5" />
  <defs
     id="defs2" />
  <path
     id="rect7704"
     style="opacity:1;fill:#e5e0c9;fill-opacity:1;fill-rule:evenodd;stroke-width:0.264999"
     d="M 13.229167,0 V 2.6458333 H 7.9374999 V 5.2916666 H 5.2916666 V 7.9374999 H 2.6458333 V 10.583333 H 0 V 15.875 18.520833 H 2.6458333 V 15.875 h 5.2916666 v 5.291666 H 10.583333 V 23.8125 h 2.645834 V 18.520833 H 15.875 V 15.875 h 5.291666 v 2.645833 H 23.8125 v 2.645833 h 2.645833 V 15.875 h 2.645833 v 2.645833 H 31.75 V 15.875 h 5.291666 v 2.645833 H 39.6875 v 2.645833 h 2.645833 v -2.645833 h 2.645833 V 15.875 10.583333 H 42.333333 V 7.9374999 H 39.6875 V 5.2916666 H 37.041666 V 2.6458333 H 31.75 V 0 Z" />
  <path
     id="rect7754"
     style="opacity:1;fill:#908554;fill-opacity:1;fill-rule:evenodd;stroke-width:0.264999"
     d="m 10.583333,5.2916666 v 2.6458333 h 2.645834 V 5.2916666 Z m 2.645834,2.6458333 V 13.229167 H 15.875 V 7.9374999 Z M 15.875,13.229167 V 15.875 h 2.645833 v -2.645833 z m 7.9375,-7.9375004 v 5.2916664 h 2.645833 V 5.2916666 Z m 2.645833,5.2916664 V 15.875 h 2.645833 v -5.291667 z m 2.645833,0 H 31.75 V 7.9374999 h -2.645834 z m 7.9375,0 v 2.645834 h 5.291667 v -2.645834 z m 0,2.645834 H 34.395833 V 15.875 h 2.645833 z m -31.7499994,0 V 15.875 h 2.6458333 v -2.645833 z" />
</svg>
