<?xml version="1.0" encoding="UTF-8" standalone="no"?>


<svg
   width="320"
   height="320"
   viewBox="0 0 84.666665 84.666669"
   version="1.1"
   id="svg5"
   shape-rendering="crispEdges"
   xmlns="http://www.w3.org/2000/svg"
   xmlns:svg="http://www.w3.org/2000/svg">
  <defs
     id="defs2" />
  <path
     id="rect5294"
     style="fill:#808080;fill-opacity:1;fill-rule:evenodd;stroke-width:1.00157"
     d="M 80 50 L 80 60 L 90 60 L 90 70 L 100 70 L 100 80 L 80 80 L 70 80 L 70 90 L 80 90 L 80 100 L 100 100 L 100 110 L 90 110 L 70 110 L 60 110 L 60 120 L 70 120 L 70 130 L 90 130 L 90 140 L 100 140 L 100 210 L 210 210 L 220 210 L 220 60 L 210 60 L 210 50 L 100 50 L 90 50 L 80 50 z "
     transform="scale(0.26458333)" />
  <path
     id="rect5412"
     style="fill:#404040;fill-opacity:1;fill-rule:evenodd;stroke-width:1.00157"
     d="M 100 60 L 100 70 L 110 70 L 110 60 L 100 60 z M 100 90 L 100 100 L 110 100 L 110 90 L 100 90 z M 100 120 L 100 130 L 110 130 L 110 120 L 100 120 z M 140 130 L 140 140 L 130 140 L 130 160 L 140 160 L 140 170 L 150 170 L 150 180 L 160 180 L 160 190 L 170 190 L 170 180 L 180 180 L 180 170 L 190 170 L 190 160 L 200 160 L 200 140 L 190 140 L 190 130 L 140 130 z "
     transform="scale(0.26458333)" />
  <path
     id="rect5424"
     style="fill:#000000;fill-opacity:1;fill-rule:evenodd;stroke-width:1.00157"
     d="M 170 90 L 170 120 L 200 120 L 200 90 L 170 90 z M 150 140 L 150 150 L 160 150 L 160 140 L 150 140 z M 170 140 L 170 150 L 180 150 L 180 140 L 170 140 z "
     transform="scale(0.26458333)" />
  <rect
     style="fill:#000000;fill-opacity:1;fill-rule:evenodd;stroke-width:0.264999"
     id="rect1127"
     width="7.9375"
     height="7.9375"
     x="31.75"
     y="23.8125" />
  <rect
     style="fill:#ffffff;fill-opacity:1;fill-rule:evenodd;stroke-width:0.264999"
     id="rect1131"
     width="2.6458333"
     height="2.6458333"
     x="44.979168"
     y="23.8125" />
  <rect
     style="fill:#a0a0a0;fill-opacity:1;fill-rule:evenodd;stroke-width:0.264999"
     id="rect5250"
     width="7.9375"
     height="7.9375"
     x="31.75"
     y="23.8125" />
  <rect
     style="fill:#ff0000;fill-opacity:1;fill-rule:evenodd;stroke-width:0.264999"
     id="rect5154"
     width="2.6458311"
     height="2.6458311"
     x="34.395832"
     y="26.458332" />
</svg>
