<?xml version="1.0" encoding="UTF-8" standalone="no"?>


<svg
   width="320"
   height="320"
   viewBox="0 0 84.666665 84.666669"
   version="1.1"
   id="svg5"
   shape-rendering="crispEdges"
   xmlns="http://www.w3.org/2000/svg"
   xmlns:svg="http://www.w3.org/2000/svg">
  <defs
     id="defs2" />
  <path
     id="rect1179"
     style="fill:#5227a7;fill-opacity:1;fill-rule:evenodd;stroke-width:0.969766"
     d="M 130,40 V 50 H 110 V 60 H 100 V 210 H 220 V 60 H 210 V 50 H 190 V 40 Z"
     transform="scale(0.26458333)" />
  <path
     id="rect1476"
     style="fill:#ffffff;fill-opacity:1;fill-rule:evenodd;stroke-width:1.00157"
     d="m 130,190 v 10 h 20 v -10 z m 20,10 v 10 h 30 v -10 z m 30,0 h 10 v -10 h -10 z"
     transform="scale(0.26458333)" />
  <path
     id="rect1329"
     style="fill:#00ffff;fill-opacity:1;fill-rule:evenodd;stroke-width:1.00157"
     d="m 100,180 v 10 h 10 v -10 z m 10,10 v 10 h 10 v -10 z m 10,10 v 10 h 10 v -10 z m 10,10 v 10 h 20 v -10 z m 20,10 v 10 h 30 v -10 z m 30,0 h 10 v -10 h -10 z m 10,-10 h 10 v -10 h -10 z m 10,-10 h 10 v -10 h -10 z m 10,-10 h 10 v -10 h -10 z"
     transform="scale(0.26458333)" />
  <path
     id="rect1289"
     style="fill:#b200ff;fill-opacity:1;fill-rule:evenodd;stroke-width:1.00157"
     d="m 100,160 v 20 h 10 v -20 z m 10,20 v 10 h 10 v -10 z m 10,10 v 10 h 10 v -10 z m 10,10 v 10 h 20 v -10 z m 20,10 v 10 h 30 v -10 z m 30,0 h 10 v -10 h -10 z m 10,-10 h 10 v -10 h -10 z m 10,-10 h 10 v -10 h -10 z m 10,-10 h 10 v -20 h -10 z"
     transform="scale(0.26458333)" />
  <path
     id="rect8494"
     style="fill:#f2a52b;fill-opacity:1;fill-rule:evenodd;stroke-width:1.00157"
     d="m 140,130 v 10 h -10 v 20 h 10 v 10 h 10 v 10 h 10 v 10 h 10 v -10 h 10 v -10 h 10 v -10 h 10 v -20 h -10 v -10 z"
     transform="scale(0.26458333)" />
  <path
     id="rect12247"
     style="fill:#7f3300;fill-opacity:1;fill-rule:evenodd;stroke-width:1.00157"
     d="m 150,140 v 10 h 10 v -10 z m 20,0 v 10 h 10 v -10 z"
     transform="scale(0.26458333)" />
  <path
     id="rect12380"
     style="fill:#000000;fill-opacity:1;fill-rule:evenodd;stroke-width:1.00157"
     d="m 120,90 v 30 h 30 V 90 Z m 50,0 v 30 h 30 V 90 Z"
     transform="scale(0.26458333)" />
</svg>
