<?xml version="1.0" encoding="UTF-8" standalone="no"?>


<svg
   width="139.99998"
   height="120"
   viewBox="0 0 37.041662 31.750001"
   version="1.1"
   id="svg5"
   shape-rendering="crispEdges"
   sodipodi:docname="body-tornadoshirt.svg"
   inkscape:version="1.1.2 (b8e25be833, 2022-02-05)"
   xmlns:inkscape="http://www.inkscape.org/namespaces/inkscape"
   xmlns:sodipodi="http://sodipodi.sourceforge.net/DTD/sodipodi-0.dtd"
   xmlns="http://www.w3.org/2000/svg"
   xmlns:svg="http://www.w3.org/2000/svg">
  <sodipodi:namedview
     id="namedview6"
     pagecolor="#505050"
     bordercolor="#eeeeee"
     borderopacity="1"
     inkscape:pageshadow="0"
     inkscape:pageopacity="0"
     inkscape:pagecheckerboard="0"
     showgrid="false"
     inkscape:zoom="2.01875"
     inkscape:cx="69.845201"
     inkscape:cy="-40.123839"
     inkscape:window-width="1920"
     inkscape:window-height="974"
     inkscape:window-x="-11"
     inkscape:window-y="-11"
     inkscape:window-maximized="1"
     inkscape:current-layer="svg5" />
  <defs
     id="defs2" />
  <path
     id="rect932"
     style="fill:#000000;fill-rule:evenodd;stroke-width:0.276782"
     d="M 0,0 H 37.041664 V 31.749998 H 0 Z" />
  <path
     id="rect1026"
     style="fill:#69feba;fill-opacity:1;fill-rule:evenodd;stroke-width:0.324556"
     d="M 18.520833,0 V 2.6458333 H 15.875 v 2.6458333 h -2.645834 v 2.6458333 h -2.645833 v 2.6458331 2.645833 H 7.9374996 V 5.2916666 H 5.2916663 V 7.9374999 H 2.645833 V 15.875 h 2.6458333 v 2.645833 h 2.6458333 v 2.645833 H 10.583333 V 23.8125 H 13.229166 15.875 v 2.645833 H 7.9374996 v 2.645833 H 10.583333 V 31.75 h 7.9375 v -2.645834 h 2.645833 v -2.645833 h 2.645833 V 23.8125 h 2.645834 v -2.645834 -2.645833 h 2.645833 v 7.9375 h 2.645833 V 23.8125 h 2.645834 V 15.875 H 31.749999 V 13.229166 H 29.104166 V 10.583333 H 26.458333 V 7.9374999 H 21.166666 V 5.2916666 h 7.9375 V 2.6458333 H 26.458333 V 0 Z m 10.583333,5.2916666 v 2.6458333 h 2.645833 V 5.2916666 Z m 0,21.1666664 h -2.645833 v 2.645833 h 2.645833 z m -21.1666664,0 V 23.8125 H 5.2916663 v 2.645833 z m 0,-21.1666664 H 10.583333 V 2.6458333 H 7.9374996 Z M 15.875,10.583333 h 5.291666 v 2.645833 h 2.645833 v 5.291667 h -2.645833 v 2.645833 H 15.875 V 18.520833 H 13.229166 V 13.229166 H 15.875 Z" />
</svg>
