<?xml version="1.0" encoding="UTF-8" standalone="no"?>
<!-- Created with Inkscape (http://www.inkscape.org/) -->

<svg
   width="140"
   height="109.99999"
   viewBox="0 0 37.041666 29.104165"
   version="1.1"
   id="svg5"
   shape-rendering="crispEdges"
   sodipodi:docname="bodyAcc-OPshirt.svg"
   inkscape:version="1.1.2 (b8e25be833, 2022-02-05)"
   xmlns:inkscape="http://www.inkscape.org/namespaces/inkscape"
   xmlns:sodipodi="http://sodipodi.sourceforge.net/DTD/sodipodi-0.dtd"
   xmlns="http://www.w3.org/2000/svg"
   xmlns:svg="http://www.w3.org/2000/svg">
  <sodipodi:namedview
     id="namedview8"
     pagecolor="#505050"
     bordercolor="#eeeeee"
     borderopacity="1"
     inkscape:pageshadow="0"
     inkscape:pageopacity="0"
     inkscape:pagecheckerboard="0"
     showgrid="false"
     fit-margin-top="0"
     fit-margin-left="0"
     fit-margin-right="0"
     fit-margin-bottom="0"
     inkscape:zoom="2.01875"
     inkscape:cx="69.845201"
     inkscape:cy="-50.03096"
     inkscape:window-width="1920"
     inkscape:window-height="974"
     inkscape:window-x="-11"
     inkscape:window-y="-11"
     inkscape:window-maximized="1"
     inkscape:current-layer="svg5" />
  <defs
     id="defs2" />
  <path
     id="rect932"
     style="fill:#ff0420;fill-opacity:1;fill-rule:evenodd;stroke-width:0.264999"
     d="M 3e-7,0 H 37.041664 V 29.104164 H 3e-7 Z" />
  <path
     id="rect1080"
     style="fill:#d40000;fill-opacity:1;fill-rule:evenodd;stroke-width:0.264999"
     d="M 17.197916,5.2916659 V 10.583333 H 2.6458333 v 2.645833 H 17.197916 v 3.96875 H 15.875 v 1.322916 h 1.322916 v 2.645834 H 15.875 v 1.322916 h 1.322916 v 3.96875 h 2.645834 v -3.96875 h 1.322916 V 21.166666 H 19.84375 v -2.645834 h 1.322916 V 17.197916 H 19.84375 v -3.96875 H 34.395833 V 10.583333 H 19.84375 V 5.2916659 Z m 17.197917,5.2916671 h 2.645833 V 7.9374992 h -2.645833 z m -13.229167,7.937499 v 1.322917 h 9.260417 v -1.322917 z m 9.260417,0 H 31.75 v -1.322916 h -1.322917 z m -9.260417,3.96875 v 1.322917 h 7.9375 v -1.322917 z m 7.9375,0 h 1.322917 v -1.322916 h -1.322917 z m -9.260416,3.96875 v 1.322917 h 6.614583 v -1.322917 z m 6.614583,0 h 1.322917 v -1.322916 h -1.322917 z m -9.260417,0 h -6.614583 v 1.322917 h 6.614583 z m -6.614583,0 V 25.135416 H 9.2604166 v 1.322916 z M 15.875,22.489582 H 7.9374999 v 1.322917 H 15.875 Z m -7.9375001,0 V 21.166666 H 6.6145833 v 1.322916 z M 15.875,18.520832 H 6.6145833 v 1.322917 H 15.875 Z m -9.2604167,0 V 17.197916 H 5.2916666 v 1.322916 z m -3.96875,-7.937499 V 7.9374992 H 0 v 2.6458338 z" />
  <path
     id="rect1314"
     style="fill:#ffffff;fill-opacity:1;fill-rule:evenodd;stroke-width:0.264999"
     d="M 5.2916666,2.6458326 V 5.2916659 10.583333 H 7.9374999 V 5.2916659 H 13.229167 V 10.583333 H 15.875 V 5.2916659 2.6458326 Z m 15.8749994,0 V 5.2916659 10.583333 H 23.8125 29.104166 31.75 V 2.6458326 H 29.104166 Z M 23.8125,5.2916659 h 5.291666 V 7.9374992 H 23.8125 Z M 5.2916666,13.229166 v 2.645833 H 7.9374999 15.875 V 13.229166 H 7.9374999 Z m 15.8749994,0 v 2.645833 H 23.8125 v -2.645833 z" />
  <path
     id="rect1346"
     style="fill:#b3b3b3;fill-opacity:1;fill-rule:evenodd;stroke-width:0.264999"
     d="m 5.2916666,10.583333 v 2.645833 h 2.6458333 v -2.645833 z m 7.9375004,0 v 2.645833 H 15.875 v -2.645833 z m 7.937499,0 v 2.645833 H 23.8125 v -2.645833 z" />
</svg>
