<?xml version="1.0" encoding="UTF-8" standalone="no"?>
<!-- Created with Inkscape (http://www.inkscape.org/) -->

<svg
   width="140"
   height="110"
   viewBox="0 0 37.041666 29.104167"
   version="1.1"
   id="svg5"
   shape-rendering="crispEdges"
   sodipodi:docname="body-FoPshirt-black.svg"
   inkscape:version="1.1.2 (b8e25be833, 2022-02-05)"
   xmlns:inkscape="http://www.inkscape.org/namespaces/inkscape"
   xmlns:sodipodi="http://sodipodi.sourceforge.net/DTD/sodipodi-0.dtd"
   xmlns="http://www.w3.org/2000/svg"
   xmlns:svg="http://www.w3.org/2000/svg">
  <sodipodi:namedview
     id="namedview7"
     pagecolor="#505050"
     bordercolor="#eeeeee"
     borderopacity="1"
     inkscape:pageshadow="0"
     inkscape:pageopacity="0"
     inkscape:pagecheckerboard="0"
     showgrid="false"
     inkscape:zoom="2.01875"
     inkscape:cx="69.845201"
     inkscape:cy="-50.03096"
     inkscape:window-width="1920"
     inkscape:window-height="974"
     inkscape:window-x="-11"
     inkscape:window-y="-11"
     inkscape:window-maximized="1"
     inkscape:current-layer="svg5" />
  <defs
     id="defs2" />
  <path
     id="rect932-4-8"
     style="fill:#170038;fill-opacity:1;fill-rule:evenodd;stroke-width:0.264999"
     d="M 0,0 V 29.104166 H 37.041666 V 0 Z" />
  <path
     id="rect15122-7"
     style="fill:#b3b3b3;fill-opacity:1;fill-rule:evenodd;stroke-width:0.229496"
     d="M 9.2604166,2.6458333 V 3.96875 H 6.6145833 V 5.2916666 H 3.96875 V 7.9374999 H 2.6458333 V 14.552083 H 5.2916666 V 15.875 h 1.3229167 v 2.645833 h 2.6458333 v 1.322917 h 1.3229164 v 1.322916 h 1.322917 v 1.322917 h 1.322917 V 23.8125 H 15.875 v 1.322916 h 1.322916 v 1.322917 h 2.645834 v -1.322917 h 1.322916 V 23.8125 H 23.8125 v -1.322917 h 1.322916 v -1.322917 h 1.322917 V 19.84375 h 1.322917 v -1.322917 h 2.645833 V 15.875 H 31.75 v -1.322917 h 2.645833 V 7.9374999 H 33.072916 V 5.2916666 H 30.427083 V 3.96875 H 27.78125 V 2.6458333 Z" />
  <path
     id="rect15382"
     style="fill:#44128d;fill-opacity:1;fill-rule:evenodd;stroke-width:0.264999"
     d="M 7.9374999,5.2916666 V 17.197916 H 9.2604166 V 10.583333 H 13.229167 V 9.2604166 H 9.2604166 V 6.6145833 H 14.552083 V 5.2916666 H 9.2604166 Z m 15.8750001,0 V 6.6145833 17.197916 h 1.322916 v -6.614583 h 3.96875 V 9.2604166 h -3.96875 V 6.6145833 h 3.96875 V 5.2916666 Z m 5.291666,1.3229167 v 2.6458333 h 1.322917 V 6.6145833 Z M 15.875,9.2604166 v 1.3229164 h 5.291666 V 9.2604166 Z m 5.291666,1.3229164 V 15.875 h 1.322917 v -5.291667 z m 0,5.291667 H 15.875 v 1.322916 h 5.291666 z m -5.291666,0 V 10.583333 H 14.552083 V 15.875 Z" />
</svg>
