<?xml version="1.0" encoding="UTF-8" standalone="no"?>


<svg
   width="70"
   height="160"
   viewBox="0 0 18.520833 42.333334"
   version="1.1"
   id="svg5"
   shape-rendering="crispEdges"
   sodipodi:docname="right-wing-accessory-cocktail.svg"
   inkscape:version="1.1.2 (b8e25be833, 2022-02-05)"
   xmlns:inkscape="http://www.inkscape.org/namespaces/inkscape"
   xmlns:sodipodi="http://sodipodi.sourceforge.net/DTD/sodipodi-0.dtd"
   xmlns="http://www.w3.org/2000/svg"
   xmlns:svg="http://www.w3.org/2000/svg">
  <sodipodi:namedview
     id="namedview14"
     pagecolor="#505050"
     bordercolor="#eeeeee"
     borderopacity="1"
     inkscape:pageshadow="0"
     inkscape:pageopacity="0"
     inkscape:pagecheckerboard="0"
     showgrid="false"
     inkscape:zoom="2.01875"
     inkscape:cx="-79.752322"
     inkscape:cy="119.87616"
     inkscape:window-width="1920"
     inkscape:window-height="974"
     inkscape:window-x="-11"
     inkscape:window-y="-11"
     inkscape:window-maximized="1"
     inkscape:current-layer="svg5" />
  <defs
     id="defs2" />
  <path
     id="rect14644"
     style="fill:#00ff00;fill-rule:evenodd;stroke-width:0.264999"
     d="M 7.937501,7.937501 H 5.291668 v 2.645833 h 2.645833 z" />
  <path
     id="rect12309"
     style="fill:#00ff00;fill-opacity:1;fill-rule:evenodd;stroke-width:0.264999"
     d="m 7.937501,7.9375 v 5.291667 H 5.291667 V 7.9375 Z m 0,5.291667 h 2.645833 v 7.9375 H 7.937501 Z m 2.645833,7.9375 h 2.645833 v 5.291666 h -2.645833 z" />
  <path
     id="rect12241"
     style="fill:#00ff00;fill-rule:evenodd;stroke-width:0.264999"
     d="M 5.291668,2.645833 H 2.645835 V 7.9375 h 2.645833 z" />
  <path
     id="rect12083"
     style="fill:#f2a52b;fill-opacity:0.72;fill-rule:evenodd;stroke-width:0.264999"
     d="M 13.229167,10.583333 V 15.875 H 15.875 v 10.583333 h -2.645833 v 2.645834 h -7.9375 V 26.458333 H 2.645834 V 15.875 h 2.645833 v -5.291667 z" />
  <path
     id="rect17103"
     style="fill:#784421;fill-rule:evenodd;stroke-width:0.264999"
     d="M 10.583334,7.937501 H 7.9375 v 5.291666 h 2.645834 z" />
  <path
     id="rect11774"
     style="fill:#ffffff;fill-opacity:0.57;fill-rule:evenodd;stroke-width:0.264999"
     d="m 15.875,7.9375 v 7.9375 h 2.645834 V 26.458333 H 15.875 v 2.645834 H 13.229167 V 31.75 h -2.645833 v 5.291666 h 2.645833 V 39.6875 H 15.875 v 2.645833 H 2.645834 V 39.6875 H 5.291667 V 37.041666 H 7.937501 V 31.75 H 5.291667 V 29.104167 H 2.645834 V 26.458333 H 1e-6 V 15.875 H 2.645834 V 7.9375 Z" />
  <path
     id="rect11835"
     style="fill:#ffffff;fill-opacity:0.57;fill-rule:evenodd;stroke-width:0.264999"
     d="M 18.520834,7.937499 H 0 v 2.645833 h 18.520834 z" />
  <path
     id="rect12541"
     style="fill:#ffffff;fill-opacity:0.57;fill-rule:evenodd;stroke-width:0.264999"
     d="m 18.520834,7.9375 v 2.645833 H 15.875 V 7.9375 Z m -15.875,0 v 2.645833 H 10e-7 V 7.9375 Z" />
  <path
     id="rect17101"
     style="fill:#784421;fill-rule:evenodd;stroke-width:0.264999"
     d="M 13.229167,5.291667 H 10.583334 V 7.9375 h 2.645833 z" />
  <path
     id="rect16981"
     style="fill:#ff00ff;fill-opacity:1;fill-rule:evenodd;stroke-width:0.264999"
     d="m 15.875,0 v 2.645834 h 2.645834 V 7.9375 H 15.875 V 5.291667 H 13.229167 V 2.645834 H 10.583334 V 0 h 2.645833 z" />
</svg>
