<?xml version="1.0" encoding="UTF-8"?><svg id="Layer_2" xmlns="http://www.w3.org/2000/svg" viewBox="0 0 115.3 184.44"><defs><style>.cls-1{fill:#2b1221;}.cls-2{fill:#6d3de3;}.cls-3{fill:#efbe63;}</style></defs><g id="Chibi_Birb_Image"><path class="cls-1" d="M12.09,136.9c-6.03-.19-11.65-6.11-12.05-12.25-.43-6.6,2.09-11.85,7.02-16.07,2.91-2.5,6.15-4.5,9.56-6.17,.23-.57-.14-.86-.44-1.16C.32,85.08,1.61,60.91,17.89,44.57c10.55-10.6,23.49-15.8,38.46-15.83,1.7,0,3.4,0,5.18,0,.37-9.44,3.97-17.12,10.93-23.12C76.72,1.95,81.65-.44,87.38,.07c8.63,.77,14.41,7.42,14.78,16.39,.19,4.61-.66,9.01-2.49,13.46,2.7,.1,5.04,.64,7.17,1.9,4.03,2.38,5.53,6.23,4.14,10.71-1.54,4.99-5.36,7.83-9.66,10.2-.78,.43-1.63,.75-2.63,1.21,5.82,15.17,2.76,28.86-7.03,41.59,8.74,2.95,14.83,8.8,19.17,16.54,3.61,6.41,5.48,13.22,3.87,20.66-.7,3.23-2.45,5.81-4.94,8.08,.62,.94,1.24,1.81,1.78,2.72,2.83,4.73,1.42,9.51-3.59,11.71-1.38,.61-2.35,1.44-3.34,2.57-3.52,4.03-8.08,4-12.78,2.76-2.49-.66-4.59-2.08-6.42-3.97-4.55,3.41-9.4,6.06-14.64,7.94-.89,.32-1.34,.77-1.32,1.76,.04,2.35,.01,4.7,.01,7.3,2.05-.08,4.1-.54,6.13,.03,1.14,.32,2.1,.76,2.02,2.14-.09,1.46-1.04,2.01-2.38,2.07-3.71,.15-7.38,.22-11.01,1.4-2.63,.86-4.42,2.76-6.61,4.14-1.17,.74-2.34,1.64-3.71,.57-1.28-1.01-.63-2.28,.07-3.69-2.43,.19-4.56,.39-6.7,.5-1.39,.07-2.91,.08-3.11-1.8-.19-1.78,1.03-2.19,2.56-2.45,5.99-1,12-1.87,18.08-3.5,.17-2.07,.34-4.2,.55-6.72-10.33,1.99-20.33,1.84-30.09-1.97-1.01,2.25-.51,4.49-1.18,6.66,1.57,.97,3.25,.55,4.81,.75,1.54,.2,3.04,.56,2.74,2.57-.26,1.77-1.66,1.95-3.13,1.76-2.25-.29-4.51-.49-6.72-.97-1.22-.26-2.14,.11-3.08,.64-2.61,1.45-5.21,2.92-7.8,4.4-1,.57-2.05,.91-3.08,.23-1.14-.75-.87-1.87-.48-3.06-1.37-.29-2.67-.03-3.98,.27-1.37,.31-2.64,.19-3.03-1.43-.41-1.67,.56-2.67,2.07-2.93,3.39-.59,6.81-1.02,10.22-1.51,.36-.05,.72-.07,1.08-.13,6.43-1.17,6.39-1.17,7.05-7.67,.12-1.15-.06-1.82-1.09-2.44-9.37-5.61-15.31-13.72-17.6-24.58Z"/><path class="cls-2" d="M65.18,33.58c.59-1.83,.88-3.76,1.04-5.76,.74-8.84,4.52-16.03,12.21-20.75,4.43-2.72,9.26-3.73,13.86-.56,4.78,3.3,5.82,8.46,5.2,13.82-.72,6.2-3.31,11.66-7.9,16.06-.93,.89-2.52,2.07-1.1,3.32,1.16,1.02,3.18,1.27,4.47-.13,1.25-1.35,2.75-2.34,4.12-3.52,2.74-2.35,6-2.17,8.6,.32,1.95,1.87,1.81,4.85-.44,7.62-1.99,2.46-4.57,4.12-7.5,5.27-.67,.26-1.39,.45-2.02,.79-3.21,1.72-3.18,1.79-1.72,5.13,5.6,12.84,3.1,24.63-4.71,35.7-.89,1.26-1.9,2.44-2.42,3.92-.63,1.77-.43,3.14,1.51,4.01,2.9,1.3,5.56,3.04,8.26,4.71,8.52,5.27,12.69,13.29,13.99,22.85,.59,4.33-.27,8.81-4.69,11.08-4.36,2.24-8.58,1.27-12.47-1.69-3.79-2.89-7.18-6.11-9.71-10.2-.88-1.42-2.12-2.59-3.78-1.4-1.61,1.15-.93,2.75-.06,4.12,2.87,4.51,6.48,8.29,10.97,11.21,.68,.44,1.35,.88,2.09,1.36-.58,2.2-2.13,3.65-3.41,5.24-13.35,16.5-38.61,21.79-56.74,11.76-10.43-5.77-16.15-14.84-16.68-26.7-.36-8.12,2.55-15.51,7.18-22.17,2.9-4.16,2.82-5.29-1.2-8.67-5.82-4.89-9.89-10.89-11.59-18.32-2.88-12.56,.88-23.5,9.32-32.66,11.31-12.28,25.64-17.27,42.25-15.7,.97,.09,1.97,.41,3.06-.07Z"/><path class="cls-1" d="M51.44,81.39c-.82,6.49-3.63,12.5-10.17,16.05-4.39,2.38-8.44,1.29-11.56-2.7-.92-1.18-1.81-1.99-3.42-2.27-1.93-.34-2.9-1.95-3.32-3.9-2.02-9.42,6.05-19.31,16.04-20.03,9.73-.69,12.14,5.66,12.43,12.85Z"/><path class="cls-3" d="M46.7,81.07c-.26,4.38-2.39,8.46-6.31,11.5-2.85,2.21-5.29,1.75-7.42-1.24-1.17-1.64-2.13-3.39-4.59-3.25-.95,.06-1.01-.85-1.12-1.58-1.03-7.22,7.63-15.36,14.7-13.82,2.81,.61,4.68,3.68,4.73,8.37Z"/><path class="cls-1" d="M64.03,67.62c0,2.13-1.49,3.63-3.58,3.61-1.85-.02-3.46-1.68-3.28-3.6,.2-2.05,1.33-3.35,3.51-3.41,2.08-.06,3.36,1.27,3.35,3.4Z"/><path class="cls-1" d="M24.6,67.36c-1.89-.19-3.13-1.15-3.14-3.07-.01-2,1.15-3.26,3.19-3.26,2.08,0,3.16,1.36,3.14,3.31-.02,1.93-1.37,2.81-3.18,3.02Z"/><path class="cls-2" d="M19.16,106.48c-5,7.76-7.85,16.1-7.68,25.37-5.34-.99-8.09-6.2-6.64-12.08,.87-3.53,3.03-6.15,5.74-8.39,2.51-2.09,5.14-4,8.58-4.89Z"/><path class="cls-2" d="M88.96,153.63c3.1-3.02,5.91-6.32,8.2-10.03,.46-.74,1.05-.85,1.84-.8,1.36,.1,2.74,.25,4.08,.08,1.77-.22,2.86,.44,3.85,1.85,2.53,3.58,2.04,5.32-2.14,6.88-1.04,.39-1.95,.89-2.63,1.83-3.29,4.56-9.3,4.72-13.2,.18Z"/></g></svg>