<?xml version="1.0" encoding="UTF-8"?><svg id="Layer_2" xmlns="http://www.w3.org/2000/svg" viewBox="0 0 201.41 114.28"><defs><style>.cls-1{fill:#f5f4ea;}.cls-2{fill:#ecbc63;}.cls-3{fill:#2d1424;}.cls-4{fill:#ccdfe0;}.cls-5{fill:#6d3de3;}.cls-6{fill:#6c3ce0;}.cls-7{fill:#291420;}</style></defs><g id="Exhausted_Chibi_Birb_Image"><g><path class="cls-5" d="M46.38,94.99c1.53-1.8,4.28-2.83,4.19-5.83,.42,.11,.67,.09,.75,.2,4.53,5.89,10.66,4.1,14.73,.45,3.46-3.11,5.87-6.85,6.94-11.46,2.31-9.99-4.31-16.76-14.34-14.57-9.59,2.09-15.25,10.97-13.05,20.76-2.22,.43-4.42,.37-6.64,.1-1.61-.19-2.54-1.04-3.1-2.6-5.14-14.19-2.02-26.89,8.03-37.52,12.01-12.69,27.09-16.92,44.25-13.32,1.89,.4,2.96,.24,3.58-1.94,.94-3.3,1.04-6.79,2.57-9.97,2.64-5.49,6.31-9.96,11.81-12.73,4.74-2.39,9.68-3.22,14.12,.3,4.74,3.76,5.28,9.14,4.05,14.65-1.25,5.63-4.08,10.45-8.51,14.26-.28,.24-.57,.46-.81,.73-.62,.68-1.3,1.5-.76,2.39,.64,1.03,1.82,.82,2.7,.38,1.87-.92,3.68-1.93,5.62-2.72,1.69-.68,3.29-.77,5.03-.38,3.85,.84,5.5,4.33,3.44,7.68-2.12,3.43-5.18,5.71-8.98,7.14-4.84,1.82-4.83,2.05-4.06,7.25,.33,2.24,.41,4.54-.12,6.77-.44,1.82,.23,3.05,1.75,3.84,1.51,.78,2.34-.17,3.41-1.24,2.49-2.48,5.93-3.01,9.22-3.6,5.05-.91,10.13-1.06,15.07,.6,6.49,2.18,8.45,7.37,5.05,13.32-3.14,5.48-8.52,7.94-14.01,10.23-1.65,.69-4.42,.82-3.43,3.48,.92,2.47,3.43,1.63,5.23,.9,6.92-2.77,13.41-6.19,16.87-13.35,4-8.28,.8-16.08-7.97-18.87-7.79-2.48-15.58-1.69-23.27,.78-.86,.28-1.72,.58-2.58,.85-.07,.02-.17-.05-.74-.22,0-1.87,0-3.9,0-5.93,0-1.27,1.03-1.29,1.87-1.58,3.12-1.1,5.98-2.7,8.32-5.04,4.51-4.51,4.79-8.88,1.03-15.06,6.13-1.56,12.2-1.82,18.33-.48,1.86,.41,3.67,1.02,5.52,1.46,3.25,.77,4.48-.05,4.93-3.38,.64-4.79,2.25-9.15,5.38-12.88,.52-.62,1.1-1.21,1.75-1.69,1.2-.89,2.32-1.06,3.04,.63,1,2.32,2.61,2.63,4.57,1.23,1.58-1.13,3.22-1.82,5.05-.77,1.97,1.14,1.71,3.18,1.36,4.89-1.38,6.68-4.59,12.4-9.86,16.79-3.08,2.56-3.3,3.41-.85,6.66,13.36,17.75,7.99,43.36-11.81,55.21-13.63,8.16-27.6,8.72-41.54,.59-3.64-2.12-6.69-4.99-9.3-8.29-1.31-1.65-2.24-1.99-4.13-.36-10.48,9-22.73,12.51-36.42,11.02-8-.87-15.33-3.64-21.92-8.27-.49-.35-1.16-.57-1.37-1.45Z"/><path class="cls-6" d="M49.58,86.9l-.08,.08,.08-.08c-.23-.45-.53-.59-1.08-.14,.39,.1,.68,.17,.97,.25h0c.1,.21,.11,.62,.48,.21l-.37-.32Z"/><path class="cls-7" d="M30.79,81.78c-8.12-26.83,11.86-50.42,36.21-55.43,5.58-1.15,11.13-1.43,16.76-.64,1.24,.17,2.5,.21,4,.32,.62-5,2.19-9.51,4.98-13.51C97.46,5.78,103.46,.94,111.98,.09c8.68-.87,15.84,4.86,17.14,13.52,.72,4.81-.13,9.39-1.79,13.87-.28,.75-.61,1.49-1.23,3,11.03-3.92,21.65-4.66,32.48-.9,.56-4.98,2.35-8.99,4.98-12.66,1.23-1.71,2.66-3.24,4.5-4.3,2.34-1.35,4.67-1.45,6.82,.4,.73,.63,1.33,.97,2.41,.61,7.25-2.41,12.82,2.8,10.95,10.96-1.49,6.47-3.87,10.62-10.54,18.64,1.04,1.72,2.16,3.46,3.18,5.25,2.08,3.66,3.49,7.59,4.24,11.72,1.19,6.55,3.59,12.68,6.35,18.82,1.27-.26,2.65-1.12,3.68,.35,.91,1.28,.21,2.44-.42,3.54-1.71,2.99,.97,5.03,1.28,7.48,.82,.12,1.04-.3,1.32-.63,.91-1.08,2-1.73,3.28-.73,1.14,.89,.96,2.19,.23,3.19-1.19,1.63-1.29,3.77-2.73,5.26-.72,.75-.24,1.75-.14,2.62,.41,3.51,.9,7.01,1.34,10.52,.18,1.46,.02,2.89-1.74,3.15-1.91,.28-2.46-1-2.61-2.67-.21-2.24-.55-4.46-.88-7.06-2.07,1.92-2.84,4.24-4.02,6.3-.45,.79-.79,1.63-1.24,2.42-.71,1.25-1.8,1.92-3.18,1.26-1.39-.66-1.53-1.98-.98-3.28,.78-1.83,1.71-3.6,2.65-5.57-2.65-1.86-1.06-4.82-1.61-8.06-1.64,2.86-2.98,5.16-4.27,7.48-.83,1.48-1.94,2.71-3.67,1.79-1.94-1.03-1.31-2.72-.44-4.24,2.26-3.93,4.29-8.03,6.89-11.72,2.36-3.33,.75-6.45,.49-9.82-6.14,16.17-16.98,27.26-33.82,31.53-16.92,4.29-31.57-.24-43.68-12.72-21.46,14.29-42.8,13.59-64.3-.16-1.81,5.86-5.04,10.18-10.57,12.55-10.08,4.32-23.09,1.01-29.18-7.56-3.49-4.91-4.16-10.22-1.5-15.68,2.63-5.42,7.43-7.37,13.15-7.69,5.22-.29,10.3,.64,15.38,1.6,.28-.03,.57-.06,.85-.09l-.22-.62Zm18.68,5.23c.1,.22,.11,.62,.48,.21l-.37-.32c-.23-.45-.53-.59-1.08-.14,.39,.1,.68,.17,.97,.25Zm-3.08,7.97c.21,.88,.88,1.11,1.37,1.45,6.6,4.63,13.92,7.4,21.92,8.27,13.69,1.5,25.94-2.01,36.42-11.02,1.89-1.62,2.82-1.29,4.13,.36,2.61,3.3,5.66,6.17,9.3,8.29,13.94,8.13,27.91,7.57,41.54-.59,19.8-11.85,25.17-37.46,11.81-55.21-2.45-3.26-2.23-4.1,.85-6.66,5.27-4.39,8.48-10.11,9.86-16.79,.35-1.71,.62-3.75-1.36-4.89-1.82-1.05-3.46-.36-5.05,.77-1.96,1.4-3.57,1.09-4.57-1.23-.73-1.69-1.84-1.52-3.04-.63-.65,.48-1.23,1.07-1.75,1.69-3.13,3.73-4.73,8.09-5.38,12.88-.45,3.33-1.67,4.15-4.93,3.38-1.85-.44-3.66-1.05-5.52-1.46-6.12-1.34-12.2-1.09-18.33,.48,3.76,6.18,3.48,10.55-1.03,15.06-2.34,2.34-5.19,3.94-8.32,5.04-.83,.29-1.87,.31-1.87,1.58,0,2.03,0,4.07,0,5.93,.57,.18,.67,.25,.74,.22,.86-.28,1.72-.58,2.58-.85,7.68-2.47,15.48-3.25,23.27-.78,8.77,2.79,11.97,10.59,7.97,18.87-3.46,7.16-9.95,10.57-16.87,13.35-1.8,.72-4.31,1.56-5.23-.9-.99-2.66,1.78-2.79,3.43-3.48,5.49-2.29,10.88-4.75,14.01-10.23,3.41-5.95,1.45-11.14-5.05-13.32-4.95-1.66-10.02-1.51-15.07-.6-3.29,.59-6.73,1.12-9.22,3.6-1.07,1.07-1.9,2.02-3.41,1.24-1.53-.79-2.19-2.02-1.75-3.84,.53-2.23,.45-4.53,.12-6.77-.77-5.19-.78-5.42,4.06-7.25,3.8-1.43,6.86-3.71,8.98-7.14,2.07-3.35,.41-6.84-3.44-7.68-1.75-.38-3.35-.3-5.03,.38-1.95,.79-3.76,1.8-5.62,2.72-.89,.44-2.07,.66-2.7-.38-.55-.89,.14-1.71,.76-2.39,.24-.27,.53-.49,.81-.73,4.42-3.81,7.25-8.64,8.51-14.26,1.23-5.51,.69-10.89-4.05-14.65-4.44-3.51-9.38-2.69-14.12-.3-5.5,2.77-9.17,7.23-11.81,12.73-1.53,3.18-1.64,6.67-2.57,9.97-.62,2.18-1.68,2.33-3.58,1.94-17.16-3.6-32.23,.63-44.25,13.32-10.06,10.63-13.17,23.33-8.03,37.52,.56,1.56,1.5,2.41,3.1,2.6,2.22,.27,4.42,.33,6.64-.1-2.2-9.8,3.46-18.67,13.05-20.76,10.03-2.19,16.65,4.58,14.34,14.57-1.06,4.61-3.48,8.35-6.94,11.46-4.07,3.65-10.2,5.44-14.73-.45-.08-.11-.33-.1-.75-.2,.08,3-2.66,4.04-4.19,5.83Zm144.26-4.68c-.63,3.59-.33,6.59-.32,9.69,3.36-2.89,3.19-5.88,.32-9.69Z"/><path class="cls-3" d="M91.51,80.99c-3.05-.56-6.21-.92-9.14-2.22-1.26-.56-2.42-1.26-3.3-2.33-.88-1.08-1.22-2.33-.18-3.43,1.05-1.11,2.09-.56,3.08,.32,2.82,2.51,6.44,2.64,9.9,3.21,1.54,.25,3.03,.51,2.93,2.44-.11,2-1.71,2.02-3.29,2.02Z"/><path class="cls-3" d="M54.79,62.6c-3.58-1.03-6.9-2.55-9.21-5.65-.77-1.03-.68-2.28,.43-3.14,1.08-.84,2.03-.36,2.83,.55,1.85,2.12,4.44,3.01,6.89,4.14,1.05,.49,1.93,1.18,1.64,2.47-.29,1.26-1.29,1.64-2.56,1.63Z"/><path class="cls-4" d="M44.54,89.95c-2.46,2.7-4.4,5.17-5.8,8.03-5.3,10.83-15.61,14.15-26.24,8.38-3.8-2.06-6.83-4.96-7.64-9.4-1.16-6.4,3.2-11.2,10.19-11.55,4.39-.22,8.72,.22,12.96,1.27,4.58,1.13,9.26,1.6,13.87,2.53,.77,.16,1.52,.42,2.66,.74Z"/><path class="cls-1" d="M16.79,91.17c.03,1.96-6.44,6.68-8.15,6.07-.67-.24-.96-.72-1.11-1.39-.77-3.41,3.96-8.04,7.29-7.07,1.2,.35,2.15,1.01,1.97,2.39Z"/><path class="cls-2" d="M68.73,76.25c-.35,4.27-2.97,8.44-7.52,11.32-2.74,1.74-4.99,1.01-6.61-1.84-1.03-1.81-1.71-3.85-4.32-4-.92-.05-.84-1.04-.87-1.76-.25-7.08,8.51-14.08,15.26-12.18,2.6,.73,4.05,3.32,4.05,8.46Z"/></g></g></svg>