<?xml version="1.0" encoding="UTF-8"?><svg id="Layer_2" xmlns="http://www.w3.org/2000/svg" viewBox="0 0 139.57 184.38"><defs><style>.cls-1{fill:#2c1321;}.cls-2{fill:#c37a45;}.cls-3{fill:#ecc58f;}.cls-4{fill:#6c3ce0;}.cls-5{fill:#eebe63;}</style></defs><g id="Defender_Chibi_Birb_Image"><g><path class="cls-1" d="M44.61,167.75c-12.99,5-24.64,3.04-34.46-7.06-6.26-6.44-9.21-14.51-9.97-23.34-.76-8.87,.89-17.35,4.85-25.36,2.11-4.26,3.75-4.81,7.75-2.51,2.08,1.19,4.39,1.68,6.67,2.28,1.18,.31,1.84-.31,2.52-1.13,1.55-1.86,3.14-3.68,5.23-4.98-21.53-24.21-6.24-63.46,24.73-70.33-2.69-6.72-3.03-13.59-1.06-20.53,1.18-4.17,3.19-7.91,6.47-10.85,6.56-5.89,14.82-5.1,20.19,1.9,2.67,3.48,3.86,7.56,4.58,11.85,1.48-.16,2.9-.55,4.29-.43,5.27,.44,8.56,5.36,7.43,10.9-.97,4.77-3.67,8.43-7.51,11.42,21.58,13.66,27.8,32.04,17.14,55.87,3.19-1.17,6.1-2.32,9.06-3.31,4.33-1.45,8.78-2.26,13.37-2.19,10.52,.16,15.56,6.68,13.09,16.93-3.26,13.54-15.5,24.09-29.32,25.29-.69,.06-1.9-.04-2.16,.74-1.35,4.01-2.08,8.22-3.68,12.14-1.25,3.05-3.01,5.89-5.2,8.36-2.34,2.65-5.17,4.69-8.09,6.65-3.22,2.17-6.93,3.74-10.46,5.32-1,.45-4.17,1.17-4.64,2.16-.13,.27-.13,.59-.13,.89,0,1.17,.08,2.5,.97,3.25,.52,.44,1.31,.69,1.47,1.35,.08,.33-.03,.68-.15,1-.49,1.33-1.04,2.69-1.81,3.86,1.47,.94,2.85,1.86,4.14,3.06,.73,.68,1.04,1.52,.47,2.45-.61,1-1.56,1.18-2.62,.85-.34-.11-.69-.26-.97-.47-2.74-2.13-5.48-3.67-9.05-1.56-1.06,.63-2.64,.31-3.09-1.29-.41-1.46,.62-2.34,1.83-2.55,2.41-.42,4.23-1.74,4.67-4.27,.08-.46-.05-5.87-.51-5.79-6.81,1.18-13.73,1.32-20.9-.1-1.31,4.8,1.03,2.48,1.16,4.25,.08,1.07-.71,3.37-1.78,4.31,1.16,.88,2.07,1.47,2.86,2.2,.82,.76,1,1.79,.39,2.73-.63,.96-1.92,1.31-2.63,.64-3.11-2.97-6.52-1.06-10.05-.19-.72,.18-1.48,.29-2.2,.1s-1.38-.75-1.5-1.48c-.11-.69,.28-1.39,.82-1.83s1.21-.69,1.87-.92l3.32-1.18c.61-.22,1.25-.45,1.72-.89,.78-.74,.97-1.9,1-2.98,.05-1.58,.4-2.99,.62-4.54,.31-.8,.08-1.02-.7-.65Z"/><path class="cls-4" d="M51.04,164.02c7.22-5.63,12.05-12.19,15.01-20.11,3.11-8.35,3.62-16.96,2.57-25.72-.31-2.58-1.51-3.79-4.34-3.58-6.68,.49-13.16-.19-19.34-3.22-3.93-1.92-8.15-2.3-12.42-.59-1.57,.63-3.31,.81-5.42,1.3,1.13-2.05,2.64-3,4.05-4.02,2.31-1.68,2.46-2.69,.4-4.74-7.05-7-10.09-15.61-10-25.37,.18-17.95,14.51-34.97,32.02-38.1,2.12-.38,3.26-1.09,2.92-3.51-.23-1.63-.52-3.19-1.04-4.76-2.44-7.4-1.7-14.53,2.32-21.21,3.88-6.45,10.77-7.76,15.2-2.96,2.67,2.9,4.08,6.46,4.51,10.32,.49,4.37,.25,8.71-1.47,12.85-.56,1.34-.97,2.96,.61,3.53,1.32,.47,2.76-.27,3.47-1.86,1.06-2.35,1.59-4.82,1.92-7.34,.3-2.23,1.61-3.5,3.77-3.5,2.35,0,3.68,1.51,3.85,3.79,.29,4.07-1.76,7.12-4.62,9.72-.8,.73-1.76,1.29-2.58,2-2.92,2.52-2.65,4.83,.7,6.51,12.29,6.15,19.89,15.86,20.92,29.7,.8,10.79-3.43,20.06-10.89,27.82-4.2,4.37-4.23,4.66,.09,8.76,14.17,13.45,12.91,33.19-3.07,45.21-11.39,8.57-24.34,11.15-39.14,9.09Z"/><path class="cls-4" d="M107.39,127.52c-.98-7.79-4.4-14.25-9.67-19.78-1.73-1.82-.54-3.13,.95-4.22,5.96-4.35,12.64-7.03,19.83-8.49,3.37-.69,6.77-1.19,10.23-.47,4.1,.85,6.53,3.55,6.39,7.59-.39,10.95-13.3,27.04-27.73,25.37Z"/><path class="cls-3" d="M9.77,112.56c8.13,4.55,16.45,4.67,24.94,2.13,2.38-.71,4.71-.81,6.92,.18,6.97,3.13,14.12,5.25,22.11,4.01,1.42,7.4,1.14,14.37-1.11,21.18-3.21,9.72-8.74,17.69-18.07,22.56-15.62,8.15-30.75,.32-36.78-13.52-5.4-12.4-4.09-24.54,2-36.54Z"/><path class="cls-1" d="M75.38,89.45c-.2,1.13-.2,2.76-.78,4.14-1.02,2.43-1.96,4.76-2.04,7.49-.05,1.81-1.65,2.94-3.24,3.75-4.99,2.56-12.06,1.71-16.39-1.92-2.22-1.86-3.25-4.08-2.21-6.98,.34-.94,.5-1.9-.04-2.89-2.03-3.68-1.04-7.03,1.31-10.11,1.65-2.17,3.64-4.05,5.95-5.54,5.85-3.79,13.56-1.27,16.14,5.28,.81,2.05,1.08,4.2,1.29,6.78Zm-4.4-.36c-.54-2.73-.65-5.82-3.47-7.77-2.39-1.65-4.97-2.1-7.36-.39-2.94,2.1-5.85,4.41-6.36,8.41-.05,.4,.21,.9,.46,1.25,1.42,1.95,1.45,4.06,.71,6.23-.46,1.36,.01,2.27,1.14,3,1.86,1.21,3.91,2.02,6.1,2.15,1.91,.11,3.84-.34,5.43-1.46,1.24-.87,.48-2.37,.65-3.58,.16-1.12,.67-2.07,1.25-2.98,.91-1.42,1.2-3.02,1.44-4.86Z"/><path class="cls-1" d="M66.51,62.05c-1.29,.28-2.77,.51-2.94-1.03-.19-1.69-1.33-3.6,.17-5.17,1-1.04,2.07-.5,2.66,.6,.37,.68,.38,1.56,.63,2.66,1.06-1.22,1.93-2.41,3-3.4,1.03-.95,2.38-1.7,3.56-.32,1.16,1.34,.16,2.28-.96,3.09-1.31,.95-1.91,2.35-2.34,3.87-.32,1.15-.19,2.79-2.05,2.65-1.75-.13-1.56-1.7-1.73-2.94Z"/><path class="cls-1" d="M8.29,128.22c.17-3.15,1.26-12.63,5.26-9.5,5.21,4.07,10.72,3.68,16.56,2.13,3.31-.88,6.08-.65,9.08,1,5.01,2.76,10.54,2.44,15.97,1.73,4.83-.64,6.07,.47,5.14,5.25-.88,4.54-1.47,9.14-2.9,13.57-4.29,13.3-15.13,20.87-29.01,19.75-7.93-.64-13.08-5.44-16.12-12.53-2.79-6.51-4.16-13.71-4.01-20.8,0-.16,.01-.36,.02-.61Z"/><path class="cls-5" d="M70.98,89.1c-.24,1.84-.53,3.44-1.44,4.86-.59,.92-1.1,1.86-1.25,2.98-.17,1.21,.59,2.71-.65,3.58-1.59,1.11-3.53,1.57-5.43,1.46-2.19-.13-4.24-.94-6.1-2.15-1.13-.73-1.6-1.64-1.14-3,.73-2.17,.71-4.28-.71-6.23-.26-.35-.51-.86-.46-1.25,.51-4,3.42-6.31,6.36-8.41,2.39-1.71,4.97-1.26,7.36,.39,2.82,1.95,2.93,5.04,3.47,7.77Z"/><path class="cls-2" d="M55.76,128.26c-1.15,8.22-2.48,17.07-8.74,23.11-3.96,3.83-9.3,6.19-14.8,6.54-3.15,.2-6.42-.28-9.13-1.88-2.46-1.46-4.33-3.76-5.77-6.24-4.12-7.1-5.61-15.61-5.05-23.74,.05-.72,.12-1.44,.2-2.16,.01-.11,.03-.22,.1-.3,.16-.19,.47-.1,.69,0,5.96,2.74,12.69,2.73,18.97,1.19,1.08-.27,2.11-.53,3.15,.09,5.9,3.49,12.35,3.89,18.96,3.39,.35-.03,.7,0,1.41,0Z"/></g><path class="cls-1" d="M44.78,66.98c-.79-1.72-1.74-2.87-3.49-3.02-1.35-.12-2.35-.73-2.26-2.17,.1-1.68,1.52-1.89,2.81-1.91,3.85-.07,8.32,5.41,7.73,9.29-.33,2.14-.67,4.2-3.21,4.77-2.06,.47-3.91,.05-4.75-2.07-.82-2.05,.15-3.48,2.11-4.31,.33-.14,.63-.34,1.06-.58Z"/><path class="cls-1" d="M85.63,70.6c1.41,1.42,2.18,3.02,1.18,4.91-.68,1.28-1.99,1.53-3.3,1.46-1.89-.09-3.02-1.09-3.22-3.02-.43-4.14,3.93-9.56,8.07-10.02,.96-.11,1.9,0,2.27,1.03,.41,1.14,.14,2.16-1.02,2.78-1.35,.72-2.9,1.13-3.98,2.86Z"/></g></svg>