<?xml version="1.0" encoding="UTF-8"?><svg id="Layer_2" xmlns="http://www.w3.org/2000/svg" viewBox="0 0 173.59 187.54"><defs><style>.cls-1{fill:#2a111f;}.cls-2{fill:#4a2523;}.cls-3{fill:#eeece2;}.cls-4{fill:#dccde2;}.cls-5{fill:#2c1321;}.cls-6{fill:#9d3431;}.cls-7{fill:#6c3ce0;}.cls-8{fill:#efbe63;}.cls-9{fill:#3d304e;}</style></defs><g id="Lawyer_Chibi_Birb_Image"><g><path class="cls-5" d="M71.61,95.92c.17-.81-.17-1.32-.48-1.83-10.29-17.04-5.66-36.63,7.33-49.57,10.89-10.84,24.18-16.02,39.57-15.77,1.18,.02,2.36,.02,3.54,0,.17,0,.34-.11,.5-.17,.51-10.57,4.92-19.03,13.73-25,3.76-2.55,7.99-4.07,12.6-3.44,9.98,1.37,15.85,10.39,14.12,21.44-.43,2.77-1.06,5.5-2.36,8.31,2.9,.12,5.4,.75,7.63,2.18,3.62,2.31,5.02,5.99,3.83,10.14-1.44,5.01-5.18,7.95-9.47,10.34-.86,.48-1.79,.84-2.89,1.35,1.58,4.56,2.81,9.16,2.9,13.99,.16,8.44-2.06,16.27-6.93,23.06-2.49,3.47-2.01,6.26-.32,9.5,4.23,8.08,7.08,16.67,6.5,25.79-.32,5.09,.86,8.26,5.2,10.95,2.32,1.44,4.05,4.11,5.58,6.52,2.84,4.47,1.18,9.21-3.69,11.46-4.36,2.02-5.41,4-4.51,8.61,1.02,5.18,1.48,10.41,1.78,15.67,.21,3.77-1.08,5.45-4.84,5.86-12.46,1.35-24.99,1.67-37.5,2.22-1.8,.08-3-.71-3.32-2.51-.16-.91-.74-1.39-1.34-1.96-1.43,.4-2.66,2-4.29,.79-1.35-1-.58-2.27-.11-3.71-2.36,.17-4.56,.37-6.76,.48-1.31,.07-2.7-.04-2.9-1.74-.21-1.76,.92-2.28,2.49-2.5,2.96-.41,5.89-1.11,8.85-1.45,1.84-.21,2.54-.9,2.34-2.75-.17-1.52-.04-3.08-.66-4.91-7.39,.84-14.64-1.12-22.1-1.81-.96,1.68-.33,3.58-1.05,5.35,1.48,.97,3.05,.6,4.53,.77,1.58,.18,3.33,.35,3.06,2.55-.24,1.95-1.86,2.05-3.36,1.75-2.23-.44-4.54-.18-6.73-.93-1.61-.55-2.77,.64-4.01,1.27-2.18,1.1-4.26,2.39-6.37,3.63-1.06,.62-2.15,1.11-3.32,.4-1.25-.75-.78-2-.54-3.16-1.44-.12-2.68,.05-3.91,.34-1.36,.33-2.63,.22-3.05-1.39-.43-1.67,.54-2.64,2.04-2.94,2.22-.44,4.48-.65,6.71-1.02,3.04-.5,6.06-1.12,9.11-1.59,2.92-.45,1.71-2.96,2.29-4.53,.57-1.55-.71-1.96-1.86-2.38-10.34-3.8-18.19-10.38-22.82-20.53-2.08-4.56-2.83-9.36-2.36-14.33,.1-1.1-.1-1.75-.97-2.54-5.15-4.7-8.98-10.42-12.3-16.5-1.09-2-1.78-4.15-2.21-6.4-1.7-8.86,3.83-14.25,12.57-12.16,3.45,.83,6.78,1.99,9.48,4.48,.22,.2,.63,.19,1.02,.3Zm70.74,52.59c5.83,.46,7.76-.83,6.56-4.09-1.72,1.71-3.77,2.81-6.56,4.09Zm-5.88,.96c-2.57,.04-4.92-1.02-7.46-1.6,.53,3.21,.2,2.78,7.46,1.6Z"/><path class="cls-7" d="M125.62,33.81c.6-1.85,1.01-3.57,1.11-5.4,.48-8.78,4.13-15.91,11.49-20.87,4.47-3.01,9.42-4.29,14.31-1.2,5.04,3.19,6.12,8.42,5.52,13.89-.68,6.21-3.26,11.66-7.85,16.06-.94,.9-2.55,2.1-1.25,3.32,1.2,1.13,3.14,1.21,4.68-.2,1.26-1.16,2.57-2.27,3.9-3.35,2.96-2.4,6.17-2.23,8.81,.43,1.84,1.86,1.6,4.89-.67,7.62-2.02,2.43-4.6,4.08-7.54,5.19-.68,.26-1.37,.48-2.01,.8-2.21,1.09-3.07,2.18-1.72,4.99,5.39,11.27,3.72,22.21-2.5,32.68-1.34,2.26-2.96,4.35-4.33,6.59-.47,.77-1.02,.92-1.77,.89-10.59-.4-20.36,3.12-30.14,6.45-3.7,1.26-7.46,2.26-11.22,3.28-6.09,1.65-11.33-1.37-16.81-3.03-1.99-.6-3.77-1.81-5.93-1.91-.41-.02-.97-.22-1.17-.53-4.21-6.5-9.2-12.54-10.08-20.75-1.24-11.54,2.4-21.4,10.14-29.63,11.51-12.24,25.9-17.17,42.59-15.45,.8,.08,1.61,.08,2.47,.12Z"/><path class="cls-1" d="M43.14,48.56c-10.69,.2-20.42-1.15-29.71-5-3.64-1.51-6.95-3.52-9.68-6.4-4.82-5.08-5.01-11.32-.47-16.66,3.31-3.89,7.58-6.46,12.22-8.4,8.61-3.59,17.62-5.27,26.94-5.82,10.62-.63,21.02,.26,31.16,3.5,4.25,1.36,8.27,3.25,11.73,6.14,7.17,5.99,7.44,13.79,.58,20.11-6.78,6.25-15.23,8.94-24,10.78-6.41,1.34-12.9,2.05-18.76,1.75Z"/><path class="cls-9" d="M142.35,148.52c2.79-1.27,4.84-2.38,6.56-4.09,1.2,3.26-.73,4.55-6.56,4.09Z"/><path class="cls-9" d="M136.47,149.48c-7.26,1.18-6.93,1.6-7.46-1.6,2.54,.58,4.89,1.64,7.46,1.6Z"/><path class="cls-9" d="M122.69,133.56c-.98-2.77-.67-5.07-.06-7.35,.45-1.67,.13-2.98-1.65-3.39-1.84-.42-2.68,.92-3,2.4-1.5,6.99-.44,13.31,4.98,18.47,1.83,1.74,1.88,2.34,1.25,6.87-2.95,1.32-5.55-.77-8.34-1.02-4.39-.39-8.74-1.33-13.12-1.85-1.58-.19-2.32-.67-2.26-2.3,.07-1.81,.02-3.63,.02-5.45,0-.64,.07-1.23,.54-1.76,5.02-5.55,9.79-11.28,12.97-18.15,.49-1.06,1.28-1.56,2.45-1.89,8.61-2.47,17.17-5.11,25.79-7.54,3.54-1,7.07-2.14,10.89-2.53,1.8,3.64,2.33,7.59,3.31,11.43,1.47,5.72,.34,11.3-.72,16.89-.13,.7-.41,1.4-.76,2.03-.39,.72-.55,1.97-1.86,1.41-1.07-.46-.57-1.33-.37-2.11,.98-3.76,1.11-7.63-.02-11.28-1.28-4.12-3.17-8.06-4.87-12.05-.56-1.33-1.73-2-3.11-1.49-1.56,.57-1.77,2.03-1.31,3.38,.84,2.48,1.78,4.94,2.86,7.33,.87,1.92,.67,3.06-1.4,4.1-6.99,3.51-14.47,4.89-22.21,5.85Z"/><path class="cls-9" d="M76.27,113.07c.69,.49,1.31,1,2,1.39,1.69,.93,2.13,2.06,2.23,4.19,.27,5.44,.77,10.95,2.57,16.19,.71,2.08-.53,3.67-1.25,5.31-.95,2.17-2.04,4.2-1.14,6.64-5.84,.74-8.55-1.21-10.58-7.65-2.63-8.33-1.35-15.87,4.8-22.34,.89-.94,.87-.96,1.37-3.72Z"/><path class="cls-9" d="M65.05,121.97c-2.65-3.66-5.24-7.21-7.79-10.79-.7-.98-.54-1.85,.58-2.48,3.58-2.02,6.62-4.69,9.44-7.65,.35-.37,.89-.72,1.37-.76,1.94-.14,6.54,5.17,5.9,7.01-.6,1.72,.87,2.89,.72,4.59-6.06,.45-6.99,6.18-10.22,10.07Z"/><path class="cls-7" d="M78.85,151.41c3.49,.81,6.99,0,9.37,3.31,1.21,1.68,3.37,1.43,4.79-.1,2.93-3.14,6.55-2.94,10.25-2.41,4.03,.58,8.03,1.42,12.07,1.95,1.51,.2,2,.75,2.01,2.21,.01,2.05,.23,4.1,.36,6.12-8.71,1.72-34.12-3.34-38.85-11.08Z"/><path class="cls-7" d="M154.69,147.67c2.83-2.92,4-6.11,5.17-9.5,3.47,2.09,6.54,4.16,8.36,7.68,1.34,2.58,.86,4.23-1.89,5.33-1.24,.49-2.49,.94-3.93,1.99,.05-5.1-3.24-5.78-7.71-5.5Z"/><path class="cls-2" d="M121.61,162.85c.31-2.96-.7-5.48,.53-6.99,1.22-1.5,3.79-.24,5.71-.61,8-1.52,16.17-1.41,24.19-2.63,1.16-.18,2.36-.03,3.54-.07,1.48-.05,1.98,.65,2.17,2.11,.71,5.45,1.6,10.87,2.37,16.31,.34,2.41,.57,4.83,.86,7.25,.21,1.72-.61,2.67-2.27,2.63-3.27-.08-6.46,.72-9.75,.63-7.69-.21-15.32,1.27-23.03,1.11-2.18-.04-2.94-.94-3.08-2.8-.46-5.94-.88-11.89-1.25-16.95Z"/><path class="cls-7" d="M64.71,97.12c-3.26,3.28-6.26,6.23-10.15,8.08-1.97-3.04-2.18-7.19-.17-8.7,3.36-2.53,6.65-.52,10.33,.62Z"/><path class="cls-3" d="M150.95,103.31c-13.32,2.84-26.03,7.78-39.26,10.85-5.6,1.3-6.11,1.02-8.71-3.91,1.04-.78,2.34-.7,3.51-.96,8.87-1.96,17.22-5.69,26.08-7.68,4.79-1.07,9.56-2.14,14.53-1.47,2.62,.36,2.63,.28,3.84,3.17Z"/><path class="cls-3" d="M95.43,109.3c-4.69,4.27-10.72,4.83-14.54,1.38-.92-.84-2.42-1.74-1.12-3.33,1.11-1.36,1.84-3.39,4.45-1.97,3.46,1.88,7.38,2.66,11.21,3.92Z"/><path class="cls-3" d="M108.67,119.6c-1.56,4.48-4.57,7.88-7.75,11.31-.65-3.64-.63-3.62,1.83-5.88,1.97-1.8,4.21-3.32,5.93-5.43Z"/><path class="cls-3" d="M86.01,127.36c-.42-2.99-.76-5.42-1.13-8.07,3.72,3.89,3.79,4.28,1.13,8.07Z"/><path class="cls-6" d="M102.71,118.45c-1.36,1.29-2.58,2.81-4.13,3.82-2.12,1.38-2.66,3.15-2.59,5.53,.14,4.99-.11,9.99,.12,14.98,.14,2.98-.63,5.08-3.48,6.26-.66,.27-1.22,.76-1.97,1.24-2.07-1.34-3.1-3.7-4.92-5.28-.73-.63-.16-1.37,.07-2.01,2.09-5.8,4.15-11.6,6.35-17.36,.68-1.79,.63-3.32-.44-4.86-.71-1.03-1.4-2.06-2.22-3.27,3.06-.98,5.8-2.12,8.27-3.81,.91-.62,1.49-.22,2.01,.57,.9,1.34,1.84,2.66,2.91,4.19Z"/><path class="cls-7" d="M124.49,137.92c8.17-1.09,16.16-2.46,23.47-6.39,1.16,5.3-1.75,10.26-6.94,12.35-5.51,2.23-13.02-.37-16.54-5.96Z"/><path class="cls-1" d="M111.97,81.06c-.58,6.22-3.35,11.87-9.04,15.72-4.64,3.14-9.23,2.23-12.74-2.16-.86-1.07-1.61-1.93-3.18-2.17-2.06-.31-3.09-1.96-3.52-4.02-1.95-9.42,6.16-19.28,16.13-19.92,9.16-.58,11.9,4.91,12.35,12.55Z"/><path class="cls-8" d="M107.22,81.25c-.33,4.28-2.44,8.28-6.28,11.26-2.86,2.22-5.3,1.77-7.43-1.21-1.17-1.63-2.12-3.31-4.58-3.29-1.41,.01-1.14-1.41-1.15-2.34-.07-5.86,3.83-10.74,9.87-12.43,6.06-1.7,9.65,1.07,9.56,8Z"/><path class="cls-1" d="M122.81,64.06c.19,.26,.36,.56,.61,.8,1.44,1.41,1.58,3.08,.64,4.7-.79,1.36-2.24,1.88-3.76,1.45-1.93-.55-3.41-1.63-3.54-3.92-.26-4.71,4.55-9.35,9.24-8.92,1.22,.11,2.11,.51,2.25,1.85,.14,1.32-.65,2-1.78,2.37-1.25,.41-2.76,.22-3.66,1.66Z"/><path class="cls-1" d="M85.37,60.57c.03-1.47-.66-2.49-1-3.6-.39-1.26-.29-2.41,1.08-2.95,1.27-.49,2.34-.03,2.99,1.17,1.76,3.29,2.28,6.66,.56,10.15-.83,1.68-2.17,2.31-4.03,2.01-1.62-.26-2.72-1.12-2.95-2.74-.27-1.92,.81-3.04,2.55-3.64,.25-.08,.48-.23,.79-.39Z"/><path class="cls-4" d="M83.62,19.62c-2.75-2.6-6.04-4.37-9.6-5.54-19.2-6.3-38.23-5.56-57.03,1.67-3.74,1.44-7.19,3.48-10,6.44-4.17,4.4-4.06,8.9,.36,13.07,1.39,1.32,2.96,2.4,4.66,3.28,9.62,4.96,20.01,6.18,30.63,6.32,12.01-.13,22.22-1.97,31.12-5.73,3.87-1.63,7.55-3.62,10.39-6.81,3.87-4.34,3.68-8.7-.54-12.69Z"/><path class="cls-1" d="M36.82,25.02c-.37-1.41-1.41-3.47,.23-4.34,1.74-.92,3.7-.94,5.47,.06,1.5,.84,1.7,2.26,1.17,3.78-.23,.65-.34,1.19,.26,1.7,1.45,1.24,2.06,2.9,1.98,4.69,1.92,.74,2.5-.09,2.65-1.66,.21-2.29-.44-4.5-.51-6.76-.03-1.02-.05-2.17,1.36-2.19,1.13-.02,1.39,.9,1.56,1.87,.49,2.78,.73,5.59,.45,8.39-.33,3.43-3.37,4.92-6.24,3.02-.73-.48-1.02-.36-1.56-.01-.94,.6-2,.73-3.1,.88-.91,.13-1.95,.05-2.69-.55-.87-.7-.83-1.73-.72-2.75,.22-1.95,.14-3.93-.25-5.85-.02-.09-.04-.19-.07-.29Zm3.36,6.03c1.28,.17,2.36-.06,2.33-1.27-.03-1.16-.98-1.76-2.33-1.59v2.87Z"/><path class="cls-1" d="M67.01,21.29c2.01-2.23,4.54-1.79,6.92-1.58,1.16,.1,1.85,1.39,.82,2.16-1.52,1.14-1.15,2.49-1.1,3.88,.07,1.99,.25,3.98,.32,5.97,.04,1.09,.09,2.37-1.46,2.43-1.37,.05-1.48-1.06-1.55-2.1-.19-2.98-.38-5.95-.57-9.04-.96-.34-2.11-.2-3.07-1.24-.5,1.81-1.76,2.08-3.11,1.9-.7,1.49-1,2.9-.91,4.37,.09,1.4,.13,2.83,2.19,2.64,.83-.07,1.43,.42,1.53,1.24,.11,.93-.45,1.55-1.3,1.84-2.05,.69-3.52-.13-4.58-1.88-1.6-2.63-1.12-8.29,.93-10.57,1.61-1.79,3.33-1.41,4.96-.02Z"/><path class="cls-1" d="M35.97,30.97c-.15,.68-.41,1.33-.84,1.9-1.01,1.37-2.77,2.26-4.48,1.89-2.27-.49-3.61-2.58-3.73-5.64-.08-2.13,.37-4.15,1.19-6.08,1.47-3.43,3.47-3.75,6.21-1.16,1.62,1.53,1.75,3.87,1.82,5.96,.04,1.02,.05,2.1-.17,3.12Zm-4.65-6.99c-1.17,2.18-1.64,4.62-1.17,6.18,.21,.71,.47,1.43,1.39,1.42,.73,0,1.09-.54,1.38-1.14,.97-1.97,.24-4.96-1.59-6.46Z"/><path class="cls-1" d="M56.37,23.2c-.11,1.16-.35,1.97,1.1,2.45,.73,.24,1.47,.94,1.02,1.76-.5,.91-1.8,.72-2.41,1.53-.23,.31-.32,.71-.33,1.09s.07,.77,.14,1.15c.02,.08,.03,.17,.09,.22,.07,.08,.19,.09,.3,.09,1.18,.05,3.45-.28,3.22,1.57-.28,2.34-2.78,1.83-4.49,1.8-1.43-.02-2.4-.99-2.35-2.49,.12-3.44,.32-6.88,.58-10.32,.08-1.07,.76-1.92,1.88-2.04,1.33-.13,2.79-.57,3.96,.32,.79,.6,.55,1.54-.31,2.03-.68,.38-1.5,.53-2.41,.84Z"/><path class="cls-1" d="M18.17,25.72c.12,2.16,.31,4.32,.32,6.48,0,1.05-.1,2.38-1.58,2.4-1.54,.02-1.49-1.23-1.5-2.35-.02-3.25-.07-6.49-.09-9.74,0-1.12,.07-2.38,1.52-2.42,1.62-.05,1.38,1.32,1.39,2.38,.02,1.08,0,2.17,0,3.25h-.07Z"/><path class="cls-4" d="M39.73,25.21l-.35-2.38c1.1-.3,1.96,.08,2.13,1.04,.17,1-.7,1.32-1.78,1.34Z"/></g></g></svg>