<?xml version="1.0" encoding="UTF-8"?><svg id="Layer_2" xmlns="http://www.w3.org/2000/svg" viewBox="0 0 178.07 184.31"><defs><style>.cls-1{fill:#2a111f;}.cls-2{fill:#f4e6ce;}.cls-3{fill:#eeece3;}.cls-4{fill:#dacbe1;}.cls-5{fill:#9b5e39;}.cls-6{fill:#2b1220;}.cls-7{fill:#3e314e;}.cls-8{fill:#6b3cdf;}.cls-9{fill:#efbe63;}.cls-10{fill:#fefefe;}</style></defs><g id="Judge_Chibi_Birb_Image"><path class="cls-6" d="M135.24,90.62c-.54-.18-.81,.18-1.04,.59-2.73,4.86-6.12,9.24-7.81,14.81-2.41,7.93-7.69,14.31-13.56,20.1-.67,.66-1.19,1.1-1.12,2.22,.93,16-7.49,26.23-20.77,33.43-.95,.52-1.95,1.07-3,1.28-3.13,.62-3.76,2.33-2.95,5.26,.38,1.37,.85,1.94,2.19,2.23,4.35,.94,8.74,1.62,13.16,2.1,.81,.09,1.62,.22,2.4,.42,1.48,.38,2.54,1.21,2.15,2.89-.41,1.78-1.78,1.75-3.24,1.46-1.14-.23-2.3-.32-3.75-.51,.25,1.36,.77,2.71-.68,3.43-1.22,.61-2.28,.04-3.32-.57-.31-.19-.66-.31-.95-.53-4.77-3.65-9.99-5.16-15.9-3.34-.25,.08-.54,.07-.81,.08-1.44,.06-2.56-.41-2.69-2.02-.12-1.51,.93-2.03,2.2-2.27,1.68-.32,3.46,.11,5.27-.67-.18-1.76-.36-3.51-.58-5.63-9.97,1.24-19.81,3.74-30.14,.17,.3,2.79,.55,5.06,.81,7.48,5.88,1.04,11.78,1.87,17.57,3.36,1.39,.36,2.49,.7,2.41,2.33-.08,1.72-1.39,1.96-2.73,1.92-1.81-.05-3.61-.21-5.69-.34,.23,1.37,.86,2.96-.75,3.77-1.59,.79-2.72-.4-3.92-1.2-2.47-1.67-4.93-3.37-7.47-4.92-1.18-.72-2.59-.59-3.97-.48-2.08,.17-4.17,.22-6.25,.27-1.24,.03-2.12-.5-2.18-1.88-.06-1.32,.65-2.05,1.91-2.2,2.14-.26,4.29-.46,6.6-.7-.29-2.68-.63-5.17-.81-7.67-.1-1.31-1.15-1.3-1.9-1.59-3.91-1.51-7.63-3.39-11.05-5.8-1.16-.82-1.99-.71-3.17-.13-3.95,1.95-8.09,3.2-12.56,3.05-2.51-.09-4.66-.82-5.92-3.17-.42-.79-1.04-1.14-1.85-1.43-7.71-2.76-9.22-8.48-3.99-14.9,.34-.41,.62-.88,1.08-1.54-3.28-1.98-5.63-4.72-6.21-8.63-.74-5.02,.38-9.74,2.45-14.28,.41-.91,.73-2,1.43-2.6,3.08-2.62,2.09-6.41,2.99-9.65,.17-.63-.32-.98-.63-1.41-3.92-5.48-3.88-9.39,.27-14.8,.75-.97,1.15-1.71,.39-2.86-4.65-7-1.74-14.26,2.87-19.36,.79-.87,1.65-1.67,2.58-2.61-2.08-3.76-1.45-7.47,.43-11.16-1.25-.92-2.44-1.75-3.57-2.64-2.32-1.84-4.14-4.05-5.1-6.91-1.94-5.78,1.09-10.9,7.45-12.47,1.13-.28,2.31-.36,3.69-.57-1.69-4.29-2.61-8.67-2.43-13.27C13.43,7.57,19.13,.92,27.77,.08c5.83-.57,10.78,1.96,15.16,5.64,2.17,1.82,4,3.95,5.58,6.3,1.57,2.34,2.63,4.93,3.82,7.58,4.8-.8,9.51-1.69,14.24-2.36,4.79-.68,9,.63,12.35,4.25,.86,.92,1.77,1.43,3.1,1.29,5.07-.52,8.74,1.97,11.63,5.76,1.27,1.66,2.72,2.79,4.68,3.5,5.47,1.98,9.61,5.39,11.39,11.17,.28,.9,.75,1.62,1.58,2.14,4.02,2.52,5.73,6.38,5.44,10.89-.27,4.2,.41,7.81,3.75,10.67,2.75-3.57,6.22-6.6,10.07-9.21,1.51-1.02,3.13-1.87,4.95-2.17,3.45-.58,5.39,.96,5.1,4.43-.18,2.12,.45,3.6,1.73,5.15,1.85,2.24,3.48,4.65,5.19,6.99,1.66,2.28,2.88,4.71,6.08,5.71,3.04,.96,3.86,4.59,1.88,7.3-3.55,4.84-8.12,8.6-13.84,10.59-3.72,1.29-5.55-.19-5.93-4.18-.03-.36-.02-.74-.47-.89Zm-13.07-2.51c2.34-2.5,3.9-5.05,5.57-7.51,.23-.35,.43-.85,.37-1.23-.29-1.82-4.88-6.05-7.03-6.43,.69,2.5-1.22,5,.35,7.47,1.45,2.27,1.75,4.73,.74,7.71Zm-9.61,8.56c.55,1.06,1.01,1.8,1.96,2.16,.88-.94,1.67-1.88,2.12-3.31-1.49,.09-2.74,.45-4.08,1.15Z"/><path class="cls-8" d="M44.71,97.01c-1.38-5.47-.98-10.67-3.84-15.11-.44-.68-.45-1.33-.43-2.07,.04-1,.37-2.19-.04-2.96-2.33-4.37,.35-8.54,.23-12.71-.16-5.42,1.94-8.68,6.19-11.44,1.7-1.11,3.05-2.27,5.28-2.09,2.8,.22,5.32-1.04,7.72-2.33,1.44-.77,2.75-1.33,4.28-.35,.22,.14,.54,.26,.78,.21,5.04-1.01,10.15,1.09,15.17-.3,1.1-.31,2.01-.37,3.1,.15,1.83,.87,3.85,1.1,5.85,.67,1.5-.32,2.07,.36,2.96,1.54,2.94,3.92,5.27,7.97,5.2,13.05,0,.41,.23,.93,.53,1.23,3.2,3.26,2.61,7.23,2.76,11.33,.16,4.32-.24,8.37-1.49,12.43-.23,.76-.42,1.68-.22,2.41,1.06,3.82-2.35,5.83-3.43,8.78-.09,.26-.57,.48-.89,.53-4.46,.6-8.24,3.34-12.66,4.05-1.79,.28-2.81,1.29-3.55,2.87-.87,1.86-1.91,3.65-2.9,5.52-.33-.29-.54-.38-.54-.49-.46-6.22-.45-6.25-6.54-7.79-8.09-2.05-15.71-5.59-23.53-7.14Z"/><g><path class="cls-10" d="M137.01,6.91c-2.28,.15-5.29,.2-8.25,.58-7.26,.93-14.35,2.51-20.31,7.11-7.17,5.53-7.57,13.57-1.12,19.94,1.43,1.41,3.04,2.6,4.77,3.6,14.13,8.23,29.32,9.47,45.03,6.56,6.59-1.22,12.82-3.5,17.57-8.58,4.17-4.45,4.48-10.25,.92-15.19-1.78-2.46-4.05-4.4-6.62-6-9.58-5.96-20.24-7.69-31.98-8.04Z"/><path class="cls-6" d="M137.01,6.91c11.74,.35,22.4,2.08,31.98,8.04,2.57,1.6,4.84,3.54,6.62,6,3.57,4.94,3.25,10.74-.92,15.19-4.75,5.07-10.98,7.36-17.57,8.58-15.72,2.9-30.91,1.66-45.03-6.56-1.73-1.01-3.33-2.19-4.77-3.6-6.44-6.37-6.05-14.41,1.12-19.94,5.96-4.6,13.05-6.18,20.31-7.11,2.96-.38,5.97-.43,8.25-.58Z"/><path class="cls-8" d="M112.56,96.67c1.33-.69,2.59-1.06,4.08-1.15-.44,1.43-1.24,2.37-2.12,3.31-.95-.36-1.41-1.1-1.96-2.16Z"/><path class="cls-4" d="M121.01,29.73c-1.22-2.82-.76-5.19,.18-7.62,2.39,1.61,2.37,4.53-.18,7.62Z"/><path class="cls-4" d="M139.72,30.44c-.16-2.8-.3-5.15-.45-7.59,3.27,1.14,3.52,4.11,.45,7.59Z"/><path class="cls-4" d="M145.38,26.63c-.4-.63-.47-1.04-.15-1.45,.44,.32,.27,.72,.15,1.45Z"/></g><path class="cls-7" d="M23.05,141.05c4.45-2.17,8.37-4.37,11.37-7.87,1.71-2,3.29-4.08,4.66-6.33,.77-1.26,.87-2.54-.38-3.35-1.33-.87-2.81-.7-3.88,.65-.95,1.21-1.92,2.43-2.66,3.76-1.01,1.8-2.3,1.9-4.11,1.34-7.3-2.26-13.12-6.79-18.67-11.8-1.6-1.44-.48-2.32,.72-3.54,3.79,3.1,8.12,3.74,12.91,2.73,1.68-.36,3.57,.3,5.36,.47,5.24,.49,8.51-2.32,10.93-6.54,.23-.39,.44-.8,.66-1.19,.04-.07,.13-.12,.35-.3,4.32,2.24,8.71,4.53,13.37,6.22,2.62,.95,5.68,1.06,7.32,3.99,.56,1,2.08,.26,3.39,.94,0,3.1-.01,6.34,0,9.58,.02,3.22,.98,4.18,4.24,4.19,3.27,0,6.54,0,9.81-.03,3.4-.04,4.48-1.14,4.5-4.64,.03-3.24,0-6.49,0-10.04,2.92,.23,4.63-.79,6.59-2.87,1.95-2.07,5.69-2.45,8.8-3.63,2.39,4.55,6.67,7.84,7.87,13.13,1.87,8.21,.13,15.4-5.82,21.36-1.86,1.86-3.13,4.19-5.12,5.88-5.81,4.93-12.88,6.76-20.16,8.04-1.42,.25-2.86,.38-4.28,.62-14.58,2.42-27.24-1.93-38.73-10.74-3.58-2.74-6.18-6.2-9.03-10.05Z"/><path class="cls-7" d="M108.07,99.18c2.6,1.75,4.07,3.37,1.92,6.66-1.62,2.49,1.1,6.51,4.78,7.94,.4,.15,.92,.01,1.26,.71-1.53,2.58-3.5,4.96-5.71,7.71-1.86-4.56-4.68-7.9-7.9-10.99-1.94-1.86-1.75-5.58,.11-7.45,1.66-1.66,3.19-3.47,5.53-4.59Z"/><path class="cls-2" d="M104.2,95.85c-.27-5.32,.3-10.47,1.22-15.74,.42-2.42-.71-5.19-.24-7.86,.08-.44-.08-.94,.05-1.36,.95-2.98,.71-5.31-2.27-7.32-1.97-1.33-1.71-4.08-1.56-6.36,.09-1.35-.26-2.38-1.09-3.47-1.65-2.16-3.12-4.46-4.57-6.76-1.64-2.59-3.87-3.59-6.91-3.06-1.14,.2-2.51,.49-3.45-.28-2.17-1.8-4.33-1.32-6.64-.47-1.64,.6-3.32,.84-4.97-.2-1.66-1.05-3.36-.28-5.01,.14-1.44,.37-2.7,.69-3.93-.73-1.32-1.54-2.98-.96-4.44-.01-3.49,2.26-7.07,4.1-11.46,3.25-1.27-.25-2.24,.58-3.08,1.45-2.09,2.17-4.35,4.12-6.98,5.62-1.64,.94-2.44,2.36-2.54,4.23-.13,2.63,.41,5.58-.61,7.82-1.97,4.37-2.27,8.37-.06,12.59,.35,.67,.01,1.42-.09,2.13-.12,.89-.48,2.13-.05,2.65,2.59,3.13,2.1,7.16,3.42,10.63,1.39,3.67,.46,8.84-2.27,11.45-1.44,1.38-2.05,3.21-2.83,4.91-1.11,2.42-3.09,3.66-5.42,3.09-3.03-.74-5.9-.25-8.84,.02-2.4,.22-4.41-.7-6.21-2.22-1.49-1.26-2.58-2.41-1.14-4.55,1.05-1.56,.14-3.07-1.06-4.38-3.72-4.09-3.8-5.72-.23-10.08,1.82-2.23,2.26-4.4,.9-7-3.17-6.08-2.18-12.29,2.82-17.2,1.43-1.4,2.19-2.49,1.82-4.8-.86-5.37,2.71-10.47,7.82-12.03,1.51-.46,1.97-1.54,1.93-2.9-.21-6.33,3.53-10.21,8.31-13.43,1.23-.83,2.65-1.53,4.07-1.34,2.99,.38,4.74-.99,6.69-3.11,3.84-4.17,8.72-6.38,14.59-5.67,.74,.09,1.45,.04,2.12-.32,5.15-2.76,9.77-2.24,13.81,1.79,1.88,1.87,3.84,2.8,6.55,2.43,3.12-.42,5.47,1.29,7.12,3.71,1.93,2.84,4.45,4.64,7.68,5.72,4.05,1.35,6.75,4.14,8.01,8.26,.46,1.51,1.15,2.97,2.57,3.73,3.59,1.93,4.53,5.17,4.15,8.77-.41,3.91-.01,7.28,2.98,10.22,1.72,1.69,1.5,4.17,1.36,6.47-.19,3.14-.67,6.24,1.18,9.25,1.22,1.98-1.18,7.19-3.47,7.73-3.62,.85-6.6,2.92-9.79,4.58h0Z"/><path class="cls-8" d="M24.87,35.7c-5.36-6.53-8.51-13.4-6.74-21.73,1.57-7.38,7.88-11.05,15.04-8.62,7.1,2.41,11.4,7.73,14.18,14.47,.45,1.1,.21,1.85-.87,2.47-2.06,1.18-3.86,2.7-5.39,4.52-.43,.51-.91,.88-1.61,.85-5.61-.21-9.52,2.9-13.12,6.65-.37,.38-.77,.73-1.48,1.4Z"/><path class="cls-8" d="M14.12,34.34c1.82-.02,7.54,3.72,8.14,5.32,.63,1.67-1.27,6.34-2.98,7-1.59,.62-2.79,2.74-5.04,1.03-2.78-2.11-5.6-4.1-5.98-7.92-.28-2.82,2.59-5.4,5.86-5.43Z"/><path class="cls-8" d="M27.27,153.7c-2.56,1.42-5.02,2.08-7.51,2.49-2.16,.36-4.31,.44-5.55-2.13-.66-1.36-2.24-1.68-3.6-2.22-2-.81-4.29-1.71-3.71-4.52,.74-3.61,3.59-5.63,6.44-5.58,3.46,.07,5.61,1.73,7.33,4.48,1.73,2.76,4.27,4.85,6.6,7.48Z"/><path class="cls-8" d="M5.89,120.81c3.4,2.66,6.38,5.15,9.52,7.41,3.13,2.25,6.55,4.03,10.26,5.46-4.13,3.38-13.15,4.11-17.35,1.62-2.6-1.55-3.65-3.96-3.79-6.79-.12-2.53,.53-4.97,1.34-7.7Z"/><path class="cls-5" d="M135.93,60.05c-.7,3.76,1,5.95,2.83,8.18,1.72,2.1,3.23,4.38,4.78,6.61,2.08,3.01,3.53,6.7,8.86,6.86-3.56,4.54-7.23,7.51-11.84,9.8-.31-1.12-.55-2.02-.81-2.98,1.07-.92,2.13-1.76,3.11-2.68,1.05-.99,2.47-2.06,1.22-3.64-1.3-1.64-2.7-.75-4,.3-.82,.66-1.55,1.5-2.73,1.79-.08-.3-.28-.64-.19-.76,.84-1.08,1.97-2.15,1.17-3.62-.88-1.6-2.28-.98-3.59-.48-.61,.23-1.02-.2-1.35-.65-1.23-1.66-2.46-3.32-3.66-4.94,.25-.41,.35-.68,.54-.85,1.06-1,2.46-1.96,1.22-3.61-1.07-1.42-2.41-.86-3.63-.08-.95,.61-1.85,.53-3.13-.23,2.82-3.89,6.42-6.51,11.21-9.01Z"/><path class="cls-5" d="M115.7,108.83c-1.55-.89-1.49-2.1-.75-3.11,5.32-7.18,10.71-14.31,16.06-21.42,1.45,.59,1.79,1.24,1.03,2.39-4.87,7.42-10.33,14.41-15.57,21.57-.15,.21-.43,.32-.77,.57Z"/><path class="cls-6" d="M53.04,64.1c-.86-1.24-1.96-1.35-3.02-1.57-1.43-.28-2.7-.83-2.47-2.61,.25-1.87,1.75-1.78,3.13-1.76,3.55,.05,6.95,2.82,8.09,6.57,.78,2.58,.05,4.62-2.1,5.82-1.72,.96-3.48,.81-4.66-.67-1.65-2.06-.87-4.05,1.03-5.78Z"/><path class="cls-6" d="M90.13,60.38c.2,.21,.25,.32,.32,.33,1.98,.54,3.61,1.46,3.29,3.86-.23,1.76-1.47,2.55-3.19,2.78-2.37,.31-3.47-1.08-4.2-3-1.18-3.1-.6-6.04,.85-8.88,.63-1.23,1.64-2.1,3.07-1.46,1.56,.7,1.56,2.01,.94,3.44-.43,.98-.74,2.01-1.08,2.92Z"/><path class="cls-6" d="M74.54,68.52c11.08,0,19.51,9.34,17.76,19.64-.41,2.42-1.6,4.09-4.09,4.39-1.2,.14-1.68,.87-2.3,1.64-4.19,5.22-9.34,5.97-14.39,1.58-5.63-4.9-8.74-11.03-7.22-18.81,1.1-5.64,4.47-8.43,10.23-8.43Z"/><path class="cls-9" d="M88,85.56c.12,1.39-.05,2.65-2.21,2.59-1.56-.04-2.25,1.31-3.03,2.43-2.76,3.98-5.75,4.33-9.15,.88-3.5-3.57-5.63-7.76-4.87-12.98,.64-4.44,3.4-6.41,7.76-5.61,6.94,1.29,11.33,6.05,11.51,12.68Z"/><path class="cls-3" d="M96.49,108.39c-2.67,.99-5.19,2.28-8.23,2.94,.04-1.72-1.85-3.61,.51-4.57,5.33-2.16,4.47-3.24,7.71,1.63Z"/><path class="cls-3" d="M61.51,107.41c-.36,1.76-.46,3.2-1.24,4.67-6.15-1.14-11.6-4.01-17.28-6.79,.51-1.29,.89-2.24,1.32-3.32,5.85,1.56,11.51,3.27,17.21,5.43Z"/><path class="cls-3" d="M78.52,119.04c0,2.78-.09,5.58,.03,8.37,.08,1.79-.7,2.24-2.42,1.97-.96-2.81-.85-5.79-.73-8.73,.07-1.69,1.02-2.09,3.11-1.61Z"/><path class="cls-3" d="M64.56,114.94c.5-2.28,.94-4.28,1.37-6.26,4.63,.61,4.71,.72,4.18,5.58-.91,.18-1.86,.4-2.83,.53-.79,.11-1.59,.09-2.72,.15Z"/><path class="cls-3" d="M70.9,119c-.12,3.53,.15,6.86,.53,10.29-1.7,.53-2.72,.51-2.61-1.61,.11-2.26,.08-4.54,.02-6.81-.04-1.35,.33-2.12,2.07-1.87Z"/><path class="cls-3" d="M84.11,114.22h-4.58c1-1.88,1.91-3.58,3.23-6.07,.54,2.44,.93,4.17,1.35,6.07Z"/><path class="cls-4" d="M143.31,42.87c-10.06-.29-19.14-1.81-27.51-6.23-3.73-1.97-7.13-4.33-9-8.36-1.58-3.42-.78-6.36,1.62-9,2.7-2.96,6.13-5.01,9.84-6.14,16-4.84,31.72-4.04,46.87,3.34,3.96,1.93,7.44,4.57,9.16,8.91,1.31,3.29,.19,6.05-1.96,8.5-2.79,3.17-6.53,4.85-10.41,6.2-6.25,2.17-12.76,2.67-18.61,2.77Z"/><path class="cls-6" d="M134.99,30.07c-.8-1.89-1.68-3.5-.52-5.8,1.16-2.3-.61-4.37-3.51-4.9-.68-.12-1.43-.31-2.13-.24-.73,.08-1,.7-1.15,1.33-.22,.91-.33,1.85-.44,2.78-.05,.43-.1,.86-.14,1.3-.12,1.25-.18,2.51-.19,3.77,0,.85,.01,1.69,.06,2.54,.03,.68-.1,1.45,.38,2.02,.32,.39,.82,.51,1.3,.51,1.15-.02,1.43-.95,1.51-1.91,.07-.93,.1-1.87,.17-3.22,1.34,.98,1.49,2.09,1.9,3.02,.47,1.07,.84,2.57,2.36,2.03,1.82-.65,.86-2.12,.4-3.22Zm-4.97-5.09c.06-.91,.12-1.63,.17-2.4,.94-.07,1.56,.48,1.51,1.45-.05,1.02-.81,1.15-1.67,.95Z"/><path class="cls-6" d="M144.79,28.16c-.09,.3-.2,.6-.32,.89-.93,2.21-2.71,4.57-5.32,4.68-1.52,.06-2.43-.41-2.48-2.09-.09-3.35-.24-6.7-.34-10.05-.05-1.72,.58-2.32,2.49-2.13,2.81,.28,5.34,2.3,6.07,5.06,.05,.17,.08,.35,.12,.53,.18,1.04,.07,2.11-.22,3.12Zm-5.07,2.28c3.07-3.49,2.83-6.45-.45-7.59,.14,2.44,.28,4.79,.45,7.59Z"/><path class="cls-6" d="M161.58,30.39c-1.02-2.06-1.96-3.89-1.02-6.52,.74-2.07-1.26-3.54-3.38-3.61-1.29-.05-3.54-1.08-3.77,1.3-.32,3.32-.15,6.69-.15,10.04,0,.91,.45,1.6,1.48,1.55,1.04-.05,1.26-.81,1.37-1.69,.12-1.03-.14-2.15,.73-3.2,1.18,.92,1.4,2.32,2.02,3.47,.54,1,1.22,2.03,2.51,1.31,1.14-.64,.66-1.72,.21-2.64Zm-5.34-5.12c0-.91,0-1.64,0-2.4,.93-.14,1.58,.37,1.6,1.34,.02,1.02-.73,1.21-1.61,1.06Z"/><path class="cls-1" d="M149.04,22.52c-.1,1.11-.34,1.87,1.05,2.33,.7,.23,1.4,.9,.97,1.67-.48,.86-1.72,.68-2.3,1.46-.22,.29-.31,.67-.31,1.04s.06,.73,.13,1.09c.01,.08,.03,.16,.09,.21,.07,.07,.18,.08,.28,.09,1.12,.05,3.28-.26,3.07,1.49-.27,2.23-2.64,1.75-4.27,1.72-1.36-.02-2.28-.94-2.23-2.37,.11-3.28,.31-6.55,.55-9.82,.08-1.02,.72-1.83,1.79-1.94,1.26-.13,2.66-.54,3.77,.31,.75,.57,.52,1.47-.29,1.93-.65,.37-1.43,.51-2.29,.8Z"/><path class="cls-1" d="M125.92,28.96c-.15,.66-.4,1.29-.81,1.85-.99,1.33-2.7,2.2-4.36,1.84-2.21-.47-3.52-2.51-3.63-5.49-.08-2.07,.36-4.04,1.16-5.91,1.43-3.33,3.38-3.65,6.04-1.12,1.57,1.49,1.7,3.77,1.77,5.8,.03,1,.05,2.05-.17,3.03Zm-4.52-6.81c-1.14,2.12-1.6,4.5-1.14,6.01,.21,.7,.46,1.39,1.35,1.38,.71,0,1.06-.53,1.35-1.11,.95-1.92,.24-4.83-1.55-6.28Z"/></g></svg>