<?xml version="1.0" encoding="UTF-8"?><svg id="Layer_2" xmlns="http://www.w3.org/2000/svg" viewBox="0 0 142.63 189.9"><defs><style>.cls-1{fill:#2e1521;}.cls-2{fill:#9f9796;}.cls-3{fill:#b7a0ba;}.cls-4{fill:#663fd8;}.cls-5{fill:#bea8c2;}.cls-6{fill:#c1bbc8;}.cls-7{fill:#2b1120;}.cls-8{fill:#693ad8;}.cls-9{fill:#d9d6e3;}.cls-10{fill:#e6bc84;}.cls-11{fill:#eebe63;}.cls-12{fill:#a59f9d;}</style></defs><g id="Developer_Chibi_Birb_Image"><path class="cls-7" d="M139.33,118.63c-2.48-5.11-5.98-9.45-10.22-13.23,9.49-10,14.35-21.61,12.55-35.39-1.81-13.92-9.94-23.54-22.06-30.3,4.06-3.15,6.81-6.86,7.75-11.75,1.03-5.42-2.2-10.11-7.37-10.75-1.49-.19-2.83,.54-4.38,.53-.84-5-2.31-9.72-5.96-13.47-5.06-5.18-11.98-5.71-17.7-1.25-4.51,3.52-6.91,8.34-8.08,13.8-1.34,6.27-.89,12.44,1.63,18.54-15.51,4.07-26.42,13.42-31.96,28.27-5.59,14.98-3.49,29.05,7.05,41.66-2.21,2.17-4.87,3.66-6.68,6.06-.57,.75-1.53,.47-2.31,.37-4.68-.61-9.35-1.21-14.02-1.9-4.52-.67-5.55,.29-5.18,4.89,.62,7.68,1.19,15.37,1.76,23.06,.25,3.34,1.69,5.28,5.01,6.25,.83,.24,1.14,.76,1.54,1.34,3.93,5.6,9.22,9.16,15.93,10.57,.81,.17,1.58,.34,2.24,.89,5.96,4.93,12.75,8.28,20.25,10.38-.28,2.6-.77,5.11-.76,7.62,.02,4-1,6.87-5.48,7.77-1.75,.35-4.6,.93-3.5,3.72,1.05,2.67,3.43,1.08,5.22,.56,2.81-.82,5.53-2.39,8.15,.57,.74,.84,2.12,.7,2.93-.26,.88-1.03,.74-2.26-.15-3.21-.78-.85-1.76-1.51-2.82-2.39,.31-.86,.63-1.79,.97-2.72,.32-.87,.72-1.97,.08-2.61-2.56-2.53-.29-5.17-.8-8,7.48,1.33,14.5,1.01,21.55-.14,.17,1.22,.36,2.2,.42,3.19,.09,1.45-.11,2.94,.14,4.35,.7,3.88-.23,6.58-4.52,7.47-1.58,.33-2.65,1.53-1.96,3.25,.71,1.79,2.46,1.7,3.7,.93,2.94-1.83,5.24-.81,7.5,1.12,.34,.29,.72,.55,1.11,.79,1.16,.72,2.4,1.12,3.42-.12,1.03-1.25,.4-2.3-.57-3.34-1.11-1.18-2.46-2.06-3.7-2.93q1.96-6.2-1.13-7.72v-8.03c7.27-2.02,13.98-5.57,20.21-9.99,13.09-9.28,17.06-24.35,10.22-38.46Z"/><path class="cls-4" d="M103.17,163.77c-13.3,2.49-27.21-.44-38.42-7.98,3.23-1.25,6.21-2.27,8.23-4.9,.63-.82,1.77-.36,2.57-.09,3.75,1.3,7.04,.73,10.07-1.9,4.82-4.19,10-5.71,16.62-4.01,4.96,1.28,11.45,.79,16.3-.81,.83-.27,1.67-.64,2.25-1.3,.57-.66,.8-1.69,.32-2.43-.65-.99-2.1-.93-3.27-.75-3.27,.49-6.51,1.05-9.81,1.23-7.11,.39-13.59-1.79-19.95-4.5-4.29-1.83-1.84-6.36,.53-8.7,5.03-4.96,12.19-8.36,18.79-10.7,1.31-.46,2.44-1.15,1.96-2.73-.5-1.66-1.99-1.52-3.18-1.07-7.67,2.9-15.19,6.1-21.09,12.09-1.74,1.76-3.16,3.73-3.86,6.29-.79-4.18-.74-8.43-.34-12.66,.27-2.87-.19-3.45-3.09-3.8-6.17-.74-12.32-1.59-18.77-2.44,1.58-2.25,3.65-3.26,5.47-4.55,2.49-1.77,2.64-2.7,.45-4.89-6.93-6.95-10.01-15.46-9.9-25.13,.2-18.17,14.32-34.89,32.19-38.22,2.05-.38,3.03-1.15,2.75-3.38-.2-1.63-.48-3.19-1-4.76-2.5-7.5-1.75-14.72,2.42-21.43,2.02-3.26,4.78-5.81,9.01-5.65,5.72,.21,9.09,6.14,10.2,11.15,1.06,4.81,.72,9.93-.99,14.55-.42,1.13-.87,2.53-.08,3.43,.7,.8,2.06,.66,2.89,0,2.28-1.81,2.74-6.12,3.07-8.76,.31-2.4,2.49-4.23,4.97-3.44,4.33,1.38,2.56,7.79,.62,10.43-2.34,3.19-11.37,8-4.49,11.45,12.3,6.15,19.89,15.84,20.94,29.68,.8,10.58-3.29,19.72-10.51,27.42-4.61,4.92-4.75,4.99,.32,9.7,5.69,5.29,9.13,11.71,10.12,19.35,2.42,18.76-18.21,31.19-34.3,34.2Z"/><g><path class="cls-1" d="M37.62,91.16c.46,3.56,.94,7.15,1.39,10.74,.1,.81,.16,1.62,.21,2.44,.09,1.4-.35,2.56-1.77,3.02-1.38,.45-2.24-.45-2.95-1.43-3.24-4.49-6.25-9.14-8.96-13.96-.79-1.41-1.64-1.82-3.17-1.85-3.99-.06-7.98-.31-11.98-.5-2.42-.11-3.54-1.29-3.54-3.81,.02-14.26-1.56-28.43-2.57-42.63-.23-3.18,1.12-5.03,4.36-5.2,6.71-.37,13.43-.58,20.14-.85,1.18-.05,2.39,.11,3.54-.1,5.32-1,5.16,.07,5.49,4.58,.69,9.41,1.3,18.83,1.94,28.24,.37,5.43,.8,10.86,1.07,16.3,.15,2.98-.46,3.78-3.21,5.02Zm-3.63-41.91c-8.42,.95-16.72,.34-25,.67,.64,8.87,1.32,17.45,1.83,26.05,.12,1.94,1.23,1.96,2.54,1.9,4.54-.2,9.07-.22,13.61,.08,2.87,.19,5.76,.04,8.97,.04-.66-9.66-1.29-19.02-1.95-28.74Z"/><path class="cls-1" d="M33.16,22.08c3.89-.89,7.54-.64,11.14-1.01,3.05-.32,4.07,.8,4.11,3.9,0,.72,0,1.45,0,2.17-.03,4.24-.38,4.55-4.64,4.72-2.53,.1-5.05,.33-7.58,.54-1.98,.17-2.9-.93-2.99-2.68-.12-2.51-.03-5.03-.03-7.64Z"/><path class="cls-1" d="M7.09,102.52c-.39,0-.79,0-1.18,0-1.13-.03-2.26-.1-3.37-.32-.36-.07-.76-.12-1.1-.26s-.55-.44-.72-.75c-.54-1.01-.72-2.95-.72-4.09,0-1.04,.23-2,.55-2.85,.15-.38,.32-.86,.65-1.13,.35-.3,.88-.27,1.3-.18,3.36,.71,6.82,.29,10.22,.68,.79,.09,1.62,.19,2.33,.57,.32,.17,.65,.43,.85,.74,.4,.6,.34,1.43,.35,2.12,0,.79-.04,1.59-.14,2.38-.13,1.04-.43,2.14-1.44,2.65-.6,.31-1.31,.31-1.97,.31-1.87,.01-3.75,.14-5.62,.15Z"/><path class="cls-8" d="M47.21,145.41c6.98,1.32,13.95,2.64,21.12,4-5.63,4.44-16.09,2.66-21.12-4Z"/><path class="cls-5" d="M33.99,49.25c.66,9.71,1.3,19.08,1.95,28.74-3.21,0-6.1,.16-8.97-.04-4.54-.31-9.07-.29-13.61-.08-1.31,.06-2.42,.04-2.54-1.9-.52-8.59-1.19-17.18-1.83-26.05,8.28-.33,16.58,.28,25-.67Zm-18.02,23.43c-.36,.06-1.43,.22-2.5,.4-.57,.1-1.04,.38-1.03,1.04,0,.75,.43,1.17,1.17,1.21,1.81,.09,3.61,.02,5.37-.49,.49-.14,.78-.5,.78-.98,0-.57-.28-1.09-.91-1.16-.71-.07-1.44-.02-2.88-.02Z"/><path class="cls-9" d="M8.88,45.87l-.59-3.5c8.45-.27,16.7-.53,25.38-.81,0,1.38,.13,2.47,.13,3.98-8.53,.6-16.56,.15-24.91,.33Z"/><path class="cls-6" d="M31.64,85.91v-5.5c1.38,0,4,.11,4.3,.14,.15,.02,.25,2.08,.25,5.61-1.4,0-2.8-.26-4.55-.26Z"/><path class="cls-9" d="M16.28,85.47c-1.68,.02-3.12,.05-4.74-.19v-4.87h4.56c.09,1.61,.18,3.23,.18,5.06Z"/><path class="cls-6" d="M29.1,85.78c-1.6-.08-3.95-.14-3.95-.14,.05-.64,.07-4.38,.07-5.24h3.92c.11,.09,.06,2.01-.04,5.38Z"/><path class="cls-9" d="M18.45,80.4h4.19v5.12c-1.84,.07-4.07-.04-4.07-.14-.01-.88-.09-2.17-.12-4.98Z"/><path class="cls-3" d="M33.73,90.28c.25,2.27,1.02,7.03,1.3,9.64-2.02-2.37-4.74-7.09-6.12-9.68,1.64,0,3.7,.02,4.83,.04Z"/><path class="cls-10" d="M43.98,23.75c.58-.02,1.17-.04,1.75-.05,.02,1.86,.07,3.72,0,5.58-3.1,.39-7.16,.57-10.05,.76-.04-1.25-.09-1.75-.19-2.81-.07-.71-.26-2.94-.15-2.92,.24,.05,.5-.01,.74-.04,2.26-.21,4.52-.37,6.78-.48,.38-.02,.75-.03,1.13-.05Z"/><path class="cls-10" d="M13.7,99.77c-3.62-.02-7.52,.36-10.96-.09-.18-1.32-.34-2.63-.07-3.68,3.41,0,7.54,.23,10.82,.23-.11,1.33,.16,2.31,.21,3.55Z"/><path class="cls-1" d="M30.42,69.3c.69,.25,1.26,.72,1,1.51-.18,.55-.73,.66-1.28,.66-4.62-.03-9.25-.07-13.87-.13-.52,0-1.05,.03-1.55-.11-.75-.22-1.74-.37-1.65-1.35,.07-.74,.7-.95,1.41-.99,3.5-.18,7.03-.06,10.54-.05,1.63,0,3.27,0,4.86,.32,.18,.04,.37,.08,.55,.15Z"/><path class="cls-7" d="M20.04,67.87c-1.89-.05-3.78-.1-5.66-.13-.79-.02-1.45-.2-1.51-1.14-.07-1.01,.74-1.25,1.42-1.25,5.49,.02,10.99,.1,16.48,.17,.57,0,1.08,.21,1.23,.83,.22,.9-.26,1.34-1.07,1.54-3.63,0-7.26-.02-10.9-.02Z"/><path class="cls-1" d="M15.97,72.72c.8-.06,1.6-.07,2.41-.05,.25,0,.51,.02,.75,.12,.43,.17,.63,.63,.63,1.07,0,.47-.29,.83-.78,.98-1.76,.51-3.56,.59-5.37,.49-.74-.04-1.17-.46-1.17-1.21-.01-1.04,1.34-1.16,2.1-1.26,.48-.06,.96-.11,1.44-.15Z"/><path class="cls-1" d="M24.31,75.21c-1.14-.05-2.19,.18-1.96-1.01,.36-1.8,1.71-1.51,3.06-1.52,.9,0,2.84,.16,2.7,1.16-.15,1.03-.65,1.28-1.62,1.36-.28,.02-1.65,.03-2.18,0Z"/><path class="cls-7" d="M37.31,26.43c.05-.18,.1-.33,.29-.44,.38-.23,.84-.23,1.27-.27,.53-.05,1.05-.1,1.58-.15,1.21-.11,2.44-.27,3.66-.24,.16,.42,.26,.85,.31,1.29,.03,.22,.03,.45-.1,.63-.13,.17-.37,.23-.59,.26-2.12,.37-4.28,.52-6.43,.44-.04,0-.09,0-.13-.03-.09-.05-.09-.19-.08-.29,.04-.35,.11-.7,.19-1.05,.01-.05,.02-.1,.03-.15Z"/></g><path class="cls-4" d="M47.21,145.41c6.98,1.32,13.95,2.64,21.12,4-5.63,4.44-16.09,2.66-21.12-4Z"/><path class="cls-7" d="M6.03,99.13c-.43-.02-1.41-.08-1.43-1.09-.03-1.06,.96-.96,1.77-.94,1.35,.02,2.72,.06,4.02,.02,.57,.06,1.09,.26,1.16,.92,.08,.8-.53,.96-1.15,1-1.35,.09-2.56,.1-4.36,.08Z"/><path class="cls-1" d="M25.61,52.41c.13,0,.26,0,.39,0,1.33-.02,2.67-.14,3.99,.11,.54,.1,1.1,.28,1.48,.68,.89,.94,.57,2.61,.53,3.77-.05,1.29-.12,2.57-.23,3.86-.07,.88-.2,2.03-1.11,2.48-1.02,.61-2.44,.55-3.6,.59-1.36,.05-2.73,.01-4.09,.09-.91,.05-2.12,.27-2.99-.1-1-.43-.92-2.11-.97-3-.12-2.27-.17-4.54-.14-6.81,.02-1.66,1.68-1.65,2.97-1.64,.1,0,.21,0,.31,0,1.15-.01,2.31,0,3.46-.02Z"/><circle class="cls-1" cx="30.87" cy="43.68" r="1.52"/><circle class="cls-1" cx="26.85" cy="43.68" r="1.52"/><path class="cls-1" d="M14.33,64.29c-1.02-.04-1.91-.17-1.88-1.24,.04-1.43,1.22-1.27,2.19-1.32,.93-.04,2.05-.05,2.04,1.13-.02,1.59-1.02,1.44-2.35,1.44Z"/><path class="cls-1" d="M14.41,60.59c-1.11,.05-2.14-.08-2.02-1.3,.14-1.49,1.5-1.29,2.53-1.34,.86-.05,2.03-.24,2.03,1.07s-1.62,1.59-2.54,1.58Z"/><path class="cls-1" d="M14.13,56.83c-.96-.02-2.26,.18-2.14-1.03,.18-1.83,1.07-1.45,2.23-1.5s2.88-.22,2.86,1.1c-.02,1.63-1.84,1.34-2.96,1.43Z"/><path class="cls-5" d="M29.68,60.24c-.91-.89-1.8-1.53-2.38-2.1,.8-.93,1.82-1.95,2.36-2.71,.05,1.4,.05,2.95,.01,4.81Z"/><path class="cls-5" d="M23.15,58.15c-.75,.91-1.51,1.7-2.33,2.56v-4.54c.65,.51,1.46,1.2,2.33,1.98Z"/><path class="cls-5" d="M25.17,57.41c-.86-.8-1.76-1.59-2.65-2.55,1.33,0,3.73-.15,5.04-.15-.6,.94-1.65,1.76-2.39,2.69Z"/><path class="cls-5" d="M25.2,58.76c.92,.77,1.9,1.6,2.91,2.52h-5.4c.85-.85,1.59-1.68,2.49-2.52Z"/><path class="cls-12" d="M38.58,139.48c-.77-8.51-1.52-16.77-2.3-25.35,13.69,1.78,27,3.5,40.45,5.25-.11,9.11-.05,17.97,.56,27.24-13.04-2.4-25.73-4.74-38.71-7.14Z"/><path class="cls-2" d="M81.87,145.8c-1.07-2.57-.63-5.09-.69-7.81,3.04-.04,4.35,2.92,7.41,3.51-2.38,1.8-4.39,3.18-6.72,4.3Z"/><path class="cls-7" d="M108.96,88.91c-.26,1.59-.27,3.11-.78,4.43-.98,2.52-2.11,4.89-2.14,7.74-.02,1.79-1.65,2.97-3.28,3.7-5.73,2.57-11.15,1.85-16.15-1.82-2.41-1.77-3.47-4.13-2.35-7.15,.35-.95,.45-1.9-.09-2.88-1.86-3.34-1.13-6.5,.9-9.44,1.55-2.25,3.53-4.13,5.78-5.7,6.6-4.6,14.72-1.79,17.06,5.94,.52,1.72,.73,3.53,1.06,5.19Z"/><path class="cls-11" d="M104.38,88.95c0,1.25-.23,2.49-.73,3.63-.91,2.05-2.13,3.85-1.87,6.18,.13,1.18-.51,1.79-1.55,2.23-3.87,1.64-7.41,.84-10.79-1.35-1.17-.76-1.35-1.75-.93-3.05,.66-2.06,.65-4.08-.71-5.95-.55-.75-.75-1.62-.36-2.57,1.43-3.51,3.91-6.15,7.25-7.72,3.06-1.44,6.94,.33,8.46,3.4,.78,1.58,1.24,3.4,1.23,5.2Z"/><path class="cls-7" d="M76.65,73.54c-1.86-.21-3.18-1.19-3.23-3.42-.05-2.03,1.67-3.8,3.75-3.89,1.94-.09,3.87,1.62,3.89,3.43,.02,1.9-2.09,3.86-4.41,3.89Z"/><path class="cls-7" d="M118.35,77.07c-2.03-.03-3.53-1.62-3.4-3.72,.14-2.16,1.45-3.26,3.52-3.38,2.02-.12,3.6,1.57,3.57,3.61-.03,2.02-1.61,3.52-3.68,3.5Z"/></g></svg>