<?xml version="1.0" encoding="UTF-8"?><svg id="Layer_2" xmlns="http://www.w3.org/2000/svg" viewBox="0 0 127.42 190.02"><defs><style>.cls-1{fill:#2b1221;}.cls-2{fill:#b27874;}.cls-3{fill:#a27ee5;}.cls-4{fill:#6c3de1;}.cls-5{fill:#4f2f91;}.cls-6{fill:#8558e7;}.cls-7{fill:#6d3de3;}.cls-8{fill:#3e1b9b;}.cls-9{fill:#5f32c8;}.cls-10{fill:#291420;}.cls-11{fill:#eebe63;}</style></defs><g id="Artist_Chibi_Birb_Image"><path class="cls-10" d="M6.39,116.94c-.22,1.49-.39,2.99-.66,4.48-.24,1.33-1.05,2.13-2.47,1.98-1.39-.15-1.94-1.31-1.66-2.37,1.87-7.27,.49-14.23-1.28-21.33-1.07-4.28,.58-8.29,4.62-10.8,.96-.6,1.35-1.37,1.47-2.42,.16-1.35,.3-2.71,.61-4.03,.39-1.65,.04-2.64-1.44-3.81-3.82-3.05-3.78-7.43-3.03-11.76,.71-4.09,2.87-7.63,4.94-11.14,1.23-2.09,4.55-1.47,5.25,1.18,1.31,4.99,3.07,9.9,3.57,15.07,.21,2.24-.33,4.69-2.22,5.88-2.62,1.64-2.74,4.01-3.04,6.5-.11,.89-.27,1.78-.43,2.78,10.31,2.05,16.17,9.22,20.88,17.72,.45,.82,.78,1.79,2.06,.47-10.3-12.42-12.57-26.47-7.04-41.46,5.5-14.91,16.35-24.32,32.04-28.5-1.82-4.42-2.54-9.01-2.27-13.74,.33-5.87,2.05-11.25,5.82-15.82,6.99-8.47,17.69-7.57,23.28,1.88,1.83,3.1,2.73,6.5,3.31,10.03,1.55,0,2.9-.72,4.39-.53,5.17,.65,8.4,5.33,7.37,10.76-.93,4.89-3.69,8.6-7.75,11.77,12.13,6.76,20.26,16.39,22.07,30.31,1.79,13.79-3.06,25.42-12.65,35.51,2.17,2.22,4.22,4.62,6.04,7.19,.68,.96,1.66,.97,2.63,1.14,1.78,.31,3.61,.49,5.34,.99,10.85,3.11,14.53,13.31,8.14,22.71-3.58,5.27-8.41,9.28-13.83,12.52-2.98,1.77-5.72,3.73-8.25,6.12-5.71,5.41-12.61,8.77-20.2,10.95v8.06q3.09,1.5,1.13,7.72c1.25,.87,2.6,1.75,3.71,2.93,.97,1.04,1.6,2.09,.57,3.34-1.02,1.24-2.26,.84-3.42,.12-.39-.24-.76-.5-1.11-.79-2.27-1.94-4.56-2.96-7.5-1.13-1.24,.77-2.99,.87-3.7-.92-.69-1.72,.37-2.92,1.95-3.26,4.27-.9,5.13-3.55,4.56-7.47-.35-2.4-.05-4.9-.66-7.54-6.98,1.09-14,1.51-21.48,.08,.5,2.86-1.74,5.49,.79,8.03,.65,.65,.27,1.74-.07,2.61-.37,.92-.86,1.8-.81,2.9,.81,.94,2.17,1.27,2.85,2.41,.61,1.03,.79,2.1-.01,3.03-.82,.95-2.18,1.12-2.93,.28-2.62-2.9-5.34-1.45-8.16-.59-1.78,.54-4.21,2.12-5.22-.54-1.13-2.97,1.95-3.46,3.72-3.83,4.09-.85,5.16-3.41,5.22-7.11,.05-2.7,.49-5.39,.76-8.18-8.99-2.6-17.09-6.75-23.58-13.57-6.87-7.23-10.79-15.63-9.62-25.88,.07-.66,.27-1.33-.5-1.63-4.78-1.91-8.09-5.65-11.35-9.45l-.73,.16Z"/><path class="cls-7" d="M103.71,113.86c-4.74,.71-8.81,1.5-12.71,2.99-6.02,2.29-10.93,6.07-14.87,11.1-2.89,3.7-2.97,5.97-.57,9.86,.37,.6,.59,1.09,.31,1.75-1.3,3.01,.05,5.33,2.13,7.29,4.84,4.56,10.51,7.61,17.43,8.99-5.23,3.86-10.87,6.2-16.92,7.52-16.23,3.53-31.06,.47-44.01-10.08-6.4-5.22-10.71-11.91-11.28-20.4-.65-9.66,3.83-16.91,11.28-22.61,.94-.72,1.92-1.37,2.89-2.04,2.75-1.9,2.89-2.74,.59-5.04-6.79-6.81-9.86-15.15-9.86-24.61,0-18.44,14.07-35.3,32.24-38.74,2.07-.39,2.99-1.21,2.71-3.42-.2-1.63-.49-3.19-1.01-4.76-2.45-7.3-1.75-14.36,2.15-20.98,2.04-3.47,4.84-6.26,9.31-6.08,4.5,.17,6.87,3.22,8.72,6.86,1,1.97,1.6,4.08,1.83,6.24,.47,4.37,.27,8.72-1.45,12.86-.56,1.34-.99,2.96,.55,3.56,1.32,.52,2.76-.24,3.49-1.81,1.09-2.34,1.61-4.81,1.94-7.33,.29-2.24,1.58-3.52,3.74-3.55,2.35-.03,3.73,1.47,3.88,3.74,.3,4.52-2.09,7.74-5.43,10.42-1.27,1.02-2.62,1.87-3.33,3.49-.85,1.93-.69,3.12,1.47,4.04,5.6,2.4,10.37,6.01,14.18,10.78,11.13,13.93,9.9,33.17-2.94,46.66q-4.66,4.9,.24,9.72c1.02,1.01,1.94,2.11,3.3,3.59Z"/><path class="cls-3" d="M98.39,88.12c-.08,2.65-4.85,7.4-6.98,7.4-1.15,0-2.03-.63-2.21-1.66-.36-2.12-4.63-2.73-2.09-6.02,1.7-2.2,3.92-3.73,5.93-5.53,.84-.76,2.37-.74,2.9,.33,.95,1.91,1.5,4.03,2.44,5.49Z"/><path class="cls-1" d="M49.67,73.58c-1.87-.23-3.15-1.26-3.17-3.49-.02-2.03,1.73-3.78,3.82-3.84,1.95-.05,3.84,1.67,3.83,3.5-.02,1.9-2.17,3.84-4.48,3.83Z"/><path class="cls-1" d="M95.13,73.69c-.07,2-1.7,3.49-3.77,3.42-2.04-.07-3.51-1.7-3.32-3.8,.19-2.15,1.52-3.24,3.6-3.31,2.03-.07,3.57,1.64,3.49,3.69Z"/><path class="cls-4" d="M6.09,71.04c-1.06-2.02-.04-3.82,.55-5.7,.74-2.32,1.83-4.46,3.21-6.86,1.14,4.55,2.73,8.65,2.68,13.1-2.15-.15-4.36,.4-6.44-.54Z"/><path class="cls-2" d="M6.09,71.04c2.08,.94,4.29,.39,6.44,.54,.12,1.74-.37,3.3-1.94,4.15-.83,.45-2,.45-2.82-.27-1.31-1.15-1.67-2.74-1.69-4.42Z"/><path class="cls-7" d="M9.95,91.97c4.39,.5,7.5,2.5,10.25,5.06,3.14,2.92,5.61,6.38,7.64,10.16,.73,1.36,.75,2.36-.49,3.56-3.15,3.05-5.33,6.81-7.13,11.07-5.91-3-9.77-7.64-12.26-13.4-.78-1.8,.19-3.93,.46-5.89,.47-3.47,1-6.93,1.53-10.57Z"/><path class="cls-3" d="M47.65,123.74c-2.61,2.83,.44,4.62,1.93,6.84,.5,.75,.8,1.6,.82,2.55,.03,1.36-.15,2.63-1.56,3.16-1.36,.5-2.84,.42-3.64-.94-1.17-1.98-2.89-3.02-4.89-4.02-2.63-1.32-3.31-4.36-4.49-6.74-1.03-2.08,2.05-4.51,5.84-5,3.65-.46,5.76,.74,5.99,3.4,0,.09,0,.18,0,.74Z"/><path class="cls-2" d="M94.97,151.22c-1.64,.06-3.27,.03-4.83-.59-1.65-.65-2.8-1.65-2.6-3.65,.44-4.41-1.82-7.11-5.52-9.1-5.44-2.93-5.7-4.85-1.22-9.3,9.4-9.34,20.8-12.08,33.54-9.48,4.32,.88,7.79,3.32,8.28,8.22,.36,3.58-.93,6.86-3.18,9.56-5.16,6.18-11.68,10.56-19.1,13.62-1.72,.71-3.54,.72-5.36,.72Z"/><path class="cls-8" d="M92.37,130.44c-.58,1.5,.29,4.07-2.36,4.69-2.15,.51-3.75-.52-5.02-2.34-.84-1.21-2.62-2.01-1.53-3.85,1.05-1.76,2.59-2.49,4.79-2.34,3.69,.26,4.15,.49,4.12,3.83Z"/><path class="cls-3" d="M96.46,146.26c-3.88,.03-5.38-1.76-4.03-4.85,1.29-2.97,4.17-1.35,6.24-1.99,1.44-.45,2.49,1.28,2.92,2.68,.65,2.1-1.94,4.14-5.12,4.16Z"/><path class="cls-9" d="M111.94,129.43c-.76-.17-1.54-.44-2.34-.5-1.65-.12-3.17-.48-3.47-2.35-.34-2.12,1.5-2.82,2.91-3.4,2.2-.92,4.41,.06,6.48,.81,1.02,.37,1.17,1.66,.75,2.62-.8,1.8-2.3,2.71-4.32,2.82Z"/><path class="cls-5" d="M98.62,122.35c2.99,.06,4.77,1.34,4.65,3.35-.1,1.74-2.92,3.83-5.02,3.72-1.65-.09-4.13-2.36-4.08-3.74,.06-1.9,2.04-3.38,4.45-3.33Z"/><path class="cls-6" d="M109.23,134.24c1.21,.11,2.67-.31,3.24,1.3,.61,1.71-.7,2.31-1.8,3.16-1.24,.97-2.52,1.79-4.05,2.08-1.14,.21-2.52,.42-3.11-.92-.57-1.28-.53-2.66,.53-3.79,1.41-1.51,3.22-1.9,5.19-1.83Z"/><path class="cls-4" d="M79.14,140.68c3.83,1.19,5.02,2.73,4.83,6.27-3.52-1.44-5.34-3.8-4.83-6.27Z"/><path class="cls-1" d="M81.93,88.95c-.03,1.84-.14,3.52-.85,4.99-1.08,2.23-1.85,4.42-1.88,6.97-.02,1.85-1.57,3-3.13,3.84-5.13,2.76-12.48,1.82-16.83-2.1-2-1.8-2.89-3.9-1.96-6.57,.36-1.04,.55-2.06-.06-3.14-1.82-3.23-1.12-6.32,.8-9.21,1.57-2.36,3.61-4.31,5.94-5.93,6.61-4.6,14.67-1.75,17.08,6,.54,1.75,.74,3.54,.89,5.16Z"/><path class="cls-11" d="M77.57,88.9c-.19,1.93-.52,3.61-1.48,5.11-.59,.92-1.07,1.87-1.22,3-.17,1.27,.67,2.91-.93,3.71-1.79,.9-3.73,1.53-5.77,1.19-1.24-.21-2.47-.63-3.64-1.1-2.32-.92-3.87-2.2-2.73-5.14,.59-1.52,.3-3.22-.73-4.68-.59-.83-1-1.73-.55-2.8,1.49-3.59,3.95-6.4,7.52-7.83,3.71-1.49,7.62,.91,8.8,5.01,.35,1.22,.53,2.48,.74,3.55Z"/></g></svg>