<?xml version="1.0" encoding="UTF-8"?><svg id="Layer_2" xmlns="http://www.w3.org/2000/svg" viewBox="0 0 159.58 189.88"><defs><style>.cls-1{fill:#2b1221;}.cls-2{fill:#a17de1;}.cls-3{fill:#f2f0e6;}.cls-4{fill:#6d3de3;}.cls-5{fill:#eebe63;}</style></defs><g id="Writer_Chibi_Birb_Image"><g><path class="cls-1" d="M69.69,168.1c-7.01,1.21-14.03,1.43-21.5,.17,.6,2.87-1.77,5.55,.89,8.06,.63,.59,.19,1.73-.16,2.6-.37,.92-.88,1.8-.76,2.81,.93,.77,1.93,1.43,2.7,2.29,.86,.97,.98,2.2,.05,3.2-.86,.92-2.2,1-2.95,.16-2.63-2.96-5.35-1.31-8.15-.51-1.79,.51-4.19,2.08-5.17-.66-1.01-2.79,1.85-3.29,3.59-3.68,4.22-.94,5.42-3.6,5.4-7.53-.01-2.51,.47-5.03,.7-7.34-8.95-4.77-18.42-7.42-28.51-7.73-2.84-.09-4.85-1.43-5.42-4.38-.16-.81-.59-1.21-1.3-1.57-7.3-3.7-10.77-11.79-8.33-19.68,1.47-4.76,4.02-8.9,8.15-11.8,2.03-1.43,3.39-3.5,4.72-5.31,3.42-4.62,7.09-8.9,11.57-12.49-20.52-24.66-4.69-62.95,25.51-69.44-2.7-6.72-3.03-13.59-1.05-20.51,1.3-4.53,3.55-8.53,7.31-11.54,5.87-4.69,12.93-4.22,18.1,1.21,3.54,3.71,4.97,8.35,5.81,13.26,1.49-.16,2.92-.55,4.31-.43,5.18,.45,8.45,5.22,7.44,10.64-.91,4.89-3.64,8.62-7.79,11.83,12.11,6.55,19.79,16.29,22.27,30.02,3.89-2.11,6.9-6.26,11.81-3.09,3.75-3.53,8.01-6.21,13.03-7.5,4.11-1.06,5.79-.11,6.94,3.72,2.76-.48,5.53-.92,8.29-1.45,3.4-.65,6.7-.05,9.95,.84,2.64,.72,3.19,2.85,1.36,4.98-1.91,2.22-4.34,3.85-6.75,5.47-1.34,.9-2.71,1.77-4.24,2.77,2.25,1.39,4.42,2.48,6.11,4.25,2.02,2.11,3.12,4.59,2.21,7.44-.91,2.84-3.42,3.57-6.11,3.64-2.7,.07-5.41,.02-8.09,.02-.37,5.99-1.73,7.4-7.43,7.95-1.62,.16-3.27,.05-4.9,.21-2.76,.27-5.3,.22-7.3,3.28-2.04,3.12-6.18,3.9-9.77,4.9-1.33,.37-2.35,.72-2.88,2.35-.6,1.84-2.43,2.87-4.1,3.81-1.26,.71-2.57,1.31-3.86,1.96,10.17,19.73,.98,43.87-27.16,51.91,0,2.7,0,5.39,0,7.99q2.9,1.28,1.13,7.7c1.5,.74,2.7,1.95,3.92,3.14,.87,.84,1.19,1.87,.43,2.94-.85,1.18-2,1.07-3.15,.46-.48-.25-.94-.56-1.35-.91-2.34-1.96-4.67-3.21-7.74-1.18-1.19,.78-2.97,.8-3.63-1.05-.57-1.59,.33-2.79,1.84-3.08,4.66-.89,5.21-3.93,4.69-7.92-.3-2.31-.05-4.69-.68-7.19ZM10.47,127.52c-.09,2.42-.34,4.25,2.45,4.8"/><path class="cls-4" d="M38.69,124.71c-.89-3.07-.98-6.25-4.7-6.28-3.19-.02-3.6,3.28-5.56,5.61-.6-3.07-.72-5.84-3.96-6.28-2.98-.41-4,1.86-5.06,4.09-1.3-1.05-1.25-1.96-.54-3.16,2.72-4.58,6.66-7.85,11.02-10.73,2.31-1.52,2.52-2.65,.62-4.49-12.42-12.08-13.14-30.96-3.92-45.59,6.1-9.67,14.69-15.95,26.06-18.07,1.91-.36,2.88-1.1,2.63-3.22-.2-1.63-.41-3.2-.95-4.77-2.5-7.28-1.81-14.31,1.98-20.99,1.66-2.93,3.99-5.31,7.36-6.07,3.5-.79,6.49,.52,8.64,3.36,5.06,6.7,5,14.12,2.8,21.78-.1,.35-.26,.68-.41,1.01-.54,1.19-.65,2.59,.54,3.14,1.26,.58,2.63-.01,3.4-1.38,1.33-2.34,1.83-4.93,2.15-7.54,.29-2.39,1.58-3.63,3.87-3.72,2.11-.08,3.77,1.75,3.81,4.14,.08,4.28-2.21,7.35-5.33,9.95-.77,.64-1.67,1.13-2.35,1.85-2.46,2.56-2.12,4.46,.97,5.99,12.19,6.06,19.51,15.6,21.18,29.3,.28,2.33-1.15,3.68-1.99,5.44-.95,1.99-2.17,2.99-4.59,2.71-2.34-.27-4.11,1.35-5.57,2.97-1.45,1.61-2.74,3.39-3.91,5.22-1.24,1.94-1.95,4.09-5.03,4.09-1.63,0-2.84,1.9-3.71,3.38-4.28,7.3-7.8,14.92-9.18,23.36-.17,1.06-.89,1.28-1.53,1.7-2.29,1.49-4.07,3.3-4.41,6.2-.21,1.82-1.68,2.92-2.77,4.22-1.41,1.68-2.06,3.59-2.27,5.88,1.48-.16,1.88-1.1,2.59-1.59,2.28-1.58,4.59-1.4,6.55,.4,5.76,5.29,12.85,7.68,20.35,9.07,1.34,.25,2.89,.18,3.1-1.74,.2-1.8-1.12-2.35-2.53-2.61-4.87-.89-9.44-2.58-13.79-4.92-2.35-1.26-4.44-2.84-5.89-5.13-1.77-2.81-1.42-4.64,1.52-6.28,4.54-2.55,9.47-3.58,14.67-3.28,1.72,.1,2.94,0,4.37-1.67,1.71-1.98,4.89-2.11,7.52-2.72,1.11-.26,1.29,1.1,1.65,1.86,5.94,12.54,2.23,27.3-9.24,35.72-12.26,9-26.04,11.37-40.83,8.68-.85-.15-1.67-.47-2.82-.8,3.14-.51,5.81,.36,8.53,.37,3.04,.02,4.25-1.34,4.03-4.4-.7-9.67-1.26-19.35-2.53-28.97-.29-2.17-1.1-3.59-3.42-3.85-.97-.11-1.98-.14-2.09-1.59-.22-2.77-1.66-4.53-4.53-4.93-3.12-.44-4.72,1.24-5.63,3.95-.11,.32-.37,.58-.88,1.34Z"/><path class="cls-3" d="M12.92,132.31c-2.79-.55-2.54-2.37-2.45-4.8,.95,1.86,1.63,3.18,2.45,4.8Z"/><path class="cls-2" d="M73.92,115.89c2.21-6.34,4.65-12.39,8.3-17.87,3.41,1.32,4.08,1.04,5.75-2.07,1.72-3.2,3.49-6.37,5.98-9.06,.68-.74,1.43-1.39,2.41-1.7,3.75,2.5,4.64,2.25,7.21-1.66,2.27-3.46,3.52-7.59,6.9-10.32,1.48-1.2,2.84-2.53,4.73-3.05,3.2,3.48,3.45,3.42,6.85-.18,3.05-3.24,6.81-5.32,11.09-6.53,.6,.81-.08,1.27-.33,1.75-.6,1.17-1.24,2.34-.12,3.5,1.14,1.18,2.51,.86,3.77,.22,3.45-1.74,7.16-2.57,10.95-3.11,1.76-.25,3.54-.46,5.72,.3-3.56,2.95-7.18,5.1-10.9,7.13-1.33,.73-2.98,1.25-2.74,3.26,.25,2.04,1.97,2.11,3.46,2.42,3.01,.64,5.68,1.96,7.72,4.29,1.59,1.82,1.22,2.88-1.15,3.24-3.33,.5-6.69,.38-10.04,0-1.43-.16-3.04-.59-3.98,.93-.91,1.46-.04,2.71,.84,3.96,1.29,1.85,.77,2.76-1.86,2.96-4.07,.31-8.15,.46-12.23,.63-2.34,.1-4.33,.39-3.41,3.6,.34,1.2-.81,1.5-1.54,1.92-3.04,1.71-6.35,2.63-9.77,3.22-2.14,.37-4,.93-2.95,3.87,.48,1.35-.96,1.63-1.75,1.98-6.53,2.91-13.19,5.46-20.15,7.15-.96,.23-1.93,.38-3.38,.66,2.86-3.81,6.05-6.87,9.6-9.11,6.85-4.3,12.52-10.16,19.59-14.15,4.9-2.76,9.84-5.45,14.88-7.96,.65-.32,1.31-.63,1.94-.99,1.2-.68,2.11-1.6,1.41-3.08-.69-1.44-1.95-1.51-3.25-.87-4.3,2.15-8.61,4.27-12.86,6.52-13.28,7.03-24.62,16.56-35.03,27.29-.36,.37-.62,.9-1.65,.89Z"/><path class="cls-1" d="M41.82,73.53c-1.89-.27-3.12-1.34-3.11-3.56,.02-2.02,1.82-3.75,3.9-3.75,1.97,0,3.81,1.75,3.74,3.58-.07,1.9-2.27,3.8-4.53,3.73Z"/><path class="cls-1" d="M87.33,73.42c.05,2.02-1.49,3.61-3.53,3.64-2.07,.04-3.6-1.46-3.56-3.57,.05-2.16,1.31-3.32,3.38-3.53,2.02-.2,3.66,1.41,3.71,3.46Z"/><path class="cls-1" d="M74.26,89.03c-.3,1.62-.32,3.23-.9,4.61-.98,2.34-1.95,4.57-1.96,7.22,0,1.84-1.58,2.99-3.14,3.83-5.07,2.71-12.54,1.74-16.82-2.12-2-1.8-2.88-3.9-1.94-6.57,.36-1.04,.54-2.06-.06-3.14-1.79-3.23-1.12-6.32,.81-9.21,1.52-2.28,3.49-4.17,5.73-5.75,6.78-4.8,15.04-1.9,17.34,6.13,.47,1.64,.65,3.37,.95,5Z"/><path class="cls-5" d="M69.76,89.02c-.17,1.75-.49,3.43-1.46,4.93-.59,.92-1.08,1.87-1.23,2.99-.17,1.27,.67,2.91-.92,3.71-1.78,.91-3.73,1.53-5.77,1.2-1.24-.2-2.47-.62-3.64-1.09-2.31-.92-3.89-2.17-2.74-5.13,.59-1.52,.3-3.22-.72-4.68-.35-.51-.78-1.19-.71-1.72,.56-3.97,3.46-6.28,6.42-8.38,2.19-1.56,4.64-1.25,6.92,.15,3.02,1.85,3.35,4.98,3.84,8.03Z"/><path class="cls-3" d="M14.9,155.02c2.41-.62,4.77-1.02,6.96-2.04,4.11-1.9,7.51-4.8,7.52-9.48,.01-4.35-3.64-6.65-7.22-8.43-1.61-.79-3.38-1.25-5.27-1.92,.78-2.2-1.02-3.74-1.74-5.84h3.6c.84,1.13,.63,2.59,1.16,3.81,.7,1.62,1.67,3.12,3.65,2.18,1.83-.87,1.26-2.29,.23-3.6-.39-.5-.43-1.18-.26-1.88h5.19c.26,1.42,.45,2.74,.74,4.04,.37,1.65,1.41,2.7,3.12,2.15,1.58-.5,1.45-1.79,.86-3.14-.3-.7-.29-1.53-.44-2.43,2.16-.37,3.98,.36,5.89,.45,.5,1.59,.85,3.19,1.5,4.64,.68,1.5,1.94,2.71,3.67,1.82,1.91-.99,.97-2.37,0-3.59-.47-.6-.59-1.3-.45-2.21,2.06-.42,4.04,.48,6.08,.5,1.45,.01,1.24,1.38,1.34,2.28,.8,7.21,1.79,14.4,1.86,21.67,.01,1.44,.18,2.89,.3,4.66-12.84-.86-25.65-1.26-38.31-3.64Z"/><path class="cls-4" d="M6.37,133.33c2.61,3.01,5.91,3.63,9.17,4.4,2.68,.63,5.15,1.74,7.33,3.44,2.22,1.73,2.29,3.46,.32,5.5-3.16,3.26-10.03,4.38-13.93,2.12-1.86-1.08-3.07-2.66-3.24-5.01-.23-3.32-1.13-6.62,.34-10.44Z"/></g></g></svg>