<?xml version="1.0" encoding="UTF-8"?><svg id="Layer_2" xmlns="http://www.w3.org/2000/svg" viewBox="0 0 173.02 189.87"><defs><style>.cls-1{fill:#2b1221;}.cls-2{fill:#8055e3;}.cls-3{fill:#c8524f;}.cls-4{fill:#f2f0e6;}.cls-5{fill:#6d3de3;}.cls-6{fill:#70a1a0;}.cls-7{fill:#a07de0;}.cls-8{fill:#eebe63;}</style></defs><g id="Analyst_Chibi_Birb_Image"><path class="cls-1" d="M94.37,103.79s-.03,0-.05,0m1.02,.16c.35-.2,.7-.4,1.05-.6l.11-.06c1.08-.62,2.1-1.35,3.17-1.98,.32-.19,.63-.38,.96-.56,.38-.2,.74-.45,1.11-.68,.17-.1,.33-.2,.5-.31,.15-.09,.37-.18,.5-.31,1.09-.67,2.19-1.33,3.28-1.99s2.1-1.25,3.17-1.85c1.37-.78,1.54-1.78,1.58-3.1,.37-11.43,.77-22.87,1.16-34.3,.13-3.9,.33-7.8,.39-11.7,.08-5.56,.74-6.3,6.25-6.36,9.36-.1,18.72-.2,28.07-.25,7.18-.04,14.36-.05,21.53-.02,3.35,.01,4.92,1.72,4.83,5.06-.6,20.69-1.19,41.39-1.79,62.08-.04,1.54-.08,3.09-.28,4.62-.45,3.45-1.48,4.37-4.94,4.45-4.54,.11-9.08,.2-13.63,.23-7.44,.04-14.87,0-22.24,0-4.36,11.26-12.42,17.79-23.59,20.67-.94,.24-1.34,.75-1.61,1.59-4.59,14.16-15.14,22.12-28.41,27.22-.68,.26-1.39,.43-2.07,.66-.6,.2-1.18,.42-1.83,.65v8.03q3.03,1.42,1.13,7.71c1.5,.88,2.87,2.02,4.09,3.33,.75,.81,.98,1.76,.32,2.74-.74,1.11-1.8,1.12-2.89,.66-.49-.21-.96-.54-1.36-.89-2.48-2.14-4.99-3.32-8.23-1.28-1.13,.71-2.81,.61-3.42-1.09-.57-1.58,.28-2.83,1.79-3.1,4.69-.86,5.2-3.92,4.73-7.9-.28-2.32-.06-4.71-.66-7.22-7,1.15-14.02,1.5-21.52,.1,.63,2.9-1.77,5.57,.88,8.09,.63,.6,.2,1.73-.13,2.6-.35,.92-.65,1.85-.95,2.71,1.07,1.04,2.39,1.43,3.05,2.59,.59,1.02,.75,2.1-.1,3.02-.77,.84-2.06,1.05-2.71,.32-2.88-3.22-5.89-1.43-8.9-.48-.52,.16-1.02,.38-1.55,.49-1.34,.28-2.65,.22-3.2-1.28-.55-1.49,.28-2.75,1.62-2.93,8.02-1.08,7.38-7.33,7.92-12.91,.1-.98,.17-1.97,.26-3.17-4.93-1.59-9.81-3.44-14.29-6.23-6.44-4-11.81-9.03-15.42-15.78-.49-.91-1.16-1.51-2.11-1.99-1.53-.77-3.01-1.7-4.38-2.72-7.28-5.44-8.71-14.23-3.38-21.61,4.57-6.35,10.69-10.78,17.94-13.69,.59-.24,1.2-.42,1.79-.65,.06-.02,.07-.16,.15-.36-.15-1.15-1.2-1.86-1.83-2.8-6.76-9.99-8.51-20.96-5.63-32.49,1.07-4.27,1.77-8.55,2.52-12.86,.31-1.79,.86-3.53,1.74-5.14,1.6-2.93,3.13-3.46,6.34-2.16,6.23-6.69,13.85-11.19,22.99-13.36-2.53-6.14-3-12.31-1.66-18.58,1.17-5.47,3.56-10.29,8.07-13.81,5.71-4.47,12.64-3.97,17.7,1.21,2.95,3.02,4.1,5.58,6.08,13.47,1.44,.04,2.77-.7,4.26-.52,5.16,.63,8.42,5.31,7.4,10.73-.92,4.89-3.68,8.61-7.74,11.77,3.78,2.25,7.34,4.52,10.39,7.48,3.08,2.99,5.63,6.38,7.7,10.1,3.85-1.05,5.06-.4,5.65,3.44,.43,2.78,1.97,5.87-1.49,8.08-.37,.24-.15,1.55-.05,2.35,.89,7.04-.4,13.73-3.27,20.15-.45,1-.89,2-1.36,2.99s-.96,1.97-1.49,2.93c-.59,1.05-1.24,2.09-1.97,3.05-.69,.9-1.48,1.71-2.27,2.52l-1.24,1.27c-.18,.18-.36,.37-.48,.6-.13,.25-.14,.47-.07,.73-.02-.07,.13-.14,.17-.17,.43-.37,.88-.71,1.36-1.01,.15-.09,.3-.18,.45-.27Zm-79.28,8.79l-.38-.02c.06,.04,.11,.11,.17,.11,.07,0,.14-.06,.21-.09Z"/><path class="cls-5" d="M21.68,65.09c-1.38,13.62,11.09,25.72,25.75,20.2-.6,2.84-1.04,5.6,.66,8.16,.49,.75,.15,1.62-.13,2.37-1.16,3.18,.08,5.56,2.6,7.32,4.7,3.28,9.8,4.13,15.23,1.95,2.68-1.08,4.36-2.89,4.2-5.99-.03-.63-.13-1.4,.17-1.87,2.86-4.57,2.79-9.42,1.26-14.57,14.12,8.95,23.21,6.51,30-8.15-.31,10.28-3.87,18.79-10.63,25.97-4.58,4.86-4.62,4.86,.04,9.52,4.46,4.46,8.75,9.01,10.1,15.49,1.97,9.45-1.13,17.43-7.54,24.16-8.19,8.6-18.42,13.28-30.22,14.6-14.14,1.58-26.86-1.89-37.85-10.94-7-5.76-11.57-13.01-11.5-22.47,.07-9.13,4.77-15.73,11.76-21.01,.87-.66,1.79-1.23,2.69-1.85,2.4-1.65,2.56-2.65,.5-4.69-7.13-7.06-10.18-15.75-10-25.61,.08-4.34,1-8.59,2.9-12.6Zm29.57,45.23c-2.12-.14-2.62,.21-2.6,2.4,.04,3.79,1,7.47,3.13,10.53,1.35,1.94,1.09,3.29,.3,5.15-2.76,6.51-5.42,13.06-8.02,19.64-1.24,3.15-.73,4.78,1.94,5.81,3.37,1.29,6.34,3.09,8.93,5.58,1.12,1.08,2.37,1.28,3.73,.53,3.1-1.71,6.19-3.43,9.28-5.16,1.4-.78,2.19-1.94,1.91-3.58-1.41-8.12-1.16-16.47-3.38-24.47-.27-.98-.13-1.71,.31-2.56,1.42-2.73,2.82-5.48,4.12-8.27,1.6-3.43,.48-5.07-3.35-5.22-5.44-.2-10.89,.54-16.31-.38Z"/><g><path class="cls-1" d="M51.25,110.32c5.42,.91,10.87,.17,16.31,.38,3.83,.14,4.95,1.79,3.35,5.22-1.31,2.79-2.7,5.54-4.12,8.27-.44,.85-.58,1.58-.31,2.56,2.22,8,1.96,16.35,3.38,24.47,.29,1.64-.51,2.8-1.91,3.58-3.09,1.73-6.18,3.45-9.28,5.16-1.36,.75-2.61,.55-3.73-.53-2.59-2.48-5.56-4.29-8.93-5.58-2.67-1.02-3.19-2.66-1.94-5.81,2.6-6.58,5.26-13.13,8.02-19.64,.79-1.87,1.05-3.21-.3-5.15-2.13-3.06-3.09-6.74-3.13-10.53-.02-2.19,.47-2.53,2.6-2.4Z"/><path class="cls-1" d="M161.07,80.17c.1,1.65,.27,2.92,.23,4.18-.04,1.18-.57,2.14-1.97,2.12-1.26-.01-1.7-.85-1.79-1.97-.1-1.26-.21-2.52-.31-3.78q-5.1-.88-5.09-6.39c.02-5.35,.03-10.71,.12-16.06,.09-5.4,.13-5.4,5.2-6.13,.8-1.72-1.67-5.1,1.88-5.17,2.79-.06,1.59,3.06,2.13,4.84,.5,.45,1.16,.19,1.77,.22,3.12,.15,3.76,.79,3.77,3.96,.01,5.63,.04,11.25-.04,16.88-.02,1.7-.32,3.4-.6,5.08-.22,1.3-1.05,2.1-2.4,2.2-.89,.06-1.79,.01-2.91,.01Z"/><path class="cls-1" d="M145.4,86.66c-.4,1.4-.06,2.85-.06,4.28,0,1.2-.37,2.22-1.75,2.32-1.22,.08-1.82-.78-1.97-1.85-.21-1.52-.27-3.06-.39-4.66-.48-.71-1.3-.24-1.96-.42-1.71-.47-2.83-1.32-2.99-3.32-.38-4.98-.49-9.97-.52-14.96-.02-2.53,1.27-3.93,3.75-4.05,2.72-.14,5.45-.16,8.17-.11,1.93,.04,2.95,1.06,3.01,3.09,.12,4.17,.35,8.34,.53,12.51,.22,5.16,.44,5.13-5.81,7.18Z"/></g><path class="cls-5" d="M105.98,132.69c.5-9.75-3.36-17.48-10.28-24.23,9.87-6.12,19.06-12.84,30.54-14.92,1.41-.26,3.41-.9,4.3,.59,.74,1.24-.29,2.92-1.2,3.94-3.31,3.72-3.8,7.95-3.21,12.68,.5,4.05-1.08,7.65-3.49,10.89-4.14,5.6-9.55,9.25-16.67,11.04Z"/><path class="cls-8" d="M68.14,89.36c-.16,1.33-.35,2.88-1.21,4.19-1.04,1.57-1.65,3.21-1.44,5.1,.14,1.3-.52,1.94-1.68,2.41-2.95,1.19-5.8,1.02-8.67-.26-2.27-1.02-3.85-2.21-2.71-5.15,.59-1.51,.31-3.21-.7-4.67-.35-.51-.67-1.13-.74-1.72-.44-4.12,7.55-10.39,11.5-9.07,3.63,1.21,5.7,4.49,5.66,9.17Z"/><path class="cls-2" d="M29.5,67.82c0-5.85,4.07-10.32,9.35-10.3,5.92,.02,10.87,5.23,10.79,11.37-.07,5.7-4.28,10.19-9.55,10.18-5.76,0-10.61-5.15-10.6-11.25Z"/><path class="cls-2" d="M84.31,80.23c-5.13,0-9.28-4.15-9.31-9.34-.04-4.92,4.24-9.21,9.17-9.18,5.43,.02,9.6,4.07,9.59,9.3,0,5.01-4.31,9.21-9.44,9.22Z"/><path class="cls-1" d="M46.01,68.36c-.04,3.09-2.57,5.58-5.55,5.48-2.7-.09-4.94-2.45-4.91-5.17,.03-2.81,2.56-5.25,5.5-5.28,2.84-.04,4.99,2.12,4.96,4.97Z"/><path class="cls-1" d="M84.26,77c-2.95,0-5.06-2.07-5.11-5.03-.05-3.06,2.19-5.43,5.15-5.44,2.97-.02,5.45,2.32,5.51,5.18,.06,3.07-2.26,5.28-5.55,5.29Z"/><path class="cls-5" d="M96.57,58.42h0c-3.54-7.02-9.39-11.53-16.22-14.99-3.35-1.69-3.62-3.98-.71-6.5,.82-.71,1.78-1.27,2.58-2,2.86-2.6,4.91-5.64,4.62-9.71-.16-2.27-1.49-3.79-3.84-3.79-2.16,0-3.48,1.25-3.78,3.49-.32,2.43-.84,4.81-1.79,7.09-.7,1.68-2.13,2.67-3.59,2.11-1.64-.64-1.03-2.34-.53-3.78,2.24-6.41,2.36-12.81-.59-19.05-1.71-3.6-4.15-6.48-8.52-6.67-4.47-.19-7.27,2.57-9.34,6.02-3.95,6.59-4.58,13.65-2.22,20.95,.42,1.29,.9,2.55,.98,3.94,.22,3.7,.2,3.66-3.38,4.39-8.1,1.66-14.8,5.76-20.37,11.99,6.68-2.87,13.12-3.03,19.22,1.2,6.03,4.18,8.29,10.27,8.39,17.34h9.69c.15-.49,.33-.82,.36-1.16,1.2-13.67,17.42-19.89,27.7-11.4,.26,.21,.46,.5,.75,.62h0c.2,.18,.62,.49,.79,.68l.23-.1c-.13-.19-.29-.44-.43-.64Z"/><path class="cls-7" d="M66.37,114.82c-.99,3.09-2.32,5.54-3.77,7.93-.74,1.22-1.28,2.48-.78,3.86,2.34,6.41,2.18,13.2,3.01,19.82,.19,1.55,1.35,3.67,.18,4.66-2.1,1.78-4.78,2.88-7.24,4.24-.46,.25-.87-.01-1.22-.33-2.44-2.22-5.27-3.79-8.53-5.03,2.54-7.64,5.62-14.87,8.81-22.05,1.1-2.48,1.31-4.26-1.1-6.13-1.95-1.51-2.04-4.13-2.82-6.9,4.55,.91,8.78-.54,13.46-.08Z"/><path class="cls-5" d="M10.11,137.46c-4.67-2.82-6.59-7.4-5.48-11.96,.95-3.88,6.42-10.18,11.03-12.22-5.44,7.46-7.54,15.2-5.55,24.19Z"/><path class="cls-4" d="M168.77,44.23c-.63,22.41-1.26,44.79-1.9,67.48-12.12,.39-24.12,.84-36.36,.61,.02-2.08-.11-4.05-.5-5.99-.3-1.49,.62-2.58,1.45-3.67,1.55-2.04,2.88-4.22,3.33-6.77,.71-4.03-.81-6.03-4.81-6.57-.71-.1-1.42-.17-2.53-.31,1.22-1.32,.97-2.81,.87-4.31,2.68-.53,6.23,.65,6.41-3.76,.29-7.21,0-7.68-5.89-8.92-.27-1.33,.28-3.4-2-3.41-2.48-.01-1.64,2.37-2.25,3.65-7.14,1.33-7.38,1.67-6.44,8.66,.49,3.68,1.5,4.38,5.94,4.05,.58,1.4,.57,3.15,2.58,4.26-4.27,.63-7.73,1.86-11.61,3.23,.53-16.17,1.05-32.04,1.59-48.25h52.14Zm-7.7,35.94c1.13,0,2.02,.05,2.91-.01,1.35-.1,2.18-.91,2.4-2.2,.28-1.68,.58-3.38,.6-5.08,.08-5.63,.05-11.25,.04-16.88,0-3.17-.65-3.81-3.77-3.96-.61-.03-1.27,.23-1.77-.22-.54-1.79,.66-4.9-2.13-4.84-3.55,.07-1.08,3.45-1.88,5.17-5.07,.73-5.11,.73-5.2,6.13-.09,5.35-.1,10.71-.12,16.06q-.02,5.51,5.09,6.39c.1,1.26,.21,2.52,.31,3.78,.09,1.12,.52,1.95,1.79,1.97,1.4,.01,1.93-.94,1.97-2.12,.04-1.26-.13-2.52-.23-4.18Zm-15.67,6.49c6.25-2.05,6.04-2.02,5.81-7.18-.18-4.17-.4-8.34-.53-12.51-.06-2.03-1.08-3.06-3.01-3.09-2.72-.05-5.45-.02-8.17,.11-2.48,.12-3.77,1.52-3.75,4.05,.03,4.99,.14,9.98,.52,14.96,.15,2,1.28,2.85,2.99,3.32,.66,.18,1.48-.28,1.96,.42,.13,1.6,.18,3.14,.39,4.66,.15,1.06,.75,1.93,1.97,1.85,1.38-.09,1.75-1.12,1.75-2.32,0-1.44-.34-2.88,.06-4.28Z"/><path class="cls-3" d="M121.78,76.44c3.13,.33,5.79-.59,8.56,.1v3.76c-2.53,.95-5.23,.03-7.78,.9-1.22-1.38-.67-2.89-.79-4.75Z"/><path class="cls-6" d="M156.33,56.3h6.59c.58,3.29,.12,6.53,.14,9.76,.01,1.9,0,3.81,0,5.71q0,4.54-4.62,4.61c-.63,0-1.26,0-2.11,0v-20.09Z"/><path class="cls-6" d="M147.12,82.22c-2.34,.36-4.41,.37-6.62,.12-.85-4.69-.76-9.37-.74-14.28,2.23-.48,4.44-.24,6.95-.13,.01,4.76,.86,9.39,.41,14.29Z"/></g></svg>