<?xml version="1.0" encoding="UTF-8"?><svg id="Layer_2" xmlns="http://www.w3.org/2000/svg" viewBox="0 0 110.03 189.87"><defs><style>.cls-1{fill:#8055e3;}.cls-2{fill:#ebc086;}.cls-3{fill:#6d3de3;}.cls-4{fill:#2b121f;}.cls-5{fill:#ecbc62;}.cls-6{fill:#9a5e38;}</style></defs><g id="Researcher_Chibi_Birb_Image"><g><path class="cls-4" d="M63.31,167.1v8.08q2.93,1.31,1.13,7.71c1.49,.75,2.7,1.95,3.92,3.14,.87,.84,1.2,1.87,.44,2.94-.84,1.19-1.99,1.08-3.15,.48-.32-.16-.61-.39-.9-.61-2.56-1.99-5.06-3.7-8.45-1.41-1.09,.73-2.8,.59-3.38-1.13-.54-1.6,.33-2.8,1.83-3.08,4.66-.89,5.21-3.92,4.7-7.91-.3-2.31-.05-4.7-.68-7.2-7,1.22-14.03,1.43-21.49,.17,.56,2.86-1.78,5.53,.87,8.05,.63,.59,.2,1.73-.15,2.6-.37,.92-.87,1.8-.76,2.88,.91,.85,2.22,1.26,2.88,2.41,.58,1.02,.74,2.1-.12,3.02-.77,.83-2.06,1.03-2.72,.3-2.88-3.22-5.89-1.41-8.9-.47-.52,.16-1.02,.38-1.55,.49-1.34,.28-2.65,.21-3.19-1.29-.54-1.49,.29-2.74,1.64-2.92,8.01-1.09,7.38-7.33,7.91-12.91,.09-.98,.17-1.97,.27-3.21-5.22-1.57-10.33-3.6-14.98-6.62-8.32-5.4-14.75-12.31-17.41-22.14-2.89-10.7,.22-19.8,7.44-27.81,1.76-1.96,3.4-4.03,5.18-6.16-11.83-16.67-11.58-34.14-.17-51.79-3.23-3.63-3.39-5.75-.32-9.69,4.2-5.4,10.16-8.39,16.18-11.2,2.61-1.22,5.41-2.03,8.3-3.09,0-3.86-.42-7.84,.49-11.76,1.03-4.41,2.75-8.45,5.82-11.82,6.75-7.4,16.31-6.72,21.99,1.52,2.27,3.29,3.31,7.03,4,11.14,4.33-1.24,8.29-.7,10.62,3.44,2.98,5.28,.52,9.97-2.46,14.71,3.41,2.13,6.4,4.84,9.41,7.52,2.04,1.82,3.92,3.78,5.36,6.13,1.45,2.35,2.2,5,1.24,7.54-.79,2.1-.42,3.75,.22,5.66,3.39,10.12,2.53,19.95-1.92,29.63-2.15,4.67-4.66,8.97-8.86,12.39,5.16,2.34,10.05,4.52,14.91,6.77,2.8,1.3,5.5,2.81,7.81,4.9,3.94,3.58,4.75,7.45,2.39,12.25-3.3,6.7-8.14,12.26-13.75,17.06-3.2,2.74-5.38,6.34-8.61,9.03-6.5,5.42-13.79,9.27-21.81,11.82-.42,.13-.83,.3-1.23,.44Z"/><path class="cls-4" d="M33.76,116.05c-1.03-6.24-2.1-12.21-2.97-18.21-.26-1.76-1.46-1.54-2.54-1.79-8.23-1.92-14.09-6.63-16.64-14.81-3.88-12.44,5.39-25.45,18.8-26.63,12.14-1.07,22.33,5.96,24.39,17.25,.52,2.88,1.51,4.64,3.86,6.39,4.68,3.47,5.9,11.7,3.02,17.18-.6,1.14-1.17,2.23-1.05,3.58,.28,3.25-1.54,5.2-4.36,6.1-3.99,1.28-5.44,2.22-13.75-.76,.65,3.87,1.28,7.59,1.91,11.31,.23,1.34,1.47,1.22,2.33,1.51,2.75,.91,5.19,2.21,6.77,4.73,2.39,3.8,1.96,7.62-.14,11.35-3.36,5.96-8.83,9.52-14.71,12.51-2.41,1.23-4.99,2.18-7.58,3-1.41,.45-3.27,.8-3.81-1.33-.5-1.97,1.1-2.41,2.52-2.86,6.4-2.04,12.27-5.02,17-9.89,2.45-2.51,4.81-5.38,3.59-9.14-1.24-3.82-4.87-4.51-8.36-5.04-6.88-1.04-13.54,.08-20.11,2.07-.69,.21-1.36,.52-2.06,.69-1.1,.27-2.3,.42-2.83-.85-.56-1.35,.23-2.31,1.42-2.83,3.35-1.44,6.87-2.32,10.47-2.86,1.51-.23,3.03-.43,4.82-.67Zm3.8-24.87c7.92-.73,14.88-10.61,12.77-16.3-7.54-.73-16.3,6.26-12.77,16.3Z"/><path class="cls-4" d="M72.88,69.93c2.02,0,3.58,1.62,3.53,3.66-.05,2.02-1.64,3.5-3.71,3.46-2.27-.05-3.19-1.48-3.36-3.48-.16-1.99,1.52-3.64,3.54-3.64Z"/><path class="cls-2" d="M37.56,91.17c-3.54-10.04,5.23-17.03,12.77-16.3,2.12,5.69-4.85,15.57-12.77,16.3Z"/></g><path class="cls-3" d="M89.59,62.8c3.62,8.9,3.06,17.61-.55,26.23-2.09,5.01-5.28,9.29-9.18,13.05-2.64,2.54-2.7,3.35-.25,6.08,2.42,2.7,5.22,5.05,7.4,7.98,7.8,10.49,7.48,24.68-2.51,33.75-12,10.89-25.84,15.92-42.09,14.36-10-.96-18.84-4.59-26.47-10.98-7.2-6.03-11.75-13.52-11.46-23.32,.17-5.94,2.76-10.8,6.56-15.15,2.52-2.88,5.29-5.49,8.16-8.01,1.34-1.18,1.58-2.37,.2-3.68-11.72-11.15-12.71-29.21-4.86-43.5,1.97-3.59,4.1-6.05,8.81-6.01,8.4,.06,16.7-2.02,25.2-1.21,8.72,.83,16.82,3.55,24.75,7.01,3.16,1.38,6.29,2.79,9.7,3.53,2.19,.47,4.3,.24,6.58-.14Zm-55.83,53.24c-1.79,.25-3.31,.45-4.82,.67-3.6,.54-7.12,1.42-10.47,2.86-1.19,.51-1.98,1.48-1.42,2.83,.53,1.27,1.74,1.12,2.83,.85,.7-.17,1.37-.48,2.06-.69,6.57-1.98,13.23-3.11,20.11-2.07,3.49,.53,7.12,1.22,8.36,5.04,1.22,3.76-1.14,6.63-3.59,9.14-4.73,4.86-10.6,7.85-17,9.89-1.42,.45-3.02,.89-2.52,2.86,.55,2.14,2.4,1.78,3.81,1.33,2.59-.82,5.16-1.78,7.58-3,5.88-2.99,11.35-6.55,14.71-12.51,2.1-3.73,2.53-7.55,.14-11.35-1.58-2.51-4.03-3.82-6.77-4.73-.87-.29-2.11-.17-2.33-1.51-.63-3.72-1.25-7.44-1.91-11.31,8.31,2.98,9.75,2.04,13.75,.76,2.82-.9,4.64-2.85,4.36-6.1-.12-1.35,.45-2.44,1.05-3.58,2.89-5.48,1.66-13.71-3.02-17.18-2.36-1.75-3.34-3.51-3.86-6.39-2.06-11.29-12.26-18.31-24.39-17.25-13.41,1.18-22.68,14.18-18.8,26.63,2.55,8.17,8.41,12.88,16.64,14.81,1.08,.25,2.28,.03,2.54,1.79,.87,6,1.93,11.97,2.97,18.21Zm39.12-46.11c-2.02,0-3.7,1.64-3.54,3.64,.16,2,1.09,3.43,3.36,3.48,2.07,.05,3.67-1.44,3.71-3.46,.05-2.04-1.51-3.66-3.53-3.66Z"/><path class="cls-3" d="M90.22,112.65c4.7,1.73,9.33,3.52,13.11,6.86,2.78,2.46,3.07,4.18,1.45,7.45-1.98,4-4.83,7.37-8.26,11.35,1.88-10.06-1.18-18.06-6.29-25.66Z"/><path class="cls-6" d="M15.39,48.28c1.53-4.2,3.14-5.38,6.94-5.63,3.7-.24,7.39-.65,11.09-.97,.61-.05,1.25-.25,1.9,.33-.63,1.73-1.28,3.5-1.91,5.28-.23,.63-.54,1.17-1.27,1.26-5.02,.61-10.04,1.24-15.08,.36-.52-.09-1-.37-1.66-.63Z"/><path class="cls-6" d="M69.76,52.99c-4.89-1.51-9.47-3.16-14.27-4.01-1.01-.18-1.57-1.05-1.26-2.06,.4-1.28,.14-2.74,1.21-4.02,4.2,.44,8.35,1.57,12.5,2.7,1.25,.34,1.75,1.23,1.8,2.4,.06,1.53,.01,3.06,.01,4.99Z"/><path class="cls-6" d="M73.91,47.69c5.98,1.86,11.16,4.67,15.75,8.54-1.95,3.12-3.39,3.39-8.39,1.72-7.03-2.35-8.01-3.67-7.37-10.26Z"/><path class="cls-6" d="M50.87,42.32c-.32,2.03-.59,3.7-.88,5.55h-12.05c.62-5.06,2.05-6.42,6.72-6.24,1.96,.08,3.91,.42,6.22,.69Z"/><path class="cls-6" d="M42.87,18.65c-.24-6.02,3.53-7.66,10.25-4.66,.4,.8-.19,1.53-.27,2.3-.18,1.77-.97,2.64-3.01,2.41-2.3-.26-4.65-.06-6.96-.06Z"/><path class="cls-6" d="M46.92,22.53c.72,0,1.44,.02,2.16,0,1.79-.04,2.49,.71,1.96,2.52-.22,.77-.27,1.59-.34,2.4-.1,1.15-.69,1.54-1.82,1.37-1.24-.19-2.52-.46-3.75-.34-2.36,.21-3.23-.66-3.13-3.05,.12-2.84,.08-2.91,4.91-2.9Z"/><path class="cls-6" d="M63.59,31.04c-2.91-.57-5.72-1.13-8.62-1.7-.97-1.73,.59-3.26,.08-5.25,3.79,.12,6.59,2.03,9.75,2.8-.01,1.67-.51,2.88-1.22,4.14Z"/><path class="cls-6" d="M26.81,38.04c4.9-3.37,10.29-5.28,16.26-5.78-3.67,7.13-10.42,5.13-16.26,5.78Z"/><path class="cls-6" d="M57.09,38.58c1.01-1.8,1.22-3.98,3.56-3.89,4.69,.19,6.78,1.98,7.45,6.31-3.67-.81-7.2-1.58-11.01-2.42Z"/><path class="cls-6" d="M65.19,17.75c.44,1.68,.41,3.08,.13,4.91-3.12-1.05-6.05-2.03-9.1-3.05,.35-1.47,.64-2.66,.97-4.01,2.81,.51,5.16,2,8,2.16Z"/><path class="cls-6" d="M44.63,37.81c2.71-3.48,5.65-6.07,10.21-4.06,.14,.87-.71,1.35-.97,2.1-.64,1.9-1.7,2.61-3.88,2.05-1.68-.44-3.56-.09-5.36-.09Z"/><path class="cls-6" d="M84.57,46.98c-3.62-1.35-7.25-2.66-10.84-4.08-1.7-.67-.96-2.47-1.5-3.86,5.09,1.27,9.07,4.03,12.3,7.97l.04-.03Z"/><path class="cls-6" d="M56.25,4.88c-.15,1.84-1.11,3.19-1.64,4.81-2.48-.03-4.74-1.15-7.23-.9,1.95-3.39,4.68-4.62,8.87-3.91Z"/><path class="cls-6" d="M69.63,28.03c1.96,.23,3.41,1.23,4.68,2.56,.73,.76,1.37,1.51,.39,2.53-.75,.78-1.38,1.69-2.73,.97-1.18-.64-2.44-1.12-3.73-1.69,.08-1.62,.59-3.02,1.38-4.38Z"/><path class="cls-6" d="M77.29,27.92c-2.09-2.29-4.55-3.14-7.03-4.14,.86-2.3,2.5-2.69,4.4-2.28,2.3,.49,3.07,2.32,2.63,6.42Z"/><path class="cls-6" d="M59.93,6.39c2.06,2.41,3.65,4.02,3.94,6.7-2.13-.09-3.67-.99-5.33-1.72-.03-1.64,1-2.75,1.39-4.98Z"/><path class="cls-1" d="M49.67,69.96s.02-.05,.02-.07c.04-.25-.42-.91-.53-1.14-.35-.73-.72-1.45-1.16-2.13-.03-.05-.07-.11-.1-.16-1.54-2.37-3.82-4.21-6.34-5.47-5.21-2.6-11.68-2.8-16.93-.23-2.53,1.24-4.79,3.08-6.43,5.37-3.26,4.55-3.89,10.73-1.6,15.84,1.15,2.57,2.97,4.69,5.21,6.37s4.86,3.12,7.77,3.55c1.2,.18,2.44,.18,3.63-.06-.04,0-.04-5.98,0-6.59,.15-1.77,.47-3.54,1.08-5.2,1.12-3.02,3.29-5.35,6.1-6.89,1.69-.93,3.51-1.59,5.35-2.12,1.1-.32,2.21-.59,3.33-.82,.26-.06,.52-.03,.6-.23Zm-16.23-6.24c1.47,1.64,2.09,4.01,1.75,6.2-.21,1.35-.76,2.66-1.68,3.66-1.69,1.85-4.44,2.47-6.9,2.03-2.55-.44-4.98-2.03-6-4.41-.74-1.74-.67-3.78,.13-5.49,1.16-2.49,3.62-4.01,6.31-4.26,1.87-.17,3.84,.23,5.37,1.35,.18,.13,.36,.27,.52,.42,.18,.16,.34,.33,.5,.5Z"/><path class="cls-5" d="M54.58,81.02c3.91,2.17,5.42,7.89,3.18,12.18-.93,1.8-1.86,3.5-1.61,5.61,.16,1.36-.74,1.84-1.84,2.29-3.49,1.43-6.74,.79-9.85-1.05-2.2-1.3-2.47-4.95-.26-6.29,5.01-3.03,8.47-7.24,10.36-12.75Z"/><path class="cls-6" d="M34.59,96.69c2.04-1.05,2.44-.1,2.67,1.26,.83,4.97,1.7,9.92,2.54,14.89,.16,.97,.29,1.94,.45,2.99-1.44,.56-2.32,.63-2.62-1.32-.91-5.94-2.01-11.86-3.04-17.82Z"/></g></svg>