<?xml version="1.0" encoding="UTF-8"?><svg id="Layer_2" xmlns="http://www.w3.org/2000/svg" viewBox="0 0 191.31 189.88"><defs><style>.cls-1{fill:#2b1221;}.cls-2{fill:#6d3de3;}.cls-3{fill:#4b564f;}.cls-4{fill:#eebe63;}.cls-5{fill:#8b8dc8;}</style></defs><g id="Translator_Chibi_Birb_Image"><g><path class="cls-1" d="M76.38,168.1c-6.97,1.16-13.92,1.47-21.38,.13,.49,2.76-1.7,5.2,.66,7.94,1.42,1.65-.84,3.52-.8,5.5,.9,.77,1.94,1.5,2.77,2.41,.81,.88,.88,2.05,.14,3.01-.77,1-2.18,1.23-2.91,.4-2.7-3.07-5.5-1.44-8.4-.58-1.78,.53-4.17,2.04-5.13-.75-.91-2.62,1.75-3.22,3.44-3.54,4.62-.88,5.58-3.91,5.59-7.96,0-2.42,.48-4.85,.76-7.43-9.21-2.69-17.54-6.97-24.09-14.11-6.59-7.19-10.32-15.46-9.13-25.22C8.51,119.36,1.57,109.4,.11,96.53c-1.28-11.31,8.69-18.21,19.17-13.67,1.14,.49,2.12,1.4,3.3,1.41-.56-24.97,10.88-41.32,34.8-49.13-2.63-6.54-2.96-13.41-1.01-20.34,1.18-4.17,3.19-7.91,6.46-10.85,6.56-5.89,14.82-5.11,20.19,1.88,2.67,3.48,3.86,7.55,4.58,11.85,1.47-.16,2.9-.55,4.28-.44,5.27,.44,8.56,5.36,7.43,10.89-.97,4.77-3.66,8.42-7.71,11.57,12.09,6.73,20.21,16.34,22.06,30.21,1.84,13.8-3.07,25.4-12.47,35.41,1.14,2.6,3.18,2.93,5.89,2.59,8.03-1.01,15.93-.09,23.66,2.25,2.73,.83,5.18,2.19,7.29,4.11,5.06,4.61,5.34,10.9,.69,15.9-4.9,5.28-11.32,7.62-18.18,8.32-4.77,.49-7.75,1.89-10.01,6.59-5.45,11.33-15.83,16.97-27.1,21.18-.84,.31-1.71,.54-2.53,.79v8.14c5.75,1.7,1.22,4.94,1.15,7.68,1.41,.77,2.63,1.81,3.77,2.97,.93,.94,1.44,1.97,.57,3.14-.96,1.28-2.2,1.01-3.39,.29-.54-.33-1.09-.66-1.57-1.08-2.14-1.89-4.33-2.63-7.04-.94-1.25,.78-2.98,.96-3.76-.77-.84-1.86,.39-3.07,2.04-3.42,3.99-.85,4.99-3.22,4.42-7.01-.38-2.56,.04-5.22-.72-7.94Z"/><path class="cls-1" d="M176.96,41.34c-.26-.94-.4-2.06-.03-2.97,.25-.61,.82-.97,1.45-1.1,1.01-.21,1.86,.24,2.26,1.14,1.41,3.19,2.17,6.55,2.03,10.04-.08,1.85-1.45,2.74-3.18,2.68-2.8-.1-5.6-.43-8.4-.66-1.42-.12-2.93-.32-2.78-2.2,.11-1.36,1.27-1.86,2.5-1.91,.55-.02,1.1,.01,1.64-.09,.04,0,.09-.02,.13-.05,.05-.03,.07-.09,.08-.15,.09-.39-.12-.8-.44-1.04-.32-.26-.7-.33-1.07-.49-.4-.17-.79-.38-1.18-.56-.81-.39-1.62-.77-2.47-1.09-1.46-.55-2.96-1-4.48-1.32-2.92-.62-5.94-.76-8.91-.37s-6.01,1.35-8.77,2.71c-.93,.46-1.84,.96-2.72,1.5-9.2,5.63-14.44,14.17-13.61,24.95,.22,2.83-.17,5.65-1.55,8.16-1.49,2.72-3.91,4.79-5.75,7.26,2.74,.85,5.57-.26,8.35,.16,1.28,.2,2.22,.96,2.03,2.42-.17,1.29-1.1,1.76-2.33,1.82-3.44,.15-6.88,.53-10.32-.09-1.44-.26-2.98-.42-3.6-2.01-.61-1.58,.2-2.79,1.27-3.88,.57-.58,1.05-1.26,1.64-1.82,3.82-3.57,5.39-7.44,5.56-13.15,.07-2.33,.35-4.65,.86-6.93,.48-2.16,1.17-4.27,2.06-6.29s1.9-3.8,3.12-5.54,2.54-3.28,4.03-4.72,3.08-2.71,4.8-3.83,3.53-2.08,5.42-2.86,3.88-1.39,5.9-1.81,4.15-.66,6.24-.69,4.31,.13,6.44,.5,4.39,.98,6.49,1.77c1.07,.4,2.13,.86,3.16,1.35,.53,.26,1.05,.52,1.56,.8,.66,.36,1.32,.73,1.97,1.09,.09,.05,.18,.1,.28,.11,.2,.02,.4-.13,.43-.33,.02-.12-.02-.23-.05-.34-.02-.06-.04-.13-.06-.19Z"/><path class="cls-1" d="M141.48,100.67c.27,1.05,.46,2.12,.53,3.2,.06,1.11-.47,1.94-1.63,2.19-1.11,.24-2.13-.14-2.47-1.19-1.02-3.09-2.09-6.2-2-9.52,.06-2.39,1.97-2.8,3.8-3.12,3.02-.52,6.05-.97,9.27-1.76-6.11-3.19-10.64-7.67-12.39-14.34-1.73-6.6-.59-12.8,3.56-18.3,6.29-8.35,17.79-11.04,27.14-6.42,9.02,4.45,13.63,14.56,11.06,24.22-3,11.29-12.2,16.53-27.11,15.45,.08,0,.12,1.51,.12,1.68-.01,.39-.09,.78-.32,1.1-.7,.96-2.28,1.34-3.33,1.7-.56,.2-1.12,.39-1.67,.59,1.96,1.58,4.39,2.02,6.8,2.43,20.12,3.5,37.6-14.9,33.08-34.79-.38-1.65-1.27-3.18-1.74-4.82-.41-1.43-.07-2.84,1.49-3.36,1.49-.49,2.51,.2,3.15,1.73,9.23,22.1-8.18,47.21-32.12,46.28-4.31-.17-8.54-1.12-12.51-2.8l-2.3-.97c-.09-.04-.18-.07-.27-.06-.13,.03-.21,.15-.23,.28s.02,.26,.05,.38c.02,.07,.04,.14,.06,.21Z"/><path class="cls-2" d="M83.18,21.39c.03,3.22-.5,6.33-1.72,9.31-.52,1.28-.81,2.82,.49,3.38,1.33,.57,2.78-.13,3.54-1.67,1.14-2.31,1.74-4.77,2.01-7.31,.25-2.39,1.58-3.73,3.87-3.68,2.33,.05,3.67,1.62,3.76,3.89,.18,4.5-2.21,7.72-5.57,10.35-1.28,1.01-2.57,1.92-3.25,3.55-.79,1.87-.54,2.95,1.44,3.83,6.25,2.79,11.54,6.86,15.51,12.49,9.88,14.01,8.03,32.39-4.53,45.29-4.15,4.27-3.99,4.27,.23,8.46,4.7,4.66,9.36,9.45,10.91,16.28,.99,4.38,.71,8.63-1,12.81-4.65,11.33-13.3,18.53-24.43,22.65-18.22,6.75-35.4,4.5-50.77-7.69-7.11-5.64-11.58-13-11.56-22.44,.02-8.91,4.53-15.45,11.31-20.7,1-.78,2.08-1.46,3.12-2.2,2.47-1.74,2.57-2.66,.35-4.89-4.79-4.81-8.36-10.38-9.29-17.14-2.19-15.86,3.08-28.93,15.58-38.96,4.75-3.81,10.18-6.29,16.24-7.23,2.13-.33,2.94-1.35,2.57-3.51-.25-1.52-.45-3.01-.96-4.49-2.51-7.27-1.78-14.31,1.99-20.99,1.17-2.08,2.76-3.83,4.87-5.04,3.81-2.18,8.03-1.38,10.98,2.18,3.23,3.89,4.29,8.52,4.3,13.46Z"/><path class="cls-1" d="M49.28,66.21c1.93-.03,3.79,1.68,3.79,3.47,0,1.87-2.09,3.88-4.17,3.83-2.08-.05-3.37-1.12-3.48-3.31-.11-2.11,1.7-3.96,3.86-3.99Z"/><path class="cls-1" d="M94.04,73.87c-.21,1.98-1.94,3.36-4,3.18-1.96-.17-3.41-2-3.07-4.03,.35-2.11,1.74-3.14,3.83-3.07,2.03,.07,3.46,1.88,3.25,3.92Z"/><path class="cls-1" d="M80.9,89.6c-.2,1.05-.24,2.66-.83,4.04-1,2.34-1.92,4.58-1.97,7.23-.03,1.94-1.68,3.11-3.39,3.94-5.28,2.57-12.14,1.65-16.59-2.23-1.94-1.69-2.84-3.77-1.97-6.32,.5-1.48,.29-2.7-.38-4.13-1.23-2.64-.73-5.34,.75-7.8,1.61-2.68,3.84-4.82,6.39-6.6,6.49-4.52,14.55-1.77,16.99,5.77,.59,1.83,.81,3.71,1.01,6.1Z"/><path class="cls-4" d="M60.91,94.36c0-1.25-.08-2.27-.74-3.08-1.39-1.72-.96-3.38,.1-5.02,1.39-2.17,3.18-4,5.32-5.4,3.17-2.07,7.83-.73,9.49,2.81,1.61,3.43,2.02,6.96-.16,10.4-.54,.85-.96,1.73-1.13,2.74-.21,1.27,.68,2.93-.84,3.75-1.92,1.03-4.03,1.7-6.28,1.19-.97-.22-1.93-.51-2.86-.86-2.52-.95-4.44-2.25-3.03-5.43,.17-.39,.11-.89,.13-1.11Z"/><path class="cls-2" d="M18.51,122.46c-1.81-1.04-2.93-2.7-4.1-4.29-3.99-5.43-7.31-11.22-9.18-17.75-.1-.35-.17-.7-.23-1.06-.75-4.21-1.22-8.48,2.71-11.45,3.96-2.99,8.01-1.84,11.97,.36,2.81,1.56,5.18,3.2,6.33,6.61,1.12,3.29,3.08,6.36,5.49,8.99,1.06,1.16,.96,2.27-.18,2.94-6.12,3.54-9.68,9.07-12.33,15.36-.03,.07-.14,.1-.48,.31Z"/><path class="cls-2" d="M114.75,134.37c.89-8.28-1.33-15.69-7.51-22.24,6.59-.5,12.54-.17,18.44,1.25,3.11,.75,6.14,1.68,8.65,3.75,3.94,3.24,4.09,6.83,.46,10.41-4.29,4.23-9.81,5.65-15.5,6.54-1.38,.22-2.77,.91-4.54,.3Z"/><path class="cls-5" d="M159.69,86.62c-.97-6.77-.57-7.28,4.28-5.71q-.9,5.57-4.28,5.71Z"/><path class="cls-3" d="M148.91,78.03c-.56-1.34-.34-2.38-.23-3.39,4.73-1.13,5.06-1.03,6.24,2.01-1.97,.5-3.84,1.29-6.02,1.38Z"/><path class="cls-3" d="M173.89,69.47q-5.22-.18-4.92-2.99c5.19-1.25,5.57-1.02,4.92,2.99Z"/><path class="cls-3" d="M150.22,82.87c1.19-.91,2.35-1.25,3.78-1.37,.51,1.71,2.36,3.88,.19,4.91-2.34,1.11-3.05-1.61-3.97-3.54Z"/><path class="cls-3" d="M168,57.85c2.17,.94,2.38,1.17,3.15,3.44-3.69,.96-4.07,.79-5.19-2.28,.68-.39,1.09-1.24,2.04-1.16Z"/><path class="cls-3" d="M164.82,69.56c-1.71,.61-3.13-.36-4.62-.31-.66,.02-.71-.7-.71-1.24,0-.55,.1-1.01,.72-1.28,2.04-.9,3.99,.18,4.61,2.83Z"/><path class="cls-5" d="M144.38,80.96c-2.06-2.06-2.78-4.14-3.48-6.23,.96-.57,1.73-.49,2.63-.16,.61,1.86,.52,3.85,.84,6.39Z"/><path class="cls-5" d="M155.41,62.32c-1.23,.34-2.28,.16-2.49-.82-.44-2.07,1.1-3.38,2.49-5.25v6.07Z"/><path class="cls-5" d="M145.23,60.85c-1.04-.15-1.26-.59-.51-1.39,1.47-1.57,3.08-2.95,5.5-3.89-.41,1.5-.95,2.45-1.84,3.22-1.33,.25-2.43,.86-3.15,2.06Z"/><path class="cls-5" d="M142.43,69.81c-1.84,.48-2.31-.56-2.01-2.03,.22-1.11,.81-2.15,1.21-3.17,.89-.27,1.21,.35,1.6,.82-.07,1.5-1.06,2.82-.8,4.38Z"/><path class="cls-3" d="M173.1,76.53c-.18,.8-.45,1.56-1.27,2.01-1.73-.29-2.73-1.12-2.58-3.09,.09-1.23,.37-1.96,1.77-1.57-.49,1.81,.06,2.8,2.08,2.64Z"/><path class="cls-3" d="M142.43,69.81c-.26-1.56,.73-2.88,.8-4.38,.83,.07,1.61,.27,2.41,1.03-.58,1.53-.16,3.93-3.21,3.35Z"/><path class="cls-5" d="M168,57.85c-.94-.08-1.36,.77-2.04,1.16-.87-1.25-1.74-2.5-2.95-4.23,2.28,.78,4.05,1.21,4.98,3.07Z"/><path class="cls-3" d="M161.49,73.85c.71-.03,1.42-.07,2.14-.09,.91-.02,1.27,.47,1.25,1.34-.02,.88-.45,1.32-1.33,1.28-.89-.05-1.78-.12-2.66-.18,.2-.78,.4-1.56,.6-2.34Z"/><path class="cls-3" d="M150.17,69.37c-.99-1.62-.29-2.47,1.35-2.68,.86-.11,1.76,.08,2.63,.13-.33,2.41-2.49,1.96-3.99,2.55Z"/><path class="cls-5" d="M150.17,69.37c1.5-.59,3.66-.14,3.99-2.55,1.91,.33,.25,1.77,1.36,2.55-2.16,.54-3.76,.82-5.35,0Z"/><path class="cls-5" d="M173.1,76.53c-2.02,.16-2.57-.83-2.08-2.64,.84,.11,1.69,.22,2.49,.33,.34,.97-.04,1.64-.42,2.31Z"/><path class="cls-3" d="M145.23,60.85c.72-1.2,1.81-1.81,3.15-2.06-.61,3.09-1.16,3.45-3.15,2.06Z"/><path class="cls-5" d="M161.49,73.85c-.2,.78-.4,1.56-.6,2.34-.81-.01-1.99,.61-1.98-.95,.02-1.88,1.46-1.4,2.58-1.4Z"/></g></g></svg>