<?xml version="1.0" encoding="UTF-8"?><svg id="Layer_2" xmlns="http://www.w3.org/2000/svg" viewBox="0 0 128.47 184.31"><defs><style>.cls-1{fill:#f4f2e8;}.cls-2{fill:#2c1321;}.cls-3{fill:#e7bd84;}.cls-4{fill:#6d3de3;}.cls-5{fill:#6c3ce0;}.cls-6{fill:#efbe63;}</style></defs><g id="Hungry_Chibi_Birb_Image"><path class="cls-2" d="M14.42,53.91c-2.43-1.09-4.74-2.15-6.67-3.81-.96-.83-1.99-1.62-2.8-2.58-2.77-3.29-4.44-7.02-2.7-11.28,1.74-4.23,5.49-5.78,9.79-6.24,.35-.04,.71-.06,1.29-.11-1.65-4.37-2.6-8.74-2.43-13.33C11.26,7.6,16.94,.94,25.58,.08c5.83-.58,10.83,1.87,15.15,5.62,6.86,5.96,10.45,13.55,10.81,23.01,2.4,0,4.82-.09,7.24,.02,15.77,.72,29.06,6.81,39.24,18.92,13.26,15.77,14.25,37.9-1.61,54.13,1.62,1.52,3.19,3.1,4.87,4.55,.99,.86,5.08-.06,6.07-1.3,3.47-4.31,6.92-8.64,10.39-12.96,.51-.64,1.02-1.28,1.58-1.87,.86-.92,1.79-2.21,3.16-1.03,1.33,1.14,.35,2.26-.49,3.28-3.47,4.19-6.93,8.4-10.38,12.61-.33,.4-.61,.83-.93,1.25,1.87,1.27,3.05,.8,4.38-.78,3.2-3.82,6.63-7.46,9.97-11.17,.81-.9,1.72-1.98,2.91-.72,1.01,1.05,.45,2.21-.44,3.13-3.65,3.8-7.33,7.56-10.75,11.85,2.04,1.71,3.6,3.72,4.15,6.38,.72,3.48,.45,6.73-2.17,9.37-1.05,1.06-1.33,2.23-1.46,3.63-1.51,16.42-12.95,28.84-29.18,31.75-.62,.11-1.25,.24-1.87,.36-3.18,.66-4.01,1.74-3.74,4.88,.44,5.08,.43,5.15,5.43,6.06,3.47,.64,6.99,1.04,10.48,1.57,.98,.15,2,.29,2.9,.66,1.22,.5,1.83,1.49,1.4,2.85-.41,1.29-1.42,1.54-2.61,1.37-1.33-.19-2.66-.42-4.26-.67,.04,1.32,.71,2.7-.71,3.45-1.33,.69-2.45,0-3.56-.64-2.04-1.17-4.2-2.18-6.08-3.57-3.04-2.25-6.13-.28-9.18-.42-.89-.04-1.8,.3-2.7,.29-1.22-.01-2.09-.62-2.22-1.93-.14-1.34,.67-1.98,1.84-2.3,1.82-.49,3.83,.2,5.67-.84-.26-2.15-.52-4.29-.82-6.77-9.93,3.81-19.93,4.09-30.32,2.03l.48,6.7c5.99,1.65,12,2.49,17.97,3.51,1.46,.25,2.82,.48,2.72,2.31-.12,2.08-1.76,2.02-3.24,1.94-2.07-.11-4.13-.32-6.38-.51,.3,1.37,1.28,2.77-.22,3.77-1.54,1.03-2.89,.07-3.91-.9-4.64-4.37-10.33-5.29-16.35-5.28-1.48,0-3.13,.08-3.32-1.92-.21-2.26,1.69-2.31,3.16-2.47,1.6-.17,3.23-.04,4.94-.04,0-2.36-.02-4.79,0-7.22,0-.86-.37-1.3-1.17-1.59-5.32-1.91-10.25-4.56-14.74-7.97-3.99,3.75-8.51,5.35-13.83,4.34-2.42-.46-4.48-1.54-5.82-3.65-.64-1-1.51-1.45-2.54-1.89-5.88-2.52-7.27-8.14-3.13-13.05,2.25-2.67,4.37-5.51,7.46-7.38,2.14-1.3,2.63-3.11,2.41-5.76-.87-10.8,1.91-20.86,7.4-30.13,1.24-2.09,1.39-3.88,.07-5.77-8.47-12.13-10.79-25.12-5.31-39.28Z"/><path class="cls-5" d="M99.92,112.28c-3.03-.29-5.7-.55-8.37-.82-1.1-.11-1.5-.83-1.63-1.84-.76-5.56-1.54-11.11-2.32-16.67-.05-.38-.02-.7,.31-.96,3.12-2.42,2.59-5.78,2.17-9.01-1.29-10.08-12.34-16.58-21.51-13.96-4.92,1.41-7.68,7.36-6.76,13.41,.69,4.55,2.81,8.39,5.78,11.81,.52,.6,1.46,1.05,1.22,1.99-1.07,4.21,.5,8.27,.58,12.41,.02,.9-.08,1.8-.13,2.85-4.98,1.29-10.28,1.27-14.9,4.07-2.29-1.64-4.61-3.4-7.26-4.6-.99-.45-2.03-.78-3.06-1.12-1.45-.48-2.88-.37-3.42,1.21-.56,1.67,.67,2.39,2.11,2.87,3.67,1.24,6.87,3.29,9.61,6.01,4.97,4.93,4.24,9.75-2.06,12.72-6.7,3.16-13.86,3.32-21.08,2.64-2.07-.2-4.13-.57-6.2-.79-1.59-.17-3.34-.24-3.63,1.84-.25,1.81,1.16,2.52,2.7,2.8,4.47,.81,9.02,1.22,13.53,1.06,3.59-.13,7.27-.05,10.77-1.27,.95-.33,1.61,.03,2.22,.97,8.14,12.47,12.46,15.67,26.96,20.03-6.12,2.82-12.47,3.28-18.78,2.77-13.22-1.07-24.42-6.53-33.19-16.64-6.85-7.9-8.16-17.16-6.35-27.06,1.37-7.47,3.62-14.63,8.5-20.68,.99-1.22,1.11-2.48,.42-3.77-.68-1.27-1.47-2.5-2.31-3.68-8.21-11.63-10.56-23.9-4.08-37.12,.61-1.25,.47-1.96-.7-2.66-1.09-.65-2.1-1.35-3.34-1.79-3.5-1.23-6.58-3.16-8.56-6.4-1.29-2.11-1.93-4.39,.15-6.49,2.21-2.23,5.22-2.73,7.69-1.12,1.5,.98,2.84,2.22,4.23,3.36,.49,.4,.87,1.02,1.41,1.25,1.39,.58,3.08,.77,4.07-.34,1.08-1.22-.22-2.31-1.13-3.17-4.62-4.36-7.12-9.8-8.02-15.99-.57-3.9,.2-7.61,2.3-10.96,2.64-4.22,7.47-5.95,12.68-4.21,9.08,3.02,13.61,10.01,15.91,18.87,.62,2.41,.35,4.85,.8,7.28,.42,2.2,1.33,2.53,3.29,2.28,12.11-1.58,23.31,1.2,33.48,7.76,11.31,7.29,18.36,17.53,19.41,31.17,.63,8.16-2.03,15.56-7.06,22.06-.17,.22-.36,.41-.53,.62-5.09,6.14-5.04,6.93,.6,12.47,1.27,1.25,2.55,2.51,3.47,4.51Z"/><path class="cls-4" d="M13.83,137.94c1.53,6.75,6.09,11.08,10.27,15.61-3.87,4.48-9.91,4.33-13.14-.2-.79-1.11-1.91-1.56-3.12-2-3.39-1.23-3.88-2.94-2.18-6.01,1.8-3.25,4.84-5,8.18-7.4Z"/><path class="cls-4" d="M117.01,121.07c-1.52-2.59-3.65-3.94-5.97-5.43,1.14-1.42,2.19-2.74,3.22-4.03,3.27,1.49,4.39,5.1,2.75,9.46Z"/><path class="cls-4" d="M111.01,110.37c-1.02,1.3-1.84,2.37-2.69,3.41-.46,.57-1.05,.72-1.68,.3-.68-.45-.92-1.07-.62-1.88,.75-2.03,2.46-2.75,4.99-1.83Z"/><path class="cls-3" d="M84.72,93.98c.48,4.39,.86,8.8,1.46,13.17,.38,2.74,.54,5.49,1.49,8.2,.78,2.22,2.1,3.24,4.1,3.83,2.9,.86,5.93,.65,8.88,1.14,2.25,.37,4.38,1.07,6.53,1.79,2.15,.73,2.07,2.51,2.28,4.16,.17,1.36-1.13,1.3-1.87,1.5-1.51,.4-3.09,1.56-4.42-.72-1.28-2.18-3.57-3.27-6-3.91-1.57-.41-3.15-.84-4.75-1.1-5.04-.8-7.51-4.14-8.26-8.78-.87-5.34-1.32-10.75-1.99-16.12-.21-1.71,1.41-2.11,1.82-3.36l.75,.19Z"/><path class="cls-3" d="M74.95,131.27c-4.44-.42-8.46-.66-12.58-1.77,1.72-2.08,3.96-2.55,6.12-3.12,2.58-.68,4.96-1.66,6.94-3.54,2.45-2.33,3.45-4.98,3.28-8.48-.23-4.61-.32-9.22-1.14-13.78-.17-.94-.68-2.32,1.26-2.34,.99,2.3,.74,4.79,1.09,7.18,.54,3.65,1.01,7.3,.92,11.02-.07,2.74-.74,5.19-2.46,7.32-1.72,2.13-3.37,4.29-3.42,7.52Z"/><path class="cls-3" d="M59.7,126.71c-.56-3.88-.38-4.08,3.35-4.2,6.62-.21,9.49-3.52,9.67-9.99,.14-4.82-1.17-9.54-.67-14.46,1.4-.29,1.96,.13,2.2,1.52,.89,5.18,1.23,10.41,1.47,15.65,.14,3.08-2.67,6.09-6.64,7.38-1.64,.53-3.29,1.01-4.93,1.51-1.59,.48-2.78,1.64-4.44,2.58Z"/><path class="cls-3" d="M83.68,120.53c4.33,6.05,12.44,3.67,17.15,8.72-2.28,1.21-4.57,1.11-6.73,1.31-1.73,.16-2.31-2.13-4.04-2.63-2.09-.61-3.79-2.06-5.18-3.78-.66-.82-1.47-1.62-1.2-3.62Z"/><path class="cls-3" d="M78.59,131.08c-.13-2.57,1.64-3.98,2.98-5.78,1.98,2.2,3.96,4.27,6.61,5.78h-9.58Z"/><path class="cls-1" d="M51.26,137.22c2.5-1.53,5.06-2.66,7.13-4.55,.67-.62,1.37-.05,2.05,.08,14.59,2.95,29.16,2.86,43.68-.36,3.25-.72,6.25-2.27,9.28-3.8,.15,10.77-10.77,24.32-21.34,26.62-18.29,3.98-33.76-2.77-40.8-17.99Z"/><path class="cls-1" d="M56.95,117.94c4.1-1.27,8.02-2.18,12.14-2.58-2.28,4.19-9.96,5.92-12.14,2.58Z"/><path class="cls-1" d="M91.35,115.01c2.38-.05,4.48,.33,6.91,.89-2.71,.89-4.25,.68-6.91-.89Z"/><path class="cls-2" d="M46.96,69.73c.33-2.21,.81-4.6,2.44-6.58,2.08-2.52,4.74-2.57,6.98-.11,1.95,2.13,2.47,4.79,2.64,7.55,.06,.97-.15,1.92-1.28,2.09-1.22,.18-1.86-.61-2.01-1.72-.22-1.62-.36-3.26-1.17-4.72-.39-.71-.84-1.51-1.79-1.47-.84,.04-1.12,.85-1.45,1.48-.63,1.22-1.03,2.51-1.1,3.9-.07,1.23,.24,2.89-1.68,2.76-1.73-.11-1.63-1.63-1.58-3.17Z"/><path class="cls-2" d="M89.79,64.64c-1.21,1.18-1.21,2.65-1.44,4.05-.17,1.03-.52,2.11-1.78,1.98-1.41-.14-1.59-1.31-1.43-2.48,.23-1.7,.49-3.42,1.34-4.95,1.51-2.7,4.62-2.92,6.45-.44,1.16,1.56,1.54,3.46,1.91,5.32,.19,.98-.17,1.87-1.26,2.07-1.07,.2-1.63-.46-1.97-1.43-.48-1.39-.43-3.04-1.82-4.13Z"/><path class="cls-6" d="M85.84,85.52c.18,1.52-.12,2.73-2.39,2.67-1.53-.04-2.17,1.43-2.95,2.54-2.61,3.73-5.55,4.15-8.79,.97-3.78-3.72-6.06-8.14-5.07-13.67,.74-4.1,3.51-5.95,7.61-5.17,7.02,1.34,11.36,5.99,11.59,12.66Z"/></g></svg>