<?xml version="1.0" encoding="UTF-8"?><svg id="Layer_2" xmlns="http://www.w3.org/2000/svg" viewBox="0 0 108.51 184.28"><defs><style>.cls-1{fill:#2b1221;}.cls-2{fill:#b07775;}.cls-3{fill:#6d402a;}.cls-4{fill:#f3f2e7;}.cls-5{fill:#6c3ce0;}.cls-6{fill:#efbe63;}</style></defs><g id="GM_Chibi_Birb_Image"><path class="cls-1" d="M80.82,156.49c-4.52,3.38-9.36,6.02-14.6,7.9-.89,.32-1.34,.78-1.32,1.76,.04,2.35,.01,4.7,.01,7.29,2.05-.08,4.1-.54,6.13,.03,1.14,.32,2.1,.75,2.02,2.14-.09,1.46-1.04,2.01-2.38,2.07-3.71,.15-7.38,.22-11.01,1.4-2.63,.86-4.42,2.75-6.61,4.14-1.16,.74-2.33,1.63-3.71,.58-1.35-1.03-.46-2.3-.11-3.67-2.34,.17-4.56,.38-6.79,.49-1.32,.06-2.69-.09-2.85-1.8-.16-1.78,1.03-2.2,2.56-2.45,5.99-1,12-1.87,18.08-3.49,.18-2.07,.36-4.19,.57-6.71-10.33,1.94-20.33,1.89-30.07-2-1.05,2.25-.52,4.5-1.22,6.68,1.58,.96,3.25,.55,4.81,.75,1.53,.2,3.05,.53,2.77,2.55-.25,1.78-1.64,1.97-3.11,1.78-2.25-.29-4.51-.49-6.72-.96-1.21-.26-2.13,.1-3.08,.62-2.53,1.4-5.05,2.83-7.56,4.27-1.07,.61-2.16,1.1-3.32,.39-1.23-.75-.79-1.99-.48-3.35-1.5,.21-2.74,.34-3.97,.56-1.37,.24-2.64,.2-3.05-1.41-.42-1.67,.54-2.64,2.05-2.94,2.13-.43,4.3-.64,6.44-.99,3.04-.5,6.06-1.11,9.11-1.55,1.52-.22,2.3-.86,2.24-2.43-.01-.35,.12-.71,.2-1.07,.68-3.08,.34-5.21-2.9-7.27-6.82-4.34-12.52-9.96-14.47-18.33-.14-.62-.36-1.23-.4-1.85-.16-2.25-.95-3.82-3.01-5.26-5.58-3.92-5.69-9.73-4.32-15.7,1.59-6.94,5.68-12.25,11.35-16.62-.45-1.29-1.65-2.04-2.49-3.05-12.98-15.44-12.18-37.16,2.22-52.83,10.48-11.4,23.64-17.1,39.13-17.41,1.82-.04,3.63,0,5.45-.02,.16,0,.31-.15,.59-.3,.36-9.09,3.94-16.77,10.9-22.76C72.2,1.91,77.21-.53,83.04,.1c8.64,.93,14.26,7.59,14.56,16.58,.15,4.51-.73,8.82-2.47,13.23,2.55,.07,4.81,.57,6.88,1.73,4.29,2.38,5.88,6.41,4.34,11.09-1.59,4.84-5.34,7.63-9.55,9.95-.78,.43-1.63,.75-2.65,1.21,1.73,4.93,2.97,9.89,2.92,15.11-.08,8.34-2.63,15.91-7.32,22.7-2.01,2.91-2.14,5.14-.33,8.35,5.34,9.42,8.04,19.58,6.67,30.53-.23,1.82,.72,3,2.04,3.85,3.16,2.05,5.54,4.88,7.92,7.7,4.25,5.01,2.87,10.61-3.14,13.24-.65,.29-1.34,.46-1.88,1.03-5.86,6.11-12.96,6.41-19.36,.84-.21-.18-.41-.35-.84-.72Z"/><path class="cls-5" d="M26.19,115.86c-1.1,.23-1.81-.2-2.54-1.08-1.25-1.51-2.24-3.31-4.22-4.23-2.33,1.71-1.19,3.91-.85,5.94-.85,.89-2.02,.89-2.98,1.33-3.26,1.49-6.04,3.22-6.08,7.48-.02,1.73-.95,3.46-1.49,5.27-2.42-1.42-3.23-3.55-3.31-6.03-.22-6.5,2.55-11.75,6.9-16.33,.37-.39,.76-.78,1.18-1.13,5.13-4.22,4.22-6.06,.67-10.64-4.04-5.22-7.14-10.72-8.05-17.29-1.61-11.59,2.13-21.61,9.93-29.94,11.48-12.26,25.86-17.27,42.56-15.52,1.91,.2,2.97,.05,3.29-2.24,.51-3.65,.49-7.39,1.87-10.93,2.11-5.4,5.2-9.99,10.16-13.1,4.56-2.87,9.48-4.2,14.32-1,4.94,3.27,6,8.49,5.35,13.98-.73,6.21-3.34,11.64-7.96,16.01-.91,.86-2.3,2.05-1.18,3.14,1.24,1.22,3.29,1.35,4.66-.08,1.27-1.33,2.77-2.32,4.14-3.49,2.7-2.31,6.01-2.07,8.59,.44,1.84,1.8,1.73,4.7-.38,7.4-2.01,2.57-4.66,4.29-7.68,5.44-.59,.23-1.22,.38-1.78,.66-3.29,1.66-3.35,1.92-1.86,5.29,5.03,11.41,3.51,22.28-2.79,32.73-.84,1.4-1.85,2.69-2.8,4.02-2.52,3.52-2.47,4.35,.04,7.9,4.35,6.14,6.38,13.17,7.58,20.49,.52,3.14,.67,6.28,.36,9.47-1.15,12-8.4,19.81-18.02,25.75-10.86,6.7-22.66,8.99-35.26,6.21-.69-.15-1.35-.42-2.49-.77,6.79-.81,12.26-3.3,16.7-7.88,.67-.69,1.32-1.07,2.31-1.18,6.24-.68,10.61-4.02,13.01-9.75,.72-1.73,1.51-2.33,3.36-2.1,4.81,.59,9.58-.25,14.36-.74,.71-.07,1.44-.31,2.07-.64,.96-.5,1.51-1.36,1.26-2.47-.24-1.09-1.01-1.78-2.15-1.7-2.35,.17-4.69,.42-7.03,.71-6.29,.8-12.52,.59-18.59-1.3-3.69-1.15-7.59-2.6-8.3-6.96-.67-4.09,2.4-6.64,5.28-8.91,2.2-1.74,4.61-3.25,7.34-4.07,1.42-.43,2.74-1.1,2.23-2.8-.54-1.79-2.07-1.74-3.6-1.28-4.63,1.41-8.5,4.07-11.86,7.47-1.16,1.17-2.03,1.65-3.71,1-3.23-1.23-6.65-1.78-10.09-2.15,.04-.77,.39-1.39,1-1.82,1.32-.95,1.83-2.21,.6-3.37-1.11-1.04-2.51-.62-3.66,.34-1.4,1.17-1.77,2.87-2.35,4.47l-3.61-.17c-.51-2.75-.97-5.45,2.25-7.05,.93-.47,1.01-1.49,.7-2.41-.35-1.05-1.28-1.17-2.23-1.13-1.6,.07-2.63,1.03-3.57,2.2-2.08,2.58-1.8,5.58-1.61,8.58Z"/><g><path class="cls-2" d="M26.19,115.86c-.19-3-.47-6,1.61-8.58,.94-1.17,1.97-2.13,3.57-2.2,.95-.04,1.88,.07,2.23,1.13,.31,.92,.24,1.94-.7,2.41-3.22,1.6-2.76,4.3-2.26,7.05,.42,1.41,.17,2.98,1,4.29,0,.8,.02,1.6,.02,2.4-.52,1.31-1.05,2.61-1.57,3.92-2.22,2.52-3.34,2.52-4.75-.01,.23-1.47,1.63-2.48,1.62-4.05,.44-.76,.21-1.57,.21-2.37-.14-1.38-.36-2.73-.99-3.99Z"/><path class="cls-2" d="M34.26,115.84c.58-1.6,.95-3.3,2.35-4.47,1.15-.96,2.55-1.38,3.66-.34,1.23,1.15,.72,2.42-.6,3.37-.61,.44-.96,1.05-1,1.82-.35,1.57-.05,3.11,.25,4.65,.1,.75,.2,1.49,.3,2.24,.21,1.48-.33,2.87-.52,4.31-.88,1.12-1.62,2.68-3.42,2.04-1.46-.52-.98-1.95-1.01-3.09,.66-1.23,1.33-2.46,.55-3.89l-.18-2.25c-.13-1.46-.26-2.92-.39-4.38Z"/><path class="cls-3" d="M34.27,126.36c.03,1.14-.45,2.57,1.01,3.09,1.8,.64,2.54-.91,3.42-2.04,3.12,.36,6.05,1.25,8.75,2.93-9.29,1.5-18.41,1.41-27.49-2.05,1.62-1.35,3.49-1.71,5.39-2.03,1.41,2.53,2.53,2.53,4.75,.01,1.39,.03,2.78,.06,4.17,.09Z"/><path class="cls-4" d="M27.18,119.85c0,.8,.24,1.61-.21,2.37-4.09,.28-8.1,.76-11.04,4.06-2.25-1.89-2.22-2.61,.27-3.78,3.47-1.63,7.26-2.01,10.98-2.64Z"/><path class="cls-4" d="M39.22,123.11c-.1-.75-.2-1.49-.3-2.24,3.49,.05,6.71,1.24,9.92,2.29,.37,.92,.09,1.67-.13,2.58-3.18-1.13-6.27-2.13-9.49-2.62Z"/><path class="cls-1" d="M34.26,115.84c.13,1.46,.26,2.92,.39,4.38-1-.09-2-.18-3-.26-.83-1.31-.57-2.88-1-4.29,1.2,.06,2.41,.11,3.61,.17Z"/><path class="cls-1" d="M34.27,126.36c-1.39-.03-2.78-.06-4.17-.09,.52-1.31,1.05-2.61,1.57-3.92,1.05,.04,2.1,.07,3.16,.11,.77,1.43,.1,2.66-.55,3.89Z"/><path class="cls-4" d="M34.82,122.47c-1.05-.04-2.1-.07-3.16-.11,0-.8-.02-1.6-.02-2.4,1,.09,2,.18,3,.26,.06,.75,.12,1.5,.18,2.25Z"/></g><path class="cls-1" d="M59.47,67.1c-.04,2.64-1.59,4.14-3.66,4.07-1.86-.06-3.42-1.74-3.2-3.66,.23-2.04,1.39-3.35,3.57-3.33,2.21,.03,3.24,1.31,3.29,2.92Z"/><path class="cls-1" d="M19.93,67.28c-1.83-.17-3.04-1.15-3.05-3.06,0-1.99,1.15-3.22,3.2-3.25,1.95-.02,3.02,1.25,3.13,3.05,.12,2.1-1.28,3.01-3.27,3.25Z"/><path class="cls-1" d="M35.93,68.52c6.6-.01,10.02,3.35,10.83,10.65,.7,6.35-3.98,15.09-9.67,18.05-4.54,2.36-8.63,1.54-11.88-2.44-.91-1.12-1.64-2.13-3.36-2.37-2.06-.28-3.06-1.99-3.48-4.05-2.05-10.07,6.56-19.82,17.56-19.84Z"/><path class="cls-6" d="M42.11,81.23c-.34,4.27-2.44,8.27-6.27,11.25-2.86,2.22-5.29,1.77-7.43-1.2-1.17-1.63-2.12-3.31-4.58-3.29-1.41,.01-1.14-1.41-1.15-2.34-.07-5.85,3.83-10.74,9.87-12.43,6.06-1.7,9.64,1.07,9.56,8.01Z"/><path class="cls-5" d="M84.42,153.55c4.17-4.53,8.74-8.85,10.23-15.46,3.55,2.16,6.65,4.19,8.46,7.73,1.23,2.39,.95,4.14-1.44,5.08-2.19,.86-3.76,2.06-5.18,4.01-2.33,3.21-8.83,2.4-12.08-1.36Z"/><path class="cls-5" d="M58.9,143.1c.34-1.54,.62-2.82,.9-4.09,1.13-.28,2.07-.18,3.19,.29-.63,1.98-2.04,3.01-4.09,3.8Z"/><path class="cls-4" d="M13.45,130.86c12.13,5.52,24.46,6.23,37.1,3.32,2.34-.54,5.2,2.16,4.82,4.49-1.46,8.94-9.17,16.48-18.03,17.61-10.3,1.31-18.44-2.92-22.33-12.11-1.75-4.15-2.46-8.64-1.56-13.32Z"/></g></svg>