<?xml version="1.0" encoding="UTF-8"?><svg id="Layer_2" xmlns="http://www.w3.org/2000/svg" viewBox="0 0 227.69 128.9"><defs><style>.cls-1{fill:#a17ee2;}.cls-2{fill:#2d1422;}.cls-3{fill:#cde0e1;}.cls-4{fill:#decee4;}.cls-5{fill:#f3f2e7;}.cls-6{fill:#6c3ce0;}.cls-7{fill:#885eeb;}.cls-8{fill:#eebe63;}</style></defs><g id="GN_Chibi_Birb_Image"><path class="cls-2" d="M198.36,47.9c1.1-1.28,1.96-2.32,2.88-3.32,5.65-6.18,13.9-5.49,18.42,1.58,3.28,5.12,4.88,10.93,6.24,16.75,2.53,10.89,2.4,21.88-.52,32.62-4.71,17.33-17.7,23.14-34.18,21.45-1.47-.15-2.83-.17-4.28,.15-12.14,2.7-24.44,3.17-36.83,2.72-11.88-.43-23.76-.74-35.41-3.53-4.7-1.13-9.19-2.76-13.36-5.25-.58-.35-1.08-1.12-1.92-.58-.9,.57-.28,1.25-.12,1.92,1.07,4.49,0,7.07-4.13,9.23-6.6,3.46-13.76,4.98-21.07,6.05-8.66,1.27-17.36,1.36-26.08,1.1-11.69-.35-21.26-5.44-29.67-13.14-.94-.86-1.97-1.89-2.07-3.12-.14-1.69-1.16-1.91-2.4-2.28-6.34-1.87-11.4-5.31-13.25-12.03-1.57-5.73-.08-10.96,3.42-15.63,1.11-1.48,1.91-2.93,2.09-4.85,.27-2.92,2.09-5.18,3.92-7.33,6.41-7.53,14.74-11.6,24.36-13.17,1.97-.32,3.05-1.07,3.96-2.96,7.03-14.64,17.81-24.99,34.02-28.87,5.95-1.43,11.88-.99,17.9,.51,.53-3.35,.87-6.57,1.56-9.7,2.45-11.08,13.91-18.26,24.88-15.68,8,1.88,12.62,9.3,10.87,17.4-.93,4.33-3.12,8.07-5.48,11.82,1.68,1.09,3.25,2.12,4.66,3.04,12.11-7.11,25.15-7.02,38.14-4.74,13.32,2.34,23.71,10.38,33.42,19.85Z"/><path class="cls-6" d="M100.06,48.54c1.9-.91,3.67-1.76,5.72-2.74,.63,6.67,1.41,12.98,.94,19.44-.63,8.68-1.28,17.35-2.87,25.92-.57,3.04-1.62,5.94-2.5,8.89-1.32,4.42-4.2,7-8.43,8.46-10.95,3.78-22.05,5.06-33.43,2.24-.53-.13-1.05-.29-1.56-.47q-5.06-1.87-7.69,2.85c-1.8,3.23-6.79,5.53-10.27,4.72-4.14-.96-5.48-4.25-3.17-7.85,.9-1.4,2.14-2.44,3.55-3.32,1.12-.69,1.66-1.71,1.21-3.01-.45-1.31-1.61-1.24-2.72-1.28-1.35-.05-2.43,.62-3.59,1.14-6.54,2.96-13.25,4.27-20.36,2.21-9.97-2.89-13.28-11.66-7.33-20.14,4.69-6.68,11.52-10.04,19.43-11.39,2.6-.44,5.18-.76,7.84-.2,2.17,.46,3.15-.75,3.42-2.82,1.79-14.02,8.31-25.44,19.5-33.99,8.91-6.81,18.94-9.74,30.2-7.13,1.94,.45,2.94,1.07,2.44,3.47-.51,2.45-.36,5.05-.92,7.54-.34,1.51-.94,2.43-2.73,2.81-7.94,1.72-13.69,10.76-10.56,20.71,.52,1.65,1.94,2.62,3.35,3.44,5.94,3.47,12.21,3.96,18.59,1.49,5.99-2.32,7.9-9.05,4.24-14.75-1.21-1.88-2.12-3.75-2.3-6.26Z"/><path class="cls-4" d="M144.73,31.78c1.9,5.23,1.96,10.52,2.49,15.72,1.78,17.55,2.41,35.11,0,52.67-.6,4.32-1.67,8.54-3.08,12.68-.54,1.6-1.29,2.24-3.08,2.18-6.62-.22-13.2-.75-19.7-1.86-.09-.23-.25-.44-.2-.55,6.17-12.91,7.93-26.84,9.47-40.82,1.21-10.98,.51-21.92-.7-32.84-.23-2.08,.51-3.17,2.27-4.04,3.89-1.93,8.05-2.65,12.53-3.14Z"/><path class="cls-1" d="M149.62,31.65c5.06-.22,10.01-.12,14.94,.85,1.62,.32,2.25,1.17,2.7,2.58,1.08,3.4,1.63,6.91,1.85,10.42,1.02,16.02,2.25,32.05,1.67,48.13-.23,6.54-1.16,13-2.69,19.36-.36,1.5-1.05,2.21-2.74,2.32-5.63,.37-11.22-.07-16.92-.27,7.67-27.73,4.5-55.4,1.19-83.4Z"/><path class="cls-4" d="M172.57,114.56c5.18-26.62,2-53.01-.53-79.8,2.65,1.46,5.22,3.08,7.95,4.35,6.88,3.18,10.65,7.79,10.94,16,.57,15.99,1.09,31.93-1.4,47.79-1.51,9.61-1.67,9.56-11.29,11.14-1.86,.3-3.71,.56-5.67,.52Z"/><path class="cls-5" d="M103.44,107.35c3.68-8,5.47-16.21,6.38-24.63,1.02-9.38,1.95-18.78,1.15-28.23-.25-2.98-.58-5.95-1.02-8.91-.24-1.65-.08-2.81,1.43-3.93,2.54-1.88,4.94-4,6.66-6.74,.78-1.24,1.64-1.36,2.95-.64,2.85,1.57,4.72,3.54,5.09,7.07,2.1,20.2-.08,40-5.29,59.54-.89,3.34-2.08,6.56-3.89,9.54-.6,.98-1.15,1.76-2.56,1.36-3.76-1.05-7.44-2.23-10.91-4.44Z"/><path class="cls-1" d="M194.73,52.2c5.56,3.17,7.55-1.52,10.61-4.26,2.2,4.86,2.98,9.83,3.6,14.82,1.88,15.04,.52,29.85-3.15,44.52-.65,2.58-1.78,3.83-4.49,4.03-2.17,.16-4.33,.38-6.51,.45-1.92,.07-2.52-.91-2.09-2.51,4.01-15.17,2.69-30.66,2.8-46.06,.03-3.51-.47-7.02-.77-10.99Z"/><path class="cls-4" d="M211.79,106.9c.72-4.27,1.53-8.52,2.13-12.81,2.24-16.19,1.53-32.17-3.61-48.04,2.71-.1,4.08,1.62,5.21,3.58,2.76,4.78,4.07,10.09,5.24,15.4,2.17,9.91,1.76,19.83-.76,29.63-1.06,4.11-3.1,7.74-6.11,10.77-.6,.6-1.04,1.55-2.16,1.41l.05,.06Z"/><path class="cls-5" d="M39.15,122.76c7.37,0,12.54-2.54,15.79-8.47,13.44,4.1,26.58,2.91,39.61-1.35,1.54,2.36,1.34,3.45-1.32,4.83-4.87,2.52-10.12,3.9-15.5,4.84-9.96,1.74-20.01,1.91-30.09,1.64-2.62-.07-5.18-.56-8.49-1.49Z"/><path class="cls-5" d="M12.7,74.12c5.57-7.36,13.37-10.72,22.33-12.48,.18,2.59-1.11,4.78-1.21,7.22-1.68,.73-3.42,.24-5.1,.44-4.99,.59-9.74,1.91-14.18,4.28-.56,.3-1.09,1.06-1.91,.5l.07,.04Z"/><path class="cls-5" d="M33.21,120.26c-4.59-2.02-8.58-4.88-12.59-8.77,3.9-.24,7.21-.64,10.8-1.43-.61,3.69-.23,7.01,2.12,9.84-.12,.11-.23,.23-.33,.36Z"/><g><path class="cls-5" d="M12.62,74.09l.17,.33-.34,.07c.08-.12,.16-.24,.24-.36l-.08-.04Z"/><path class="cls-4" d="M211.74,106.85l-.16,.34-.13-.18c.11-.03,.22-.07,.34-.1l-.05-.06Z"/><path class="cls-5" d="M33.54,119.9c.23,.05,.47,.15,.27,.4-.07,.09-.39-.02-.6-.04,.1-.13,.21-.25,.33-.36Z"/></g><path class="cls-2" d="M76.69,76.64c.19-2.13,.83-3.32,2.95-2.91,2.72,.52,4.72,1.68,5.05,4.79,.31,2.92,1.44,5.75,.24,8.79-.46,1.17-.63,2.36-2.02,2.49-1.4,.12-2.56-.7-2.96-1.98-1.2-3.8-2.24-7.65-3.25-11.18Z"/><path class="cls-2" d="M69.99,41.08c-.02-2.95,1.03-3.7,3.3-3.06,2.72,.77,4.75,3.19,4.38,5.67-.31,2.11-1.03,4.15-1.58,6.22-.25,.97-.86,1.64-1.87,1.69-1.15,.05-1.86-.69-2.12-1.73-.79-3.14-1.52-6.3-2.11-8.79Z"/><path class="cls-3" d="M124.42,15.73c-.05,1.13-.5,3.19-1.45,5.05-4.04,7.99-8.88,15.34-16.72,20.21-2.63,1.64-5.44,2.91-8.32,3.99-2.82,1.05-5.02-.87-4.55-3.77,.85-5.23,.45-10.51,.71-15.76,.1-2.08,.26-4.17,.59-6.22,1.49-9.05,7.76-14.87,16.89-15.77,7.01-.69,12.97,4.54,12.84,12.27Z"/><path class="cls-8" d="M79.89,58.92c0-6.48,5.19-11.29,11.66-10.86,2.41,.16,3.98,1.33,4.37,3.69,.31,1.87,1.15,3.37,2.2,4.88,3.06,4.4,1.69,7.99-3.49,9.45-3.24,.91-6.44,.87-9.64-.16-4.37-1.41-5.11-2.42-5.11-7Z"/><path class="cls-5" d="M103.29,18.04c-2.95-.03-3.88-1.51-2.66-4.04,2-4.16,6.26-6.26,10.54-5.18,1.19,.3,1.86,1.04,1.9,2.31,.04,1.26-.6,2.45-1.71,2.4-2.73-.12-3.99,1.82-5.57,3.37-.75,.73-1.51,1.31-2.51,1.15Z"/><path class="cls-7" d="M66.13,20.18c1.48,.32,2.53,.25,2.54-1.66,0-.79,.24-1.61,.54-2.35,.25-.62,.87-.9,1.56-.88,.7,.03,1.17,.37,1.44,1.03,1.27,3.17-.46,6.7-3.78,7.39-1.93,.4-4.09,2.04-5.84,.01-1.73-2-.2-4.15,.45-6.14,.6-1.84,1.46-3.59,2.28-5.58-2.29-.06-3.07,1.01-3.29,2.75-.14,1.16-.58,2.27-1.99,2.04-1.4-.23-1.39-1.43-1.29-2.58,.32-3.44,5.42-7.36,8.89-6.78,1.72,.29,2.14,1.49,1.92,3.03-.25,1.73-1.15,3.23-1.82,4.81-.66,1.56-1.64,3.02-1.61,4.9Z"/><path class="cls-7" d="M54.79,25.66c1.61-.24,2.38-.73,2.05-2.21-.16-.7-.17-1.44-.14-2.17,.04-1.07,.33-2.06,1.65-2.07,1.07,0,1.53,.75,1.79,1.72,1.3,4.78-1.68,9.11-6.65,9.54-1.87,.16-2.38-1.12-2.33-2.61,.07-2.08,.33-4.16,.48-6.24,.06-.85,.48-1.78-.38-2.5-1.28-.04-1.06,1.06-1.32,1.72-.29,.76-.73,1.28-1.56,1.26-.84-.02-1.25-.61-1.55-1.32-.91-2.19-.22-3.74,2.1-4.7,.25-.1,.5-.22,.74-.35,1.48-.82,2.97-2.24,4.72-1.04,1.73,1.18,.94,3.14,.86,4.81-.1,1.98-.3,3.95-.47,6.15Z"/><path class="cls-7" d="M76.86,8.51c-1.01,0-1.33,.6-1.54,1.52-.21,.91-1,1.28-1.91,1.11-.96-.17-1.32-.92-1.38-1.79-.09-1.44,.22-2.75,1.73-3.37,.92-.37,1.86-.75,2.83-.94,1.5-.29,3.13-.74,4.3,.71,1.14,1.41,.52,2.92,.02,4.39-.74,2.2-2.06,4.22-2.18,6.62,.97,.59,1.83,.27,2.8,0,.1-.49,.22-1.01,.3-1.53,.17-1.1,.66-1.99,1.9-1.88,1.36,.12,1.67,1.15,1.68,2.37,.03,3.9-.68,4.65-4.71,4.87-.82,.04-1.63,.13-2.45,.12-2.86-.05-3.99-1.42-3.24-4.22,.68-2.53,1.61-4.99,2.43-7.47,.03-.2,.05-.41,.08-.61l-.67,.1Z"/></g></svg>