<?xml version="1.0" encoding="UTF-8"?><svg id="Layer_2" xmlns="http://www.w3.org/2000/svg" viewBox="0 0 170.43 199.46"><defs><style>.cls-1{fill:#4b5a4f;}.cls-2{fill:#e5a5a7;}.cls-3{fill:#2a121f;}.cls-4{fill:#e9dac5;}.cls-5{fill:#322b24;}.cls-6{fill:#6c3cde;}.cls-7{fill:#efbe63;}.cls-8{fill:#8d90cc;}</style></defs><g id="Godzilla_Chibi_Birb_Image"><path class="cls-3" d="M46.23,180.83c.52-4.96,.47-4.87-3.44-7.15-9.11-5.33-14.74-13.28-17.1-23.5-.49-2.14-1.47-3.4-3.38-4.47-6.04-3.37-11.82-7.14-16.38-12.46C2.06,128.74,.03,123.47,0,117.54c-.04-8.14,4.98-12.82,13.12-12.41,3.37,.17,6.6,.98,9.74,2.36,1.22-3.56,2.13-7.04,3.06-10.46,.69-2.53-.85-5.45-1.02-8.27-.47-7.78,.69-15.2,4.65-22.01,.65-1.12,.87-2.06,.42-3.26-.28-.75-.4-1.59-.42-2.4-.48-14.79,5.77-25.76,18.73-32.91,6.02-3.32,12.57-4.58,19.35-4.88,1.4-.06,2.66-.28,3.83-1.1,5.6-3.91,11.99-5.51,18.67-5.99,2.26-.16,3.59-.83,4.88-2.91C99.95,5.27,107.91,1.98,116.75,.38c2.23-.4,4.49-.55,6.77-.09,1.63,.34,3.02,.88,3.29,2.72,.28,1.89-1.03,2.74-2.49,3.44-1.12,.54-2.21,1.14-4.01,2.07,3.44,0,6.07,.01,8.7,0,1.95-.01,3.78,.45,5.48,1.38,1.26,.68,2.15,1.63,2,3.25-.14,1.49-1.05,2.22-2.31,2.73-1.74,.7-3.46,1.42-5.14,2.71,1.69,.29,3.39,.53,5.07,.87,3.61,.73,6.91,2.17,9.78,4.52,1.26,1.03,2.17,2.25,1.72,4-.42,1.63-1.73,2.24-3.18,2.62-1.22,.32-2.46,.6-3.81,.93,.37,1.04,1.36,1.16,2.04,1.59,4.15,2.6,7.6,5.87,10.02,10.17,1.15,2.05,2.01,4.21,.68,6.43-1.32,2.22-3.6,2.14-5.83,1.95-.26-.02-.52,.03-1.06,.07,3.08,3.8,5.48,7.8,7.36,12.11,.44,1,.91,1.98,1.29,3,2.11,5.64,.78,7.66-5.15,7.59,1.45,3.75,3.26,7.33,3.89,11.29,.1,.63,.27,1.25,.32,1.87,.52,5.66-1.43,7.11-6.8,5.1-.3-.11-.66-.06-1.35-.11,1.07,4.6,2.08,8.98,2.6,13.44,.39,3.42-.28,4.61-3.26,5.84-.1,4.53,4.39,9.25-.77,14.1,.83,2.31,2.1,5.09,2.78,8.07,.34,1.49,.5,2.98-.86,3.99-1.46,1.08-2.91,.45-4.29-.42-1.1-.69-1.91-1.91-3.69-2.03,.23,3.21,1.17,5.85,3.8,7.93,4.21-3.51,8.73-3.66,13.44-1.25,.75,.38,1.25,.28,1.96-.16,4.02-2.44,10.69-1.73,13.91,1.4,1.28,1.24,1,5.07-.75,7.02-1.38,1.54-2.97,2.94-4.62,4.21-11.61,8.87-23.85,16.6-38.24,20.18-8.19,2.04-16.52,3.33-24.9,4.35-4.86,.59-9.72,1.11-14.53,1.66-.11,.26-.24,.42-.23,.58,.43,5.38,.45,5.42,5.77,5.75,1.81,.11,3.63,.03,5.45,.06,1.36,.02,2.3,.6,2.36,2.07,.06,1.55-1.02,2.12-2.3,2.1-2.81-.03-5.74,.26-8.41-.43-6.36-1.65-10.68,.75-13.94,5.96-.24,.38-.46,.78-.72,1.15-.84,1.23-2.02,1.68-3.29,.92-1.38-.83-1.2-2.13-.39-3.32,.75-1.1,1.61-2.13,2.8-3.68-4.32,.34-8.09,.83-11.76,1.94-1.61,.48-3.21,.86-3.82-1.16-.6-1.99,.99-2.83,2.52-3.19,6.45-1.54,13.04-2.2,19.62-2.91,.7-.08,1.41-.09,2.33-.14-.16-1.89-.31-3.64-.46-5.42-10.41-1.1-20.95-.15-30.87-3.99q-.68,2.15-.34,5.01c2.73,.24,5.51,.49,8.3,.72,1.54,.12,3.1,.37,3.01,2.34-.08,2-1.65,2.21-3.19,1.94-3.9-.68-7.91-.29-11.74-1.87-1.74-.72-3.94-.04-5.65,1.24-2.11,1.57-4.24,3.11-6.34,4.71-1.28,.98-2.69,2.05-4.01,.41-1.18-1.47-.08-2.68,1.12-3.67,.19-.15,.3-.39,.74-.99-2.1,.18-3.83,.29-5.55,.48-1.6,.18-3.33,.44-3.56-1.75-.21-2.1,1.57-2.48,3.11-2.67,5.49-.69,10.99-1.28,16.48-1.91,.87-.1,1.74-.24,2.57-.36Z"/><path class="cls-1" d="M161.96,150.31c-5.57,4.8-11.75,8.71-17.98,12.57-9.96,6.17-21.2,8.28-32.44,10.17-10.69,1.8-21.47,3.76-32.35,3.27-10.43-.47-20.99-.54-30.88-5.01-9.84-4.45-15.66-11.95-18.31-22.21-1.94-7.51-1.24-14.65,2.31-21.62,1.69-3.32,1.62-6.63-1.21-9.79-2.4-2.68-4.17-5.95-3.75-10.19,3.33,2.12,6.62,3.93,9.98,5.59,6.78,3.33,13.92,5.18,21.49,5.08,6.89-.09,13.83,.69,20.65-.61,11.36-2.15,21.99-5.75,30.56-14.2,6.36-6.28,6.16-15.43,3.29-21.35-5.68-11.71-15.62-18.6-27.33-23.15-10.11-3.92-20.82-5.31-31.52-6.71-6.61-.87-13.14-.61-19.71,.67-.78-1.78,.14-3.06,.67-4.31,4.72-11.09,13.34-17.33,24.94-19.67,3.09-.62,6.27-.82,9.42-1.1,1.21-.11,2.33-.3,3.33-1.01,11.58-8.24,31.86-8.58,44.39,1.47,5.44,4.36,8.54,9.96,11.52,15.87,4.2,8.32,5.91,17.34,6.6,26.45,.72,9.61-2.77,18.44-6.36,27.25-1.66,4.06-3.72,5.73-8.07,6.52-8.17,1.48-15.49,5.53-22.73,9.53-.4,.22-.79,.47-1.12,.76-1.14,1.01-1.19,2.35-.42,3.43,.81,1.14,2.01,.82,3.14,.11,8-4.98,16.59-8.5,25.88-10.2,2.18-.4,4.4,.07,6.42,.74,2.35,.78,3.73,2.63,4.02,5.3,.7,6.58-1.97,11.38-6.89,15.64-6.3,5.46-13.46,9.11-21.14,11.99-.68,.25-1.37,.51-1.96,.91-.8,.53-1.32,1.31-1,2.33,.33,1.05,1.08,1.63,2.22,1.68,1.42,.07,2.65-.53,3.91-1.02,5.66-2.18,11.16-4.69,16.06-8.28,.23,.31,.34,.39,.33,.45-.11,1.98-1.87,4.12,0,5.9,2.66,2.55,5.37,5.07,9.34,5.69,7.03,1.09,14.08,1.21,21.15,1.05,1.18-.03,2.36,0,3.54,0h0Z"/><path class="cls-6" d="M40.96,101.32c-1.19,.65-2.12,1.15-3.25,1.76-.75-1.36-1.41-2.72-2.22-3.99-.58-.9-1.22-2.17-2.09-2.43-3.95-1.18-4.02-4.52-4.29-7.53-.6-6.7,.26-13.22,3.36-19.32,.59-1.17,1.26-2.24,2.52-2.72,3.04-1.16,5.42-3.25,7.71-5.43,.22,.14,.44,.19,.48,.31,1.73,5.21,4.57,6.32,9.53,3.73,1.83-.96,3.42-2.27,5.1-3.63,1.46,6.46,4.95,9.6,14.51,1.84,.17,3.39,.28,6.79,4.02,8.13,3.49,1.25,6.02-1.1,9.02-2.74,.33,3.08-.35,6.57,3.01,8.16,3.09,1.47,5.76-.47,8.72-1.81-.23,2.18-.58,4.11-.62,6.04-.07,3.73,2.09,5.23,5.68,4.1,2.19-.69,3.99-2.13,6.12-3.21,1.36,1.25,1.74,2.86,1.96,4.77-4.94,1.45-6.8,5.3-7.44,10.1-5.27-.43-8.28,2.2-9.73,7.21-5.14-3.09-9.4-2.11-12.9,2.83-5.34-4.34-10.07-2.37-14.48,1.55-1.93-1.37-2.15-2.51-.62-4.46,4.63-5.92,5.13-14.73,1.46-20.17-3.09-4.58-8.84-6.29-13.93-4.21-6.4,2.62-10.74,7.23-13.4,13.56-1.24,2.94-1.75,5.59,1.79,7.57Z"/><path class="cls-1" d="M161.95,150.31l.23-.22s0,.12-.04,.14c-.05,.04-.12,.06-.19,.09h0Z"/><path class="cls-8" d="M147.24,47.21c-3.53-.48-6.54-2-9.69-2.39-3.08-.39-4.11-2.13-5.12-4.51-.87-2.05-2.07-3.96-3.18-6.03,6.79-.09,15.31,5.96,18,12.93Z"/><path class="cls-8" d="M149.09,69.24c-3.95-1.23-6.33-4-9.36-5.69-.31-.17-.44-.77-.52-1.2-.71-3.7-1.39-7.4-2.15-11.48,5.78,5.01,9.23,11.13,12.04,18.37Z"/><path class="cls-8" d="M116.63,4.97c-4.24,3.91-9.08,7.06-13.18,11.68-1.24-.16-2.92-.37-5.25-.67,4.44-7.05,11.22-9.39,18.43-11Z"/><path class="cls-8" d="M139.47,26.51c-4.86,.91-8.94,1.67-13.01,2.46-.49,.1-.87,.1-1.25-.23-1.74-1.55-3.48-3.09-5.69-5.04,7.07-.54,13.5-1.1,19.94,2.8Z"/><path class="cls-8" d="M127.55,13.33c-4.28,2.26-8.46,4.72-12.87,6.67-1.99,.88-3.66-1.34-6.33-2.02,6.28-3.94,12.61-4.74,19.19-4.66Z"/><path class="cls-8" d="M140.82,71.7c3.31,4.94,5.77,10.31,6.88,16.6-6.8-3.85-9.71-9.02-6.88-16.6Z"/><path class="cls-8" d="M141.38,104.66c-2-2.3-3.98-4.63-6.03-6.89-.79-.87-.43-1.64-.08-2.49,.84-2,1.65-4.02,2.61-6.38,2.03,5.19,3.08,10.33,3.49,15.76Z"/><path class="cls-3" d="M89.18,29.83c3.7,.35,7.77,1.05,11.59,2.83,2.1,.98,3.07,2.95,2.13,4.9-.96,2-2.71,2.66-4.76,1.63-3.72-1.88-7.85-2.64-11.6-4.39-1.22-.57-2.95-1.24-2.44-3.11,.51-1.84,2.24-1.83,3.8-1.86,.27,0,.54,0,1.27,0Z"/><path class="cls-5" d="M41.88,135.52c1.64-.56,1.82-2.24,3-2.93,1.02-.6,2.15-1.38,3.19-.27,.88,.94,.82,2.26,.07,3.26-1.18,1.59-2.46,3.13-3.86,4.51-1.78,1.75-4.28,1.41-5.49-.7-.85-1.48-1.61-3.05-2.14-4.66-.32-.97-.39-2.26,.94-2.79,1.11-.44,1.94,.19,2.57,1.01,.6,.78,1.1,1.64,1.72,2.57Z"/><path class="cls-5" d="M50.71,162.75c1.44-.64,2.26-2.02,3.41-3,1.02-.87,2.2-1.16,3.18-.23,.98,.94,.79,2.21-.14,3.16-1.39,1.42-2.67,2.96-4.36,4.07-2.67,1.75-4.88,1.26-6.25-1.57-.47-.97-.87-1.97-1.45-2.9-.62-.99-.73-2.2,.35-2.91,1.09-.72,2.24-.42,3.17,.58,.79,.84,.78,2.26,2.08,2.81Z"/><path class="cls-5" d="M92.11,125.32c1.85-.52,2.1-2.3,3.36-3.03,1.04-.6,2.05-1.34,3.14-.13,.99,1.09,.69,2.05-.15,3.13-1.34,1.73-2.73,3.39-4.38,4.81-1.85,1.6-3.37,1.38-4.72-.71-.73-1.12-1.26-2.39-1.79-3.63-.6-1.39-.53-2.77,.97-3.51,1.45-.72,2.09,.61,2.8,1.49,.32,.4,.47,.94,.77,1.58Z"/><path class="cls-5" d="M74.72,150.44c1.05-1.56,1.7-2.87,2.86-3.8,.88-.71,1.81-.99,2.68-.16,.75,.72,1.15,1.63,.49,2.68-1.07,1.68-2.02,3.45-3.21,5.03-1.56,2.07-3.75,2.05-5.57,.23-1.15-1.15-1.6-2.62-2.04-4.09-.37-1.22-.15-2.51,1.18-2.97,1.18-.41,2.02,.42,2.59,1.45,.26,.45,.55,.88,1.02,1.62Z"/><path class="cls-5" d="M124.1,154.4c1.03-.37,1.18-1.58,1.99-2.13,.8-.55,1.66-1.2,2.7-.43,1.01,.76,1.31,1.77,.68,2.85-1,1.7-2.04,3.43-3.66,4.61-1.82,1.32-3.58,1.14-4.89-.8-.65-.96-1.1-2.06-1.64-3.1-.64-1.22-.47-2.32,.71-3.06,1.16-.74,2.03-.06,2.77,.84,.39,.48,.65,1.09,1.35,1.22Z"/><path class="cls-5" d="M122.57,68.45c1.7-.68,2.97-2.04,4.79-2.08,1.03-.03,2.09-.02,2.36,1.28,.22,1.05,.05,1.99-1.05,2.53-1.63,.81-3.2,1.75-4.88,2.43-2.85,1.15-4.95-.06-5.77-3.05-.33-1.22-.16-2.19,.9-2.85,1.12-.7,2.08-.28,2.84,.7,.27,.34,.53,.69,.8,1.05Z"/><path class="cls-5" d="M123.34,87.11c1.12-.69,1.92-1.29,2.81-1.7,1.5-.7,3.38,.4,2.99,1.82-.65,2.38-2.81,3.34-4.85,4.32-1.74,.83-2.99-.02-4.05-1.22-1.11-1.25-2.2-2.85-.81-4.32,1.41-1.48,2.76-.22,3.91,1.11Z"/><path class="cls-1" d="M24.62,141.72c-9.3-5.72-18.28-10.82-19.96-22.42-.74-5.11,1.4-10.19,7.98-9.86,3.44,.17,7.03,.61,9.49,2.77,3.26,2.87,4.88,7.16,6.77,11.08,.24,.5-.18,1.42-.48,2.06-2.36,5.01-4.34,10.11-3.8,16.38Z"/><path class="cls-3" d="M77.64,75.63c3.3-.07,5.51,.92,7.59,2.29,1.05,.7,1.35,1.72,.94,2.85-.45,1.21-1.56,1.62-2.67,1.26-3.44-1.09-6.76-1.02-10.03,.57-.08,.04-.18,.06-.27,.05-1.5-.23-3.55,1.08-4.4-.93-.95-2.25,1.1-3.19,2.6-4.13,2.11-1.33,4.52-1.81,6.24-1.96Z"/><path class="cls-3" d="M47.01,76.08c-.02,1.07-.25,1.76-.98,2.1-.89,.41-1.76,.31-2.55-.31-.93-.72-1.81-1.51-2.78-2.16-1.42-.95-2.92-1.39-4.58-.46-1.14,.64-2.37,.73-3.07-.56-.77-1.41-.16-2.62,1.06-3.53,2.83-2.12,7.41-1.73,10.26,.96,1.24,1.17,2.52,2.38,2.65,3.97Z"/><path class="cls-2" d="M77.89,88.65c-1.45-.12-2.89,.08-4.32-.4-1.21-.41-1.85-1.21-1.74-2.42,.09-1.08,.79-1.78,1.93-1.99,2.6-.48,5.22-.64,7.85-.57,1.46,.04,2.36,.85,2.46,2.37,.11,1.53-.67,2.44-2.13,2.66-1.34,.21-2.7,.24-4.05,.35Z"/><path class="cls-2" d="M36.38,76.49c2.4,.48,4.66,1.36,6.8,2.53,1.01,.55,1.27,1.54,.94,2.58-.35,1.12-1.37,1.55-2.38,1.32-2.36-.56-4.7-1.31-6.76-2.65-.87-.57-1.37-1.5-.86-2.59,.43-.92,1.26-1.22,2.25-1.19Z"/><path class="cls-7" d="M51.31,107.35c-2.49-3.58-3.85-7.69-7.73-9.77-.85-.46-.7-1.2-.42-1.89,2.28-5.76,5.94-10.19,12.17-11.76,4.59-1.16,8.53,1.83,8.99,6.58,.38,3.96-.07,7.76-2.54,11.1-1.29,1.74-2.67,3.06-5.12,2.91-2.11-.13-3.68,1.26-5.35,2.83Z"/><path class="cls-4" d="M47.53,56.04c3.25-.15,6.09,.1,9.37,.81-2.37,2.22-4.5,4.21-7.25,5.4-1.32,.57-2.12,.21-2.12-1.34,0-1.53,0-3.05,0-4.87Z"/><path class="cls-4" d="M76.89,60.91c3.06,.41,5.52,1.55,8.48,2.46-1.98,1.82-3.89,3.24-6.08,4.28-1.5,.71-2.28-.03-2.38-1.49-.11-1.69-.02-3.39-.02-5.24Z"/><path class="cls-4" d="M48.59,112.19c-3.54-.54-6.5-1.74-9.44-3.26,.89-1.87,1.72-3.55,3.98-3.22,3.55,.52,4.08,3.64,5.46,6.48Z"/><path class="cls-4" d="M90.32,73.51c-1.09-2.59-.08-5.05-.17-7.74,2.78,1.01,4.8,2.73,7.24,4.52-2.5,1.27-4.42,2.86-7.07,3.22Z"/><path class="cls-4" d="M62.49,113.95c-3.25-.15-6.2,.02-9.28-.67,1.18-2.33,1.99-4.81,5.05-4.38,2.64,.38,3.46,2.51,4.24,5.04Z"/><path class="cls-4" d="M70.86,59.28c-2.83,1.95-4.64,4.05-7.42,4.84-1.86-2.01-.65-4.1-.53-6.35,2.57,.49,4.93,.94,7.95,1.51Z"/><path class="cls-4" d="M34.21,62.88c-1.61-5.61,.31-7.21,7.74-6.61-2.45,2.5-4.49,5.16-7.74,6.61Z"/><path class="cls-4" d="M78.27,113.06c-3.41,.97-6.57,.69-9.91,.88,.87-2.86,2.85-4.04,5.37-4.38,2.44-.33,3.39,1.5,4.53,3.5Z"/><path class="cls-4" d="M83.3,112.19c.62-2.61,1.6-4.34,3.97-4.73,1.73-.29,2.91,.57,3.69,2.26-2.32,1.16-4.79,1.72-7.66,2.47Z"/><path class="cls-4" d="M102.55,74.7c1.4,1.12,2.57,2.18,3.44,3.76-1.45,1.23-3,2.17-4.97,2.97-.27-2.54,.72-4.54,1.53-6.73Z"/><path class="cls-4" d="M34.35,106.18c-2.34-.96-3.61-1.93-4.87-2.95-.81-.66-1.02-1.42-.66-2.38,.23-.62,.52-1.19,1.25-1.23,.97-.06,1.43,.71,1.79,1.41,.77,1.48,1.46,3,2.48,5.15Z"/><path class="cls-4" d="M103.13,103.32c-1.81,1.53-3.59,2.81-5.83,3.58-.35-2.35,.49-4.02,2.44-5,1.49-.75,2.47,.18,3.39,1.43Z"/><path class="cls-4" d="M107.2,99.11c-.1-2.83,.38-5.45,3.3-7.35,.46,3.41-1.24,5.43-3.3,7.35Z"/><path class="cls-3" d="M59.39,36.4c1.59-.07,2.34,.69,2.28,2.28-.05,1.45-.7,2.49-2.2,2.57-1.7,.1-2.48-1.1-2.49-2.57-.01-1.41,.82-2.35,2.41-2.28Z"/><path class="cls-8" d="M139.06,130.68c-1.26-.85-3.46-1.33-1.3-3.63,.74,1.2,1.58,2.22,1.27,3.68l.03-.04Z"/><path class="cls-8" d="M150.68,145.83c-1.78-.07-3.17,.03-4.49-.63,1.38-.31,2.74-.48,4.49,.63Z"/></g></svg>