<?xml version="1.0" encoding="UTF-8"?><svg id="Layer_2" xmlns="http://www.w3.org/2000/svg" viewBox="0 0 193.51 186.96"><defs><style>.cls-1{fill:#a27ee4;}.cls-2{fill:#260d1b;}.cls-3{fill:#6c3be2;}.cls-4{fill:#d9abae;}.cls-5{fill:#eebe63;}</style></defs><g id="Chibi_Guitar"><g><g><path class="cls-2" d="m138.07,78.75c-1.93-1.34-3.29-.09-4.38,1.76-2.71,4.62-6.18,8.69-9.83,12.6-.46.49-.87,1.33-1.79.82-5.13-2.86-11.13-1.61-16.61-.72-.04,0-.08.01-.11,0-.07-.04-.04-.14,0-.22.47-.94,1.02-1.88,1.41-2.85,2.33-5.73,3.4-12.08,2.74-18.25-2.24-21.17-19.85-36.98-39.96-41.48-2.96-.66-5.98-1.09-9.01-1.29-2.56-.16-5.87.54-8.27-.08-.06-9.09-4.35-17.66-11.25-23.5C36.64,1.86,31.62-.53,25.81.1c-8.76.96-14.43,7.7-14.76,16.83-.16,4.62.81,9.02,2.47,13.35-5.28.47-9.84,1.9-11.45,7.1-1.66,5.33,1.09,9.43,4.99,12.82,1.81,1.58,3.81,2.94,6.07,3.76,1.27.46,1.41.98.97,2.24-5.2,14.66-2.04,27.84,7.14,39.95.83,1.09,1.65,2.16,2.09,3.53,1.29,4.07-.46,7.23-3.01,10.05-5.94,6.58-10.65,14.02-11.04,22.93-.22,4.94-2.02,7.61-5.64,10.26-3.61,2.64-4.28,6.91-2.64,10.85.88,2.1-1.07,4.75,1.15,6.7.07.06-.57.87-.83,1.35-.69,1.31-1.35,2.61-1.32,4.16.05,2.33,1.55,4.14,3.86,4.24,6.12.26,12.19-.38,17.88-2.65,2.27-.91,3.97-2.19,5.89.37.53.71,1.67.64,2.6.7,2.88.19,5.41-.88,7.9-2.11.98-.49,1.87-.71,3.11-.49,3.39.62,3.02,2.99,3.01,5.38,0,4.17.04,4.16-3.93,4.24-.64.01-1.29.09-1.92.22-1.32.26-2.63.65-2.44,2.39.18,1.65,1.43,1.97,2.83,1.95,6.51-.11,12.6,1,17.6,5.67,1.01.94,2.4,1.63,3.71.39,1.02-.96.53-3.04-.65-3.71,2.54.04,5.03.45,7.56.6,1.34.08,2.71-.12,2.84-1.86.12-1.63-.9-2.16-2.38-2.4-4.53-.74-9.07-1.51-13.56-2.45-5.09-1.06-4.98-1.16-5.5-6.24-.19-1.83.51-1.76,1.83-1.48,2.52.54,5.05.92,7.64,1.01,7.23.25,14.28-.53,21.02-3.27.68,1.48.42,2.95.81,4.23.85,2.79-.4,3.29-2.82,3.31-1.86.01-4.75-.51-4.38,2.59.34,2.8,2.94,1.94,4.71,1.52,4.82-1.16,9.16-.4,13.13,2.6,1.09.82,2.33,1.5,3.58,2.06,2.11.93,3.45.11,3.31-2.19-.08-1.25.36-1.14,1.15-1.04.82.11,1.65.16,2.45.35,1.49.34,2.88.36,3.3-1.44.44-1.88-.85-2.65-2.41-3.03-.8-.19-1.63-.26-2.45-.36-4.48-.52-8.93-1.16-13.32-2.19-.71-.17-1.61-.19-1.74-1.08-.35-2.36-.94-4.77-.71-7.09.13-1.31,2.25-1.67,3.4-2.55.73-.56,1.49-1.08,2.2-1.66,1.29-1.07,2.54-2.19,3.7-3.4,1.2-1.24,2.32-2.56,3.35-3.96.99-1.35,1.89-2.77,2.68-4.25.78-1.46,1.45-2.98,2.01-4.54.57-1.57,1.02-3.19,1.36-4.83.35-1.68.58-3.39.71-5.11.14-1.9.09-3.81.05-5.71,0-.01,0-.03,0-.04,0-.1,0-.21.05-.3.07-.1.2-.15.31-.18,1.43-.43,2.8-1,4.16-1.61,1.62-.73,3.19-1.56,4.71-2.48,1.5-.91,2.94-1.92,4.3-3.03,1.37-1.12,2.66-2.33,3.84-3.64,1.22-1.34,2.33-2.76,3.33-4.27,2.7-4.04,4.13-8.49,2.82-13.34-.41-1.53-.05-2.38.91-3.38,3.9-4.05,7.48-8.37,10.56-13.09,1.01-1.56,1.92-3.35.08-4.63Z"/><path class="cls-2" d="m126.71,138.42c-2.92.97-5.6,1.9-8.32,2.74-1.64.5-1.09,1.76-.95,2.72.44,2.84.75,5.69-.28,8.44-.84,2.26-2.49,4.22-4.59,5.39-.82.46-1.73.81-2.67.78-1.57-.05-3.03-1.35-3.15-2.92-.06-.83.22-1.64.6-2.38.82-1.59,2.14-2.91,3.72-3.75.71-.38,1.47-.62,1.89-1.36.57-1.01.13-2.2,0-3.27-.36-2.89-.27-5.84-.22-8.75.02-1.21.03-2.43.05-3.64,0-.54.02-1.11.32-1.57.7-1.09,2.25-1.05,3.36-1.31,1.33-.3,2.62-.73,3.88-1.23,2.52-1.01,4.91-2.33,7.27-3.66,2.32-1.31,4.11-.64,4.01,2.07-.13,3.46-.1,6.92-.04,10.37.03,1.73.07,3.46.09,5.18.02,1.64-.08,3.32.03,4.95s.01,3.44-.55,5.06c-.63,1.81-1.88,3.47-3.62,4.29-.94.45-2.03.64-3.04.38s-1.92-1-2.24-1.99c-.2-.63-.16-1.32-.04-1.98.19-1.03.57-2.04,1.22-2.86.68-.86,1.63-1.43,2.39-2.21s1.19-1.95,1.33-3.02c.29-2.16-.35-4.33-.45-6.48Zm-.55-6.97c-.18-1.06-1.72.09-2.19.31-1,.48-2.03.91-3.1,1.18-.87.21-1.78.33-2.55.78-.51.3-.96.8-1.11,1.39-.1.38-.21,1.3.3,1.46.22.07.45,0,.66-.07,2.32-.71,4.59-1.6,6.77-2.65,1.01-.49,1.24-1.16,1.23-2.24,0-.05,0-.1-.01-.15Z"/><path class="cls-2" d="m145.48,131.49c.17-.85.62-1.63,1.19-2.29,1.34-1.55,3.29-2.43,5.26-2.99,1.11-.32,2.69-.69,3.59.28,1.32,1.42.35,3.23-1.09,3.98-3.51,1.85-3.5,1.87-2,5.3,1.63,3.74.92,7.5-1.98,10.4-1.51,1.51-3.31,2.65-5.19,3.61-1.34.68-3.22.88-4.2-.51-1.2-1.7-1.03-4.24-1.1-6.23-.08-2.37-.04-4.74-.06-7.11-.03-3.22-.16-6.44,0-9.65.08-1.46.13-2.92.67-4.29.49-1.23,1.26-2.36,2.3-3.19,1.75-1.41,4.03-1.91,6.23-1.89,1.46.01,2.83.27,3.37,1.83.52,1.49.28,2.9-.9,4.07-1.57,1.55-3.31,2.23-5.42,2.75-.35.09-.7.18-1.01.36-1.35.8-.79,2.85-.77,4.1.02,1.52.06,3.03.11,4.55.1,3.19.21,6.39.47,9.57,0-.09,1.17-.81,1.31-.92.38-.31.75-.64,1.07-1.01.51-.61.89-1.32.97-2.12.21-2.19-1.47-3.75-2.34-5.57-.39-.82-.64-1.74-.54-2.65.01-.12.03-.24.06-.36Z"/><path class="cls-2" d="m160.85,131.79c-.95-.04-1.74-.34-2.06-1.21-.42-1.14-.12-2.19.79-3.01,1.86-1.67,4.15-2.34,6.53-2.72,1.54-.25,3.12-.41,4.68-.35,6.82.26,12.9-1.59,18.21-5.93,1.24-1.01,2.7-1.54,3.9-.04,1.32,1.66.23,2.9-1.08,3.95-5.27,4.24-11.29,6.46-18.06,6.61-4.2.1-8.54-.43-12.18,2.48-.2.16-.52.15-.73.21Z"/><path class="cls-2" d="m171.22,133.62c6.18.14,11.59-1.71,16.68-4.67.71-.41,1.37-.96,2.13-1.25,1.08-.41,2.21-.42,2.96.68.81,1.19.55,2.36-.49,3.19-1.22.96-2.53,1.86-3.92,2.54-5.52,2.7-11.25,4.47-17.52,4-2.72-.21-5.31.37-7.62,1.92-1.27.85-2.6,1.35-3.57-.22-.99-1.6-.07-2.84,1.28-3.7,3.12-1.99,6.56-2.82,10.06-2.48Z"/><path class="cls-2" d="m170.26,121.63c-2.21-.26-4.81.06-7.32,1.16-1.25.55-2.46.4-3.06-.9-.64-1.38-.06-2.51,1.31-3.17,2.44-1.17,4.98-1.93,7.71-1.67,6.47.62,12.08-1.65,17.34-5.1,1.34-.88,2.69-1.65,3.86-.11,1.32,1.75.16,3.1-1.24,4.18-4.27,3.31-11.98,5.68-18.6,5.6Z"/><path class="cls-1" d="m52.14,156.07c-.07-.08-.16-.16-.27-.19-.18-.04-.32.17-.45.27-.12.09-.26.16-.4.22-.66.31-1.34.55-2.04.76-.35.11-.7.2-1.05.3-.18.05-.35.09-.53.14-.16.04-.32.1-.48.14-.02,0-.05.01-.07.02-.17.05-.33.1-.5.14.02,0,.09.03.12.04.05.01.09.03.14.04.09.02.17.05.26.07.16.04.32.07.49.1.28.05.57.07.86.06.57-.01,1.11-.18,1.6-.47.31-.18.6-.4.91-.58.26-.16.53-.29.78-.46.12-.08.24-.17.35-.27.05-.05.11-.1.15-.16.04-.05.12-.09.13-.16Z"/><path class="cls-1" d="m40.62,158.84s-.06-.03-.09-.03c-.25-.03-.5-.06-.75-.08-.58-.04-1.16-.05-1.73-.07-.84-.03-1.65-.15-2.47-.31-.21-.04-.42-.09-.63-.13-.77-.16-1.53-.34-2.3-.5-1.52-.33-3.06-.63-4.62-.72-1.58-.1-3.17.02-4.69.47-.45.13-.9.3-1.33.48-1.04.45-2.18-.36-2.56-1.56-.37-1.17,0-2.18,1.1-2.83.52-.3,1.07-.56,1.82-.96-1.94-1.74-2.85-5.09-6.41-2.83-.42.26-1.08.12-1.62.21-2.44.44-4.45,1.65-6.12,3.45-.61.66-1.14,1.18.17,1.8,2.3,1.07,1.77,2.63.51,4.23-.62.78-1.33,1.48-1.94,2.27-.64.84-1.21,1.73-1.69,2.67.89.02,1.72.39,2.57.65,4.02,1.23,8.07-.24,11.79-1.75,2.15-.88,4.52-1.18,6.56-2.4.96-.58,2.16-.22,2.62.81,1.27,2.85,3.26,2.05,5.27,1.21,1.45-.6,2.94-1.18,4.23-2.1.61-.43,1.19-.89,1.82-1.3.22-.14.47-.31.51-.57,0-.03,0-.07-.02-.1Z"/></g><path class="cls-3" d="m18.26,141.14c1.85.54,2.76,2.04,3.81,3.43,6.41,8.52,16.04,11.64,24.81,8.1,1.36-.55,2.77-1.2,2.68-2.77-.14-2.35-.08-4.7-1.09-7.01-3.16-7.26-7.04-14.12-11.02-20.94-.78-1.33-1.45-2.8-2.73-3.78-1.6-1.22-2.53-2.89-.93-4.39,1.57-1.47,3.29-.51,4.4,1.13,1.91,2.82,3.89,5.61,5.57,8.56,1.01,1.77,1.99,2.29,4.11,2.01,4.5-.59,8.47-1.54,12.49-4.3,9.41-6.46,19.93-6.18,30.42-2.47,1.59.56,2.68.44,4.01-.55,6.9-5.09,13.57-10.45,19.95-16.17,1.18-1.06,3.54-2.26,2.97-3.49-.66-1.44-3.16-.88-4.88-.8-.76.04-1.52.12-2.27.24-4.29.71-7.94,2.82-11.74,4.79-1.19.62-2.44,1.22-3.3,2.25-.65.79-1.02,1.75-1.65,2.55-.61.77-1.39,1.42-2.33,1.75-.43.15-.92.23-1.35.08-.5-.17-.86-.63-1.05-1.12-.38-.95-.23-2.04.16-2.98.59-1.43,1.68-2.59,2.83-3.62.81-.72,1.66-1.4,2.45-2.14.77-.73,1.44-1.54,2.13-2.34,2.67-3.12,4.89-6.67,6.33-10.53,1.18-3.19,1.82-6.56,1.89-9.96.08-3.67-.49-7.34-1.49-10.87-6.23-21.87-29.94-33.86-50.86-31.91-4.45.42-4.75.36-5.04-4.19-.04-.64.04-1.3-.04-1.93-1.08-9.6-5.36-17.22-14.2-21.6-8.11-4.02-15.69-.18-17.26,8.73-1.53,8.68,1.81,15.84,7.75,21.98.88.91,2.35,1.99,1.26,3.18-1.13,1.23-2.98,1.22-4.52.16-.45-.31-.74-.83-1.18-1.16-1.7-1.24-3.1-2.89-5.07-3.75-2.27-.98-5.16-.27-7.04,1.75-1.81,1.95-1.42,4.09-.25,6.12,1.98,3.43,5.11,5.5,8.74,6.83,1.05.38,1.99.89,2.96,1.42,1.74.94,1.93,1.92,1,3.74-2.69,5.25-3.99,10.91-3.43,16.82.75,7.88,3.64,14.91,8.6,21.17,4.66,5.86,4.58,11.9.18,18.03-.8,1.12-1.66,2.21-2.55,3.26-5.71,6.69-8.94,14.27-8.63,23.22.03.76-.04,1.53-.26,2.27-.1.36-.24.73-.43,1.05-.17.28-.31.58-.53.84-.41.49-.93.88-1.48,1.2-.83.49-1.73.86-2.52,1.41-1.15.8-2.02,1.94-2.9,3.04-.41.51-1.3,1.52-.79,2.21.24.33,1.83-1.36,2.05-1.54.64-.55,1.38-.95,2.14-1.33,1.1-.55,2.24-1.05,3.45-1.28.33-.06.67-.11.98-.24.69-.3.84-1,.85-1.69"/><path class="cls-3" d="m96.97,123.5s-.05-.06-.08-.09c-.37-.35-1,.3-1.3.51-.43.32-.9.69-1.09,1.21-.23.66.11,1.36.46,1.9.71,1.11.27,2.71-.11,4.05-3.47,12.09-10.79,21.15-21.6,27.47-1.56.91-3.14.89-4.22-.53-1.08-1.43-1.95-1.19-3.18-.35-1.37.95-3.04,2.09-4.59,1.46-3.16-1.29-5.26.38-7.58,1.91-1.7,1.12-3.7,1.57-6.05,2.27,8.8,2.47,17.2,2.6,25.6.16,2.4-.7,4.73-1.62,6.95-2.77s4.18-2.43,6.06-3.95,3.5-3.13,4.98-4.95,2.72-3.72,3.76-5.78,1.84-4.21,2.39-6.43c.8-3.24,1.08-6.62.73-9.94-.16-1.47-.41-2.93-.71-4.39-.09-.43-.18-.86-.27-1.29-.04-.17-.08-.34-.17-.48Z"/><path class="cls-1" d="m88.31,129.81c-.02-.11-.04-.25-.1-.34-.59.43-1.19.81-1.82,1.17-1.49.85-2.97,1.71-4.46,2.56-.72.41-1.44.83-2.16,1.24-1.43.82-2.86,1.62-4.3,2.42s-2.88,1.59-4.33,2.36-2.91,1.54-4.38,2.28-2.94,1.47-4.43,2.17-2.99,1.39-4.5,2.05c-.35.15-.7.3-1.05.45-.17.07-.35.15-.52.22-.09.04-.18.08-.27.12-.07.03-.2.05-.25.11-.65.27-1.41.49-1.4,1.47.03,1.94,0,3.88,0,6.08,1.87-1.1,3.75-3.04,5.71-1.12,1.5,1.47,2.51.97,3.78.08,1.13-.79,2.3-1.52,3.38-2.37,3.28-2.6,4.56-2.4,6.67,1.25,5.35-4.38,9.75-9.48,12.97-15.57.71-1.35,1.23-2.81,1.43-4.32.06-.44.09-.89.09-1.34,0-.33,0-.65-.06-.97Z"/><path class="cls-1" d="m88.5,122.63c-2.87-.72-5.76-1.33-8.72-1.57-1.54-.12-3.09-.15-4.63-.04-.75.05-1.51.14-2.25.25-.7.11-1.53.46-2.23.46-2.09.54-4.04,1.37-5.96,2.33-.76.4-1.7.59-1.83,1.8-.39,3.5-2.51,4.97-5.88,4.1-2.17-.56-4.31-.62-6.54-.39-2.56.26-2.78,1.18-1.51,3.18.78,1.23,1.23,2.67,1.9,3.97.9,1.76.88,4.69,2.61,5.1,1.59.38,3.71-1.19,5.52-2.05,5.84-2.76,11.67-5.58,17.32-8.71,4.32-2.39,8.63-4.85,12.57-7.86.08-.06.16-.13.17-.23.02-.17-.19-.27-.36-.31-.05-.01-.11-.03-.16-.04Z"/><path class="cls-4" d="m50.41,82.18c1.27-.07,2.72.04,3.16,1.72.47,1.76-.67,2.73-2.12,3.38-1.78.79-3.61,1.37-5.6,1.12-1.09-.14-1.92-.67-2.2-1.79-.3-1.18.02-2.23,1.08-2.88,1.67-1.03,3.52-1.54,5.68-1.54Z"/><path class="cls-4" d="m95.23,77.4c-1.23.07-2.19-.37-2.67-1.53-.45-1.09,0-2.02.84-2.69,1.45-1.14,2.99-2.15,4.98-1.97,1.13.1,1.88.72,2.19,1.79.27.98-.03,1.83-.87,2.42-1.36.94-2.76,1.81-4.46,1.98Z"/><path class="cls-2" d="m74.43,70.01c9.96.27,17.73,7.95,17.48,17.24-.06,2.38-1.04,4.15-3.31,4.85-1.14.35-1.6,1-2.08,1.93-2.97,5.67-7.72,7.42-13.33,4.42-6.44-3.45-10.72-8.79-11.08-16.32-.4-8.35,3.9-12.35,12.33-12.11Z"/><path class="cls-5" d="m87.26,85.2c-.87-4.99-4.96-8.94-9.73-10.34-1.35-.4-2.8-.67-4.22-.69s-2.86.28-4.03,1.09c-1.69,1.16-2.56,3.25-2.65,5.29-.13,3,1.09,5.94,2.77,8.37,1.14,1.65,2.48,3.14,4.11,4.33,4.17,3.05,6.92,2.37,9.23-2.25.67-1.34,1.27-2.8,2.93-3.02,1.91-.25,1.83-1.39,1.59-2.78Z"/><path class="cls-2" d="m48.35,79.58c-1.34.01-2.54-.4-3.53-1.29-1.07-.95-1.52-2.14-.77-3.43.73-1.26,2.04-1.34,3.13-.69,1.61.97,2.76.23,4.01-.61,1.31-.88,2.8-1.42,3.86.16,1.01,1.51.13,2.78-1.15,3.75-1.64,1.25-3.45,2.05-5.54,2.1Z"/><path class="cls-2" d="m89.37,70.53c-1.35-.08-2.69-.38-3.7-1.42-.81-.83-1.26-1.84-.62-2.98.64-1.15,1.77-1.48,2.82-.94,1.39.7,2.38.34,3.49-.51,1.21-.93,2.62-1.26,3.59.21.88,1.32.4,2.64-.81,3.63-1.37,1.12-2.91,1.89-4.77,2.01Z"/><path class="cls-3" d="m120.69,103.25c.11,5.37-2.77,9-6.32,12.12-3.44,3.03-6.96,5.21-11.2,6.96-.22.09-.45.18-.68.17-.32-.02-.59-.23-.79-.48-.44-.55-.58-1.33-.37-2.01.38-1.16,1.62-1.85,2.53-2.57,1.28-1,2.55-2.01,3.81-3.03,2.47-1.99,4.93-4.01,7.37-6.05,1.95-1.62,3.77-3.41,5.64-5.12Z"/></g></g></svg>