<?xml version="1.0" encoding="UTF-8"?><svg id="Layer_2" xmlns="http://www.w3.org/2000/svg" viewBox="0 0 128.77 185.04"><defs><style>.cls-1{fill:#f2c164;}.cls-2{fill:#e0d0e8;}.cls-3{fill:#a37fe6;}.cls-4{fill:#250c1a;}.cls-5{fill:#6c3be3;}</style></defs><g id="Chibi_Birb_Image"><path class="cls-4" d="m107.05,75.46c-.79,6.97-2.99,13.66-7.82,18.9-.12.13-.24.27-.25.44-.01.33.38.5.7.58,6.67,1.72,12.48,6.09,16.19,11.88,2.27,3.54,4.52,7.06,7.11,10.38.05.07.11.14.16.21.57.73,1.15,1.46,1.73,2.19,3.68,4.62,4.69,10.72,3.28,16.39-2.05,8.24-7.93,14.38-15.58,17.74-4.66,2.04-6.51,7.53-11.18,9.4-2.43.97-5.19.59-7.73,1.24-1.5.38-2.91,1.13-4.44,1.29-1.9.21-3.48-.54-4.91-1.71s-2.93-2.23-4.79-1.03c-1.87,1.21-4.82,1-4.43,4.85.5,5.02.12,5.05,5.01,5.08,1.32,0,2.9-.45,2.9,1.82,0,2.19-1.51,2.4-3.07,2.59-2.42.3-4.92.25-7.31.29-2.79.05-4.06,1.82-5.87,3.03-1.05.7-1.96,1.69-2.75,2.7-1.1,1.41-2.68,1.62-3.9.99-1.23-.64-1.22-2.23-.51-3.69-2.03.25-3.88-.31-5.82.46-1.48.58-3.32.11-3.88-1.58-.63-1.88.85-2.91,2.46-3.26,3.15-.68,6.33-1.21,9.52-1.66,1.52-.21,2.94-.7,4.41-1.09,4.31-1.15,4.23-1.1,4.02-5.32-.07-1.41-.75-1.6-1.7-1.32-8.62,2.55-17,.87-25.33-1.39-.82-.22-1.73-.68-2.24.06-.98,1.42-.79,3.15-.53,4.76.16,1.01,1.17,1,2.03.95,1.37-.08,2.71,0,3.98.57,1.08.48,1.9,1.23,1.6,2.53-.26,1.15-.97,2-2.28,1.89-2.17-.19-4.33-.05-6.54-.4-3.36-.53-6.84-.3-9.8,2-1.19.93-2.72,1.46-3.84,2.45-1.13,1-2.26,1.29-3.46.61-1.36-.77-1.55-2.07-.8-3.32-1.66-.98-3.7.93-5.05-1.31-1.33-2.21-.87-3.46,1.68-3.96,5.33-1.03,10.61-2.33,15.96-3.2,2.72-.44.98-2.64,1.88-3.81,2.11-2.78-3.98-4.58-5.5-5.76-1.99-1.55-3.55-3.59-5.48-5.22-5.4-4.57-13.04-5.37-18.19-10.28-6.93-6.62-8.8-18.65-3.98-26.98,1.45-2.5,3.37-4.69,5.41-6.74.87-.87,11.77-10.76,12.24-10.14-6.35-8.46-11.07-17.08-10.69-28.03.4-11.39,6.26-22.22,14.74-29.84,9.89-8.87,22.89-13.49,35.93-15.06,2.93-.35,5.97.51,6.62-3.03,2.35-12.75,11.28-22.6,23.92-24.38,14.21-2,19.5,10.03,17.71,20.17-.49,2.77-1.26,5.4-2.53,7.86-.43.84-.44,1.63.68,1.8,2.69.41,4.99.06,7.43,1.53,2.09,1.26,3.79,3.32,4.12,5.79.25,1.87-.31,3.75-1.11,5.46-1.84,3.91-5.01,7.17-8.87,9.11-.73.37-1.5.7-2.09,1.28-1.15,1.14-.6,2.64-.29,4.01.41,1.81.72,3.63.96,5.47.55,4.23.66,8.53.17,12.77Z"/><path class="cls-5" d="m19.72,106.56c.01-.07.06-.14.15-.22,1.08-.89,2.35-1.61,3.74-1.76.23-.03.47-.04.7.03s.44.21.54.42c.19.41-.07.77-.32,1.08-.31.39-.62.77-.93,1.16-.18.23-.4.48-.69.49-.15,0-.29-.04-.43-.1-.61-.23-1.2-.39-1.85-.49-.29-.04-1.01-.18-.93-.61Z"/><path class="cls-5" d="m65.12,32.33c2.47-.11,6.05-.12,6.24-3.19.48-7.66,3.71-14.06,9.27-19.19,4.21-3.88,9.32-5.65,15.14-4.91,3.88.49,7.19,3.86,7.58,8.17.68,7.53-1.39,14.22-6.65,19.81-.68.73-1.33,1.52-1.84,2.37-.65,1.09-.25,1.99.58,2.95.85.99,1.61.97,2.6.44,3.64-1.94,7.15-3.67,11.39-3.46,1.24.06,2.66.39,3.24,1.5.36.69.29,1.53.13,2.3-.54,2.51-2.06,4.78-4.15,6.27-2.36,1.68-5.28,2.37-7.62,4.08-2.01,1.47-1.42,3.54-.75,5.63,1.96,6.14,3.31,12.4,2.62,18.9-.71,6.73-3.27,12.86-7.76,17.88-1.09,1.22-2.02,2.86-1.57,4.43.09.32.24.63.49.84.2.16.44.26.68.34,5.98,2.21,11.29,4.47,15.33,9.66,1.82,2.33,3.28,4.93,4.51,7.62,1.44,3.13,2.62,6.44,2.94,9.87s-.29,7.03-2.19,9.91c-1.5,2.28-3.88,4.05-6.55,4.68-3.07.72-6.05-.42-8.65-2-2.81-1.7-5.34-3.85-7.54-6.3-1.08-1.2-2.08-2.48-2.99-3.81-.85-1.25-1.49-2.68-2.55-3.77-3.58-3.67-10.05-.06-13.71,1.62-5.06,2.32-9.34,1.68-14.66.91-4.04-.58-8.06-1.3-12.09-1.98-6.82-1.15-13.66-2.67-19.97-5.57-1.69-.78-2.39-1.47-1.49-3.37,1.34-2.82,2.67-5.57,4.71-7.97,1.89-2.22,1.68-3.82-.65-5.63-11.28-8.76-17.14-22.8-13.04-36.84,2.91-9.96,10.16-18.34,19.03-23.71s19.26-7.9,29.62-8.47c.11,0,.22-.01.33-.02Z"/><path class="cls-4" d="m69.71,67.16c-.05,2.27-1.71,4.04-3.64,3.57-1.6-.39-3.1-1.6-2.93-3.44.16-1.8,1.13-3.3,3.4-3.1,1.91.17,3.5.65,3.17,2.98Z"/><path class="cls-4" d="m33.22,63.1c.03,2.04-1.9,4.5-3.35,4.28-1.68-.26-2.87-1.46-2.71-3.21.18-1.95,1.12-3.34,3.5-3.37,1.96-.02,2.73.72,2.56,2.3Z"/><path class="cls-4" d="m41.5,97.89c-2.95.26-4.71-1.31-5.98-3.55-.56-.99-1.03-1.97-2.37-1.96-5.1.03-7.54-4.88-6.44-9.61,1.73-7.38,7.42-14.19,16.11-15.44,4.52-.65,8.36.12,11.81,2.58,5.13,3.65,5.51,10.05,3.35,14.99-2.62,5.99-7.13,10.01-13.13,12.41-1.08.43-2.25.83-3.36.57Z"/><path class="cls-1" d="m54.2,78.91c.32,5.85-6.4,12.12-10.42,13.42-2.43.79-3.72-1.01-4.84-2.49-1.15-1.5-2.34-2.29-4.23-2.49-2.71-.29-3.47-3.01-2.15-6.28,2.54-6.3,7.66-8.84,13.91-9.67,2.99-.4,7.76,4.39,7.73,7.5Z"/><path class="cls-3" d="m123.08,127.47c.22-.11.44,3.59.43,3.84-.06,1.5-.29,2.99-.68,4.44-.79,2.97-2.24,5.77-4.25,8.09-3.8,4.39-9.36,6.14-14.88,7.21-6.32,1.23-12.78,1.35-19.19,1.59-8.65.32-17.24.9-25.91.44s-17.7-1.7-26.36-3.65c-1.13-.25-2.25-.52-3.37-.8-7.29-1.82-15.68-4.46-20.21-10.9-2.66-3.78-3.72-8.64-2.89-13.18.61-3.31,2.17-6.58,4.56-8.97,1.71-1.71,3.94-2.82,6.31-3.24.28-.05.58-.09.84.02.43.18.6.7.6,1.16,0,.73-.31,1.41-.39,2.12s.11,1.45.43,2.09c.7,1.41,2.03,2.45,3.32,3.29,6.48,4.22,14.2,6.48,21.76,7.83,5.88,1.05,11.74,2.27,17.69,2.85,3.38.33,6.79.68,10.19.37,1.67-.15,3.34-.47,4.92-1.06s2.9-1.59,4.39-2.35c.98-.5,2.14-.81,3.18-.44,1.26.45,1.97,1.75,2.66,2.9,5.07,8.45,17.36,16.3,27.36,11.96.67-.29,1.32-.64,1.94-1.04.64-.42,1.25-.89,1.81-1.41.05-.05.11-.1.16-.15,2.49-2.33,4.06-5.62,4.31-9.02.09-1.23,0-3.33,1.28-4Z"/><path class="cls-2" d="m38.58,136.63c-5.67-.58-11.16-1.87-16.29-4.41-1.66-.82-3.08-2.15-2.13-4.14,1.04-2.18,3.02-1.66,4.77-.87,4.88,2.19,10.05,3.24,15.32,3.8,2.01.21,2.98.79,2.96,2.97-.03,2.38-1.42,2.68-3.25,2.66-.46,0-.92,0-1.38,0Z"/><path class="cls-2" d="m18.82,125.09c.27,2.19-1.02,3.09-3.04,3.18-2.16.09-4.69-2.37-4.7-4.52,0-2.68,1.9-2.67,3.82-2.64,3.01.04,3.93.94,3.91,3.99Z"/><path class="cls-5" d="m75.61,158.76c-11.82,7.58-30.24,4.1-39.9-2.83,13.01,3.34,26.29,2.34,39.9,2.83Z"/><path class="cls-5" d="m102.19,155.96c-2.45,4.07-8.1,3.58-12.18,4.7-1,.27-2.17.55-3.01-.06-.42-.31-.68-.93-.38-1.35.1-.14.25-.25.4-.34,4.72-3.04,9.79-2.9,15.18-2.94Z"/></g></svg>