<svg width="64" height="64" viewBox="0 0 64 64" fill="none" xmlns="http://www.w3.org/2000/svg">
<path d="M44.5005 30.9997C44.5005 32.3804 43.3812 33.4997 42.0005 33.4997C40.6198 33.4997 41.5 32.3804 41.5 30.9997C41.5 29.619 40.6198 28.4997 42.0005 28.4997C43.3812 28.4997 44.5005 29.619 44.5005 30.9997Z" fill="#EBA038"/>
<path fill-rule="evenodd" clip-rule="evenodd" d="M12.5 27.9997C13.3284 27.9997 14 28.6713 14 29.4997C14 29.6024 14.1046 29.9578 14.7261 30.3833C15.3114 30.784 16.0211 30.9997 16.5 30.9997C17.1697 30.9997 17.7583 31.4437 17.9423 32.0876L18.1181 32.703C18.422 33.7665 19.394 34.4997 20.5 34.4997H23.2639C24.0662 34.4997 24.7996 34.0464 25.1584 33.3289C25.3269 32.9917 25.6054 32.7458 25.9286 32.6128C26.0161 32.5767 26.1073 32.5488 26.201 32.5297C26.3362 32.5021 26.4756 32.493 26.6152 32.5037C28.3457 32.5991 31.0802 33.0544 33.8683 34.1092C34.9807 34.5301 36.1247 35.0552 37.2272 35.7056C37.4923 35.2817 37.9632 34.9997 38.5 34.9997H40.5C41.3284 34.9997 42 35.6713 42 36.4997V40.4997C42 41.1453 41.5869 41.7185 40.9743 41.9227C40.3618 42.1269 39.6874 41.9162 39.3 41.3997C37.7352 39.3133 35.3169 37.8648 32.8067 36.9151C30.7461 36.1355 28.7221 35.7296 27.2689 35.5686C26.5602 36.4592 25.5737 37.088 24.4702 37.3557C24.7316 37.5771 24.9189 37.8887 24.9796 38.2531L26.4796 47.2531C26.6158 48.0702 26.0638 48.8431 25.2466 48.9793C22.7691 49.3922 20.4459 47.6601 20.1343 45.1678L19.1549 37.3324C17.4076 36.89 15.9622 35.6028 15.3422 33.8658C14.5222 33.6828 13.7101 33.3235 13.0312 32.8587C12.067 32.1985 11 31.0539 11 29.4997C11 28.6713 11.6716 27.9997 12.5 27.9997ZM22.1992 37.4997L22.2253 37.7089C22.2713 37.6348 22.3237 37.5648 22.3819 37.4997H22.1992Z" fill="#895DEA"/>
<path fill-rule="evenodd" clip-rule="evenodd" d="M40.1657 17.143C40.3078 16.9763 40.4673 16.9649 40.6265 17.0564C40.8054 17.1592 41 17.4195 41 17.8351V34.832H37.5C37.2239 34.832 37 35.0558 37 35.332C37 35.6081 37.2239 35.832 37.5 35.832H47.5C47.7761 35.832 48 35.6081 48 35.332C48 35.0558 47.7761 34.832 47.5 34.832H42V33.9601C43.5959 33.7041 44.7799 32.2397 44.9725 30.4997H56.5C56.7761 30.4997 57 30.2758 57 29.9997C57 29.7235 56.7761 29.4997 56.5 29.4997H44.9725C44.7799 27.7597 43.5959 26.2952 42 26.0393V24.1674H51.5C51.7761 24.1674 52 23.9436 52 23.6674C52 23.3913 51.7761 23.1674 51.5 23.1674H42V17.8351C42 17.1024 41.6479 16.49 41.1247 16.1894C40.5818 15.8774 39.8839 15.9321 39.4046 16.4943C35.7539 20.7776 30.1211 22.6537 27.4245 23.0658C27.3832 23.0721 27.3438 23.0833 27.3067 23.0988C26.5095 21.8374 25.1026 20.9997 23.5 20.9997H19.5C17.1752 20.9997 15.2622 22.7626 15.0248 25.0245C12.7629 25.2619 11 27.1749 11 29.4997C11 31.8245 12.7629 33.7375 15.0248 33.9749C15.2472 36.094 16.9404 37.7751 19.065 37.9789L20.4952 47.7176C20.6033 48.454 21.235 48.9997 21.9793 48.9997H25.3424C26.2576 48.9997 26.9595 48.1872 26.8265 47.2817L25.4017 37.5793C26.1862 37.213 26.8476 36.627 27.3067 35.9005C27.3438 35.916 27.3832 35.9273 27.4245 35.9336C30.1211 36.3456 35.7539 38.2218 39.4046 42.5051C39.8839 43.0673 40.5818 43.1219 41.1247 42.81C41.6479 42.5094 42 41.8969 42 41.1642V37.4997C42 37.2235 41.7761 36.9997 41.5 36.9997C41.2239 36.9997 41 37.2235 41 37.4997V41.1642C41 41.5798 40.8054 41.8402 40.6265 41.9429C40.4673 42.0344 40.3078 42.0231 40.1657 41.8564C36.4904 37.5443 30.9712 35.5701 28 35.0172V23.9822C30.9712 23.4293 36.4904 21.4551 40.1657 17.143ZM27 25.4997C27 23.5667 25.433 21.9997 23.5 21.9997H19.5C17.567 21.9997 16 23.5667 16 25.4997V33.4997C16 35.4327 17.567 36.9997 19.5 36.9997H23.5C25.433 36.9997 27 35.4327 27 33.4997V25.4997ZM42 27.0615V32.9379C43.0986 32.6641 44 31.5078 44 29.9997C44 28.4916 43.0986 27.3352 42 27.0615ZM15 26.0351C13.3039 26.2777 12 27.7364 12 29.4997C12 31.2629 13.3039 32.7216 15 32.9642V26.0351ZM21.4846 47.5723L20.0788 37.9997H24.4527L25.8371 47.427C25.8814 47.7289 25.6475 47.9997 25.3424 47.9997H21.9793C21.7312 47.9997 21.5206 47.8178 21.4846 47.5723Z" fill="#170038"/>
<path d="M49 27.4997C49 27.2235 49.2239 26.9997 49.5 26.9997H51.5C51.7761 26.9997 52 27.2235 52 27.4997C52 27.7758 51.7761 27.9997 51.5 27.9997H49.5C49.2239 27.9997 49 27.7758 49 27.4997Z" fill="#170038"/>
<path d="M48.5 31.9997C48.2239 31.9997 48 32.2235 48 32.4997C48 32.7758 48.2239 32.9997 48.5 32.9997H50.5C50.7761 32.9997 51 32.7758 51 32.4997C51 32.2235 50.7761 31.9997 50.5 31.9997H48.5Z" fill="#170038"/>
</svg>
