<svg width="64" height="64" viewBox="0 0 64 64" fill="none" xmlns="http://www.w3.org/2000/svg">
<path fill-rule="evenodd" clip-rule="evenodd" d="M40.1657 17.6435C40.3078 17.4767 40.4673 17.4654 40.6265 17.5569C40.8054 17.6597 41 17.92 41 18.3356V24.1679V27.0002V30.0002V34.0002V35.3324H37.5C37.2239 35.3324 37 35.5563 37 35.8324C37 36.1086 37.2239 36.3324 37.5 36.3324H41.5H47.5C47.7761 36.3324 48 36.1086 48 35.8324C48 35.5563 47.7761 35.3324 47.5 35.3324H42V34.4606C43.5959 34.2046 44.7799 32.7401 44.9725 31.0002H56.5C56.7761 31.0002 57 30.7763 57 30.5002C57 30.224 56.7761 30.0002 56.5 30.0002H44.9725C44.7799 28.2602 43.5959 26.7957 42 26.5398V24.6679H51.5C51.7761 24.6679 52 24.444 52 24.1679C52 23.8918 51.7761 23.6679 51.5 23.6679H42V18.3356C42 17.6029 41.6479 16.9905 41.1247 16.6899C40.5818 16.3779 39.8839 16.4325 39.4046 16.9948C35.7539 21.2781 30.1211 23.1542 27.4245 23.5663C27.3832 23.5726 27.3438 23.5838 27.3067 23.5993C26.5095 22.3379 25.1026 21.5002 23.5 21.5002H19.5C17.1752 21.5002 15.2622 23.2631 15.0248 25.525C12.7629 25.7624 11 27.6754 11 30.0002C11 32.325 12.7629 34.238 15.0248 34.4754C15.2472 36.5945 16.9404 38.2756 19.065 38.4794L20.4952 48.2181C20.6033 48.9545 21.235 49.5002 21.9793 49.5002H25.3424C26.2576 49.5002 26.9595 48.6877 26.8265 47.7822L25.4017 38.0798C26.1862 37.7135 26.8476 37.1275 27.3067 36.401C27.3438 36.4165 27.3832 36.4278 27.4245 36.4341C30.1211 36.8461 35.7539 38.7223 39.4046 43.0055C39.8839 43.5678 40.5818 43.6224 41.1247 43.3105C41.6479 43.0099 42 42.3974 42 41.6647V38.0002C42 37.724 41.7761 37.5002 41.5 37.5002C41.2239 37.5002 41 37.724 41 38.0002V41.6647C41 42.0803 40.8054 42.3407 40.6265 42.4434C40.4673 42.5349 40.3078 42.5236 40.1657 42.3569C36.4904 38.0448 30.9712 36.0706 28 35.5177V34.0002V26.0002V24.4827C30.9712 23.9298 36.4904 21.9556 40.1657 17.6435ZM27 34.0002V26.0002C27 24.0672 25.433 22.5002 23.5 22.5002H19.5C17.567 22.5002 16 24.0672 16 26.0002V34.0002C16 35.9332 17.567 37.5002 19.5 37.5002H23.5C25.433 37.5002 27 35.9332 27 34.0002ZM42 27.562V30.0002V33.4384C43.0986 33.1646 44 32.0083 44 30.5002C44 28.9921 43.0986 27.8357 42 27.562ZM15 26.5356C13.3039 26.7782 12 28.2369 12 30.0002C12 31.7634 13.3039 33.2221 15 33.4647V26.5356ZM21.4846 48.0728L20.0788 38.5002H23.5H24.4527L25.8371 47.9275C25.8814 48.2294 25.6475 48.5002 25.3424 48.5002H21.9793C21.7312 48.5002 21.5206 48.3183 21.4846 48.0728ZM49 28.0002C49 27.724 49.2239 27.5002 49.5 27.5002H51.5C51.7761 27.5002 52 27.724 52 28.0002C52 28.2763 51.7761 28.5002 51.5 28.5002H49.5C49.2239 28.5002 49 28.2763 49 28.0002ZM48.5 32.5002C48.2239 32.5002 48 32.724 48 33.0002C48 33.2763 48.2239 33.5002 48.5 33.5002H50.5C50.7761 33.5002 51 33.2763 51 33.0002C51 32.724 50.7761 32.5002 50.5 32.5002H48.5Z" fill="white"/>
</svg>
