<svg width="64" height="64" viewBox="0 0 64 64" fill="none" xmlns="http://www.w3.org/2000/svg">
<path fill-rule="evenodd" clip-rule="evenodd" d="M30.9613 15.5C25.1545 15.5 20.1124 19.4988 18.7898 25.1529L18.2362 27.5195C17.2823 31.5975 20.3773 35.5 24.5654 35.5H24.9999H27.9999H28.9999H29.8819C30.2536 35.5 30.4953 35.8912 30.3291 36.2236L28.2763 40.3292C27.7776 41.3265 28.5029 42.5 29.6179 42.5H32.9999C33.276 42.5 33.4999 42.2761 33.4999 42C33.4999 41.7239 33.276 41.5 32.9999 41.5H29.6179C29.2462 41.5 29.0045 41.1088 29.1707 40.7764L31.2235 36.6708C31.7222 35.6735 30.9969 34.5 29.8819 34.5H29.5918C29.7245 32.8488 28.6653 31.2869 27.008 30.8428C26.8046 30.7883 26.6005 30.7529 26.3978 30.7355C26.8535 28.89 25.7498 27.0112 23.9054 26.5169C23.6386 26.4455 23.3645 26.6038 23.293 26.8705C23.2215 27.1372 23.3798 27.4114 23.6465 27.4829C24.9802 27.8402 25.7717 29.2111 25.4143 30.5447C25.3919 30.6285 25.3921 30.7129 25.4112 30.7916C24.1498 31.0466 23.077 31.9903 22.7214 33.3177C22.6499 33.5844 22.8082 33.8586 23.0749 33.93C23.3417 34.0015 23.6158 33.8432 23.6873 33.5765C24.0447 32.2428 25.4155 31.4514 26.7492 31.8087C27.9593 32.133 28.7231 33.2917 28.5871 34.5H27.9999H24.9999H24.5654C21.0217 34.5 18.4028 31.1978 19.2099 27.7473L19.7635 25.3806C20.3467 22.8875 21.716 20.7442 23.572 19.1881C23.7163 19.8464 24.0703 20.3801 24.5736 20.7675C25.2267 21.2702 26.0938 21.5 26.9999 21.5C27.276 21.5 27.4999 21.2761 27.4999 21C27.4999 20.7239 27.276 20.5 26.9999 20.5C26.2492 20.5 25.6163 20.3082 25.1836 19.9751C24.7663 19.6539 24.4999 19.1767 24.4999 18.5L24.4997 18.4868C26.3563 17.2252 28.5894 16.5 30.9613 16.5H35.0385C37.0036 16.5 38.8735 16.9978 40.5129 17.886C40.5044 17.9226 40.4999 17.9608 40.4999 18C40.4999 19.3807 39.3806 20.5 37.9999 20.5C36.6192 20.5 35.4999 19.3807 35.4999 18C35.4999 17.7239 35.276 17.5 34.9999 17.5C34.7238 17.5 34.4999 17.7239 34.4999 18C34.4999 19.933 36.0669 21.5 37.9999 21.5C39.7749 21.5 41.2414 20.1786 41.4692 18.4659C43.8098 20.0454 45.5567 22.4755 46.2363 25.3806L46.7899 27.7473C47.2148 29.564 46.6901 31.3396 45.5807 32.6137C45.4901 31.1538 44.4832 29.8497 42.9924 29.4502C42.7256 29.3788 42.4515 29.537 42.38 29.8038C42.3085 30.0705 42.4668 30.3447 42.7335 30.4162C44.0672 30.7735 44.8587 32.1443 44.5013 33.478C44.4923 33.5117 44.4869 33.5456 44.485 33.5791C43.6195 34.158 42.5748 34.5 41.4344 34.5H37.9999C35.5146 34.5 33.4999 32.4853 33.4999 30V25.55C34.641 25.7816 35.4999 26.7905 35.4999 28C35.4999 28.2761 35.7238 28.5 35.9999 28.5C36.276 28.5 36.4999 28.2761 36.4999 28C36.4999 26.2368 35.196 24.7781 33.4999 24.5354V21C33.4999 20.7239 33.276 20.5 32.9999 20.5C32.7238 20.5 32.4999 20.7239 32.4999 21V25V30C32.4999 33.0376 34.9623 35.5 37.9999 35.5H41.4344C45.6225 35.5 48.7175 31.5975 47.7636 27.5195L47.21 25.1529C45.8874 19.4988 40.8453 15.5 35.0385 15.5H30.9613ZM33.7428 46.7606C33.6105 47.003 33.6999 47.3067 33.9423 47.4389C34.1847 47.5712 34.4884 47.4818 34.6207 47.2394L37.6322 41.7183C38.1774 40.7187 37.4539 39.5 36.3154 39.5H31.9999C31.7238 39.5 31.4999 39.7239 31.4999 40C31.4999 40.2761 31.7238 40.5 31.9999 40.5H36.3154C36.6949 40.5 36.936 40.9062 36.7543 41.2394L33.7428 46.7606ZM32.7763 38.4472C32.5293 38.3237 32.4292 38.0234 32.5527 37.7764L33.0527 36.7764C33.1762 36.5294 33.4765 36.4293 33.7235 36.5528C33.9705 36.6763 34.0706 36.9766 33.9471 37.2236L33.4471 38.2236C33.3236 38.4706 33.0233 38.5707 32.7763 38.4472Z" fill="white"/>
</svg>
