<svg width="64" height="64" viewBox="0 0 64 64" fill="none" xmlns="http://www.w3.org/2000/svg">
<path d="M24 30.5C24 31.8807 22.8807 33 21.5 33C20.1193 33 19 31.8807 19 30.5C19 29.1193 20.1193 28 21.5 28C22.8807 28 24 29.1193 24 30.5Z" fill="#895DEA"/>
<path fill-rule="evenodd" clip-rule="evenodd" d="M34.9935 15.8641C35.0685 16.6892 34.4605 17.4188 33.6355 17.4938L31.6142 17.6775C26.9965 18.0973 23.2382 21.5695 22.4548 26.1395L21.9743 28.9422C21.6791 30.6642 23.2243 32.1356 24.9298 31.7566C25.8723 31.5472 26.8561 31.627 27.7526 31.9856L28.0567 32.1072C28.8259 32.4149 29.2 33.2878 28.8924 34.057C28.5847 34.8262 27.7117 35.2003 26.9426 34.8927L26.6384 34.771C26.3025 34.6366 25.9338 34.6067 25.5806 34.6852C21.7933 35.5268 18.3619 32.2592 19.0174 28.4353L19.4979 25.6326C20.511 19.7228 24.0073 16.2268 29.9787 15.6839L32 15.6838C33 15.6838 34.9771 15.6838 34.9935 15.8641Z" fill="#895DEA"/>
<path d="M33.2168 46.502C33.2168 47.5 34.0002 48 35.0002 46.5L36.9461 42.9677C37.2966 42.3018 36.8137 41.502 36.0612 41.502H33.2171C33.2171 41.502 33.2168 45.5039 33.2168 46.502Z" fill="#EBA038"/>
<path d="M31.8457 36.9448C31.8457 35.9634 31.0881 35.4635 30.1119 36.8737C30.0789 36.9213 30.0505 36.9735 30.0272 37.0265L28.5 40.5C28.1495 41.1659 28.2488 41.9448 29.0013 41.9448L31.8454 41.9448C31.8454 41.9448 31.8457 37.9429 31.8457 36.9448Z" fill="#EBA038"/>
<path d="M33 42H29.618C28.8747 42 28.3912 41.2177 28.7236 40.5528L30.7764 36.4472C31.1088 35.7823 30.6253 35 29.882 35H28" stroke="#170038" stroke-linecap="round" stroke-linejoin="round"/>
<path d="M34.1818 47L37.1934 41.4789C37.5568 40.8125 37.0745 40 36.3155 40H32" stroke="#170038" stroke-linecap="round" stroke-linejoin="round"/>
<path d="M33 38L33.5 37" stroke="#170038" stroke-linecap="round" stroke-linejoin="round"/>
<path d="M25.5 31C25.9288 29.3996 25 27.5 23.5 27M23.2044 33.4471C23.6333 31.8467 25.2783 30.8969 26.8787 31.3258C28.4791 31.7546 29.4288 33.3996 29 35H25H24.5655C20.6996 35 17.8427 31.3976 18.7232 27.6334L19.2768 25.2668C20.5465 19.8388 25.3869 16 30.9614 16H35.0386C40.6131 16 45.4535 19.8388 46.7232 25.2668L47.2768 27.6334C48.1573 31.3976 45.3004 35 41.4345 35H38C35.2386 35 33 32.7614 33 30V21M33 25C34.6569 25 36 26.3431 36 28M24 18.5C24 20.1569 25.3431 21 27 21" stroke="#170038" stroke-linecap="round" stroke-linejoin="round"/>
<path d="M41 18C41 19.6569 39.6569 21 38 21C36.3431 21 35 19.6569 35 18" stroke="#170038" stroke-linecap="round" stroke-linejoin="round"/>
<path d="M42.8631 29.9332C44.4635 30.362 45.4132 32.007 44.9844 33.6074" stroke="#170038" stroke-linecap="round" stroke-linejoin="round"/>
</svg>
