<svg width="64" height="64" viewBox="0 0 64 64" fill="none" xmlns="http://www.w3.org/2000/svg">
<path d="M28.3567 13.2036C28.4691 12.9513 28.3557 12.6558 28.1035 12.5434C27.8512 12.431 27.5556 12.5444 27.4433 12.7967L24.4572 19.5001H20C18.067 19.5001 16.5 21.0671 16.5 23.0001V44.0001C16.5 45.9331 18.067 47.5001 20 47.5001H44.7913C44.9414 47.5001 45.0762 47.4339 45.1678 47.3291C46.5225 46.8813 47.5 45.6049 47.5 44.1001V25.4001C47.5 25.124 47.2761 24.9001 47 24.9001C46.7239 24.9001 46.5 25.124 46.5 25.4001V44.1001C46.5 45.4256 45.4255 46.5001 44.1 46.5001C42.7745 46.5001 41.7 45.4256 41.7 44.1001V23.0001C41.7 21.0671 40.133 19.5001 38.2 19.5001H37.44C37.1639 19.5001 36.94 19.724 36.94 20.0001C36.94 20.2763 37.1639 20.5001 37.44 20.5001H38.2C39.5807 20.5001 40.7 21.6194 40.7 23.0001V44.1001C40.7 45.0369 41.0788 45.8852 41.6917 46.5001H20C18.6193 46.5001 17.5 45.3808 17.5 44.0001V23.0001C17.5 21.6194 18.6193 20.5001 20 20.5001H24.0117L23.17 22.3898C22.7281 23.3818 23.4542 24.5001 24.5402 24.5001H30C30.2761 24.5001 30.5 24.2763 30.5 24.0001C30.5 23.724 30.2761 23.5001 30 23.5001H24.5402C24.1782 23.5001 23.9361 23.1274 24.0834 22.7967L28.3567 13.2036Z" fill="white"/>
<path d="M30.8261 30.5001H22C21.7239 30.5001 21.5 30.724 21.5 31.0001C21.5 31.2763 21.7239 31.5001 22 31.5001H31.1702C31.178 31.5003 31.1857 31.5003 31.1934 31.5001H36C36.2761 31.5001 36.5 31.2763 36.5 31.0001C36.5 30.724 36.2761 30.5001 36 30.5001H31.8846L35.0114 21.492C35.3497 20.5174 34.626 19.5001 33.5944 19.5001H29C28.7239 19.5001 28.5 19.724 28.5 20.0001C28.5 20.2763 28.7239 20.5001 29 20.5001H33.5944C33.9382 20.5001 34.1795 20.8392 34.0667 21.1641L30.8261 30.5001Z" fill="white"/>
<path d="M44 25.5001C44.2761 25.5001 44.5 25.724 44.5 26.0001V27.3847C44.5 27.6609 44.2761 27.8847 44 27.8847C43.7239 27.8847 43.5 27.6609 43.5 27.3847V26.0001C43.5 25.724 43.7239 25.5001 44 25.5001Z" fill="white"/>
<path d="M44 29.654C44.2761 29.654 44.5 29.8778 44.5 30.154V44.0001C44.5 44.2763 44.2761 44.5001 44 44.5001C43.7239 44.5001 43.5 44.2763 43.5 44.0001V30.154C43.5 29.8778 43.7239 29.654 44 29.654Z" fill="white"/>
<path d="M23 38.5001C22.7239 38.5001 22.5 38.724 22.5 39.0001C22.5 39.2763 22.7239 39.5001 23 39.5001H36C36.2761 39.5001 36.5 39.2763 36.5 39.0001C36.5 38.724 36.2761 38.5001 36 38.5001H23Z" fill="white"/>
<path d="M24 34.5001C23.7239 34.5001 23.5 34.724 23.5 35.0001C23.5 35.2763 23.7239 35.5001 24 35.5001H33C33.2761 35.5001 33.5 35.2763 33.5 35.0001C33.5 34.724 33.2761 34.5001 33 34.5001H24Z" fill="white"/>
</svg>
