<svg width="64" height="64" viewBox="0 0 64 64" fill="none" xmlns="http://www.w3.org/2000/svg">
<path fill-rule="evenodd" clip-rule="evenodd" d="M21.0789 20.5001C19.5 20.5001 19.0789 21.1717 19.0789 22.0001L19 41.5001C19 42.3285 20.1716 43.0001 21 43.0001H40.5C41.4858 43.0001 42.876 44.7489 42.0684 45.3141C41.8991 45.4326 41.4505 45.5001 40.5 45.5001H21.5C17 46 17 43.4854 17 41.0001V23.0001C17 20.5148 17.5 18 21.5 18.5001H22.9211C23.7495 18.5001 24.7474 19.2387 24.4211 20.0001C22.9211 23.5001 22.8284 20.5001 22 20.5001H21.0789Z" fill="#895DEA"/>
<path d="M28.089 13.7325C28.125 11.6464 27.2445 11.4801 26.6661 13.0399L24.1748 19.9907C23.86 20.9168 23.499 22 24.1748 22L28.125 22C28.125 22 28.0531 15.8186 28.089 13.7325Z" fill="#EBA038"/>
<path d="M30.0479 25.9408C30.0009 27.783 31.1304 27.9617 31.9014 26.6415C31.931 26.5909 31.9547 26.5362 31.9735 26.4807L34 20.5C34.4197 19.6665 34.4011 18.5 33.5 18.5L30 18.5C30 18.5 30.0959 24.0633 30.0479 25.9408Z" fill="#EBA038"/>
<path d="M28.3567 11.7036C28.4691 11.4513 28.3557 11.1558 28.1035 11.0434C27.8512 10.931 27.5556 11.0444 27.4433 11.2967L24.4572 18.0001H20C18.067 18.0001 16.5 19.5671 16.5 21.5001V42.5001C16.5 44.4331 18.067 46.0001 20 46.0001H44.7913C44.9414 46.0001 45.0762 45.9339 45.1678 45.8291C46.5225 45.3813 47.5 44.1049 47.5 42.6001V23.9001C47.5 23.624 47.2761 23.4001 47 23.4001C46.7239 23.4001 46.5 23.624 46.5 23.9001V42.6001C46.5 43.9256 45.4255 45.0001 44.1 45.0001C42.7745 45.0001 41.7 43.9256 41.7 42.6001V21.5001C41.7 19.5671 40.133 18.0001 38.2 18.0001H37.44C37.1639 18.0001 36.94 18.224 36.94 18.5001C36.94 18.7763 37.1639 19.0001 37.44 19.0001H38.2C39.5807 19.0001 40.7 20.1194 40.7 21.5001V42.6001C40.7 43.5369 41.0788 44.3852 41.6917 45.0001H20C18.6193 45.0001 17.5 43.8808 17.5 42.5001V21.5001C17.5 20.1194 18.6193 19.0001 20 19.0001H24.0117L23.17 20.8898C22.7281 21.8818 23.4542 23.0001 24.5402 23.0001H30C30.2761 23.0001 30.5 22.7763 30.5 22.5001C30.5 22.224 30.2761 22.0001 30 22.0001H24.5402C24.1782 22.0001 23.9361 21.6274 24.0834 21.2967L28.3567 11.7036Z" fill="#170038"/>
<path d="M30.8261 29.0001H22C21.7239 29.0001 21.5 29.224 21.5 29.5001C21.5 29.7763 21.7239 30.0001 22 30.0001H31.1702C31.178 30.0003 31.1857 30.0003 31.1934 30.0001H36C36.2761 30.0001 36.5 29.7763 36.5 29.5001C36.5 29.224 36.2761 29.0001 36 29.0001H31.8846L35.0114 19.992C35.3497 19.0174 34.626 18.0001 33.5944 18.0001H29C28.7239 18.0001 28.5 18.224 28.5 18.5001C28.5 18.7763 28.7239 19.0001 29 19.0001H33.5944C33.9382 19.0001 34.1795 19.3392 34.0667 19.6641L30.8261 29.0001Z" fill="#170038"/>
<path d="M44 24.0001C44.2761 24.0001 44.5 24.224 44.5 24.5001V25.8847C44.5 26.1609 44.2761 26.3847 44 26.3847C43.7239 26.3847 43.5 26.1609 43.5 25.8847V24.5001C43.5 24.224 43.7239 24.0001 44 24.0001Z" fill="#170038"/>
<path d="M44 28.154C44.2761 28.154 44.5 28.3778 44.5 28.654V42.5001C44.5 42.7763 44.2761 43.0001 44 43.0001C43.7239 43.0001 43.5 42.7763 43.5 42.5001V28.654C43.5 28.3778 43.7239 28.154 44 28.154Z" fill="#170038"/>
<path d="M23 37.0001C22.7239 37.0001 22.5 37.224 22.5 37.5001C22.5 37.7763 22.7239 38.0001 23 38.0001H36C36.2761 38.0001 36.5 37.7763 36.5 37.5001C36.5 37.224 36.2761 37.0001 36 37.0001H23Z" fill="#170038"/>
<path d="M24 33.0001C23.7239 33.0001 23.5 33.224 23.5 33.5001C23.5 33.7763 23.7239 34.0001 24 34.0001H33C33.2761 34.0001 33.5 33.7763 33.5 33.5001C33.5 33.224 33.2761 33.0001 33 33.0001H24Z" fill="#170038"/>
</svg>
