<svg width="64" height="64" viewBox="0 0 64 64" fill="none" xmlns="http://www.w3.org/2000/svg">
<path fill-rule="evenodd" clip-rule="evenodd" d="M32.0001 16.5C25.1004 16.5 19.5001 22.1412 19.5001 29.1087C19.5001 30.1139 19.6166 31.0911 19.8366 32.0275C19.8637 32.0181 19.8917 32.011 19.9201 32.0064L24.6405 31.2415C25.2018 31.0751 25.7961 31.0521 26.3689 31.1748L32.4457 32.477L36.2205 30.7993C36.696 30.588 37.2286 30.5417 37.7334 30.6679L38.2442 30.7957C38.9823 30.9802 39.5001 31.6433 39.5001 32.4041C39.5001 32.9395 39.2415 33.442 38.8058 33.7532L35.9822 35.7701C35.8335 35.8763 35.6767 35.9707 35.5132 36.0525L31.0653 38.2764C30.08 38.7691 28.9202 38.7691 27.9348 38.2764L27.3407 37.9793C26.771 37.6945 26.1142 37.6378 25.5042 37.8208C25.4799 37.8281 25.4552 37.8335 25.4301 37.8371L22.5586 38.241L18.431 45.2536C18.2909 45.4916 17.9844 45.571 17.7465 45.4309C17.5085 45.2908 17.4291 44.9844 17.5692 44.7464L21.8192 37.5259C21.8965 37.3945 22.0295 37.3056 22.1804 37.2844L25.2546 36.8519C26.0979 36.6092 27.0022 36.692 27.7879 37.0849L28.382 37.382C29.0859 37.7339 29.9143 37.7339 30.6181 37.382L35.0659 35.1581C35.1827 35.0997 35.2948 35.0322 35.401 34.9563L38.2246 32.9395C38.3975 32.816 38.5001 32.6166 38.5001 32.4041C38.5001 32.1022 38.2946 31.839 38.0017 31.7658L37.4909 31.6381C37.2025 31.566 36.8983 31.5924 36.6266 31.7131L32.9144 33.363C32.4875 34.631 31.295 35.5 29.9385 35.5H28.9869C28.6107 35.5 28.237 35.4394 27.8801 35.3204L25.342 34.4743C25.08 34.387 24.9384 34.1039 25.0257 33.8419C25.1131 33.5799 25.3962 33.4383 25.6582 33.5257L28.1963 34.3717C28.4513 34.4567 28.7182 34.5 28.9869 34.5H29.9385C30.7424 34.5 31.4619 34.0522 31.8272 33.3672L26.1593 32.1526C25.7418 32.0632 25.3084 32.0821 24.9003 32.2077C24.8783 32.2144 24.8559 32.2197 24.8332 32.2234L20.1437 32.9833L19.7026 33.1787C19.5702 33.2373 19.4188 33.2357 19.2877 33.1742C19.1566 33.1127 19.0586 32.9973 19.0191 32.858C18.681 31.6664 18.5001 30.4084 18.5001 29.1087C18.5001 21.5967 24.5403 15.5 32.0001 15.5C39.4598 15.5 45.5001 21.5967 45.5001 29.1087C45.5001 32.442 44.3106 35.4968 42.3361 37.8633L45.456 44.7948C45.5385 44.9781 45.5033 45.1929 45.3665 45.3402C45.2297 45.4875 45.0181 45.5386 44.8292 45.4699L39.7991 43.6408L37.97 48.6709C37.9009 48.8609 37.7241 48.9906 37.522 48.9995C37.32 49.0084 37.1325 48.8947 37.047 48.7114L33.7214 41.5851C33.0096 41.7251 31.7939 41.8124 30.2898 41.5614L26.9532 48.7114C26.8364 48.9617 26.5389 49.0699 26.2886 48.9531C26.0384 48.8363 25.9302 48.5388 26.047 48.2886L29.5426 40.7979C29.5593 40.76 29.5805 40.7248 29.6053 40.6929C29.6514 40.6336 29.7094 40.5866 29.7742 40.5539C29.8755 40.5027 29.9934 40.4862 30.1081 40.5117C32.0315 40.8946 33.4377 40.6604 33.842 40.5257C34.0829 40.4453 34.3458 40.5584 34.4532 40.7886L37.4427 47.1947L39.0302 42.8291C39.1246 42.5696 39.4114 42.4357 39.671 42.5301L44.0581 44.1254L41.2941 37.9847C41.2138 37.8063 41.245 37.5974 41.3738 37.4502C43.3195 35.2274 44.5001 32.3079 44.5001 29.1087C44.5001 22.1412 38.8997 16.5 32.0001 16.5ZM25.3707 39.7553C25.5059 39.5145 25.8107 39.4288 26.0515 39.564C26.2923 39.6992 26.3779 40.0039 26.2427 40.2447L23.4361 45.2447C23.3009 45.4855 22.9961 45.5712 22.7553 45.436C22.5145 45.3008 22.4289 44.9961 22.5641 44.7553L25.3707 39.7553Z" fill="white"/>
<path fill-rule="evenodd" clip-rule="evenodd" d="M32.5 19C32.5 18.7239 32.2761 18.5 32 18.5C26.201 18.5 21.5 23.201 21.5 29C21.5 29.2761 21.7239 29.5 22 29.5C22.2761 29.5 22.5 29.2761 22.5 29C22.5 23.7533 26.7533 19.5 32 19.5C32.2761 19.5 32.5 19.2761 32.5 19Z" fill="white"/>
<path fill-rule="evenodd" clip-rule="evenodd" d="M27.6798 25.9787C27.976 25.2071 28.6692 24.5 29.7363 24.5C30.8525 24.5 31.5791 25.0429 31.9995 25.4439C32.42 25.0429 33.1466 24.5 34.2628 24.5C35.3299 24.5 36.0231 25.2071 36.3193 25.9787C36.6032 26.7181 36.5805 27.6736 36.0363 28.281C35.6978 28.6589 35.0337 29.1825 34.3585 29.7119C34.3195 29.7425 34.2802 29.7732 34.2409 29.8041C33.5768 30.3245 32.8806 30.8702 32.3376 31.3684C32.1464 31.5439 31.8527 31.5439 31.6615 31.3684C31.1185 30.8702 30.4223 30.3245 29.7582 29.8041C29.7189 29.7733 29.6797 29.7425 29.6406 29.7119C28.9654 29.1825 28.3013 28.6589 27.9628 28.281C27.4186 27.6736 27.3959 26.7181 27.6798 25.9787ZM28.6133 26.3371C28.4122 26.8609 28.4973 27.379 28.7076 27.6137C28.9726 27.9095 29.5479 28.3684 30.2576 28.925C30.2997 28.958 30.3422 28.9912 30.385 29.0248C30.9162 29.4411 31.4943 29.894 31.9995 30.331C32.5048 29.894 33.0829 29.4411 33.6142 29.0247C33.6569 28.9912 33.6994 28.958 33.7415 28.925C34.4512 28.3684 35.0265 27.9095 35.2915 27.6137C35.5018 27.379 35.5869 26.8609 35.3858 26.3371C35.197 25.8455 34.8125 25.5 34.2628 25.5C33.3375 25.5 32.8432 26.009 32.4862 26.3766C32.4382 26.426 32.3927 26.4729 32.3489 26.5156C32.1546 26.7053 31.8445 26.7053 31.6502 26.5156C31.6064 26.4729 31.5609 26.426 31.5129 26.3766C31.1559 26.009 30.6616 25.5 29.7363 25.5C29.1866 25.5 28.8021 25.8455 28.6133 26.3371Z" fill="white"/>
</svg>
