<svg width="64" height="64" viewBox="0 0 64 64" fill="none" xmlns="http://www.w3.org/2000/svg">
<path fill-rule="evenodd" clip-rule="evenodd" d="M32 16.5C25.1004 16.5 19.5 22.1412 19.5 29.1087C19.5 32.3079 20.6806 35.2274 22.6262 37.4502C22.7551 37.5974 22.7863 37.8063 22.706 37.9847L19.942 44.1254L24.3291 42.5301C24.5887 42.4357 24.8755 42.5696 24.9699 42.8291L26.5574 47.1947L29.5469 40.7886C29.6543 40.5584 29.9172 40.4453 30.1581 40.5257C30.5624 40.6604 31.9686 40.8946 33.892 40.5117C33.9324 40.5027 33.9732 40.499 34.0136 40.5001C34.0897 40.5021 34.1629 40.5215 34.2284 40.5552C34.2922 40.5879 34.3493 40.6344 34.3948 40.6929C34.4196 40.7248 34.4408 40.76 34.4575 40.798L37.9531 48.2886C38.0699 48.5388 37.9617 48.8363 37.7115 48.9531C37.4612 49.0699 37.1637 48.9617 37.0469 48.7114L33.7102 41.5614C32.2062 41.8124 30.9905 41.7251 30.2787 41.5851L26.9531 48.7114C26.8676 48.8947 26.6801 49.0084 26.4781 48.9995C26.276 48.9906 26.0992 48.8609 26.0301 48.6709L24.201 43.6408L19.1709 45.4699C18.982 45.5386 18.7703 45.4875 18.6336 45.3402C18.4968 45.1929 18.4616 44.9781 18.5441 44.7948L21.664 37.8633C19.6895 35.4968 18.5 32.442 18.5 29.1087C18.5 21.5967 24.5402 15.5 32 15.5C39.4598 15.5 45.5 21.5967 45.5 29.1087C45.5 32.442 44.3105 35.4968 42.3361 37.8633L45.456 44.7948C45.5396 44.9807 45.5021 45.1988 45.361 45.346C45.2199 45.4932 45.0036 45.54 44.8143 45.4642L39.8143 43.4642C39.7747 43.4484 39.7372 43.4275 39.7029 43.4022L39.3619 43.1502C39.2764 43.087 39.2132 42.9982 39.1816 42.8966C38.2165 39.7942 35.1563 37.5 31.5004 37.5C29.2024 37.5 27.1364 38.4076 25.6803 39.8547C25.4844 40.0493 25.1678 40.0483 24.9732 39.8525C24.7785 39.6566 24.7795 39.34 24.9754 39.1453C26.1775 37.9507 27.7422 37.0876 29.5 36.7108V27C29.5 26.1716 30.1716 25.5 31 25.5H38C38.1881 25.5 38.3602 25.6055 38.4456 25.7731C38.5309 25.9407 38.515 26.142 38.4044 26.2941L36.6183 28.75L38.4044 31.2059C38.515 31.358 38.5309 31.5593 38.4456 31.7269C38.3602 31.8945 38.1881 32 38 32H30.5V36.5519C30.8286 36.5176 31.1624 36.5 31.5004 36.5C35.511 36.5 38.9312 38.9823 40.0855 42.4415L40.2454 42.5596L44.0357 44.0758L41.2941 37.9847C41.2138 37.8063 41.2449 37.5974 41.3738 37.4502C43.3194 35.2274 44.5 32.3079 44.5 29.1087C44.5 22.1412 38.8997 16.5 32 16.5ZM30.5 31H37.0181L35.5956 29.0441C35.4681 28.8688 35.4681 28.6312 35.5956 28.4559L37.0181 26.5H31C30.7239 26.5 30.5 26.7239 30.5 27V31Z" fill="white"/>
<path d="M32 18.5C32.2762 18.5 32.5 18.7239 32.5 19C32.5 19.2761 32.2762 19.5 32 19.5C26.7533 19.5 22.5 23.7533 22.5 29C22.5 29.2761 22.2762 29.5 22 29.5C21.7239 29.5 21.5 29.2761 21.5 29C21.5 23.201 26.201 18.5 32 18.5Z" fill="white"/>
<path d="M37.9873 43.2764C37.8638 43.0294 37.5634 42.9293 37.3164 43.0528C37.0695 43.1763 36.9693 43.4766 37.0928 43.7236L38.5928 46.7236C38.7163 46.9706 39.0167 47.0707 39.2637 46.9472C39.5106 46.8237 39.6108 46.5234 39.4873 46.2764L37.9873 43.2764Z" fill="white"/>
</svg>
