<svg width="64" height="64" viewBox="0 0 64 64" fill="none" xmlns="http://www.w3.org/2000/svg">
<path d="M30.5192 26C31.6509 26 32.2167 26.8421 32.4996 27.1579C32.7825 26.8421 33.3484 26 34.48 26C35.8946 26 36.5728 27.1579 35.9127 28C35.3846 28.6737 33.7437 28.4649 32.4996 30.5C31.669 28.4649 30.0281 28.6737 29.5 28C28.8399 27.1579 29.1047 26 30.5192 26Z" fill="#EBA038"/>
<path d="M27.8398 17.6588C27.0222 17.8746 26.7203 17.9542 26.3914 17.2964C25.9115 16.8165 25.9528 16.9925 26.098 16.8951C26.1892 16.8339 26.3214 16.7452 26.3914 16.5C32.3914 14.7042 36.8284 15.0557 41.2305 19.4578C45.0485 23.2757 46.5456 28.67 44.3914 33.2964C44.2005 33.7065 44.3513 34.5934 44 35.0002C43.1823 35.9471 41.7812 36.5081 42.3227 38.2636C42.809 38.9244 43.1714 39.6556 43.2601 40.238L43.8914 41.5005C44.4726 42.9535 45.0968 43.6446 45 43.7964C44.9303 43.9058 44.2988 43.5773 43.8914 43.7964C43.2729 43.5903 42.9134 43.5842 42.6677 43.58C42.3177 43.5741 42.1989 43.5721 41.8914 43.0005L40.8916 43.0002C39.3916 43.5002 39.3916 42.5002 38.2811 40.498C36.8955 38.2223 39.0527 37.0002 39.5173 36.5356C39.9819 36.071 40.4093 35.4696 40.7384 34.935C44.3914 29.0005 42.3914 23.0005 38.8918 20.2968C36.2041 17.6588 32.0293 16.9826 29.6101 17.2964C28.8296 17.3976 28.265 17.5466 27.8398 17.6588Z" fill="#895DEA"/>
<path fill-rule="evenodd" clip-rule="evenodd" d="M32.5001 16C25.6004 16 20.0001 21.6412 20.0001 28.6087C20.0001 29.6139 20.1166 30.5911 20.3366 31.5275C20.3637 31.5181 20.3917 31.511 20.4201 31.5064L25.1405 30.7415C25.7018 30.5751 26.2961 30.5521 26.8689 30.6748L32.9457 31.977L36.7205 30.2993C37.196 30.088 37.7286 30.0417 38.2334 30.1679L38.7442 30.2957C39.4823 30.4802 40.0001 31.1433 40.0001 31.9041C40.0001 32.4395 39.7415 32.942 39.3058 33.2532L36.4822 35.2701C36.3335 35.3763 36.1767 35.4707 36.0132 35.5525L31.5653 37.7764C30.58 38.2691 29.4202 38.2691 28.4348 37.7764L27.8407 37.4793C27.271 37.1945 26.6142 37.1378 26.0042 37.3208C25.9799 37.3281 25.9552 37.3335 25.9301 37.3371L23.0586 37.741L18.931 44.7536C18.7909 44.9916 18.4844 45.071 18.2465 44.9309C18.0085 44.7908 17.9291 44.4844 18.0692 44.2464L22.3192 37.0259C22.3965 36.8945 22.5295 36.8056 22.6804 36.7844L25.7546 36.3519C26.5979 36.1092 27.5022 36.192 28.2879 36.5849L28.882 36.882C29.5859 37.2339 30.4143 37.2339 31.1181 36.882L35.5659 34.6581C35.6827 34.5997 35.7948 34.5322 35.901 34.4563L38.7246 32.4395C38.8975 32.316 39.0001 32.1166 39.0001 31.9041C39.0001 31.6022 38.7946 31.339 38.5017 31.2658L37.9909 31.1381C37.7025 31.066 37.3983 31.0924 37.1266 31.2131L33.4144 32.863C32.9875 34.131 31.795 35 30.4385 35H29.4869C29.1107 35 28.737 34.9394 28.3801 34.8204L25.842 33.9743C25.58 33.887 25.4384 33.6039 25.5257 33.3419C25.6131 33.0799 25.8962 32.9383 26.1582 33.0257L28.6963 33.8717C28.9513 33.9567 29.2182 34 29.4869 34H30.4385C31.2424 34 31.9619 33.5522 32.3272 32.8672L26.6593 31.6526C26.2418 31.5632 25.8084 31.5821 25.4003 31.7077C25.3783 31.7144 25.3559 31.7197 25.3332 31.7234L20.6437 32.4833L20.2026 32.6787C20.0702 32.7373 19.9188 32.7357 19.7877 32.6742C19.6566 32.6127 19.5586 32.4973 19.5191 32.358C19.181 31.1664 19.0001 29.9084 19.0001 28.6087C19.0001 21.0967 25.0403 15 32.5001 15C39.9598 15 46.0001 21.0967 46.0001 28.6087C46.0001 31.942 44.8106 34.9968 42.8361 37.3633L45.956 44.2948C46.0385 44.4781 46.0033 44.6929 45.8665 44.8402C45.7297 44.9875 45.5181 45.0386 45.3292 44.9699L40.2991 43.1408L38.47 48.1709C38.4009 48.3609 38.2241 48.4906 38.022 48.4995C37.82 48.5084 37.6325 48.3947 37.547 48.2114L34.2214 41.0851C33.5096 41.2251 32.2939 41.3124 30.7898 41.0614L27.4532 48.2114C27.3364 48.4617 27.0389 48.5699 26.7886 48.4531C26.5384 48.3363 26.4302 48.0388 26.547 47.7886L30.0426 40.2979C30.0593 40.26 30.0805 40.2248 30.1053 40.1929C30.1514 40.1336 30.2094 40.0866 30.2742 40.0539C30.3755 40.0027 30.4934 39.9862 30.6081 40.0117C32.5315 40.3946 33.9377 40.1604 34.342 40.0257C34.5829 39.9453 34.8458 40.0584 34.9532 40.2886L37.9427 46.6947L39.5302 42.3291C39.6246 42.0696 39.9114 41.9357 40.171 42.0301L44.5581 43.6254L41.7941 37.4847C41.7138 37.3063 41.745 37.0974 41.8738 36.9502C43.8195 34.7274 45.0001 31.8079 45.0001 28.6087C45.0001 21.6412 39.3997 16 32.5001 16ZM25.8707 39.2553C26.0059 39.0145 26.3107 38.9288 26.5515 39.064C26.7923 39.1992 26.8779 39.5039 26.7427 39.7447L23.9361 44.7447C23.8009 44.9855 23.4961 45.0712 23.2553 44.936C23.0145 44.8008 22.9289 44.4961 23.0641 44.2553L25.8707 39.2553Z" fill="#170038"/>
<path fill-rule="evenodd" clip-rule="evenodd" d="M32.5 19C32.5 18.7239 32.2761 18.5 32 18.5C26.201 18.5 21.5 23.201 21.5 29C21.5 29.2761 21.7239 29.5 22 29.5C22.2761 29.5 22.5 29.2761 22.5 29C22.5 23.7533 26.7533 19.5 32 19.5C32.2761 19.5 32.5 19.2761 32.5 19Z" fill="#170038"/>
<path fill-rule="evenodd" clip-rule="evenodd" d="M28.1798 25.4787C28.476 24.7071 29.1692 24 30.2363 24C31.3525 24 32.0791 24.5429 32.4995 24.9439C32.92 24.5429 33.6466 24 34.7628 24C35.8299 24 36.5231 24.7071 36.8193 25.4787C37.1032 26.2181 37.0805 27.1736 36.5363 27.781C36.1978 28.1589 35.5337 28.6825 34.8585 29.2119C34.8195 29.2425 34.7802 29.2732 34.7409 29.3041C34.0768 29.8245 33.3806 30.3702 32.8376 30.8684C32.6464 31.0439 32.3527 31.0439 32.1615 30.8684C31.6185 30.3702 30.9223 29.8245 30.2582 29.3041C30.2189 29.2733 30.1797 29.2425 30.1406 29.2119C29.4654 28.6825 28.8013 28.1589 28.4628 27.781C27.9186 27.1736 27.8959 26.2181 28.1798 25.4787ZM29.1133 25.8371C28.9122 26.3609 28.9973 26.879 29.2076 27.1137C29.4726 27.4095 30.0479 27.8684 30.7576 28.425C30.7997 28.458 30.8422 28.4912 30.885 28.5248C31.4162 28.9411 31.9943 29.394 32.4995 29.831C33.0048 29.394 33.5829 28.9411 34.1142 28.5247C34.1569 28.4912 34.1994 28.458 34.2415 28.425C34.9512 27.8684 35.5265 27.4095 35.7915 27.1137C36.0018 26.879 36.0869 26.3609 35.8858 25.8371C35.697 25.3455 35.3125 25 34.7628 25C33.8375 25 33.3432 25.509 32.9862 25.8766C32.9382 25.926 32.8927 25.9729 32.8489 26.0156C32.6546 26.2053 32.3445 26.2053 32.1502 26.0156C32.1064 25.9729 32.0609 25.926 32.0129 25.8766C31.6559 25.509 31.1616 25 30.2363 25C29.6866 25 29.3021 25.3455 29.1133 25.8371Z" fill="#170038"/>
</svg>
