<svg width="64" height="64" viewBox="0 0 64 64" fill="none" xmlns="http://www.w3.org/2000/svg">
<path fill-rule="evenodd" clip-rule="evenodd" d="M32.5 16C25.6004 16 20 21.6412 20 28.6087C20 31.8079 21.1806 34.7274 23.1262 36.9502C23.2551 37.0974 23.2863 37.3063 23.206 37.4847L20.442 43.6254L24.8291 42.0301C25.0887 41.9357 25.3755 42.0696 25.4699 42.3291L27.0574 46.6947L30.0469 40.2886C30.104 40.1663 30.2081 40.0722 30.3355 40.0278C30.4629 39.9834 30.6029 39.9924 30.7236 40.0528C31.7388 40.5604 32.4356 40.906 33.1213 41.0774C33.7793 41.2419 34.4451 41.2484 35.3787 41.0149C35.6466 40.948 35.9181 41.1108 35.9851 41.3787C36.0521 41.6466 35.8892 41.9181 35.6213 41.9851C34.555 42.2516 33.7207 42.2581 32.8787 42.0476C32.1947 41.8766 31.5186 41.5639 30.7361 41.1764L27.4531 48.2114C27.3676 48.3947 27.1801 48.5084 26.9781 48.4995C26.776 48.4906 26.5992 48.3609 26.5301 48.1709L24.701 43.1408L19.6709 44.9699C19.482 45.0386 19.2703 44.9875 19.1336 44.8402C18.9968 44.6929 18.9616 44.4781 19.0441 44.2948L22.164 37.3633C20.1895 34.9968 19 31.942 19 28.6087C19 21.0967 25.0402 15 32.5 15C39.9598 15 46 21.0967 46 28.6087C46 32.6193 44.2783 36.2259 41.5395 38.7164L44.4435 44.2682C44.5715 44.5129 44.4769 44.8151 44.2322 44.943C43.9875 45.071 43.6854 44.9764 43.5574 44.7317L33.089 24.7187L33.0883 24.7174C32.577 23.7565 31.278 23 29.6668 23C28.6158 23 27.6829 23.3252 27.0235 23.8275C26.3646 24.3296 26.0001 24.9872 26.0001 25.6746L26.0004 25.7351C26.002 26.0098 26.0039 26.3166 25.7107 26.4532C24.7559 26.8982 24.3426 28.033 24.7876 28.9878C24.9043 29.2381 24.796 29.5356 24.5457 29.6522C24.2954 29.7689 23.9979 29.6605 23.8812 29.4102C23.2494 28.0546 23.7527 26.461 25.0008 25.7007C25.0003 25.6921 25.0001 25.6834 25.0001 25.6746C25.0001 24.6087 25.5684 23.679 26.4175 23.0321C27.2662 22.3855 28.4166 22 29.6668 22C31.5521 22 33.2467 22.8842 33.9721 24.2495L33.9736 24.2524L41.059 37.798C43.4851 35.498 45 32.2324 45 28.6087C45 21.6412 39.3997 16 32.5 16ZM39.307 40.5581C39.551 40.4289 39.8536 40.522 39.9828 40.7661L43.7896 47.9566C43.9188 48.2006 43.8257 48.5032 43.5816 48.6324C43.3376 48.7616 43.035 48.6685 42.9058 48.4245L39.099 41.2339C38.9698 40.9899 39.0629 40.6873 39.307 40.5581ZM37.8173 42.5528C38.0643 42.4293 38.3646 42.5294 38.4881 42.7764L39.9881 45.7764C40.1116 46.0234 40.0115 46.3237 39.7645 46.4472C39.5175 46.5707 39.2172 46.4706 39.0937 46.2236L37.5937 43.2236C37.4702 42.9766 37.5703 42.6763 37.8173 42.5528ZM29.9473 28.7228C30.0703 28.4756 29.9696 28.1755 29.7224 28.0525C29.4751 27.9294 29.175 28.0301 29.052 28.2774C28.7789 28.8262 28.554 29.4073 28.3832 30.0139C28.3558 30.0205 28.3285 30.0295 28.3017 30.0411C27.6891 30.3057 26.8991 29.9991 26.5763 29.2519C26.4668 28.9984 26.1725 28.8817 25.919 28.9912C25.6655 29.1007 25.5488 29.395 25.6583 29.6485C26.0917 30.6518 27.117 31.2596 28.1379 31.1168C28.047 31.6678 27.9996 32.235 27.9996 32.814C27.9996 34.1843 28.2354 35.4908 28.6726 36.6735C28.7684 36.9325 29.0559 37.0648 29.315 36.9691C29.574 36.8733 29.7063 36.5858 29.6106 36.3267C29.2158 35.2587 28.9996 34.07 28.9996 32.814C28.9996 31.329 29.3439 29.9354 29.9473 28.7228ZM32.5 18C32.2239 18 32 18.2239 32 18.5C32 18.7761 32.2239 19 32.5 19C37.7467 19 42 23.2533 42 28.5C42 28.7761 42.2239 29 42.5 29C42.7761 29 43 28.7761 43 28.5C43 22.701 38.299 18 32.5 18Z" fill="white"/>
<path fill-rule="evenodd" clip-rule="evenodd" d="M27.5528 26.4473C27.4292 26.2004 27.5292 25.9 27.7762 25.7764L28.2234 25.5526C28.4703 25.429 28.7707 25.529 28.8943 25.7759C29.0179 26.0229 28.9179 26.3232 28.6709 26.4468L28.2237 26.6706C27.9768 26.7942 27.6764 26.6942 27.5528 26.4473Z" fill="white"/>
</svg>
