<svg width="64" height="64" viewBox="0 0 64 64" fill="none" xmlns="http://www.w3.org/2000/svg">
<path fill-rule="evenodd" clip-rule="evenodd" d="M30 28C30 26.6193 31.1193 25.5 32.5 25.5H37.5C38.3284 25.5 37.5 26.1716 37.5 27C37 28 37.3284 28.5 36.5 28.5H33.809C33.3132 28.5 32.8599 28.7801 32.6382 29.2236C32.5473 29.4054 32.504 29.6061 32.4906 29.8089C32.4454 30.4891 32.2226 31 31.5 31C30.6716 31 30 29.8284 30 29V28Z" fill="#EBA038"/>
<path d="M28.3398 17.6586C27.5222 17.8743 27.2203 17.954 26.8914 17.2961C26.4115 16.8163 26.4528 16.7886 26.598 16.6912C26.6892 16.63 26.8214 16.5414 26.8914 16.2961C32.8914 14.5004 37.3284 15.0555 41.7305 19.4576C45.5485 23.2755 47.0456 28.6698 44.8914 33.2962C44.7005 33.7063 44.3676 34.0918 44.0162 34.4986C43.1986 35.4456 42.2812 36.5078 42.8227 38.2633C43.309 38.9242 43.6714 39.6553 43.7601 40.2378L44.3914 41.5002C44.9726 42.9533 45.2068 43.3161 45.11 43.4679C45.0403 43.5772 44.7988 43.577 44.3914 43.7962C43.7729 43.59 43.4134 43.5839 43.1677 43.5798C42.8177 43.5739 42.6989 43.5718 42.3914 43.0002L41.3916 43C39.8916 43.5 39.8916 42.5 38.7811 40.4978C37.3955 38.2221 39.5527 37 40.0173 36.5354C40.4819 36.0708 40.9093 35.4694 41.2384 34.9348C44.8914 29.0002 42.8914 23.0002 39.3918 20.2965C36.7041 17.6586 32.5293 16.9823 30.1101 17.2961C29.3296 17.3974 28.765 17.5464 28.3398 17.6586Z" fill="#895DEA"/>
<path fill-rule="evenodd" clip-rule="evenodd" d="M32.5 16C25.6004 16 20 21.6412 20 28.6087C20 31.8079 21.1806 34.7274 23.1262 36.9502C23.2551 37.0974 23.2863 37.3063 23.206 37.4847L20.442 43.6254L24.8291 42.0301C25.0887 41.9357 25.3755 42.0696 25.4699 42.3291L27.0574 46.6947L30.0469 40.2886C30.1543 40.0584 30.4172 39.9453 30.6581 40.0257C31.0624 40.1604 32.4686 40.3946 34.392 40.0117C34.4324 40.0027 34.4732 39.999 34.5136 40.0001C34.5897 40.0021 34.6629 40.0215 34.7284 40.0552C34.7922 40.0879 34.8493 40.1344 34.8948 40.1929C34.9196 40.2248 34.9408 40.26 34.9575 40.298L38.4531 47.7886C38.5699 48.0388 38.4617 48.3363 38.2115 48.4531C37.9612 48.5699 37.6637 48.4617 37.5469 48.2114L34.2102 41.0614C32.7062 41.3124 31.4905 41.2251 30.7787 41.0851L27.4531 48.2114C27.3676 48.3947 27.1801 48.5084 26.9781 48.4995C26.776 48.4906 26.5992 48.3609 26.5301 48.1709L24.701 43.1408L19.6709 44.9699C19.482 45.0386 19.2703 44.9875 19.1336 44.8402C18.9968 44.6929 18.9616 44.4781 19.0441 44.2948L22.164 37.3633C20.1895 34.9968 19 31.942 19 28.6087C19 21.0967 25.0402 15 32.5 15C39.9598 15 46 21.0967 46 28.6087C46 31.942 44.8105 34.9968 42.8361 37.3633L45.956 44.2948C46.0396 44.4807 46.0021 44.6988 45.861 44.846C45.7199 44.9932 45.5036 45.04 45.3143 44.9642L40.3143 42.9642C40.2747 42.9484 40.2372 42.9275 40.2029 42.9022L39.8619 42.6502C39.7764 42.587 39.7132 42.4982 39.6816 42.3966C38.7165 39.2942 35.6563 37 32.0004 37C29.7024 37 27.6364 37.9076 26.1803 39.3547C25.9844 39.5493 25.6678 39.5483 25.4732 39.3525C25.2785 39.1566 25.2795 38.84 25.4754 38.6453C26.6775 37.4507 28.2422 36.5876 30 36.2108V26.5C30 25.6716 30.6716 25 31.5 25H38.5C38.6881 25 38.8602 25.1055 38.9456 25.2731C39.0309 25.4407 39.015 25.642 38.9044 25.7941L37.1183 28.25L38.9044 30.7059C39.015 30.858 39.0309 31.0593 38.9456 31.2269C38.8602 31.3945 38.6881 31.5 38.5 31.5H31V36.0519C31.3286 36.0176 31.6624 36 32.0004 36C36.011 36 39.4312 38.4823 40.5855 41.9415L40.7454 42.0596L44.5357 43.5758L41.7941 37.4847C41.7138 37.3063 41.7449 37.0974 41.8738 36.9502C43.8194 34.7274 45 31.8079 45 28.6087C45 21.6412 39.3997 16 32.5 16ZM31 30.5H37.5181L36.0956 28.5441C35.9681 28.3688 35.9681 28.1312 36.0956 27.9559L37.5181 26H31.5C31.2239 26 31 26.2239 31 26.5V30.5Z" fill="#170038"/>
<path d="M32.5 18C32.7762 18 33 18.2239 33 18.5C33 18.7761 32.7762 19 32.5 19C27.2533 19 23 23.2533 23 28.5C23 28.7761 22.7762 29 22.5 29C22.2239 29 22 28.7761 22 28.5C22 22.701 26.701 18 32.5 18Z" fill="#170038"/>
<path d="M38.4873 42.7764C38.3638 42.5294 38.0634 42.4293 37.8164 42.5528C37.5695 42.6763 37.4693 42.9766 37.5928 43.2236L39.0928 46.2236C39.2163 46.4706 39.5167 46.5707 39.7637 46.4472C40.0106 46.3237 40.1108 46.0234 39.9873 45.7764L38.4873 42.7764Z" fill="#170038"/>
</svg>
