<svg width="64" height="64" viewBox="0 0 64 64" fill="none" xmlns="http://www.w3.org/2000/svg">
<path d="M22.5 27.125C22.5 21.8034 26.7591 17.5 32 17.5C33.0896 17.5 34.1354 17.6857 35.109 18.0271C38.8264 19.3309 41.5 22.9099 41.5 27.125C41.5 30.3331 39.9515 33.1729 37.5714 34.9219C36.529 35.6879 35.5 37.0621 35.5 38.5C35.5 39.0523 35.0523 39.5 34.5 39.5H30.5V38C30.5 37.7239 30.2761 37.5 30 37.5C29.7239 37.5 29.5 37.7239 29.5 38V39.5C29.5 40.0523 29.9477 40.5 30.5 40.5H34.5C35.6046 40.5 36.5 39.6046 36.5 38.5C36.5 37.5028 37.2594 36.3921 38.1635 35.7278C40.7916 33.7966 42.5 30.6617 42.5 27.125C42.5 22.4786 39.5519 18.5256 35.4399 17.0834C34.3616 16.7053 33.204 16.5 32 16.5C26.1952 16.5 21.5 21.2628 21.5 27.125C21.5 30.6617 23.2084 33.7966 25.8365 35.7278C26.7406 36.3921 27.5 37.5028 27.5 38.5V40.0547C27.5 41.4052 28.5948 42.5 29.9453 42.5H35C35.2761 42.5 35.5 42.7239 35.5 43C35.5 43.2761 35.2761 43.5 35 43.5H29.1813C28.2528 43.5 27.5 44.2528 27.5 45.1813C27.5 45.8822 27.9347 46.5095 28.591 46.7556L30.7711 47.5732C31.5634 47.8703 32.4366 47.8703 33.2289 47.5732L36.1756 46.4682C36.4341 46.3712 36.5651 46.083 36.4682 45.8244C36.3712 45.5659 36.083 45.4349 35.8244 45.5318L32.8778 46.6368C32.3118 46.8491 31.6882 46.8491 31.1222 46.6368L28.9421 45.8193C28.6762 45.7196 28.5 45.4653 28.5 45.1813C28.5 44.805 28.805 44.5 29.1813 44.5H35C35.8284 44.5 36.5 43.8284 36.5 43C36.5 42.1716 35.8284 41.5 35 41.5H29.9453C29.1471 41.5 28.5 40.8529 28.5 40.0547V38.5C28.5 37.0621 27.471 35.6879 26.4286 34.9219C24.0485 33.1729 22.5 30.3331 22.5 27.125Z" fill="white"/>
<path d="M31.4239 19.6176C31.6968 19.5756 31.9522 19.7628 31.9942 20.0357C32.0362 20.3087 31.849 20.564 31.5761 20.606C27.7546 21.1943 25.5 24.1868 25.5 28.0001C25.5 28.2763 25.2761 28.5001 25 28.5001C24.7239 28.5001 24.5 28.2763 24.5 28.0001C24.5 23.7534 27.0576 20.2899 31.4239 19.6176Z" fill="white"/>
<path d="M32.1998 32.4999C32.4759 32.4998 32.6999 32.7236 32.7 32.9997L32.7002 33.4998C32.7003 33.7759 32.4765 33.9999 32.2004 34C31.9242 34.0001 31.7003 33.7763 31.7002 33.5002L31.7 33.0001C31.6999 32.724 31.9237 32.5 32.1998 32.4999Z" fill="white"/>
<path d="M32.7002 31.0556V25C32.7002 24.7239 32.4763 24.5 32.2002 24.5C31.9241 24.5 31.7002 24.7239 31.7002 25V31.0556C31.7002 31.3317 31.9241 31.5556 32.2002 31.5556C32.4763 31.5556 32.7002 31.3317 32.7002 31.0556Z" fill="white"/>
</svg>
