<svg width="64" height="64" viewBox="0 0 64 64" fill="none" xmlns="http://www.w3.org/2000/svg">
<path fill-rule="evenodd" clip-rule="evenodd" d="M31.4998 17.5C31.4998 16.9477 31.9476 16.5 32.4998 16.5C33.1148 16.5 33.8614 16.6226 34.5594 16.8151C35.2528 17.0064 35.9901 17.2916 36.5545 17.6679C39.7828 19.8201 41.9998 23.0643 41.9998 27.5C41.9998 31.0518 39.4574 33.7857 37.5671 35.4767C36.9871 35.9956 36.4998 36.8772 36.4998 37.6304C36.4998 38.9391 35.4389 40 34.1303 40H31.3748C30.6154 40 29.9998 39.3844 29.9998 38.625V38.5C29.9998 37.9477 29.5809 37.5 30.1332 37.5C30.5033 37.5 30.8265 37.7011 30.9994 38L34.3964 38.0139C34.6005 38.0139 34.766 37.8485 34.766 37.6444C34.766 36.1742 35.62 34.787 36.4998 34C38.3658 32.3307 39.9998 30.1066 39.9998 27.5C39.9998 23.8448 38.2169 21.1799 35.4451 19.3321C35.1262 19.1194 34.6134 18.9047 34.0277 18.7432C33.4465 18.5829 32.8848 18.5 32.4998 18.5C31.9476 18.5 31.4998 18.0523 31.4998 17.5Z" fill="#895DEA"/>
<path d="M31.9368 25.3384L31.9355 30.7252C31.9354 31.1531 32.2826 31.4999 32.7105 31.4994C33.1188 31.4988 33.4564 31.1812 33.4819 30.7738L33.8186 25.3975C33.8756 24.4865 32.7332 24.0351 32.1522 24.7392C32.013 24.9078 31.9368 25.1197 31.9368 25.3384Z" fill="#EBA038"/>
<path d="M22.5 27.125C22.5 21.8034 26.7591 17.5 32 17.5C33.0896 17.5 34.1354 17.6857 35.109 18.0271C38.8264 19.3309 41.5 22.9099 41.5 27.125C41.5 30.3331 39.9515 33.1729 37.5714 34.9219C36.529 35.6879 35.5 37.0621 35.5 38.5C35.5 39.0523 35.0523 39.5 34.5 39.5H30.5V38C30.5 37.7239 30.2761 37.5 30 37.5C29.7239 37.5 29.5 37.7239 29.5 38V39.5C29.5 40.0523 29.9477 40.5 30.5 40.5H34.5C35.6046 40.5 36.5 39.6046 36.5 38.5C36.5 37.5028 37.2594 36.3921 38.1635 35.7278C40.7916 33.7966 42.5 30.6617 42.5 27.125C42.5 22.4786 39.5519 18.5256 35.4399 17.0834C34.3616 16.7053 33.204 16.5 32 16.5C26.1952 16.5 21.5 21.2628 21.5 27.125C21.5 30.6617 23.2084 33.7966 25.8365 35.7278C26.7406 36.3921 27.5 37.5028 27.5 38.5V40.0547C27.5 41.4052 28.5948 42.5 29.9453 42.5H35C35.2761 42.5 35.5 42.7239 35.5 43C35.5 43.2761 35.2761 43.5 35 43.5H29.1813C28.2528 43.5 27.5 44.2528 27.5 45.1813C27.5 45.8822 27.9347 46.5095 28.591 46.7556L30.7711 47.5732C31.5634 47.8703 32.4366 47.8703 33.2289 47.5732L36.1756 46.4682C36.4341 46.3712 36.5651 46.083 36.4682 45.8244C36.3712 45.5659 36.083 45.4349 35.8244 45.5318L32.8778 46.6368C32.3118 46.8491 31.6882 46.8491 31.1222 46.6368L28.9421 45.8193C28.6762 45.7196 28.5 45.4653 28.5 45.1813C28.5 44.805 28.805 44.5 29.1813 44.5H35C35.8284 44.5 36.5 43.8284 36.5 43C36.5 42.1716 35.8284 41.5 35 41.5H29.9453C29.1471 41.5 28.5 40.8529 28.5 40.0547V38.5C28.5 37.0621 27.471 35.6879 26.4286 34.9219C24.0485 33.1729 22.5 30.3331 22.5 27.125Z" fill="#170038"/>
<path d="M32.1998 32.4999C32.4759 32.4998 32.6999 32.7236 32.7 32.9997L32.7002 33.4998C32.7003 33.7759 32.4765 33.9999 32.2004 34C31.9242 34.0001 31.7003 33.7763 31.7002 33.5002L31.7 33.0001C31.6999 32.724 31.9237 32.5 32.1998 32.4999Z" fill="#170038"/>
<path d="M32.7002 31.0556V25C32.7002 24.7239 32.4763 24.5 32.2002 24.5C31.9241 24.5 31.7002 24.7239 31.7002 25V31.0556C31.7002 31.3317 31.9241 31.5556 32.2002 31.5556C32.4763 31.5556 32.7002 31.3317 32.7002 31.0556Z" fill="#170038"/>
<path d="M31.4239 19.6177C31.6968 19.5757 31.9522 19.7629 31.9942 20.0358C32.0362 20.3087 31.849 20.564 31.5761 20.6061C27.7546 21.1944 25.5 24.1869 25.5 28.0002C25.5 28.2763 25.2761 28.5002 25 28.5002C24.7239 28.5002 24.5 28.2763 24.5 28.0002C24.5 23.7535 27.0576 20.29 31.4239 19.6177Z" fill="#170038"/>
</svg>
