<svg width="64" height="64" viewBox="0 0 64 64" fill="none" xmlns="http://www.w3.org/2000/svg">
<path fill-rule="evenodd" clip-rule="evenodd" d="M43.5 28.8084L39.7192 30.4647L39.5412 30.8592C38.8821 32.3194 38.0315 34.2041 37.4691 35.7289C37.3911 35.9405 37.1851 36.0677 36.971 36.0552C36.9646 36.0554 36.9581 36.0556 36.9516 36.0556H34.5C34.2239 36.0556 34 35.8317 34 35.5556C34 35.2794 34.2239 35.0556 34.5 35.0556H36.6538C37.2251 33.5594 38.0191 31.8004 38.631 30.4451C38.7024 30.2869 38.7713 30.1343 38.8371 29.9882L38.5098 23.1756C38.4858 22.6769 38.5628 22.1607 38.7864 21.6829C39.8915 19.3213 42.1948 16.2853 47.2597 13.0836C48.0583 12.5788 49.0239 12.4663 49.8233 12.7379C50.6431 13.0165 51.2888 13.707 51.3373 14.7372C51.4427 16.9784 50.5857 20.5115 47.1233 26.4974C46.7555 27.1333 46.1894 27.6303 45.5218 27.9227L44.5 28.3704V41.33C44.5 43.263 42.933 44.83 41 44.83H21C19.067 44.83 17.5 43.263 17.5 41.33V22.8139C17.5 20.8809 19.067 19.3139 21 19.3139H38.7903C39.0665 19.3139 39.2903 19.5377 39.2903 19.8139C39.2903 20.09 39.0665 20.3139 38.7903 20.3139H21C19.6193 20.3139 18.5 21.4331 18.5 22.8139V41.33C18.5 42.7107 19.6193 43.83 21 43.83H41C42.3807 43.83 43.5 42.7107 43.5 41.33V28.8084ZM47.794 13.9289C48.351 13.5768 49.0033 13.5155 49.5016 13.6848C49.9795 13.8472 50.3115 14.2124 50.3384 14.7842C50.4303 16.7365 49.6886 20.0653 46.2577 25.9967C45.9993 26.4433 45.5984 26.7974 45.1205 27.0068L40.347 29.0979C43.2222 23.0063 46.07 19.2544 47.3432 17.9733C47.5378 17.7774 47.5368 17.4608 47.341 17.2662C47.1451 17.0715 46.8285 17.0725 46.6339 17.2684C45.3063 18.6043 42.5511 22.2441 39.7446 28.0396L39.5087 23.1276C39.4911 22.762 39.549 22.4126 39.6921 22.1067C40.7023 19.948 42.8604 17.0476 47.794 13.9289Z" fill="white"/>
<path d="M23.1289 27.5556C23.1289 27.2794 23.3528 27.0556 23.6289 27.0556H35.887C36.1631 27.0556 36.387 27.2794 36.387 27.5556C36.387 27.8317 36.1631 28.0556 35.887 28.0556H23.6289C23.3528 28.0556 23.1289 27.8317 23.1289 27.5556Z" fill="white"/>
<path d="M27.5 31.0556C27.2239 31.0556 27 31.2794 27 31.5556C27 31.8317 27.2239 32.0556 27.5 32.0556H35.5C35.7761 32.0556 36 31.8317 36 31.5556C36 31.2794 35.7761 31.0556 35.5 31.0556H27.5Z" fill="white"/>
<path d="M23.5 35.0556C23.2239 35.0556 23 35.2794 23 35.5556C23 35.8317 23.2239 36.0556 23.5 36.0556H32.5C32.7761 36.0556 33 35.8317 33 35.5556C33 35.2794 32.7761 35.0556 32.5 35.0556H23.5Z" fill="white"/>
</svg>
