<svg width="64" height="64" viewBox="0 0 64 64" fill="none" xmlns="http://www.w3.org/2000/svg">
<path fill-rule="evenodd" clip-rule="evenodd" d="M27.5 19.5171C29.5 17.5171 36 16.798 38.5 19.298C41 21.798 40.6716 23.0171 41.5 23.0171C42.3284 23.0171 42.5 22.8455 42.5 22.0171V23.1105C42.5 21.8366 41.8498 20.4612 41 19.298C40.5792 18.7219 40.3983 18.0874 39.8307 17.5808C39.3321 17.1358 38.5045 16.5171 37.5 16.5171C36.3925 16.5171 32.2595 16.1995 30.1972 16.0283C28.8793 15.8045 26.0683 16.9033 24.5 19.5171C23.7382 20.7868 23.5456 21.8089 23.3162 23.36C23.0791 24.9623 23 26.5364 23 27.517V29.517C23 30.3455 23.6716 31.017 24.5 31.017C25.3284 31.017 26 30.3455 26 29.517C26 29.517 26 31.5171 26 27.517C26 23.517 25.6887 21.3284 27.5 19.5171Z" fill="#895DEA"/>
<path fill-rule="evenodd" clip-rule="evenodd" d="M18.5 47.0001C15.727 47.0453 15.3769 45.3816 17.9997 44.4999L21.5 43C22.2633 42.7434 25.5528 41.1055 26 42C26.375 42.75 25 43 24 43.5C23.4477 43.6841 23.5801 44.5 24.1623 44.5L38.5 44.5C39.307 44.4868 41.9941 44.6563 42 45C42.0135 45.7893 42.307 46.9868 41.5 47L18.5 47.0001Z" fill="#895DEA"/>
<path d="M32.3455 32.5739L21.7181 37.6566C21.306 37.8536 20.8118 37.7177 20.5585 37.3377C20.2587 36.8881 20.4104 36.2782 20.8857 36.0212L32.4724 29.7582C33.4866 29.21 34.4702 30.5298 33.655 31.345L32.6211 32.3789C32.541 32.459 32.4477 32.525 32.3455 32.5739Z" fill="#EBA038"/>
<path d="M22.7215 23.8599C22.7215 19.123 26.5935 15.3001 31.3299 15.3606L34.3299 15.3989C38.9817 15.4582 42.7215 19.2461 42.7215 23.8982V46.9996C42.7215 47.2758 42.4976 47.4996 42.2215 47.4996H32.3586L32.3465 47.4998H17.5017C15.845 47.4998 15.4112 45.2095 16.9533 44.6037L22.7215 42.3376V38.4998C22.7215 38.3709 22.7702 38.2534 22.8504 38.1647C22.8668 38.1465 22.8845 38.1296 22.9034 38.114C22.9317 38.0906 22.9626 38.0703 22.9956 38.0536L30.4867 34.0583C30.7303 33.9284 31.0332 34.0206 31.1632 34.2642C31.2931 34.5079 31.2009 34.8108 30.9573 34.9407L23.7215 38.7998V41.9447L40.0386 35.5344C40.2956 35.4334 40.5859 35.5599 40.6868 35.817C40.7878 36.074 40.6613 36.3642 40.4043 36.4652L17.3189 45.5344C16.8049 45.7363 16.9495 46.4998 17.5017 46.4998H23.2093L23.2215 46.4996H41.7215V23.8982C41.7215 19.7934 38.4216 16.4512 34.3172 16.3988L31.3172 16.3605C27.138 16.3071 23.7215 19.6803 23.7215 23.8599V30.7915L24.1175 30.5842C24.3621 30.4561 24.6643 30.5506 24.7923 30.7952C24.9204 31.0398 24.8259 31.342 24.5813 31.4701L17.4531 35.2022C17.2085 35.3303 16.9063 35.2358 16.7782 34.9912C16.6501 34.7465 16.7446 34.4444 16.9893 34.3163L22.7215 31.3151V23.8599Z" fill="#170038"/>
<path d="M34.7643 28.7326C34.8985 28.774 35.0091 28.8699 35.0691 28.997C35.129 29.124 35.1327 29.2705 35.0793 29.4004L33.595 33.0124C33.49 33.2678 33.1979 33.3898 32.9425 33.2848C32.6871 33.1799 32.5651 32.8877 32.67 32.6323L33.6326 30.2901L20.5924 37.1176C20.3477 37.2456 20.0456 37.1512 19.9175 36.9065C19.7894 36.6619 19.8839 36.3597 20.1285 36.2316L33.3097 29.3303L31.091 28.6458C30.8272 28.5644 30.6793 28.2845 30.7607 28.0207C30.8421 27.7568 31.122 27.6089 31.3858 27.6903L34.7643 28.7326Z" fill="#170038"/>
</svg>
