<svg width="64" height="64" viewBox="0 0 64 64" fill="none" xmlns="http://www.w3.org/2000/svg">
<path d="M24.4998 23.8599C24.4998 19.123 28.3718 15.3001 33.1083 15.3606L36.1083 15.3989C40.76 15.4582 44.4998 19.2461 44.4998 23.8982V46.9996C44.4998 47.2758 44.2759 47.4996 43.9998 47.4996H34.1369L34.1248 47.4998H19.2801C17.6233 47.4998 17.1895 45.2095 18.7316 44.6037L24.4998 42.3376V38.4998C24.4998 38.3709 24.5486 38.2534 24.6287 38.1647C24.6451 38.1465 24.6628 38.1296 24.6817 38.114C24.71 38.0906 24.7409 38.0703 24.7739 38.0536L32.265 34.0583C32.5087 33.9284 32.8115 34.0206 32.9415 34.2642C33.0714 34.5079 32.9792 34.8108 32.7356 34.9407L25.4998 38.7998V41.9447L41.8169 35.5344C42.074 35.4334 42.3642 35.5599 42.4651 35.817C42.5661 36.074 42.4396 36.3642 42.1826 36.4652L19.0972 45.5344C18.5832 45.7363 18.7278 46.4998 19.2801 46.4998H24.9876L24.9998 46.4996H43.4998V23.8982C43.4998 19.7934 40.2 16.4512 36.0955 16.3988L33.0955 16.3605C28.9163 16.3071 25.4998 19.6803 25.4998 23.8599V30.7915L25.8958 30.5842C26.1404 30.4561 26.4426 30.5506 26.5707 30.7952C26.6988 31.0398 26.6043 31.342 26.3596 31.4701L19.2314 35.2022C18.9868 35.3303 18.6846 35.2358 18.5565 34.9912C18.4285 34.7465 18.5229 34.4444 18.7676 34.3163L24.4998 31.3151V23.8599Z" fill="white"/>
<path d="M36.5426 28.7326C36.6768 28.774 36.7874 28.8699 36.8474 28.997C36.9073 29.124 36.9111 29.2705 36.8577 29.4004L35.3733 33.0124C35.2684 33.2678 34.9762 33.3898 34.7208 33.2848C34.4654 33.1799 34.3434 32.8877 34.4484 32.6323L35.4109 30.2901L22.3707 37.1176C22.126 37.2456 21.8239 37.1512 21.6958 36.9065C21.5677 36.6619 21.6622 36.3597 21.9068 36.2316L35.088 29.3303L32.8694 28.6458C32.6055 28.5644 32.4576 28.2845 32.539 28.0207C32.6204 27.7568 32.9003 27.6089 33.1642 27.6903L36.5426 28.7326Z" fill="white"/>
</svg>
