<svg width="64" height="64" viewBox="0 0 64 64" fill="none" xmlns="http://www.w3.org/2000/svg">
<path d="M21.5 24.1026C21.5 19.3657 25.372 15.5428 30.1085 15.6032L33.1085 15.6415C37.7602 15.7009 41.5 19.4887 41.5 24.1408V47.2423C41.5 47.5185 41.2761 47.7423 41 47.7423H25C24.7239 47.7423 24.5 47.5185 24.5 47.2423C24.5 46.9662 24.7239 46.7423 25 46.7423H40.5V24.1408C40.5 20.036 37.2002 16.6939 33.0957 16.6415L30.0957 16.6032C25.9165 16.5498 22.5 19.923 22.5 24.1026V42.7425C22.5 43.0186 22.2761 43.2425 22 43.2425C21.7239 43.2425 21.5 43.0186 21.5 42.7425V24.1026Z" fill="white"/>
<path d="M24.5 24.3177C24.5 21.248 27.0128 18.7725 30.0821 18.8183L33.0821 18.8631C36.0873 18.9079 38.5 21.3569 38.5 24.3624V44.2425C38.5 44.5186 38.2761 44.7425 38 44.7425H27C26.7239 44.7425 26.5 44.5186 26.5 44.2425C26.5 43.9663 26.7239 43.7425 27 43.7425H37.5V24.3624C37.5 22.5349 36.4097 20.9588 34.8404 20.2548C34.8383 20.3411 34.8139 20.4279 34.765 20.5065L27.9246 31.5065C27.7788 31.741 27.4705 31.8129 27.236 31.6671C27.0015 31.5212 26.9296 31.2129 27.0754 30.9784L33.9158 19.9784C33.9201 19.9717 33.9244 19.965 33.9289 19.9585C33.6503 19.9001 33.3622 19.8674 33.0672 19.8629L30.0672 19.8182C27.5559 19.7807 25.5 21.8061 25.5 24.3177V39.4807L32.4191 28.2728C32.5641 28.0378 32.8722 27.9649 33.1072 28.11C33.3421 28.255 33.415 28.5631 33.27 28.7981L25.4301 41.4976C25.4215 41.512 25.4123 41.5259 25.4023 41.5394C25.3588 41.5985 25.3043 41.6455 25.2433 41.6794C25.1835 41.7128 25.1161 41.7342 25.0443 41.7405C24.9886 41.7455 24.9318 41.7412 24.8763 41.727C24.8679 41.7249 24.8596 41.7225 24.8513 41.72C24.7974 41.7032 24.7475 41.6776 24.7031 41.6448C24.6441 41.6013 24.5971 41.5468 24.5632 41.486C24.5293 41.4253 24.5076 41.3567 24.5017 41.2837C24.5003 41.2671 24.4997 41.2504 24.5 41.2337V24.3177Z" fill="white"/>
<path d="M35.2539 30.8117C35.016 30.6715 34.7095 30.7507 34.5693 30.9886L32.4138 34.6451C32.2736 34.883 32.3527 35.1896 32.5906 35.3298C32.8285 35.47 33.135 35.3908 33.2752 35.153L35.4307 31.4964C35.571 31.2585 35.4918 30.952 35.2539 30.8117Z" fill="white"/>
<path d="M30.5375 37.7337C30.3995 37.9729 30.4815 38.2787 30.7207 38.4167C30.9599 38.5547 31.2657 38.4727 31.4037 38.2335L31.9625 37.2651C32.1005 37.026 32.0185 36.7202 31.7793 36.5822C31.5401 36.4442 31.2344 36.5262 31.0963 36.7653L30.5375 37.7337Z" fill="white"/>
</svg>
