<svg width="64" height="64" viewBox="0 0 64 64" fill="none" xmlns="http://www.w3.org/2000/svg">
<path fill-rule="evenodd" clip-rule="evenodd" d="M34.9999 20.6936C35.778 19.9096 36.2926 19.9157 37.0767 20.6938C38.2873 21.895 38.9996 23.6099 38.9996 25.453V43.0002C38.9996 44.1047 38.1041 45.0002 36.9996 45.0002H28.538C27.9995 45 27.0654 44.9998 27.1037 44.5329C27.1037 43.4283 28.8954 42.5 30 42.5H34.74C35.8445 42.5 36.74 41.6046 36.74 40.5L36.7403 25.4199C36.7403 24.8721 36.7403 24.3553 36.6694 23.8221C36.5958 23.2681 36.3835 22.7396 36.0409 22.298C35.472 21.5649 34.768 20.9274 34.9999 20.6936Z" fill="#895DEA"/>
<path fill-rule="evenodd" clip-rule="evenodd" d="M34.9999 20.6936C35.778 19.9096 36.2926 19.9157 37.0767 20.6938C38.2873 21.895 38.9996 23.6099 38.9996 25.453V43.0002C38.9996 44.1047 38.1041 45.0002 36.9996 45.0002H28.538C27.9995 45 27.0654 44.9998 27.1037 44.5329C27.1037 43.4283 28.8954 42.5 30 42.5H34.74C35.8445 42.5 36.74 41.6046 36.74 40.5L36.7403 25.4199C36.7403 24.8721 36.7403 24.3553 36.6694 23.8221C36.5958 23.2681 36.3835 22.7396 36.0409 22.298C35.472 21.5649 34.768 20.9274 34.9999 20.6936Z" fill="#895DEA"/>
<path d="M34.4231 31.1105L27.7417 40.7041C27.4784 41.0821 26.9734 41.2025 26.5679 40.9839C26.0982 40.7308 25.9477 40.1286 26.2432 39.6843L32.8584 29.7351C33.511 28.7537 35.0276 29.5121 34.6337 30.623L34.545 30.8731C34.5151 30.9573 34.4741 31.0371 34.4231 31.1105Z" fill="#EBA038"/>
<path d="M22 24.5C22 19.7632 25.872 15.9402 30.6085 16.0007L33.6085 16.039C38.2602 16.0984 42 19.8862 42 24.5383V47.6398C42 47.9159 41.7761 48.1398 41.5 48.1398H25.5C25.2239 48.1398 25 47.9159 25 47.6398C25 47.3636 25.2239 47.1398 25.5 47.1398H41V24.5383C41 20.4335 37.7002 17.0913 33.5957 17.0389L30.5957 17.0006C26.4165 16.9473 23 20.3204 23 24.5V43.1399C23 43.4161 22.7761 43.6399 22.5 43.6399C22.2239 43.6399 22 43.4161 22 43.1399V24.5Z" fill="#170038"/>
<path d="M25 24.7151C25 21.6454 27.5128 19.1699 30.5821 19.2157L33.5821 19.2605C36.5873 19.3054 39 21.7544 39 24.7599V44.6399C39 44.9161 38.7761 45.1399 38.5 45.1399H27.5C27.2239 45.1399 27 44.9161 27 44.6399C27 44.3638 27.2239 44.1399 27.5 44.1399H38V24.7599C38 22.9323 36.9097 21.3563 35.3404 20.6523C35.3383 20.7385 35.3139 20.8254 35.265 20.904L28.4246 31.904C28.2788 32.1385 27.9705 32.2103 27.736 32.0645C27.5015 31.9187 27.4296 31.6104 27.5754 31.3759L34.4158 20.3759C34.4201 20.3691 34.4244 20.3625 34.4289 20.356C34.1503 20.2975 33.8622 20.2648 33.5672 20.2604L30.5672 20.2156C28.0559 20.1781 26 22.2036 26 24.7151V39.8782L32.9191 28.6702C33.0641 28.4353 33.3722 28.3624 33.6072 28.5074C33.8421 28.6525 33.915 28.9606 33.77 29.1955L25.9301 41.8951C25.9215 41.9095 25.9123 41.9234 25.9023 41.9368C25.8588 41.9959 25.8043 42.0429 25.7433 42.0768C25.6835 42.1102 25.6161 42.1317 25.5443 42.138C25.4886 42.143 25.4318 42.1387 25.3763 42.1245C25.3679 42.1224 25.3596 42.12 25.3513 42.1174C25.2974 42.1007 25.2475 42.0751 25.2031 42.0423C25.1441 41.9988 25.0971 41.9443 25.0632 41.8834C25.0293 41.8227 25.0076 41.7542 25.0017 41.6812C25.0003 41.6646 24.9997 41.6479 25 41.6311V24.7151Z" fill="#170038"/>
<path d="M35.7539 31.2092C35.516 31.069 35.2095 31.1481 35.0693 31.386L32.9138 35.0426C32.7736 35.2805 32.8527 35.587 33.0906 35.7272C33.3285 35.8675 33.635 35.7883 33.7752 35.5504L35.9307 31.8938C36.071 31.6559 35.9918 31.3494 35.7539 31.2092Z" fill="#170038"/>
<path d="M31.0375 38.1312C30.8995 38.3703 30.9815 38.6761 31.2207 38.8141C31.4599 38.9522 31.7657 38.8701 31.9037 38.631L32.4625 37.6626C32.6005 37.4234 32.5185 37.1176 32.2793 36.9796C32.0401 36.8416 31.7344 36.9236 31.5963 37.1628L31.0375 38.1312Z" fill="#170038"/>
</svg>
