<svg width="64" height="64" viewBox="0 0 64 64" fill="none" xmlns="http://www.w3.org/2000/svg">
<path fill-rule="evenodd" clip-rule="evenodd" d="M35 20.5V25L33.5 25C31.0147 25 29 27.0147 29 29.5V34H20.5C18.567 34 17 32.433 17 30.5V30C17 29.7239 16.7761 29.5 16.5 29.5C16.2239 29.5 16 29.7239 16 30V30.5C16 32.9853 18.0147 35 20.5 35H29V36.5L29 39.25V43V45.2934C29 46.7647 30.8978 47.3565 31.7341 46.1461L33.9114 42.9947C34.0683 42.7676 34.0114 42.4561 33.7842 42.2992C33.557 42.1422 33.2456 42.1991 33.0886 42.4263L30.9114 45.5776C30.6326 45.9811 30 45.7838 30 45.2934V43V39.25V36.5V34.5V29.5C30 27.567 31.567 26 33.5 26L45.5 26C47.433 26 49 27.567 49 29.5V38.7105C49 40.6435 47.433 42.2105 45.5 42.2105L37.5 42.2105C37.2239 42.2105 37 42.4344 37 42.7105C37 42.9867 37.2239 43.2105 37.5 43.2105L45.5 43.2105C47.9853 43.2105 50 41.1958 50 38.7105V29.5C50 27.0147 47.9853 25 45.5 25H36V20.5C36 18.0147 33.9853 16 31.5 16H20.5C18.0147 16 16 18.0147 16 20.5L16 26H14C13.7239 26 13.5 26.2239 13.5 26.5C13.5 26.7761 13.7239 27 14 27H16.5L23 27C23.2761 27 23.5 26.7761 23.5 26.5C23.5 26.2239 23.2761 26 23 26L17 26L17 20.5C17 18.567 18.567 17 20.5 17L31.5 17C33.433 17 35 18.567 35 20.5ZM25.75 31.5C25.4739 31.5 25.25 31.2761 25.25 31V30.5C25.25 30.2239 25.4739 30 25.75 30C26.0261 30 26.25 30.2239 26.25 30.5V31C26.25 31.2761 26.0261 31.5 25.75 31.5ZM23.5556 23.3C23.5556 22.0164 24.5637 21 25.7778 21C26.9919 21 28 22.0164 28 23.3C28 23.9848 27.7116 24.5965 27.2565 25.0168C27.2136 25.0564 27.1695 25.097 27.1244 25.1383L27.1244 25.1384C26.7583 25.4745 26.3315 25.8665 25.99 26.2991C25.6028 26.7895 25.2778 27.3889 25.2778 28.1V28.5C25.2778 28.7761 25.5016 29 25.7778 29C26.0539 29 26.2778 28.7761 26.2778 28.5V28.1C26.2778 27.7065 26.456 27.3227 26.7749 26.9187C27.0634 26.5532 27.4281 26.2178 27.8021 25.8738L27.935 25.7515C28.5901 25.1465 29 24.2706 29 23.3C29 21.4908 27.5705 20 25.7778 20C24.1533 20 22.8271 21.2241 22.5924 22.8H20C19.7239 22.8 19.5 23.0239 19.5 23.3C19.5 23.5761 19.7239 23.8 20 23.8H23.0556C23.3317 23.8 23.5556 23.5761 23.5556 23.3ZM23.5 29.5C23.5 29.7761 23.2761 30 23 30H20C19.7239 30 19.5 29.7761 19.5 29.5C19.5 29.2239 19.7239 29 20 29H23C23.2761 29 23.5 29.2239 23.5 29.5ZM35 31.5C34.7239 31.5 34.5 31.7239 34.5 32C34.5 32.2761 34.7239 32.5 35 32.5H45C45.2761 32.5 45.5 32.2761 45.5 32C45.5 31.7239 45.2761 31.5 45 31.5H35ZM34.5 37C34.5 36.7239 34.7239 36.5 35 36.5H41.5C41.7761 36.5 42 36.7239 42 37C42 37.2761 41.7761 37.5 41.5 37.5H35C34.7239 37.5 34.5 37.2761 34.5 37ZM37.5 35L41 35C41.2761 35 41.5 34.7761 41.5 34.5C41.5 34.2239 41.2761 34 41 34L37.5 34C37.2239 34 37 34.2239 37 34.5C37 34.7761 37.2239 35 37.5 35Z" fill="white"/>
</svg>
