<svg width="64" height="64" viewBox="0 0 64 64" fill="none" xmlns="http://www.w3.org/2000/svg">
<path fill-rule="evenodd" clip-rule="evenodd" d="M35.4998 31.9998C35.4998 32.8282 36.1714 33.4998 36.9998 33.4998C36.9998 33.4998 37.0781 34.4998 38.9998 34.4998C40.9214 34.4998 42.5 35.6191 42.5 36.9998L42.5 37.9996C42.5 39 43 40 43.5 40C44.3284 40 44.4998 38.8282 44.4998 37.9998L44.4998 36.9998C44.4998 33.9622 42.0373 31.4998 38.9998 31.4998L35.9998 31.4998C35.1714 31.4998 35.4998 31.1714 35.4998 31.9998Z" fill="#EBA038"/>
<path fill-rule="evenodd" clip-rule="evenodd" d="M35 19.7453C35 17.5534 33.0586 15.8696 30.8887 16.1796L30.4289 16.2453L19.5 16.2453C18.9477 16.2453 18.5 15.6932 18.5 16.2455C18.5 16.7978 18.9477 17.5 19.5 17.5L31 17.5C32.5 17.5001 33 18.9169 33 19.7453L33 25.2453C33 25.7976 33.4477 26.2453 34 26.2453C34.5523 26.2453 35 25.7976 35 25.2453L35 19.7453Z" fill="#895DEA"/>
<path fill-rule="evenodd" clip-rule="evenodd" d="M34.64 25C31.3263 25 29.64 27 29.64 29L29.64 29.5C29.64 30.6046 28.6399 30.5 29.1401 30.5C30.509 30.5 30.64 29 31.64 28C32.64 27 34.14 27 34.64 27L43.64 27C44.7446 27 46 28.8954 46 30L46 38.6416C46 39.505 45.5766 40.2469 44.7498 40.4954C44.2622 40.642 44.0488 40.8935 44.794 42.1067L46.5 44C46.8395 44.9054 47.64 45.9679 47.9968 45.9679C48.9482 45.7954 49.64 44.9669 49.64 44L49.64 31C49.64 27.6863 48.5 25 43.64 25L34.64 25Z" fill="#895DEA"/>
<path fill-rule="evenodd" clip-rule="evenodd" d="M35 20V24.5H33.5C31.0147 24.5 29 26.5147 29 29V33.5H20.5C18.567 33.5 17 31.933 17 30V29.5L20 29.5C20.2761 29.5 20.5 29.2761 20.5 29C20.5 28.7239 20.2761 28.5 20 28.5L16.5 28.5C16.2239 28.5 16 28.7239 16 29V30C16 32.4853 18.0147 34.5 20.5 34.5H29V38C29 40.4853 31.0147 42.5 33.5 42.5H39.5008C39.7769 42.5 40.0008 42.2761 40.0008 42C40.0008 41.7239 39.7769 41.5 39.5008 41.5H33.5C31.567 41.5 30 39.933 30 38V34V29C30 27.067 31.567 25.5 33.5 25.5L45.5 25.5C47.433 25.5 49 27.067 49 29V36V38.75V42.5V44.7394C49 45.1735 48.4849 45.4014 48.1637 45.1094L44.991 42.2252C44.6783 41.9409 44.5 41.5379 44.5 41.1153V36C44.5 33.5147 42.4853 31.5 40 31.5L36.381 31.5L38.3201 29.8841C38.5322 29.7073 38.5609 29.392 38.3841 29.1799C38.2073 28.9678 37.892 28.9391 37.6799 29.1159L34.6799 31.6159C34.572 31.7058 34.5069 31.837 34.5005 31.9773C34.4941 32.1177 34.5471 32.2542 34.6464 32.3536L37.1464 34.8536C37.3417 35.0488 37.6583 35.0488 37.8536 34.8536C38.0488 34.6583 38.0488 34.3417 37.8536 34.1464L36.2071 32.5L40 32.5C41.933 32.5 43.5 34.067 43.5 36V41.1153C43.5 41.8196 43.7971 42.4913 44.3183 42.9651L47.491 45.8494C48.4546 46.7253 50 46.0417 50 44.7394V42.5V38.75V36V29C50 26.5147 47.9853 24.5 45.5 24.5L36 24.5V20C36 17.5147 33.9853 15.5 31.5 15.5H20.5C18.0147 15.5 16 17.5147 16 20L16 25.5H14C13.7239 25.5 13.5 25.7239 13.5 26C13.5 26.2761 13.7239 26.5 14 26.5H16.5L23 26.5C23.2761 26.5 23.5 26.2761 23.5 26C23.5 25.7239 23.2761 25.5 23 25.5L17 25.5L17 20C17 18.067 18.567 16.5 20.5 16.5L31.5 16.5C33.433 16.5 35 18.067 35 20ZM38.6467 36.3538C38.4513 36.1587 38.4511 35.8421 38.6462 35.6467C38.8413 35.4513 39.1579 35.4511 39.3533 35.6462L39.854 36.1462C40.0495 36.3413 40.0497 36.6579 39.8546 36.8533C39.6594 37.0487 39.3429 37.049 39.1475 36.8538L38.6467 36.3538ZM26.1998 28.4999C26.4759 28.4998 26.6999 28.7236 26.7 28.9997L26.7002 29.4998C26.7003 29.7759 26.4765 29.9999 26.2004 30C25.9242 30.0001 25.7003 29.7763 25.7002 29.5002L25.7 29.0001C25.6999 28.724 25.9237 28.5 26.1998 28.4999ZM20 22.2998C19.7239 22.2998 19.5 22.5237 19.5 22.7998C19.5 23.0759 19.7239 23.2998 20 23.2998H23.0556C23.3317 23.2998 23.5556 23.0759 23.5556 22.7998C23.5556 22.5237 23.3317 22.2998 23.0556 22.2998H20ZM26.7002 21V27.0556C26.7002 27.3317 26.4763 27.5556 26.2002 27.5556C25.9241 27.5556 25.7002 27.3317 25.7002 27.0556V21C25.7002 20.7239 25.9241 20.5 26.2002 20.5C26.4763 20.5 26.7002 20.7239 26.7002 21Z" fill="#170038"/>
</svg>
