<?xml version="1.0" encoding="UTF-8" standalone="no"?>
<!-- Created with Inkscape (http://www.inkscape.org/) -->

<svg
   width="320"
   height="320"
   viewBox="0 0 84.666665 84.666669"
   version="1.1"
   id="svg5"
   shape-rendering="crispEdges"
   xmlns="http://www.w3.org/2000/svg"
   xmlns:svg="http://www.w3.org/2000/svg">
  <defs
     id="defs2" />
  <path
     id="rect19080"
     style="fill:#666666;fill-opacity:1;fill-rule:evenodd;stroke-width:0.500784"
     d="M 0 170 L 0 190 L 0 200 L 10 200 L 10 210 L 0 210 L 0 220 L 10 220 L 10 230 L 20 230 L 20 240 L 30 240 L 30 250 L 10 250 L 10 260 L 20 260 L 20 270 L 30 270 L 30 280 L 40 280 L 40 290 L 50 290 L 50 300 L 40 300 L 40 320 L 50 320 L 50 310 L 60 310 L 60 300 L 70 300 L 70 290 L 80 290 L 80 280 L 70 280 L 70 270 L 80 270 L 80 260 L 90 260 L 90 250 L 100 250 L 100 240 L 90 240 L 90 230 L 70 230 L 70 220 L 80 220 L 80 210 L 90 210 L 90 200 L 100 200 L 100 190 L 110 190 L 110 180 L 120 180 L 120 170 L 0 170 z "
     transform="scale(0.26458333)" />
  <path
     id="rect2738"
     style="fill:#333333;fill-rule:evenodd;stroke-width:1.00157"
     d="M 10 190 L 10 200 L 30 200 L 30 190 L 10 190 z M 30 200 L 30 210 L 60 210 L 60 200 L 30 200 z M 60 210 L 60 220 L 70 220 L 70 210 L 60 210 z M 30 230 L 30 240 L 50 240 L 50 230 L 30 230 z M 50 240 L 50 250 L 70 250 L 70 240 L 50 240 z M 70 250 L 70 260 L 80 260 L 80 250 L 70 250 z M 40 270 L 40 280 L 60 280 L 60 270 L 40 270 z M 60 280 L 60 290 L 70 290 L 70 280 L 60 280 z "
     transform="scale(0.26458333)" />
</svg>
