<?xml version="1.0" encoding="UTF-8" standalone="no"?>
<!-- Created with Inkscape (http://www.inkscape.org/) -->

<svg
   width="320"
   height="320"
   viewBox="0 0 84.666665 84.666669"
   version="1.1"
   id="svg5"
   shape-rendering="crispEdges"
   xmlns="http://www.w3.org/2000/svg"
   xmlns:svg="http://www.w3.org/2000/svg">
  <defs
     id="defs2" />
  <path
     id="rect5538"
     style="fill:#5227a7;fill-opacity:1;fill-rule:evenodd;stroke-width:0.264999"
     d="m 79.374998,47.624999 v 5.291667 h -2.645833 v 5.291667 h -2.645833 v 10.583333 h -5.291667 v 7.9375 h -7.937499 v -23.8125 h 7.937499 v -2.645833 h 5.291667 2.645833 v -2.645834 z" />
  <path
     id="rect5564"
     style="fill:#341762;fill-opacity:1;fill-rule:evenodd;stroke-width:0.264999"
     d="m 82.020832,47.624999 v 2.645834 h -2.645834 v -2.645834 z m -2.645834,5.291667 v 2.645833 h -2.645833 v -2.645833 z m -2.645833,5.291667 v 5.291666 h -2.645833 v -5.291666 z m -5.291666,5.291666 v 7.9375 h -2.645834 v -7.9375 z m -5.291667,2.645833 V 79.374999 H 63.499999 V 66.145832 Z" />
  <path
     id="rect14644"
     style="fill:#00ff00;fill-rule:evenodd;stroke-width:0.264999"
     d="m 71.437499,18.520834 h -2.645833 v 2.645833 h 2.645833 z" />
  <path
     id="rect12309"
     style="fill:#00ff00;fill-opacity:1;fill-rule:evenodd;stroke-width:0.264999"
     d="M 71.437499,18.520833 V 23.8125 h -2.645834 v -5.291667 z m 0,5.291667 h 2.645833 V 31.75 h -2.645833 z m 2.645833,7.9375 h 2.645833 v 5.291666 h -2.645833 z" />
  <path
     id="rect12241"
     style="fill:#00ff00;fill-rule:evenodd;stroke-width:0.264999"
     d="m 68.791666,13.229166 h -2.645833 v 5.291667 h 2.645833 z" />
  <path
     id="rect12083"
     style="fill:#f2a52b;fill-opacity:0.72;fill-rule:evenodd;stroke-width:0.264999"
     d="m 76.729165,21.166666 v 5.291667 h 2.645833 V 37.041666 H 76.729165 V 39.6875 h -7.9375 V 37.041666 H 66.145832 V 26.458333 h 2.645833 v -5.291667 z" />
  <path
     id="rect17103"
     style="fill:#784421;fill-rule:evenodd;stroke-width:0.264999"
     d="M 74.083332,18.520834 H 71.437498 V 23.8125 h 2.645834 z" />
  <path
     id="rect11774"
     style="fill:#ffffff;fill-opacity:0.57;fill-rule:evenodd;stroke-width:0.264999"
     d="m 79.374998,18.520833 v 7.9375 h 2.645834 V 37.041666 H 79.374998 V 39.6875 h -2.645833 v 2.645833 h -2.645833 v 5.291666 h 2.645833 v 2.645834 h 2.645833 v 2.645833 H 66.145832 v -2.645833 h 2.645833 v -2.645834 h 2.645834 V 42.333333 H 68.791665 V 39.6875 H 66.145832 V 37.041666 H 63.499999 V 26.458333 h 2.645833 v -7.9375 z" />
  <path
     id="rect11835"
     style="fill:#ffffff;fill-opacity:0.57;fill-rule:evenodd;stroke-width:0.264999"
     d="M 82.020832,18.520832 H 63.499998 v 2.645833 h 18.520834 z" />
  <path
     id="rect12541"
     style="fill:#ffffff;fill-opacity:0.57;fill-rule:evenodd;stroke-width:0.264999"
     d="m 82.020832,18.520833 v 2.645833 h -2.645834 v -2.645833 z m -15.875,0 v 2.645833 h -2.645833 v -2.645833 z" />
  <path
     id="rect17101"
     style="fill:#784421;fill-rule:evenodd;stroke-width:0.264999"
     d="m 76.729165,15.875 h -2.645833 v 2.645833 h 2.645833 z" />
  <path
     id="rect16981"
     style="fill:#ff00ff;fill-opacity:1;fill-rule:evenodd;stroke-width:0.264999"
     d="m 79.374998,10.583333 v 2.645834 h 2.645834 v 5.291666 H 79.374998 V 15.875 h -2.645833 v -2.645833 h -2.645833 v -2.645834 h 2.645833 z" />
</svg>
