<?xml version="1.0" encoding="UTF-8" standalone="no"?>
<!-- Created with Inkscape (http://www.inkscape.org/) -->

<svg
   width="320"
   height="320"
   viewBox="0 0 84.666665 84.666669"
   version="1.1"
   id="svg5"
   shape-rendering="crispEdges"
   xmlns="http://www.w3.org/2000/svg"
   xmlns:svg="http://www.w3.org/2000/svg">
  <defs
     id="defs2" />
  <path
     id="rect5538"
     style="fill:#5227a7;fill-opacity:1;fill-rule:evenodd;stroke-width:0.264999"
     d="m 79.374999,47.624999 v 5.291667 h -2.645833 v 5.291667 h -2.645833 v 10.583333 h -5.291667 v 7.9375 h -7.9375 v -23.8125 h 7.9375 v -2.645833 h 5.291667 2.645833 v -2.645834 z" />
  <path
     id="rect5564"
     style="fill:#341762;fill-opacity:1;fill-rule:evenodd;stroke-width:0.264999"
     d="m 82.020833,47.624999 v 2.645834 h -2.645834 v -2.645834 z m -2.645834,5.291667 v 2.645833 h -2.645833 v -2.645833 z m -2.645833,5.291667 v 5.291666 H 74.083333 V 58.208333 Z M 71.4375,63.499999 v 7.9375 h -2.645834 v -7.9375 z m -5.291667,2.645833 V 79.374999 H 63.5 V 66.145832 Z" />
  <path
     id="rect31776"
     style="fill:#ff0000;fill-opacity:1;fill-rule:evenodd;stroke-width:0.264999"
     d="m 74.083333,26.458333 v 2.645833 h 2.645833 V 31.75 h 2.645833 v 13.229166 h -2.645833 v 10.583333 h -2.645833 v 10.583333 h 2.645833 v 10.583334 h 2.645833 v 2.645833 H 76.729166 71.4375 V 68.791666 h -2.645834 v -15.875 H 71.4375 V 42.333333 h 2.645833 v -7.9375 H 71.4375 V 31.75 h -2.645834 v -2.645834 h -2.645833 v -2.645833 h 2.645833 z" />
</svg>
