<?xml version="1.0" encoding="UTF-8" standalone="no"?>
<!-- Created with Inkscape (http://www.inkscape.org/) -->

<svg
   width="320"
   height="320"
   viewBox="0 0 84.666665 84.666669"
   version="1.1"
   id="svg5"
   shape-rendering="crispEdges"
   xmlns="http://www.w3.org/2000/svg"
   xmlns:svg="http://www.w3.org/2000/svg">
  <defs
     id="defs2" />
  <path
     id="rect3157"
     style="fill:#808080;fill-opacity:1;fill-rule:evenodd;stroke-width:0.264999"
     d="m 79.374998,47.624999 v 5.291667 h -2.645833 v 5.291667 h -2.645833 v 10.583333 h -5.291667 v 7.9375 h -7.937499 v -23.8125 h 7.937499 v -2.645833 h 5.291667 2.645833 v -2.645834 z" />
  <path
     id="rect9789"
     style="fill:#404040;fill-opacity:1;fill-rule:evenodd;stroke-width:0.264999"
     d="m 82.020832,47.624999 v 2.645834 h -2.645834 v -2.645834 z m -2.645834,5.291667 v 2.645833 h -2.645833 v -2.645833 z m -2.645833,5.291667 v 5.291666 h -2.645833 v -5.291666 z m -5.291666,5.291666 v 7.9375 h -2.645834 v -7.9375 z m -5.291667,2.645833 V 79.374999 H 63.499999 V 66.145832 Z" />
  <path
     id="rect18487"
     style="fill:#00e4ff;fill-opacity:0.75;fill-rule:evenodd;stroke-width:0.264999"
     d="m 79.374998,42.333333 v 5.291666 h -2.645833 v 2.645834 h -2.645833 v -2.645834 h -2.645833 v -5.291666 z" />
  <path
     id="rect18463"
     style="fill-rule:evenodd;stroke-width:0.264999"
     d="m 76.729165,82.020836 h -2.645833 v 2.645833 h 2.645833 z" />
  <path
     id="rect18395"
     style="fill:#cccccc;fill-rule:evenodd;stroke-width:0.264999"
     d="m 76.729165,50.270832 h -2.645833 v 31.75 h 2.645833 z" />
</svg>
