<?xml version="1.0" encoding="UTF-8" standalone="no"?>
<!-- Created with Inkscape (http://www.inkscape.org/) -->

<svg
   width="320"
   height="320"
   viewBox="0 0 84.666665 84.666669"
   version="1.1"
   id="svg5"
   shape-rendering="crispEdges"
   xmlns="http://www.w3.org/2000/svg"
   xmlns:svg="http://www.w3.org/2000/svg">
  <defs
     id="defs2" />
  <rect
     style="fill:#5227a7;fill-rule:evenodd;stroke-width:0.264999;fill-opacity:1"
     id="rect847"
     width="7.9375"
     height="15.875"
     x="60.854164"
     y="60.854164" />
  <rect
     style="fill:#341762;fill-opacity:1;fill-rule:evenodd;stroke-width:0.264999"
     id="rect3289"
     width="2.6458325"
     height="7.9375"
     x="63.5"
     y="71.4375" />
  <path
     id="rect19080"
     style="fill:#666666;fill-opacity:1;fill-rule:evenodd;stroke-width:0.132499"
     d="m 89.958332,44.979166 v 2.645833 h -2.645833 v 2.645834 h -2.645833 v 2.645833 h -2.645834 v 2.645833 h -2.645833 v 2.645834 h -2.645833 v 2.645833 h 5.291666 v 2.645833 h 2.645834 v 2.645833 h -2.645834 v 2.645834 h -2.645833 v 2.645833 h -2.645833 v 2.645833 h 2.645833 v 2.645834 h -2.645833 v 2.645833 h -2.645833 v 2.645833 h -2.645834 v 2.645834 h -2.645833 v -5.291667 h 2.645833 V 76.729166 H 68.791666 V 74.083332 H 66.145833 V 71.437499 H 63.5 v -2.645833 h -2.645834 v -2.645834 h 5.291667 V 63.499999 H 63.5 v -2.645833 h -2.645834 v -2.645833 h -2.645833 v -2.645834 h 2.645833 V 52.916666 H 58.208333 V 50.270833 H 55.5625 v -2.645834 h -2.645834 v -2.645833 z" />
  <path
     id="rect2738"
     style="fill:#333333;fill-rule:evenodd;stroke-width:0.264999"
     d="m 60.854166,50.270833 v 2.645833 h 5.291667 v -2.645833 z m 5.291667,2.645833 v 2.645833 h 7.9375 v -2.645833 z m 7.9375,2.645833 v 2.645834 h 2.645833 v -2.645834 z m -7.9375,5.291667 v 2.645833 H 71.4375 v -2.645833 z m 5.291667,2.645833 v 2.645833 h 5.291666 v -2.645833 z m 5.291666,2.645833 v 2.645834 h 2.645833 v -2.645834 z m -7.9375,5.291667 v 2.645833 h 5.291667 v -2.645833 z m 5.291667,2.645833 v 2.645834 h 2.645833 v -2.645834 z" />
</svg>
