<?xml version="1.0" encoding="UTF-8" standalone="no"?>
<!-- Created with Inkscape (http://www.inkscape.org/) -->

<svg
   width="320"
   height="320"
   viewBox="0 0 84.666665 84.666669"
   version="1.1"
   id="svg5"
   shape-rendering="crispEdges"
   xmlns="http://www.w3.org/2000/svg"
   xmlns:svg="http://www.w3.org/2000/svg">
  <defs
     id="defs2" />
  <path
     id="rect13356"
     style="opacity:1;fill:#ffffff;fill-opacity:1;fill-rule:evenodd;stroke-width:1.00157"
     d="m 140,10 v 30 h 30 V 10 Z m -40,30 v 30 h 30 V 40 Z m 90,0 v 30 h 30 V 40 Z M 60,80 v 30 H 90 V 80 Z m 30,50 v 30 h 30 v -30 z m -40,30 v 30 h 30 v -30 z"
     transform="scale(0.26458333)" />
  <path
     id="rect14106"
     style="opacity:1;fill:#666666;fill-opacity:1;fill-rule:evenodd;stroke-width:1.00157"
     d="m 170,10 v 30 h 30 V 10 Z M 80,20 v 30 h 30 V 20 Z m 50,20 v 30 h 30 V 40 Z M 90,70 v 30 h 30 V 70 Z m -40,40 v 30 h 30 v -30 z m 30,50 v 30 h 30 v -30 z"
     transform="scale(0.26458333)" />
  <path
     id="rect13380"
     style="opacity:1;fill:#b3b3b3;fill-opacity:1;fill-rule:evenodd;stroke-width:1.00157"
     d="m 110,10 v 30 h 30 V 10 Z m 50,30 v 30 h 30 V 40 Z M 70,50 v 30 h 30 V 50 Z m 10,50 v 30 h 30 v -30 z m -20,90 v 30 h 30 v -30 z"
     transform="scale(0.26458333)" />
  <rect
     style="opacity:1;fill:#d9d9d9;fill-opacity:1;fill-rule:evenodd;stroke-width:0.264999"
     id="rect13668"
     width="7.9375"
     height="7.9375"
     x="15.875"
     y="34.395832" />
  <path
     id="rect14154"
     style="opacity:1;fill:#808080;fill-opacity:1;fill-rule:evenodd;stroke-width:1.00157"
     d="m 200,20 v 20 h 10 V 20 Z M 70,30 V 50 H 80 V 30 Z M 60,60 V 80 H 70 V 60 Z m 60,10 v 10 h 20 V 70 Z m 60,0 v 10 h 20 V 70 Z M 50,90 v 20 H 60 V 90 Z m 20,50 v 10 h 10 v -10 z"
     transform="scale(0.26458333)" />
  <path
     id="rect14238"
     style="opacity:1;fill:#ffffff;fill-opacity:1;fill-rule:evenodd;stroke-width:1.00157"
     d="m 180,20 v 10 h 10 V 20 Z M 90,30 v 10 h 10 V 30 Z m 50,20 v 10 h 10 V 50 Z m -40,30 v 10 h 10 V 80 Z m -40,40 v 10 h 10 v -10 z m 30,50 v 10 h 10 v -10 z"
     transform="scale(0.26458333)" />
  <path
     id="rect14270"
     style="opacity:1;fill:#b3b3b3;fill-opacity:1;fill-rule:evenodd;stroke-width:1.00157"
     d="m 150,20 v 10 h 10 V 20 Z m -40,30 v 10 h 10 V 50 Z m 90,0 v 10 h 10 V 50 Z M 70,90 v 10 H 80 V 90 Z m 30,50 v 10 h 10 v -10 z m -40,30 v 10 h 10 v -10 z"
     transform="scale(0.26458333)" />
  <path
     id="rect14428"
     style="opacity:1;fill:#666666;fill-opacity:1;fill-rule:evenodd;stroke-width:1.00157"
     d="m 120,20 v 10 h 10 V 20 Z m 50,30 v 10 h 10 V 50 Z M 80,60 V 70 H 90 V 60 Z m 10,50 v 10 h 10 v -10 z m -20,90 v 10 h 10 v -10 z"
     transform="scale(0.26458333)" />
</svg>
