<?xml version="1.0" encoding="UTF-8" standalone="no"?>
<!-- Created with Inkscape (http://www.inkscape.org/) -->

<svg
   width="320"
   height="320"
   viewBox="0 0 84.666665 84.666669"
   version="1.1"
   id="svg5"
   shape-rendering="crispEdges"
   xmlns="http://www.w3.org/2000/svg"
   xmlns:svg="http://www.w3.org/2000/svg">
  <defs
     id="defs2" />
  <path
     id="rect7704"
     style="opacity:1;fill:#e5e0c9;fill-opacity:1;fill-rule:evenodd;stroke-width:1.00157"
     d="M 130,10 V 20 H 110 V 30 H 100 V 40 H 90 V 50 H 80 V 70 80 H 90 V 70 h 20 v 20 h 10 v 10 h 10 V 80 h 10 V 70 h 20 v 10 h 10 v 10 h 10 V 70 h 10 v 10 h 10 V 70 h 20 v 10 h 10 v 10 h 10 V 80 h 10 V 70 50 H 240 V 40 H 230 V 30 H 220 V 20 H 200 V 10 Z"
     transform="scale(0.26458333)" />
  <path
     id="rect7754"
     style="opacity:1;fill:#908554;fill-opacity:1;fill-rule:evenodd;stroke-width:1.00157"
     d="m 120,30 v 10 h 10 V 30 Z m 10,10 v 20 h 10 V 40 Z m 10,20 v 10 h 10 V 60 Z m 30,-30 v 20 h 10 V 30 Z m 10,20 v 20 h 10 V 50 Z m 10,0 h 10 V 40 h -10 z m 30,0 v 10 h 20 V 50 Z m 0,10 h -10 v 10 h 10 z m -120,0 v 10 h 10 V 60 Z"
     transform="scale(0.26458333)" />
</svg>
