<?xml version="1.0" encoding="UTF-8" standalone="no"?>
<!-- Created with Inkscape (http://www.inkscape.org/) -->

<svg
   width="320"
   height="320"
   viewBox="0 0 84.666665 84.666669"
   version="1.1"
   id="svg5"
   shape-rendering="crispEdges"
   xmlns="http://www.w3.org/2000/svg"
   xmlns:svg="http://www.w3.org/2000/svg">
  <defs
     id="defs2" />
  <path
     id="rect7473"
     style="opacity:1;fill:#ffd800;fill-opacity:1;fill-rule:evenodd;stroke-width:1.00157"
     d="M 70,10 V 20 50 H 80 V 70 H 230 V 50 h 10 V 20 10 H 230 V 20 H 220 V 40 H 210 V 20 H 200 V 10 H 190 V 20 H 180 V 40 H 170 V 20 H 160 V 10 H 150 V 20 H 140 V 40 H 130 V 20 H 120 V 10 H 110 V 20 H 100 V 40 H 90 V 20 H 80 V 10 Z"
     transform="scale(0.26458333)" />
  <path
     id="rect7581"
     style="opacity:1;mix-blend-mode:normal;fill:#0026ff;fill-opacity:1;fill-rule:evenodd;stroke-width:1.00157"
     d="m 90,50 v 10 h 10 V 50 Z m 40,0 v 10 h 10 V 50 Z m 40,0 v 10 h 10 V 50 Z m 40,0 v 10 h 10 V 50 Z"
     transform="scale(0.26458333)" />
  <path
     id="rect7549"
     style="opacity:1;fill:#007f46;fill-opacity:1;fill-rule:evenodd;stroke-width:1.00157"
     d="M 80,40 V 50 H 90 V 40 Z m 30,0 v 10 h 10 V 40 Z m 40,0 v 10 h 10 V 40 Z m 40,0 v 10 h 10 V 40 Z m 30,0 v 10 h 10 V 40 Z"
     transform="scale(0.26458333)" />
  <path
     id="rect7517"
     style="opacity:1;fill:#ff0000;fill-opacity:1;fill-rule:evenodd;stroke-width:1.00157"
     d="M 70,20 V 30 H 80 V 20 Z m 40,0 v 10 h 10 V 20 Z m 40,0 v 10 h 10 V 20 Z m 40,0 v 10 h 10 V 20 Z m 40,0 v 10 h 10 V 20 Z"
     transform="scale(0.26458333)" />
</svg>
