<?xml version="1.0" encoding="UTF-8" standalone="no"?>
<!-- Created with Inkscape (http://www.inkscape.org/) -->

<svg
   width="320"
   height="320"
   viewBox="0 0 84.666665 84.666669"
   version="1.1"
   id="svg5"
   shape-rendering="crispEdges"
   xmlns="http://www.w3.org/2000/svg"
   xmlns:svg="http://www.w3.org/2000/svg">
  <defs
     id="defs2" />
  <path
     id="rect5024"
     style="fill:#5227a7;fill-opacity:1;fill-rule:evenodd;stroke-width:1.00157"
     d="M 100,0 V 10 H 90 V 20 H 80 V 60 H 90 V 70 H 230 V 60 h 10 V 20 H 230 V 10 H 220 V 0 H 170 V 10 H 150 V 0 Z"
     transform="scale(0.26458333)" />
  <path
     id="rect5026"
     style="fill:#57007f;fill-opacity:1;fill-rule:evenodd;stroke-width:1.00157"
     d="m 110,0 v 10 h 10 V 0 Z m 10,10 v 30 h 10 V 30 h 10 V 20 H 130 V 10 Z m 20,20 v 10 h 10 V 30 Z M 180,0 v 20 h 10 V 0 Z m 0,20 h -10 v 10 h 10 z m 20,10 v 10 h -10 v 10 h 30 V 40 H 210 V 30 Z m 20,20 v 10 h 10 V 50 Z M 90,40 v 10 h 10 V 40 Z m 10,10 v 20 h 10 V 50 Z m 60,0 v 10 h 10 V 50 Z m 0,10 h -10 v 10 h 10 z"
     transform="scale(0.26458333)" />
</svg>
