<?xml version="1.0" encoding="UTF-8" standalone="no"?>
<!-- Created with Inkscape (http://www.inkscape.org/) -->

<svg
   width="320"
   height="320"
   viewBox="0 0 84.666665 84.666669"
   version="1.1"
   id="svg5"
   shape-rendering="crispEdges"
   xmlns="http://www.w3.org/2000/svg"
   xmlns:svg="http://www.w3.org/2000/svg">
  <defs
     id="defs2" />
  <path
     id="rect9593"
     style="opacity:1;fill:#4c0045;fill-opacity:1;fill-rule:evenodd;stroke-width:0.264999"
     d="m 39.6875,5.2916665 h 5.291667 V 7.9374998 H 39.6875 Z" />
  <path
     id="rect9639"
     style="opacity:1;fill:#333333;fill-opacity:1;fill-rule:evenodd;stroke-width:1.00157"
     d="m 160,90 v 50 h 10 V 90 Z m 0,50 h -20 v 10 h 20 z m -20,0 v -10 h -10 v 10 z"
     transform="scale(0.26458333)" />
  <path
     id="rect9543"
     style="opacity:1;fill:#800080;fill-opacity:1;fill-rule:evenodd;stroke-width:1.00157"
     d="M 140,30 V 40 H 110 V 50 H 90 V 60 H 80 V 70 H 70 V 80 H 90 V 70 h 10 v 10 h 10 v 10 h 10 V 80 h 10 V 70 h 10 v 10 h 10 v 10 h 20 V 80 h 10 V 70 h 10 v 10 h 10 v 10 h 10 V 80 h 10 V 70 h 10 v 10 h 20 V 70 H 240 V 60 H 230 V 50 H 210 V 40 H 180 V 30 Z m 110,50 v 10 h 10 V 80 Z M 70,80 H 60 v 10 h 10 z"
     transform="scale(0.26458333)" />
</svg>
