<?xml version="1.0" encoding="UTF-8" standalone="no"?>
<!-- Created with Inkscape (http://www.inkscape.org/) -->

<svg
   width="320"
   height="320"
   viewBox="0 0 84.666665 84.666669"
   version="1.1"
   id="svg5"
   shape-rendering="crispEdges"
   xmlns="http://www.w3.org/2000/svg"
   xmlns:svg="http://www.w3.org/2000/svg">
  <defs
     id="defs2" />
  <path
     id="rect5608"
     style="fill:#ffd800;fill-opacity:1;fill-rule:evenodd;stroke-width:1.00157"
     d="m 90,190 v 10 10 h 10 v 10 h 20 v -10 h -10 v -10 h -10 v -10 z m 30,30 v 10 h 10 v -10 z m 10,10 v 10 h 10 v 10 h -10 v 30 h 10 v 10 h 40 v -10 h 10 v -30 h -10 v -10 h 10 v -10 h -20 v 10 h -20 v -10 z m 60,0 h 10 v -10 h -10 z m 10,-10 h 20 v -10 h 10 v -10 -10 h -10 v 10 h -10 v 10 h -10 z"
     transform="scale(0.26458333)" />
  <path
     id="rect5758"
     style="fill:#ffe97f;fill-opacity:1;fill-rule:evenodd;stroke-width:1.00157"
     d="m 150,250 v 20 10 h 10 v -10 h 10 v -20 z"
     transform="scale(0.26458333)" />
</svg>
