<?xml version="1.0" encoding="UTF-8" standalone="no"?>
<!-- Created with Inkscape (http://www.inkscape.org/) -->

<svg
   width="320"
   height="320"
   viewBox="0 0 84.666665 84.666669"
   version="1.1"
   id="svg5"
   shape-rendering="crispEdges"
   xmlns="http://www.w3.org/2000/svg"
   xmlns:svg="http://www.w3.org/2000/svg">
  <defs
     id="defs2" />
  <path
     id="rect4284-1"
     style="fill:#ffb70f;fill-opacity:1;fill-rule:evenodd;stroke-width:1.00157"
     d="M 20 290 L 20 310 L 30 310 L 30 290 L 20 290 z M 30 310 L 30 320 L 90 320 L 90 310 L 50 310 L 50 290 L 40 290 L 40 310 L 30 310 z "
     transform="scale(0.26458333)" />
  <path
     id="rect3298"
     style="fill:#ffb70f;fill-opacity:1;fill-rule:evenodd;stroke-width:1.00157"
     d="M 50 270 L 50 280 L 60 280 L 60 270 L 50 270 z M 60 280 L 60 290 L 90 290 L 90 280 L 80 280 L 80 270 L 70 270 L 70 280 L 60 280 z "
     transform="scale(0.26458333)" />
</svg>
