<?xml version="1.0" encoding="UTF-8" standalone="no"?>
<!-- Created with Inkscape (http://www.inkscape.org/) -->

<svg
   width="320"
   height="320"
   viewBox="0 0 84.666665 84.666669"
   version="1.1"
   id="svg5"
   shape-rendering="crispEdges"
   xmlns="http://www.w3.org/2000/svg"
   xmlns:svg="http://www.w3.org/2000/svg">
  <defs
     id="defs2" />
  <path
     id="rect5538"
     style="fill:#5227a7;fill-rule:evenodd;stroke-width:0.264999"
     d="m 15.875,52.916664 h 7.9375 V 76.729162 H 15.875 Z" />
  <path
     id="rect5564"
     style="fill:#341762;fill-rule:evenodd;stroke-width:0.264999"
     d="m 18.520834,66.145836 h 2.645833 v 13.229166 h -2.645833 z" />
  <path
     id="rect19080"
     style="fill:#666666;fill-opacity:1;fill-rule:evenodd;stroke-width:0.132499"
     d="m 31.75,44.979166 v 2.645833 h -2.645833 v 2.645834 h -2.645833 v 2.645833 H 23.8125 v 2.645833 h -2.645833 v 2.645834 h -2.645833 v 2.645833 H 23.8125 v 2.645833 h 2.645834 v 2.645833 H 23.8125 v 2.645834 h -2.645833 v 2.645833 h -2.645833 v 2.645833 h 2.645833 v 2.645834 h -2.645833 v 2.645833 h -2.645833 v 2.645833 h -2.645834 v 2.645834 h -2.645833 v -5.291667 h 2.645833 V 76.729166 H 10.583334 V 74.083332 H 7.9375006 v -2.645833 h -2.645833 v -2.645833 h -2.645834 v -2.645834 h 5.291667 V 63.499999 H 5.2916676 V 60.854166 H 2.6458336 V 58.208333 H 6.0000001e-7 V 55.562499 H 2.6458336 V 52.916666 H 6.0000001e-7 V 50.270833 H -2.6458324 v -2.645834 h -2.645834 v -2.645833 z" />
  <path
     id="rect2738"
     style="fill:#333333;fill-rule:evenodd;stroke-width:1.00157"
     d="M 10 190 L 10 200 L 30 200 L 30 190 L 10 190 z M 30 200 L 30 210 L 60 210 L 60 200 L 30 200 z M 60 210 L 60 220 L 70 220 L 70 210 L 60 210 z M 30 230 L 30 240 L 50 240 L 50 230 L 30 230 z M 50 240 L 50 250 L 70 250 L 70 240 L 50 240 z M 70 250 L 70 260 L 80 260 L 80 250 L 70 250 z M 40 270 L 40 280 L 60 280 L 60 270 L 40 270 z M 60 280 L 60 290 L 70 290 L 70 280 L 60 280 z "
     transform="scale(0.26458333)" />
</svg>
