<?xml version="1.0" encoding="UTF-8" standalone="no"?>
<!-- Created with Inkscape (http://www.inkscape.org/) -->

<svg
   width="320"
   height="320"
   viewBox="0 0 84.666665 84.666669"
   version="1.1"
   id="svg5"
   shape-rendering="crispEdges"
   xmlns="http://www.w3.org/2000/svg"
   xmlns:svg="http://www.w3.org/2000/svg">
  <defs
     id="defs2" />
  <path
     id="rect5538"
     style="fill:#5227a7;fill-opacity:1;fill-rule:evenodd;stroke-width:1.00157"
     d="m 20,180 v 20 h 10 v 20 h 10 v 40 h 20 v 30 H 90 V 200 H 60 V 190 H 40 30 v -10 z"
     transform="scale(0.26458333)" />
  <path
     id="rect5564"
     style="fill:#341762;fill-opacity:1;fill-rule:evenodd;stroke-width:1.00157"
     d="m 10,180 v 10 h 10 v -10 z m 10,20 v 10 h 10 v -10 z m 10,20 v 20 h 10 v -20 z m 20,20 v 30 h 10 v -30 z m 20,10 v 50 h 10 v -50 z"
     transform="scale(0.26458333)" />
  <path
     id="rect31776"
     style="fill:#00ff00;fill-opacity:1;fill-rule:evenodd;stroke-width:1.00157"
     d="m 40,100 v 10 H 30 v 10 H 20 v 50 h 10 v 40 h 10 v 40 H 30 v 40 H 20 v 10 H 30 50 V 260 H 60 V 200 H 50 V 160 H 40 V 130 H 50 V 120 H 60 V 110 H 70 V 100 H 60 Z"
     transform="scale(0.26458333)" />
</svg>
