<?xml version="1.0" encoding="UTF-8" standalone="no"?>


<svg
   width="70"
   height="160"
   viewBox="0 0 18.520833 42.333334"
   version="1.1"
   id="svg5"
   shape-rendering="crispEdges"
   sodipodi:docname="left-wing-accessory-cocktail.svg"
   inkscape:version="1.1.2 (b8e25be833, 2022-02-05)"
   xmlns:inkscape="http://www.inkscape.org/namespaces/inkscape"
   xmlns:sodipodi="http://sodipodi.sourceforge.net/DTD/sodipodi-0.dtd"
   xmlns="http://www.w3.org/2000/svg"
   xmlns:svg="http://www.w3.org/2000/svg">
  <sodipodi:namedview
     id="namedview14"
     pagecolor="#505050"
     bordercolor="#eeeeee"
     borderopacity="1"
     inkscape:pageshadow="0"
     inkscape:pageopacity="0"
     inkscape:pagecheckerboard="0"
     showgrid="false"
     inkscape:zoom="2.01875"
     inkscape:cx="150.09288"
     inkscape:cy="119.87616"
     inkscape:window-width="1920"
     inkscape:window-height="974"
     inkscape:window-x="-11"
     inkscape:window-y="-11"
     inkscape:window-maximized="1"
     inkscape:current-layer="svg5" />
  <defs
     id="defs2" />
  <path
     id="rect14644"
     style="fill:#00ff00;fill-rule:evenodd;stroke-width:0.264999"
     d="m 10.583333,7.9375008 h 2.645833 v 2.6458332 h -2.645833 z" />
  <path
     id="rect12309"
     style="fill:#00ff00;fill-opacity:1;fill-rule:evenodd;stroke-width:0.264999"
     d="m 10.583333,7.9374999 v 5.2916671 h 2.645834 V 7.9374999 Z m 0,5.2916671 H 7.9374999 v 7.937499 H 10.583333 Z M 7.9374999,21.166666 H 5.2916666 v 5.291667 h 2.6458333 z" />
  <path
     id="rect12241"
     style="fill:#00ff00;fill-rule:evenodd;stroke-width:0.264999"
     d="m 13.229166,2.6458328 h 2.645833 v 5.291667 h -2.645833 z" />
  <path
     id="rect12083"
     style="fill:#f2a52b;fill-opacity:0.72;fill-rule:evenodd;stroke-width:0.264999"
     d="M 5.2916666,10.583333 V 15.875 H 2.6458333 v 10.583333 h 2.6458333 v 2.645833 H 13.229167 V 26.458333 H 15.875 V 15.875 h -2.645833 v -5.291667 z" />
  <path
     id="rect17103"
     style="fill:#784421;fill-rule:evenodd;stroke-width:0.264999"
     d="M 7.9374997,7.9375008 H 10.583334 V 13.229167 H 7.9374997 Z" />
  <path
     id="rect11774"
     style="fill:#ffffff;fill-opacity:0.57;fill-rule:evenodd;stroke-width:0.264999"
     d="M 2.6458333,7.9374999 V 15.875 H 0 v 10.583333 h 2.6458333 v 2.645833 H 5.2916666 V 31.75 h 2.6458333 v 5.291666 H 5.2916666 V 39.6875 H 2.6458333 v 2.645833 H 15.875 V 39.6875 H 13.229167 V 37.041666 H 10.583333 V 31.75 h 2.645834 V 29.104166 H 15.875 v -2.645833 h 2.645833 V 15.875 H 15.875 V 7.9374999 Z" />
  <path
     id="rect11835"
     style="fill:#ffffff;fill-opacity:0.57;fill-rule:evenodd;stroke-width:0.264999"
     d="M 0,7.9374988 H 18.520834 V 10.583332 H 0 Z" />
  <path
     id="rect12541"
     style="fill:#ffffff;fill-opacity:0.57;fill-rule:evenodd;stroke-width:0.264999"
     d="M 0,7.9374999 V 10.583333 H 2.6458333 V 7.9374999 Z m 15.875,0 v 2.6458331 h 2.645833 V 7.9374999 Z" />
  <path
     id="rect17101"
     style="fill:#784421;fill-rule:evenodd;stroke-width:0.264999"
     d="m 5.2916667,5.2916668 h 2.645833 v 2.645833 h -2.645833 z" />
  <path
     id="rect16981"
     style="fill:#ff00ff;fill-opacity:1;fill-rule:evenodd;stroke-width:0.264999"
     d="M 2.6458333,0 V 2.6458333 H 0 V 7.9374999 H 2.6458333 V 5.2916666 H 5.2916666 V 2.6458333 H 7.9374999 V 0 H 5.2916666 Z" />
</svg>
