<?xml version="1.0" encoding="UTF-8" standalone="no"?>
<!-- Created with Inkscape (http://www.inkscape.org/) -->

<svg
   width="120"
   height="150"
   viewBox="0 0 31.749999 39.687501"
   version="1.1"
   id="svg5"
   shape-rendering="crispEdges"
   sodipodi:docname="left-wing-accessory-tornadoshield.svg"
   inkscape:version="1.1.2 (b8e25be833, 2022-02-05)"
   xmlns:inkscape="http://www.inkscape.org/namespaces/inkscape"
   xmlns:sodipodi="http://sodipodi.sourceforge.net/DTD/sodipodi-0.dtd"
   xmlns="http://www.w3.org/2000/svg"
   xmlns:svg="http://www.w3.org/2000/svg">
  <sodipodi:namedview
     id="namedview6"
     pagecolor="#505050"
     bordercolor="#eeeeee"
     borderopacity="1"
     inkscape:pageshadow="0"
     inkscape:pageopacity="0"
     inkscape:pagecheckerboard="0"
     showgrid="false"
     inkscape:zoom="2.01875"
     inkscape:cx="160"
     inkscape:cy="-9.9071207"
     inkscape:window-width="1920"
     inkscape:window-height="974"
     inkscape:window-x="-11"
     inkscape:window-y="-11"
     inkscape:window-maximized="1"
     inkscape:current-layer="svg5" />
  <defs
     id="defs2" />
  <path
     id="rect19080"
     style="fill:#666666;fill-opacity:1;fill-rule:evenodd;stroke-width:0.132499"
     d="M 0,0 V 5.2916666 7.9374999 H 2.6458333 V 10.583333 H 0 v 2.645834 H 2.6458333 V 15.875 h 2.6458333 v 2.645833 h 2.6458333 v 2.645833 H 2.6458333 V 23.8125 h 2.6458333 v 2.645833 h 2.6458333 v 2.645833 H 10.583333 V 31.75 h 2.645834 v 2.645833 H 10.583333 V 39.6875 h 2.645834 V 37.041666 H 15.875 v -2.645833 h 2.645833 V 31.75 h 2.645833 v -2.645834 h -2.645833 v -2.645833 h 2.645833 V 23.8125 H 23.8125 v -2.645834 h 2.645833 V 18.520833 H 23.8125 V 15.875 h -5.291667 v -2.645833 h 2.645833 V 10.583333 H 23.8125 V 7.9374999 h 2.645833 V 5.2916666 h 2.645833 V 2.6458333 H 31.75 V 0 Z" />
  <path
     id="rect2738"
     style="fill:#333333;fill-rule:evenodd;stroke-width:0.264999"
     d="M 2.6458333,5.2916666 V 7.9374999 H 7.9374999 V 5.2916666 Z M 7.9374999,7.9374999 V 10.583333 H 15.875 V 7.9374999 Z M 15.875,10.583333 v 2.645834 h 2.645833 V 10.583333 Z M 7.9374999,15.875 v 2.645833 H 13.229167 V 15.875 Z m 5.2916671,2.645833 v 2.645833 h 5.291666 v -2.645833 z m 5.291666,2.645833 V 23.8125 h 2.645833 v -2.645834 z m -7.9375,5.291667 v 2.645833 H 15.875 V 26.458333 Z M 15.875,29.104166 V 31.75 h 2.645833 v -2.645834 z" />
</svg>
