<?xml version="1.0" encoding="UTF-8" standalone="no"?>
<!-- Created with Inkscape (http://www.inkscape.org/) -->

<svg
   width="320"
   height="320"
   viewBox="0 0 84.666665 84.666669"
   version="1.1"
   id="svg5"
   shape-rendering="crispEdges"
   xmlns="http://www.w3.org/2000/svg"
   xmlns:svg="http://www.w3.org/2000/svg">
  <defs
     id="defs2" />
  <path
     id="rect19080"
     style="fill:#666666;fill-opacity:1;fill-rule:evenodd;stroke-width:0.500784"
     d="M 200 170 L 200 180 L 210 180 L 210 190 L 220 190 L 220 200 L 230 200 L 230 210 L 220 210 L 220 220 L 230 220 L 230 230 L 240 230 L 240 240 L 250 240 L 250 250 L 230 250 L 230 260 L 240 260 L 240 270 L 250 270 L 250 280 L 260 280 L 260 290 L 270 290 L 270 300 L 260 300 L 260 320 L 270 320 L 270 310 L 280 310 L 280 300 L 290 300 L 290 290 L 300 290 L 300 280 L 290 280 L 290 270 L 300 270 L 300 260 L 310 260 L 310 250 L 320 250 L 320 240 L 310 240 L 310 230 L 290 230 L 290 220 L 300 220 L 300 210 L 310 210 L 310 200 L 320 200 L 320 190 L 320 170 L 200 170 z "
     transform="scale(0.26458333)" />
  <path
     id="rect2738"
     style="fill:#333333;fill-rule:evenodd;stroke-width:0.264999"
     d="m 60.854166,50.270833 v 2.645833 h 5.291667 v -2.645833 z m 5.291667,2.645833 v 2.645833 h 7.9375 v -2.645833 z m 7.9375,2.645833 v 2.645834 h 2.645833 v -2.645834 z m -7.9375,5.291667 v 2.645833 H 71.4375 v -2.645833 z m 5.291667,2.645833 v 2.645833 h 5.291666 v -2.645833 z m 5.291666,2.645833 v 2.645834 h 2.645833 v -2.645834 z m -7.9375,5.291667 v 2.645833 h 5.291667 v -2.645833 z m 5.291667,2.645833 v 2.645834 h 2.645833 v -2.645834 z" />
</svg>
