<?xml version="1.0" encoding="UTF-8" standalone="no"?>


<svg
   width="320"
   height="320"
   viewBox="0 0 84.666665 84.666669"
   version="1.1"
   id="svg5"
   shape-rendering="crispEdges"
   xmlns="http://www.w3.org/2000/svg"
   xmlns:svg="http://www.w3.org/2000/svg">
  <defs
     id="defs2" />
  <path
     id="rect37274"
     style="fill:#000000;fill-opacity:1;fill-rule:evenodd;stroke-width:1.00157"
     d="m 90,190 v 10 10 10 100 h 60 10 v -70 h -10 v -30 h -30 v -10 h -10 v -10 h -10 v -10 z m 130,0 v 10 h -10 v 10 h -10 v 10 h -30 v 100 h 60 V 220 210 200 190 Z"
     transform="scale(0.26458333)" />
  <path
     id="rect37314"
     style="fill:#333333;fill-rule:evenodd;stroke-width:0.264999"
     d="m 42.333332,66.145836 h 2.645833 V 84.66667 h -2.645833 z" />
  <path
     id="rect37338"
     style="fill:#ffcc00;fill-opacity:1;fill-rule:evenodd;stroke-width:1.00157"
     d="m 160,260 v 10 h 10 v -10 z m 0,20 v 10 h 10 v -10 z m 0,20 v 10 h 10 v -10 z"
     transform="scale(0.26458333)" />
  <path
     id="rect37366"
     style="fill:#ff0000;fill-opacity:1;fill-rule:evenodd;stroke-width:1.00157"
     d="m 130,190 v 10 10 20 10 10 h 10 v -10 h 10 v -10 h 20 v 10 h 10 v 10 h 10 v -20 -20 -20 h -10 v 10 h -10 v 10 h -20 v -10 h -10 v -10 z"
     transform="scale(0.26458333)" />
</svg>
