<?xml version="1.0" encoding="UTF-8" standalone="no"?>
<!-- Created with Inkscape (http://www.inkscape.org/) -->

<svg
   width="320"
   height="320"
   viewBox="0 0 84.666665 84.666669"
   version="1.1"
   id="svg5"
   shape-rendering="crispEdges"
   xmlns="http://www.w3.org/2000/svg"
   xmlns:svg="http://www.w3.org/2000/svg">
  <defs
     id="defs2" />
  <path
     id="rect932"
     style="fill:#5227a7;fill-opacity:1;fill-rule:evenodd;stroke-width:1.00157"
     d="M 20 180 L 20 200 L 30 200 L 30 240 L 40 240 L 40 260 L 50 260 L 50 240 L 60 240 L 60 290 L 90 290 L 90 320 L 230 320 L 230 290 L 260 290 L 260 200 L 230 200 L 230 210 L 90 210 L 90 200 L 60 200 L 60 190 L 30 190 L 30 180 L 20 180 z "
     transform="scale(0.26458333)" />
  <path
     id="rect10149"
     style="fill:#341762;fill-opacity:1;fill-rule:evenodd;stroke-width:1.00157"
     d="m 10,180 v 10 h 10 v -10 z m 10,20 v 10 h 10 v -10 z m 10,20 v 20 h 10 v -20 z m 20,20 v 30 h 10 v -30 z m 20,10 v 50 h 10 v -50 z m 170,0 v 50 h 10 v -50 z"
     transform="scale(0.26458333)" />
  <path
     id="rect10215"
     style="fill:#b3b3b3;fill-opacity:1;fill-rule:evenodd;stroke-width:1.00157"
     d="m 260,150 v 10 h -10 v 10 h -20 v 50 h 10 v 30 h 10 v 20 h 10 v 20 h 10 v 10 h 10 v -10 h 10 v -20 h 10 v -20 h 10 v -30 h 10 v -50 h -20 v -10 h -10 v -10 z"
     transform="scale(0.26458333)" />
  <path
     id="rect10251"
     style="fill:#404040;fill-opacity:1;fill-rule:evenodd;stroke-width:1.00157"
     d="m 250,180 v 60 h 20 20 v -10 h -20 v -40 h 20 v -10 h -20 z m 40,10 v 40 h 10 v -40 z"
     transform="scale(0.26458333)" />
</svg>
