<?xml version="1.0" encoding="UTF-8" standalone="no"?>
<!-- Created with Inkscape (http://www.inkscape.org/) -->

<svg
   width="320"
   height="320"
   viewBox="0 0 84.666665 84.666669"
   version="1.1"
   id="svg5"
   shape-rendering="crispEdges"
   xmlns="http://www.w3.org/2000/svg"
   xmlns:svg="http://www.w3.org/2000/svg">
  <defs
     id="defs2" />
  <path
     id="rect932-4-8"
     style="fill:#000080;fill-rule:evenodd;stroke-width:1.00157;fill-opacity:1"
     d="M 90,210 V 320 H 230 V 210 Z"
     transform="scale(0.26458333)" />
  <path
     id="rect15122-7"
     style="fill:#b3b3b3;fill-opacity:1;fill-rule:evenodd;stroke-width:0.867386"
     d="m 125,220 v 5 h -10 v 5 h -10 v 10 h -5 v 25 h 10 v 5 h 5 v 10 h 10 v 5 h 5 v 5 h 5 v 5 h 5 v 5 h 10 v 5 h 5 v 5 h 10 v -5 h 5 v -5 h 10 v -5 h 5 v -5 h 5 v -5 h 5 v -5 h 10 v -10 h 5 v -5 h 10 v -25 h -5 v -10 h -10 v -5 h -10 v -5 z"
     transform="scale(0.26458333)" />
  <path
     id="rect15382"
     style="fill:#6934da;fill-opacity:1;fill-rule:evenodd;stroke-width:1.00157"
     d="m 120,230 v 45 h 5 v -25 h 15 v -5 h -15 v -10 h 20 v -5 h -20 z m 60,0 v 5 40 h 5 v -25 h 15 v -5 h -15 v -10 h 15 v -5 z m 20,5 v 10 h 5 v -10 z m -50,10 v 5 h 20 v -5 z m 20,5 v 20 h 5 v -20 z m 0,20 h -20 v 5 h 20 z m -20,0 v -20 h -5 v 20 z"
     transform="scale(0.26458333)" />
</svg>
