<svg width="64" height="64" viewBox="0 0 64 64" fill="none" xmlns="http://www.w3.org/2000/svg">
<path d="M44.5006 29.9995C44.5006 31.3802 43.3813 32.4995 42.0006 32.4995C40.6199 32.4995 41.5001 31.3802 41.5001 29.9995C41.5001 28.6188 40.6199 27.4995 42.0006 27.4995C43.3813 27.4995 44.5006 28.6188 44.5006 29.9995Z" fill="#EBA038"/>
<path fill-rule="evenodd" clip-rule="evenodd" d="M12.5 26.9995C13.3284 26.9995 14 27.6711 14 28.4995C14 28.6022 14.1046 28.9576 14.7261 29.3832C15.3114 29.7839 16.0211 29.9995 16.5 29.9995C17.1697 29.9995 17.7583 30.4435 17.9423 31.0874L18.1181 31.7029C18.422 32.7663 19.394 33.4995 20.5 33.4995H23.2639C24.0662 33.4995 24.7996 33.0462 25.1584 32.3287C25.3269 31.9915 25.6054 31.7456 25.9286 31.6126C26.0161 31.5765 26.1073 31.5486 26.201 31.5295C26.3362 31.502 26.4756 31.4928 26.6152 31.5035C28.3457 31.5989 31.0802 32.0542 33.8683 33.1091C34.9807 33.5299 36.1247 34.055 37.2272 34.7054C37.4923 34.2815 37.9632 33.9995 38.5 33.9995H40.5C41.3284 33.9995 42 34.6711 42 35.4995V39.4995C42 40.1452 41.5869 40.7184 40.9743 40.9225C40.3618 41.1267 39.6874 40.916 39.3 40.3995C37.7352 38.3131 35.3169 36.8646 32.8067 35.915C30.7461 35.1354 28.7221 34.7295 27.2689 34.5684C26.5602 35.459 25.5737 36.0879 24.4702 36.3555C24.7316 36.5769 24.9189 36.8886 24.9796 37.2529L26.4796 46.2529C26.6158 47.0701 26.0638 47.8429 25.2466 47.9791C22.7691 48.392 20.4459 46.66 20.1343 44.1677L19.1549 36.3323C17.4076 35.8898 15.9622 34.6026 15.3422 32.8656C14.5222 32.6826 13.7101 32.3233 13.0312 31.8585C12.067 31.1983 11 30.0537 11 28.4995C11 27.6711 11.6716 26.9995 12.5 26.9995ZM22.1992 36.4995L22.2253 36.7088C22.2713 36.6347 22.3237 36.5646 22.3819 36.4995H22.1992Z" fill="#895DEA"/>
<path fill-rule="evenodd" clip-rule="evenodd" d="M40.606 16.555C40.6316 16.5249 40.6508 16.5118 40.6601 16.5065C40.6691 16.5014 40.6742 16.5003 40.6769 16.4999C40.6805 16.4994 40.7059 16.4966 40.7519 16.523C40.8447 16.5764 41 16.7486 41 17.085V33.8318H37.75C37.3358 33.8318 37 34.1676 37 34.5818C37 34.996 37.3358 35.3318 37.75 35.3318H47.75C48.1642 35.3318 48.5 34.996 48.5 34.5818C48.5 34.1676 48.1642 33.8318 47.75 33.8318H42.5V33.4168C44.0489 33.068 45.1758 31.6583 45.4405 29.9995H56.75C57.1642 29.9995 57.5 29.6637 57.5 29.2495C57.5 28.8353 57.1642 28.4995 56.75 28.4995H45.4405C45.1758 26.8407 44.0489 25.4311 42.5 25.0822V23.6673H51.75C52.1642 23.6673 52.5 23.3315 52.5 22.9173C52.5 22.503 52.1642 22.1673 51.75 22.1673H42.5V17.085C42.5 16.273 42.1085 15.5725 41.4992 15.2224C40.8605 14.8554 40.0279 14.9208 39.4644 15.582C35.8797 19.7877 30.341 21.6473 27.6683 22.0636C26.8121 20.8171 25.3765 19.9995 23.75 19.9995H19.75C17.3641 19.9995 15.3891 21.7586 15.0511 24.0506C12.7591 24.3886 11 26.3636 11 28.7495C11 31.1354 12.7591 33.1105 15.0511 33.4485C15.3576 35.5271 17.0107 37.1675 19.0955 37.4548L20.4978 47.0038C20.624 47.8629 21.361 48.4995 22.2293 48.4995H25.5924C26.6601 48.4995 27.479 47.5517 27.3239 46.4953L25.9255 36.9732C26.6259 36.6117 27.2248 36.0811 27.6683 35.4354C30.341 35.8517 35.8798 37.7113 39.4644 41.9171C40.0279 42.5782 40.8605 42.6437 41.4992 42.2766C42.1085 41.9265 42.5 41.2261 42.5 40.4141V36.7495C42.5 36.3353 42.1642 35.9995 41.75 35.9995C41.3358 35.9995 41 36.3353 41 36.7495V40.4141C41 40.7504 40.8447 40.9227 40.7519 40.976C40.7059 41.0025 40.6805 40.9997 40.6769 40.9991C40.6742 40.9987 40.6691 40.9977 40.6601 40.9925C40.6508 40.9872 40.6316 40.9741 40.606 40.9441C36.965 36.6723 31.5513 34.6711 28.5 34.0607V23.4383C31.5513 22.828 36.965 20.8268 40.606 16.555ZM27 32.7495V24.7495C27 22.9546 25.5449 21.4995 23.75 21.4995H19.75C17.9551 21.4995 16.5 22.9546 16.5 24.7495V32.7495C16.5 34.5445 17.9551 35.9995 19.75 35.9995H23.75C25.5449 35.9995 27 34.5445 27 32.7495ZM42.5 26.6616V31.8374C43.3313 31.4717 44 30.5149 44 29.2495C44 27.9842 43.3313 27.0273 42.5 26.6616ZM15 25.5865C13.5666 25.9251 12.5 27.2127 12.5 28.7495C12.5 30.2863 13.5666 31.574 15 31.9126V25.5865ZM21.9819 46.7859L20.6182 37.4995H24.4867L25.8398 46.7132C25.8619 46.8641 25.745 46.9995 25.5924 46.9995H22.2293C22.1052 46.9995 21.9999 46.9086 21.9819 46.7859Z" fill="#170038"/>
<path d="M49 26.7495C49 26.3353 49.3358 25.9995 49.75 25.9995H51.75C52.1642 25.9995 52.5 26.3353 52.5 26.7495C52.5 27.1637 52.1642 27.4995 51.75 27.4995H49.75C49.3358 27.4995 49 27.1637 49 26.7495Z" fill="#170038"/>
<path d="M48.75 30.9995C48.3358 30.9995 48 31.3353 48 31.7495C48 32.1637 48.3358 32.4995 48.75 32.4995H50.75C51.1642 32.4995 51.5 32.1637 51.5 31.7495C51.5 31.3353 51.1642 30.9995 50.75 30.9995H48.75Z" fill="#170038"/>
</svg>
