<svg width="64" height="64" viewBox="0 0 64 64" fill="none" xmlns="http://www.w3.org/2000/svg">
<path fill-rule="evenodd" clip-rule="evenodd" d="M40.856 16.8055C40.8816 16.7754 40.9008 16.7623 40.9101 16.757C40.9191 16.7519 40.9242 16.7508 40.9269 16.7504C40.9305 16.7499 40.9559 16.747 41.0019 16.7735C41.0947 16.8268 41.25 16.9991 41.25 17.3355V34.0823H38C37.5858 34.0823 37.25 34.4181 37.25 34.8323C37.25 35.2465 37.5858 35.5823 38 35.5823H48C48.4142 35.5823 48.75 35.2465 48.75 34.8323C48.75 34.4181 48.4142 34.0823 48 34.0823H42.75V33.6673C44.2989 33.3185 45.4258 31.9088 45.6905 30.25H57C57.4142 30.25 57.75 29.9142 57.75 29.5C57.75 29.0858 57.4142 28.75 57 28.75H45.6905C45.4258 27.0912 44.2989 25.6816 42.75 25.3327V23.9177H52C52.4142 23.9177 52.75 23.582 52.75 23.1677C52.75 22.7535 52.4142 22.4177 52 22.4177H42.75V17.3355C42.75 16.5235 42.3585 15.823 41.7492 15.4729C41.1105 15.1059 40.2779 15.1713 39.7144 15.8325C36.1297 20.0382 30.591 21.8978 27.9183 22.3141C27.0621 21.0676 25.6265 20.25 24 20.25H20C17.6141 20.25 15.6391 22.0091 15.3011 24.3011C13.0091 24.6391 11.25 26.6141 11.25 29C11.25 31.3859 13.0091 33.361 15.3011 33.699C15.6076 35.7776 17.2607 37.418 19.3455 37.7053L20.7478 47.2543C20.874 48.1134 21.611 48.75 22.4793 48.75H25.8424C26.9101 48.75 27.729 47.8021 27.5739 46.7458L26.1755 37.2237C26.8759 36.8622 27.4748 36.3316 27.9183 35.6859C30.591 36.1022 36.1298 37.9618 39.7144 42.1676C40.2779 42.8287 41.1105 42.8941 41.7492 42.5271C42.3585 42.177 42.75 41.4766 42.75 40.6646V37C42.75 36.5858 42.4142 36.25 42 36.25C41.5858 36.25 41.25 36.5858 41.25 37V40.6646C41.25 41.0009 41.0947 41.1732 41.0019 41.2265C40.9559 41.253 40.9305 41.2502 40.9269 41.2496C40.9242 41.2492 40.9191 41.2482 40.9101 41.243C40.9008 41.2377 40.8816 41.2246 40.856 41.1945C37.215 36.9228 31.8013 34.9216 28.75 34.3112V23.6888C31.8013 23.0785 37.215 21.0773 40.856 16.8055ZM27.25 33V25C27.25 23.2051 25.7949 21.75 24 21.75H20C18.2051 21.75 16.75 23.2051 16.75 25V33C16.75 34.7949 18.2051 36.25 20 36.25H24C25.7949 36.25 27.25 34.7949 27.25 33ZM42.75 26.9121V32.0879C43.5813 31.7222 44.25 30.7654 44.25 29.5C44.25 28.2347 43.5813 27.2778 42.75 26.9121ZM15.25 25.837C13.8166 26.1756 12.75 27.4632 12.75 29C12.75 30.5368 13.8166 31.8245 15.25 32.1631V25.837ZM22.2319 47.0363L20.8682 37.75H24.7367L26.0898 46.9637C26.1119 47.1146 25.995 47.25 25.8424 47.25H22.4793C22.3552 47.25 22.2499 47.1591 22.2319 47.0363Z" fill="white"/>
<path d="M49.25 27C49.25 26.5858 49.5858 26.25 50 26.25H52C52.4142 26.25 52.75 26.5858 52.75 27C52.75 27.4142 52.4142 27.75 52 27.75H50C49.5858 27.75 49.25 27.4142 49.25 27Z" fill="white"/>
<path d="M49 31.25C48.5858 31.25 48.25 31.5858 48.25 32C48.25 32.4142 48.5858 32.75 49 32.75H51C51.4142 32.75 51.75 32.4142 51.75 32C51.75 31.5858 51.4142 31.25 51 31.25H49Z" fill="white"/>
</svg>
