<svg width="64" height="64" viewBox="0 0 64 64" fill="none" xmlns="http://www.w3.org/2000/svg">
<path fill-rule="evenodd" clip-rule="evenodd" d="M30.9614 15.25C25.0385 15.25 19.8956 19.3287 18.5465 25.0959L17.9929 27.4626C17.0023 31.6974 20.2164 35.75 24.5655 35.75H29.882C30.0678 35.75 30.1887 35.9456 30.1056 36.1118L28.0528 40.2174C27.471 41.381 28.3171 42.75 29.618 42.75H33C33.4142 42.75 33.75 42.4142 33.75 42C33.75 41.5858 33.4142 41.25 33 41.25H29.618C29.4322 41.25 29.3113 41.0544 29.3944 40.8882L31.4472 36.7826C32.029 35.619 31.1829 34.25 29.882 34.25H29.853C29.866 32.5831 28.7579 31.0528 27.0728 30.6013C26.9479 30.5678 26.8227 30.5411 26.6977 30.5208C27.0178 28.6349 25.8549 26.7805 23.9702 26.2755C23.5701 26.1683 23.1588 26.4057 23.0516 26.8058C22.9444 27.2059 23.1818 27.6171 23.5819 27.7244C24.7822 28.046 25.4946 29.2797 25.1729 30.48C25.1626 30.5185 25.1555 30.557 25.1514 30.5954C23.8922 30.9267 22.8411 31.9053 22.48 33.253C22.4218 33.4702 22.4652 33.6907 22.581 33.864C20.2803 32.9255 18.8441 30.4092 19.4535 27.8042L20.0071 25.4376C20.5466 23.1312 21.7737 21.1309 23.4409 19.633C23.6363 20.1718 23.9743 20.6217 24.4212 20.9656C25.1294 21.5107 26.0551 21.75 27 21.75C27.4142 21.75 27.75 21.4142 27.75 21C27.75 20.5858 27.4142 20.25 27 20.25C26.2881 20.25 25.7138 20.0677 25.3362 19.777C25.0055 19.5225 24.7816 19.1542 24.7531 18.618C26.5466 17.4305 28.6889 16.75 30.9614 16.75H35.0386C36.9036 16.75 38.681 17.2083 40.2498 18.0291C40.2342 19.2583 39.2329 20.25 38 20.25C36.7574 20.25 35.75 19.2426 35.75 18C35.75 17.5858 35.4142 17.25 35 17.25C34.5858 17.25 34.25 17.5858 34.25 18C34.25 20.0711 35.9289 21.75 38 21.75C39.7635 21.75 41.2426 20.5327 41.6431 18.8926C43.7749 20.439 45.3589 22.727 45.9929 25.4376L46.5465 27.8042C46.9042 29.3334 46.557 30.832 45.7439 31.9989C45.4443 30.6874 44.447 29.5812 43.0572 29.2087C42.6571 29.1015 42.2458 29.339 42.1386 29.7391C42.0314 30.1392 42.2688 30.5504 42.6689 30.6576C43.8692 30.9793 44.5816 32.213 44.2599 33.4133C44.2584 33.419 44.257 33.4247 44.2556 33.4304C43.4476 33.9469 42.4835 34.25 41.4345 34.25H38C35.6528 34.25 33.75 32.3472 33.75 30V25.878C34.6239 26.1869 35.25 27.0203 35.25 28C35.25 28.4142 35.5858 28.75 36 28.75C36.4142 28.75 36.75 28.4142 36.75 28C36.75 26.1858 35.4617 24.6725 33.75 24.325V21C33.75 20.5858 33.4142 20.25 33 20.25C32.5858 20.25 32.25 20.5858 32.25 21V30C32.25 33.1756 34.8244 35.75 38 35.75H41.4345C45.7836 35.75 48.9977 31.6974 48.0071 27.4626L47.4535 25.0959C46.1045 19.3287 40.9615 15.25 35.0386 15.25H30.9614ZM28.3526 34.25C28.3651 33.2457 27.6992 32.3221 26.6846 32.0502C25.4843 31.7286 24.2505 32.4409 23.9289 33.6412C23.866 33.876 23.6984 34.0547 23.4898 34.1407C23.8357 34.2123 24.1953 34.25 24.5655 34.25H28.3526Z" fill="white"/>
<path d="M33.5234 46.6409C33.3251 47.0045 33.4591 47.4601 33.8227 47.6584C34.1863 47.8568 34.6419 47.7228 34.8402 47.3591L37.8518 41.838C38.4879 40.6718 37.6438 39.25 36.3155 39.25H32C31.5858 39.25 31.25 39.5858 31.25 40C31.25 40.4142 31.5858 40.75 32 40.75H36.3155C36.5052 40.75 36.6258 40.9531 36.5349 41.1197L33.5234 46.6409Z" fill="white"/>
<path d="M32.6646 38.6708C32.2941 38.4856 32.1439 38.0351 32.3292 37.6646L32.8292 36.6646C33.0144 36.2941 33.4649 36.1439 33.8354 36.3292C34.2059 36.5144 34.3561 36.9649 34.1708 37.3354L33.6708 38.3354C33.4856 38.7059 33.0351 38.8561 32.6646 38.6708Z" fill="white"/>
</svg>
