<svg width="64" height="64" viewBox="0 0 64 64" fill="none" xmlns="http://www.w3.org/2000/svg">
<path fill-rule="evenodd" clip-rule="evenodd" d="M21.0789 21.5001C19.5 21.5001 19.0789 22.1717 19.0789 23.0001L19 42.5001C19 43.3285 20.1716 44.0001 21 44.0001H40.5V44.0001C41.4858 44.0001 42.876 45.7489 42.0684 46.3141C41.8991 46.4326 41.4505 46.5001 40.5 46.5001H21.5C17 47 17 44.4854 17 42.0001V24.0001C17 21.5148 17.5 19 21.5 19.5001H22.9211C23.7495 19.5001 24.7474 20.2387 24.4211 21.0001C22.9211 24.5001 22.8284 21.5001 22 21.5001H21.0789Z" fill="#895DEA"/>
<path d="M28.089 14.7325C28.125 12.6464 27.2445 12.4801 26.6661 14.0399L24.1748 20.9907C23.86 21.9168 23.499 23 24.1748 23L28.125 23C28.125 23 28.0531 16.8186 28.089 14.7325Z" fill="#EBA038"/>
<path d="M30.0479 26.9408C30.0009 28.783 31.1304 28.9617 31.9014 27.6415C31.931 27.5909 31.9547 27.5362 31.9735 27.4807L34 21.5C34.4197 20.6665 34.4011 19.5 33.5 19.5L30 19.5C30 19.5 30.0959 25.0633 30.0479 26.9408Z" fill="#EBA038"/>
<path d="M28.5851 13.3054C28.7536 12.927 28.5836 12.4836 28.2052 12.3151C27.8268 12.1465 27.3834 12.3166 27.2149 12.695L24.2949 19.2502H20C17.9289 19.2502 16.25 20.9291 16.25 23.0002V44.0002C16.25 46.0713 17.9289 47.7502 20 47.7502H44C44.0104 47.7502 44.0208 47.75 44.0312 47.7495C44.0541 47.75 44.077 47.7502 44.1 47.7502C46.1158 47.7502 47.75 46.116 47.75 44.1002V25.4002C47.75 24.986 47.4142 24.6502 47 24.6502C46.5858 24.6502 46.25 24.986 46.25 25.4002V44.1002C46.25 45.2876 45.2874 46.2502 44.1 46.2502C42.9126 46.2502 41.95 45.2876 41.95 44.1002V23.0002C41.95 20.9291 40.2711 19.2502 38.2 19.2502H37.44C37.0258 19.2502 36.69 19.586 36.69 20.0002C36.69 20.4144 37.0258 20.7502 37.44 20.7502H38.2C39.4426 20.7502 40.45 21.7575 40.45 23.0002V44.1002C40.45 44.904 40.7098 45.6471 41.1501 46.2502H20C18.7574 46.2502 17.75 45.2428 17.75 44.0002V23.0002C17.75 21.7575 18.7574 20.7502 20 20.7502H23.6267L22.9416 22.2881C22.426 23.4455 23.2731 24.7502 24.5402 24.7502H30C30.4142 24.7502 30.75 24.4144 30.75 24.0002C30.75 23.586 30.4142 23.2502 30 23.2502H24.5402C24.3592 23.2502 24.2382 23.0638 24.3118 22.8985L28.5851 13.3054Z" fill="#170038"/>
<path d="M30.6483 30.2502H22C21.5858 30.2502 21.25 30.586 21.25 31.0002C21.25 31.4144 21.5858 31.7502 22 31.7502H31.1644C31.1761 31.7505 31.1877 31.7505 31.1993 31.7502H36C36.4142 31.7502 36.75 31.4144 36.75 31.0002C36.75 30.586 36.4142 30.2502 36 30.2502H32.236L35.2476 21.574C35.6423 20.437 34.7979 19.2502 33.5944 19.2502H29C28.5858 19.2502 28.25 19.586 28.25 20.0002C28.25 20.4144 28.5858 20.7502 29 20.7502H33.5944C33.7663 20.7502 33.8869 20.9197 33.8305 21.0822L30.6483 30.2502Z" fill="#170038"/>
<path d="M44 25.2502C44.4142 25.2502 44.75 25.586 44.75 26.0002V27.3848C44.75 27.799 44.4142 28.1348 44 28.1348C43.5858 28.1348 43.25 27.799 43.25 27.3848V26.0002C43.25 25.586 43.5858 25.2502 44 25.2502Z" fill="#170038"/>
<path d="M44 29.404C44.4142 29.404 44.75 29.7398 44.75 30.154V44.0002C44.75 44.4144 44.4142 44.7502 44 44.7502C43.5858 44.7502 43.25 44.4144 43.25 44.0002V30.154C43.25 29.7398 43.5858 29.404 44 29.404Z" fill="#170038"/>
<path d="M23 38.2502C22.5858 38.2502 22.25 38.586 22.25 39.0002C22.25 39.4144 22.5858 39.7502 23 39.7502H36C36.4142 39.7502 36.75 39.4144 36.75 39.0002C36.75 38.586 36.4142 38.2502 36 38.2502H23Z" fill="#170038"/>
<path d="M33 34.2502H24C23.5858 34.2502 23.25 34.586 23.25 35.0002C23.25 35.4144 23.5858 35.7502 24 35.7502H33C33.4142 35.7502 33.75 35.4144 33.75 35.0002C33.75 34.586 33.4142 34.2502 33 34.2502Z" fill="#170038"/>
</svg>
