<svg width="64" height="64" viewBox="0 0 64 64" fill="none" xmlns="http://www.w3.org/2000/svg">
<path d="M30.5192 26C31.6509 26 32.2167 26.8421 32.4996 27.1579C32.7825 26.8421 33.3484 26 34.48 26C35.8946 26 36.5728 27.1579 35.9127 28C35.3846 28.6737 33.7437 28.4649 32.4996 30.5C31.669 28.4649 30.0281 28.6737 29.5 28C28.8399 27.1579 29.1047 26 30.5192 26Z" fill="#EBA038"/>
<path d="M27.8398 17.6588C27.0222 17.8746 26.7203 17.9542 26.3914 17.2964C25.9115 16.8165 25.9528 16.9925 26.098 16.8951C26.1892 16.8339 26.3214 16.7452 26.3914 16.5C32.3914 14.7042 36.8284 15.0557 41.2305 19.4578C45.0485 23.2757 46.5456 28.67 44.3914 33.2964C44.2005 33.7065 44.3513 34.5934 44 35.0002C43.1823 35.9471 41.7812 36.5081 42.3227 38.2636C42.809 38.9244 43.1714 39.6556 43.2601 40.238L43.8914 41.5005C44.4726 42.9535 45.0968 43.6446 45 43.7964C44.9303 43.9058 44.2988 43.5773 43.8914 43.7964C43.2729 43.5903 42.9134 43.5842 42.6677 43.58C42.3177 43.5741 42.1989 43.5721 41.8914 43.0005L40.8916 43.0002C39.3916 43.5002 39.3916 42.5002 38.2811 40.498C36.8955 38.2223 39.0527 37.0002 39.5173 36.5356C39.9819 36.071 40.4093 35.4696 40.7384 34.935C44.3914 29.0005 42.9996 22.7037 39.5 20C36.8123 17.362 32.0293 16.9826 29.6101 17.2964C28.8296 17.3976 28.265 17.5466 27.8398 17.6588Z" fill="#895DEA"/>
<path d="M32.7501 16.5C25.9905 16.5 20.5001 22.0273 20.5001 28.8587C20.5001 29.7608 20.5958 30.6397 20.7773 31.4858L25.3351 30.7473C25.9319 30.5731 26.5629 30.55 27.1713 30.6804L33.1686 31.9655L36.869 30.3209C37.3955 30.0869 37.9851 30.0357 38.5441 30.1754L39.0549 30.3031C39.9043 30.5155 40.5001 31.2786 40.5001 32.1541C40.5001 32.7703 40.2025 33.3485 39.7011 33.7067L36.8776 35.7235C36.7182 35.8373 36.5502 35.9385 36.375 36.0261L31.9272 38.25C30.8714 38.7779 29.6288 38.7779 28.5731 38.25L27.9789 37.9529C27.4662 37.6966 26.8751 37.6456 26.3261 37.8103C26.2897 37.8212 26.2526 37.8293 26.215 37.8346L23.4629 38.2218L19.3965 45.1304C19.1864 45.4874 18.7266 45.6065 18.3697 45.3963C18.0127 45.1862 17.8937 44.7265 18.1038 44.3696L22.3538 37.149C22.4697 36.952 22.6692 36.8187 22.8956 36.7868L25.9527 36.3567C26.8513 36.1028 27.8132 36.193 28.6497 36.6113L29.2439 36.9084C29.8773 37.2251 30.6229 37.2251 31.2563 36.9084L35.7042 34.6844C35.8093 34.6319 35.9101 34.5712 36.0057 34.5029L38.8293 32.4861C38.9365 32.4095 39.0001 32.2858 39.0001 32.1541C39.0001 31.9669 38.8727 31.8037 38.6911 31.7583L38.1803 31.6306C37.946 31.5721 37.6989 31.5935 37.4782 31.6916L33.8641 33.2979C33.374 34.6096 32.1152 35.5 30.6886 35.5H29.737C29.3339 35.5 28.9335 35.435 28.5511 35.3076L26.0129 34.4615C25.62 34.3305 25.4076 33.9058 25.5386 33.5128C25.6696 33.1199 26.0943 32.9075 26.4873 33.0385L29.0254 33.8845C29.2549 33.961 29.4951 34 29.737 34H30.6886C31.2795 34 31.8187 33.726 32.169 33.2854L26.857 32.1471C26.4813 32.0666 26.0911 32.0836 25.7239 32.1966C25.6909 32.2068 25.6573 32.2146 25.6233 32.2201L20.9655 32.9749L20.5539 33.1572C20.3553 33.2452 20.1283 33.2428 19.9316 33.1505C19.7349 33.0583 19.5879 32.8852 19.5286 32.6762C19.1843 31.4626 19.0001 30.1817 19.0001 28.8587C19.0001 21.2106 25.1503 15 32.7501 15C40.3499 15 46.5001 21.2106 46.5001 28.8587C46.5001 32.1959 45.3288 35.2598 43.3779 37.6525L46.434 44.4422C46.5578 44.7171 46.5049 45.0394 46.2997 45.2603C46.0946 45.4812 45.7771 45.5579 45.4938 45.4548L40.6987 43.7112L38.955 48.5063C38.8513 48.7914 38.5861 48.986 38.2831 48.9993C37.98 49.0126 37.6988 48.8421 37.5705 48.5672L34.3262 41.6151C33.601 41.7335 32.5059 41.7872 31.1867 41.5879L27.9298 48.5672C27.7546 48.9425 27.3083 49.1048 26.933 48.9296C26.5576 48.7545 26.3953 48.3082 26.5705 47.9328L30.0639 40.4469C30.089 40.39 30.1207 40.3373 30.158 40.2895C30.297 40.1104 30.5088 40.0063 30.7299 40.0001C30.7903 39.9984 30.8514 40.0041 30.912 40.0175C32.7971 40.3919 34.1564 40.1573 34.5129 40.0385C34.8744 39.918 35.2687 40.0876 35.4298 40.4328L38.1641 46.292L39.5453 42.4937C39.6868 42.1044 40.1171 41.9036 40.5064 42.0452L44.3372 43.4382L41.8162 37.8373C41.6957 37.5697 41.7425 37.2564 41.9358 37.0355C43.8429 34.8567 45.0001 31.9953 45.0001 28.8587C45.0001 22.0273 39.5097 16.5 32.7501 16.5Z" fill="#170038"/>
<path d="M25.2198 22.3516C24.9269 22.0587 24.9269 21.5839 25.2198 21.291C29.4179 17.0928 36.2244 17.0928 40.4226 21.291C40.7155 21.5839 40.7155 22.0587 40.4226 22.3516C40.1297 22.6445 39.6548 22.6445 39.3619 22.3516C35.7496 18.7393 29.8928 18.7393 26.2804 22.3516C25.9876 22.6445 25.5127 22.6445 25.2198 22.3516Z" fill="#170038"/>
<path d="M26.9239 39.096C26.5627 38.8932 26.1055 39.0217 25.9028 39.3829L23.0961 44.3829C22.8934 44.7441 23.0218 45.2013 23.383 45.404C23.7442 45.6068 24.2014 45.4783 24.4041 45.1171L27.2108 40.1171C27.4135 39.7559 27.2851 39.2987 26.9239 39.096Z" fill="#170038"/>
<path fill-rule="evenodd" clip-rule="evenodd" d="M30.4868 24C29.2904 24 28.5201 24.7975 28.197 25.6391C27.8924 26.4324 27.8995 27.4973 28.5271 28.1978C28.8841 28.5963 29.5704 29.136 30.2369 29.6586L30.3517 29.7486C31.0184 30.2712 31.7075 30.8113 32.2431 31.3026C32.5299 31.5658 32.9703 31.5658 33.2572 31.3026C33.7927 30.8113 34.4818 30.2712 35.1485 29.7486L35.2633 29.6586C35.9299 29.136 36.6162 28.5963 36.9731 28.1978C37.6007 27.4973 37.6079 26.4324 37.3033 25.6391C36.9802 24.7975 36.2098 24 35.0134 24C33.9523 24 33.2122 24.4595 32.7501 24.8557C32.288 24.4595 31.548 24 30.4868 24ZM29.6443 27.1969C29.5175 27.0553 29.4169 26.6466 29.5973 26.1767C29.7592 25.7551 30.0666 25.5 30.4868 25.5C31.3013 25.5 31.7239 25.9326 32.0802 26.2973C32.1298 26.3481 32.1781 26.3976 32.2261 26.4444C32.5175 26.729 32.9828 26.729 33.2742 26.4444C33.3221 26.3976 33.3705 26.3481 33.4201 26.2973C33.7764 25.9326 34.1989 25.5 35.0134 25.5C35.4337 25.5 35.7411 25.7551 35.9029 26.1767C36.0833 26.6466 35.9827 27.0553 35.8559 27.1969C35.6093 27.4722 35.0562 27.9149 34.3378 28.4782L34.2084 28.5797C33.735 28.9506 33.2193 29.3547 32.7501 29.752C32.281 29.3547 31.7652 28.9506 31.2919 28.5797L31.1625 28.4782C30.4441 27.9149 29.8909 27.4722 29.6443 27.1969Z" fill="#170038"/>
</svg>
