<svg width="64" height="64" viewBox="0 0 64 64" fill="none" xmlns="http://www.w3.org/2000/svg">
<path fill-rule="evenodd" clip-rule="evenodd" d="M29.5 28C29.5 26.6193 30.6193 25.5 32 25.5H37C37.8284 25.5 37 26.1716 37 27C36.5 28 36.8284 28.5 36 28.5H33.309C32.8132 28.5 32.3599 28.7801 32.1382 29.2236V29.2236C32.0473 29.4054 32.004 29.6061 31.9906 29.8089C31.9454 30.4891 31.7226 31 31 31C30.1716 31 29.5 29.8284 29.5 29V28Z" fill="#EBA038"/>
<path d="M27.8408 17.8622C27.0232 18.078 26.7213 18.1576 26.3923 17.4997C25.9125 17.0199 25.9537 16.9922 26.099 16.8948C26.1902 16.8336 26.3223 16.745 26.3923 16.4997C32.3923 14.704 36.8294 15.2591 41.2315 19.6612C45.0494 23.4791 46.5465 28.8734 44.3924 33.4998C44.2015 33.9099 43.8685 34.2954 43.5172 34.7023C42.6995 35.6492 41.7822 36.7114 42.3237 38.467C42.8099 39.1278 43.1724 39.859 43.2611 40.4414L43.8923 41.7038C44.4736 43.1569 44.7078 43.5197 44.611 43.6715C44.5413 43.7808 44.2998 43.7807 43.8924 43.9998C43.2739 43.7936 42.9143 43.7875 42.6687 43.7834C42.3186 43.7775 42.1999 43.7755 41.8923 43.2038L40.8926 43.2036C39.3926 43.7036 39.3926 42.7036 38.2821 40.7014C36.8965 38.4257 39.0537 37.2036 39.5183 36.739C39.9829 36.2744 40.4103 35.673 40.7394 35.1384C44.3923 29.2038 42.3923 23.2038 38.8928 20.5002C36.2051 17.8622 32.0303 17.1859 29.6111 17.4997C28.8306 17.601 28.266 17.75 27.8408 17.8622Z" fill="#895DEA"/>
<path fill-rule="evenodd" clip-rule="evenodd" d="M19.5 28.8587C19.5 22.0273 24.9904 16.5 31.75 16.5C38.5096 16.5 44 22.0273 44 28.8587C44 31.9953 42.8428 34.8567 40.9357 37.0355C40.7424 37.2564 40.6956 37.5697 40.8161 37.8373L43.3035 43.3636L40.1181 42.0895L40.0471 42.037C38.833 38.5105 35.3343 36 31.2504 36C30.9979 36 30.7476 36.0096 30.5 36.0284V32H37.75C38.0321 32 38.2903 31.8417 38.4184 31.5903C38.5464 31.339 38.5225 31.037 38.3566 30.8089L36.6774 28.5L38.3566 26.1911C38.5225 25.963 38.5464 25.661 38.4184 25.4097C38.2903 25.1583 38.0321 25 37.75 25H30.75C29.7835 25 29 25.7835 29 26.75V36.2609C27.2758 36.6686 25.7401 37.5345 24.5492 38.718C24.2554 39.01 24.2539 39.4849 24.5459 39.7787C24.8378 40.0725 25.3127 40.074 25.6065 39.782C27.0161 38.3812 29.0189 37.5 31.2504 37.5C34.8024 37.5 37.7619 39.7282 38.6929 42.7209C38.7403 42.8732 38.835 43.0065 38.9634 43.1013L39.3044 43.3532C39.3559 43.3913 39.412 43.4226 39.4715 43.4464L44.4715 45.4464C44.7554 45.5599 45.0799 45.4897 45.2915 45.269C45.5031 45.0482 45.5595 44.721 45.4339 44.4422L42.3778 37.6525C44.3287 35.2598 45.5 32.1959 45.5 28.8587C45.5 21.2106 39.3498 15 31.75 15C24.1502 15 18 21.2106 18 28.8587C18 32.1959 19.1713 35.2598 21.1222 37.6525L18.0661 44.4422C17.9424 44.7171 17.9953 45.0394 18.2004 45.2603C18.4055 45.4812 18.723 45.5579 19.0063 45.4548L23.8015 43.7112L25.5452 48.5063C25.6488 48.7914 25.914 48.986 26.2171 48.9993C26.5201 49.0126 26.8014 48.8421 26.9297 48.5672L30.174 41.6151C30.8991 41.7335 31.9943 41.7872 33.3134 41.5879L36.5704 48.5672C36.7455 48.9425 37.1918 49.1048 37.5672 48.9296C37.9425 48.7545 38.1048 48.3082 37.9297 47.9328L34.4362 40.4469C34.4112 40.39 34.3794 40.3373 34.3422 40.2895C34.2726 40.1998 34.1847 40.1289 34.0866 40.0797C33.9899 40.0311 33.8822 40.003 33.7703 40.0001C33.7098 39.9984 33.6487 40.0041 33.5882 40.0175C31.703 40.3919 30.3437 40.1573 29.9872 40.0385C29.6258 39.918 29.2315 40.0876 29.0704 40.4328L26.3361 46.292L24.9549 42.4937C24.8133 42.1044 24.383 41.9036 23.9937 42.0452L20.163 43.4382L22.6839 37.8373C22.8044 37.5697 22.7577 37.2564 22.5644 37.0355C20.6572 34.8567 19.5 31.9953 19.5 28.8587ZM30.5 26.75C30.5 26.6119 30.6119 26.5 30.75 26.5H36.2772L35.1435 28.0589C34.9522 28.3219 34.9522 28.6781 35.1435 28.9411L36.2772 30.5H30.5V26.75Z" fill="#170038"/>
<path d="M32.5 18.75C32.5 18.3358 32.1642 18 31.75 18C25.813 18 21 22.8129 21 28.75C21 29.1642 21.3358 29.5 21.75 29.5C22.1642 29.5 22.5 29.1642 22.5 28.75C22.5 23.6414 26.6414 19.5 31.75 19.5C32.1642 19.5 32.5 19.1642 32.5 18.75Z" fill="#170038"/>
<path d="M37.9609 42.9146C37.7756 42.5441 37.3251 42.3939 36.9546 42.5792C36.5842 42.7644 36.434 43.2149 36.6192 43.5854L38.1192 46.5854C38.3045 46.9559 38.755 47.1061 39.1255 46.9208C39.496 46.7356 39.6461 46.2851 39.4609 45.9146L37.9609 42.9146Z" fill="#170038"/>
</svg>
