<svg width="64" height="64" viewBox="0 0 64 64" fill="none" xmlns="http://www.w3.org/2000/svg">
<path d="M19.75 29.1087C19.75 22.2773 25.2404 16.75 32 16.75C38.7596 16.75 44.25 22.2773 44.25 29.1087C44.25 32.5414 42.8637 35.6456 40.6248 37.8851L33.6947 24.6365L33.6924 24.6322C32.9134 23.1659 31.12 22.25 29.1663 22.25C27.9745 22.25 26.7665 22.6016 25.8382 23.31C24.9984 23.9508 24.3973 24.8805 24.2732 26.049C22.9891 26.8968 22.485 28.5794 23.1545 30.0159C23.3295 30.3913 23.7757 30.5538 24.1512 30.3788C24.5266 30.2038 24.6891 29.7576 24.5141 29.3822C24.1275 28.5525 24.4866 27.5665 25.3162 27.1798C25.5803 27.0567 25.7492 26.7919 25.7494 26.5005C25.7501 25.6319 26.137 24.9688 26.7482 24.5025C27.376 24.0233 28.2507 23.75 29.1663 23.75C30.7088 23.75 31.9088 24.4744 32.3667 25.3341L32.3678 25.336L42.8354 45.3476C43.0274 45.7147 43.4806 45.8566 43.8476 45.6646C44.2147 45.4726 44.3566 45.0194 44.1646 44.6524L41.3495 39.2706C44.056 36.7398 45.75 33.1226 45.75 29.1087C45.75 21.4606 39.5998 15.25 32 15.25C24.4002 15.25 18.25 21.4606 18.25 29.1087C18.25 32.4459 19.4213 35.5098 21.3722 37.9025L18.3161 44.6922C18.1924 44.9671 18.2453 45.2894 18.4504 45.5103C18.6555 45.7312 18.973 45.8079 19.2563 45.7048L24.0515 43.9612L25.7952 48.7563C25.8988 49.0414 26.164 49.236 26.4671 49.2493C26.7701 49.2626 27.0514 49.0921 27.1797 48.8172L30.3547 42.0134C31.047 42.3512 31.6777 42.63 32.3181 42.7901C33.206 43.0121 34.0825 43.0025 35.1819 42.7276C35.5838 42.6271 35.8281 42.2199 35.7276 41.8181C35.6272 41.4163 35.22 41.1719 34.8181 41.2724C33.9176 41.4975 33.294 41.4879 32.6819 41.3349C32.0284 41.1715 31.3582 40.8405 30.3354 40.3292C30.1544 40.2387 29.9444 40.2252 29.7533 40.2918C29.5621 40.3584 29.406 40.4994 29.3204 40.6828L26.5861 46.542L25.2049 42.7437C25.0633 42.3544 24.633 42.1536 24.2437 42.2952L23.7815 42.4632L25.1854 39.3046C25.3536 38.9261 25.1831 38.4829 24.8046 38.3146C24.4261 38.1464 23.9829 38.3169 23.8147 38.6954L21.8236 43.1752L20.413 43.6882L22.9339 38.0873C23.0544 37.8197 23.0077 37.5064 22.8144 37.2855C20.9072 35.1067 19.75 32.2453 19.75 29.1087Z" fill="white"/>
<path d="M39.7033 41.1491C39.5095 40.783 39.0556 40.6434 38.6896 40.8372C38.3235 41.031 38.1838 41.4848 38.3776 41.8509L42.1844 49.0415C42.3782 49.4075 42.8321 49.5472 43.1981 49.3534C43.5642 49.1596 43.7039 48.7057 43.5101 48.3396L39.7033 41.1491Z" fill="white"/>
<path d="M38.2113 43.1646C38.026 42.7941 37.5755 42.6439 37.2051 42.8292C36.8346 43.0144 36.6844 43.4649 36.8696 43.8354L38.3696 46.8354C38.5549 47.2059 39.0054 47.3561 39.3759 47.1708C39.7464 46.9856 39.8965 46.5351 39.7113 46.1646L38.2113 43.1646Z" fill="white"/>
<path d="M29.3338 28.3285C29.7046 28.5131 29.8556 28.9633 29.6711 29.3341C29.0849 30.5122 28.7497 31.8677 28.7497 33.3139C28.7497 34.5413 28.9609 35.7006 29.3451 36.74C29.4887 37.1285 29.2902 37.5599 28.9016 37.7035C28.5131 37.8471 28.0817 37.6486 27.9381 37.26C27.4903 36.0487 27.2497 34.7128 27.2497 33.3139C27.2497 32.8299 27.282 32.3538 27.3446 31.8881C26.3221 31.8902 25.357 31.2388 24.9288 30.2475C24.7646 29.8672 24.9397 29.4258 25.3199 29.2616C25.7002 29.0973 26.1416 29.2724 26.3058 29.6527C26.5763 30.2788 27.2106 30.5067 27.6785 30.3215C27.8487 29.7448 28.0669 29.191 28.3282 28.6659C28.5127 28.2951 28.9629 28.144 29.3338 28.3285Z" fill="white"/>
<path d="M31.25 19C31.25 18.5858 31.5858 18.25 32 18.25C37.9371 18.25 42.75 23.0629 42.75 29C42.75 29.4142 42.4142 29.75 42 29.75C41.5858 29.75 41.25 29.4142 41.25 29C41.25 23.8914 37.1086 19.75 32 19.75C31.5858 19.75 31.25 19.4142 31.25 19Z" fill="white"/>
<path d="M27.7762 25.7764C27.5292 25.9 27.4292 26.2004 27.5528 26.4473C27.6764 26.6942 27.9768 26.7942 28.2237 26.6706L28.671 26.4468C28.9179 26.3232 29.0179 26.0229 28.8943 25.7759C28.7707 25.529 28.4703 25.429 28.2234 25.5526L27.7762 25.7764Z" fill="white"/>
</svg>
