<svg width="64" height="64" viewBox="0 0 64 64" fill="none" xmlns="http://www.w3.org/2000/svg">
<path d="M36.3496 17.8627C37.1673 18.0784 37.4692 18.1581 37.7981 17.5002C38.2779 17.0204 38.2367 16.9927 38.0914 16.8953C38.0003 16.8341 37.8681 16.7455 37.7981 16.5002C31.7981 14.7045 27.361 15.2596 22.9589 19.6617C19.141 23.4796 17.6439 28.8739 19.798 33.5003C19.989 33.9104 20.3219 34.2959 20.6732 34.7027C21.4909 35.6497 22.4082 36.7119 21.8667 38.4674C21.3805 39.1283 21.018 39.8595 20.9293 40.4419L20.2981 41.7043C19.7169 43.1574 19.4827 43.5202 19.5794 43.672C19.6491 43.7813 19.8907 43.7811 20.298 44.0003C20.9166 43.7941 21.2761 43.788 21.5217 43.7839C21.8718 43.778 21.9906 43.7759 22.2981 43.2043L23.2979 43.2041C24.7979 43.7041 24.7979 42.7041 25.9083 40.7019C27.2939 38.4262 25.1367 37.2041 24.6721 36.7395C24.2075 36.2749 23.7801 35.6735 23.4511 35.1389C19.7981 29.2043 21.7981 23.2043 25.2977 20.5007C27.9854 17.8627 32.1601 17.1864 34.5793 17.5002C35.3598 17.6015 35.9245 17.7505 36.3496 17.8627Z" fill="#895DEA"/>
<path d="M24.0834 27.4863C24.5797 26.6267 25.5214 26.3632 26.4662 26.9086C27.4109 27.454 26.723 28.1984 26.2267 29.0581C25.7303 29.9178 25.9452 30.5453 25.0005 29.9999C24.0558 29.4545 23.5871 28.346 24.0834 27.4863Z" fill="#EBA038"/>
<path d="M19.5 28.8587C19.5 22.0273 24.9904 16.5 31.75 16.5C38.5096 16.5 44 22.0273 44 28.8587C44 32.2914 42.6137 35.3956 40.3748 37.6351L33.4447 24.3865L33.4424 24.3822C32.6634 22.9159 30.87 22 28.9163 22C27.7245 22 26.5165 22.3516 25.5882 23.06C24.7484 23.7008 24.1473 24.6305 24.0232 25.799C22.7391 26.6468 22.235 28.3294 22.9045 29.7659C23.0795 30.1413 23.5257 30.3038 23.9012 30.1288C24.2766 29.9538 24.4391 29.5076 24.2641 29.1322C23.8775 28.3025 24.2366 27.3165 25.0662 26.9298C25.3303 26.8067 25.4992 26.5419 25.4994 26.2505C25.5001 25.3819 25.887 24.7188 26.4982 24.2525C27.126 23.7733 28.0007 23.5 28.9163 23.5C30.4588 23.5 31.6588 24.2244 32.1167 25.0841L32.1178 25.086L42.5854 45.0976C42.7774 45.4647 43.2306 45.6066 43.5976 45.4146C43.9647 45.2226 44.1066 44.7694 43.9146 44.4024L41.0995 39.0206C43.806 36.4898 45.5 32.8726 45.5 28.8587C45.5 21.2106 39.3498 15 31.75 15C24.1502 15 18 21.2106 18 28.8587C18 32.1959 19.1713 35.2598 21.1222 37.6525L18.0661 44.4422C17.9424 44.7171 17.9953 45.0394 18.2004 45.2603C18.4055 45.4812 18.723 45.5579 19.0063 45.4548L23.8015 43.7112L25.5452 48.5063C25.6488 48.7914 25.914 48.986 26.2171 48.9993C26.5201 49.0126 26.8014 48.8421 26.9297 48.5672L30.1047 41.7634C30.797 42.1012 31.4277 42.38 32.0681 42.5401C32.956 42.7621 33.8325 42.7525 34.9319 42.4776C35.3338 42.3771 35.5781 41.9699 35.4776 41.5681C35.3772 41.1663 34.97 40.9219 34.5681 41.0224C33.6676 41.2475 33.044 41.2379 32.4319 41.0849C31.7784 40.9215 31.1082 40.5905 30.0854 40.0792C29.9044 39.9887 29.6944 39.9752 29.5033 40.0418C29.3121 40.1084 29.156 40.2494 29.0704 40.4328L26.3361 46.292L24.9549 42.4937C24.8133 42.1044 24.383 41.9036 23.9937 42.0452L23.5315 42.2132L24.9354 39.0546C25.1036 38.6761 24.9331 38.2329 24.5546 38.0646C24.1761 37.8964 23.7329 38.0669 23.5647 38.4454L21.5736 42.9252L20.163 43.4382L22.6839 37.8373C22.8044 37.5697 22.7577 37.2564 22.5644 37.0355C20.6572 34.8567 19.5 31.9953 19.5 28.8587Z" fill="#170038"/>
<path d="M39.4533 40.8991C39.2595 40.533 38.8056 40.3934 38.4396 40.5872C38.0735 40.781 37.9338 41.2348 38.1276 41.6009L41.9344 48.7915C42.1282 49.1575 42.5821 49.2972 42.9481 49.1034C43.3142 48.9096 43.4539 48.4557 43.2601 48.0896L39.4533 40.8991Z" fill="#170038"/>
<path d="M37.9613 42.9146C37.776 42.5441 37.3255 42.3939 36.9551 42.5792C36.5846 42.7644 36.4344 43.2149 36.6196 43.5854L38.1196 46.5854C38.3049 46.9559 38.7554 47.1061 39.1259 46.9208C39.4964 46.7356 39.6465 46.2851 39.4613 45.9146L37.9613 42.9146Z" fill="#170038"/>
<path d="M29.0838 28.0785C29.4546 28.2631 29.6056 28.7133 29.4211 29.0841C28.8349 30.2622 28.4997 31.6177 28.4997 33.0639C28.4997 34.2913 28.7109 35.4506 29.0951 36.49C29.2387 36.8785 29.0402 37.3099 28.6516 37.4535C28.2631 37.5971 27.8317 37.3986 27.6881 37.01C27.2403 35.7987 26.9997 34.4628 26.9997 33.0639C26.9997 32.5799 27.032 32.1038 27.0946 31.6381C26.0721 31.6402 25.107 30.9888 24.6788 29.9975C24.5146 29.6172 24.6897 29.1758 25.0699 29.0116C25.4502 28.8473 25.8916 29.0224 26.0558 29.4027C26.3263 30.0288 26.9606 30.2567 27.4285 30.0715C27.5987 29.4948 27.8169 28.941 28.0782 28.4159C28.2627 28.0451 28.7129 27.894 29.0838 28.0785Z" fill="#170038"/>
<path d="M31 18.75C31 18.3358 31.3358 18 31.75 18C37.6871 18 42.5 22.8129 42.5 28.75C42.5 29.1642 42.1642 29.5 41.75 29.5C41.3358 29.5 41 29.1642 41 28.75C41 23.6414 36.8586 19.5 31.75 19.5C31.3358 19.5 31 19.1642 31 18.75Z" fill="#170038"/>
<path d="M27.5262 25.5264C27.2792 25.65 27.1792 25.9504 27.3028 26.1973C27.4264 26.4442 27.7268 26.5442 27.9737 26.4206L28.421 26.1968C28.6679 26.0732 28.7679 25.7729 28.6443 25.5259C28.5207 25.279 28.2203 25.179 27.9734 25.3026L27.5262 25.5264Z" fill="#170038"/>
</svg>
