<svg width="64" height="64" viewBox="0 0 64 64" fill="none" xmlns="http://www.w3.org/2000/svg">
<path fill-rule="evenodd" clip-rule="evenodd" d="M31.4998 17.5C31.4998 16.9477 31.9476 16.5 32.4998 16.5C33.1148 16.5 33.8614 16.6226 34.5594 16.8151C35.2528 17.0064 35.9901 17.2916 36.5545 17.6679C39.7828 19.8201 41.9998 23.0643 41.9998 27.5C41.9998 31.0518 39.4574 33.7857 37.5671 35.4767C36.9871 35.9956 36.4998 36.8772 36.4998 37.6304C36.4998 38.9391 35.4389 40 34.1303 40H31.3748C30.6154 40 29.9998 39.3844 29.9998 38.625V38.5C29.9998 37.9477 29.5809 37.5 30.1332 37.5C30.5033 37.5 30.8265 37.7011 30.9994 38L34.3964 38.0139C34.6005 38.0139 34.766 37.8485 34.766 37.6444C34.766 36.1742 35.62 34.787 36.4998 34C38.3658 32.3307 39.9998 30.1066 39.9998 27.5C39.9998 23.8448 38.2169 21.1799 35.4451 19.3321C35.1262 19.1194 34.6134 18.9047 34.0277 18.7432C33.4465 18.5829 32.8848 18.5 32.4998 18.5C31.9476 18.5 31.4998 18.0523 31.4998 17.5Z" fill="#895DEA"/>
<path d="M31.9368 25.3384L31.9355 30.7252C31.9354 31.1531 32.2826 31.4999 32.7105 31.4994C33.1188 31.4988 33.4564 31.1812 33.4819 30.7738L33.8186 25.3975C33.8756 24.4865 32.7332 24.0351 32.1522 24.7392C32.013 24.9078 31.9368 25.1197 31.9368 25.3384Z" fill="#EBA038"/>
<path d="M22.75 27.125C22.75 21.9385 26.9001 17.75 32 17.75C33.061 17.75 34.0789 17.9308 35.0262 18.263C38.6451 19.5322 41.25 23.0177 41.25 27.125C41.25 30.251 39.7415 33.017 37.4233 34.7205C36.3464 35.5119 35.25 36.9519 35.25 38.5C35.25 38.9142 34.9142 39.25 34.5 39.25H30.75V38C30.75 37.5858 30.4142 37.25 30 37.25C29.5858 37.25 29.25 37.5858 29.25 38V39.5C29.25 40.1904 29.8096 40.75 30.5 40.75H34.5C35.7426 40.75 36.75 39.7426 36.75 38.5C36.75 37.613 37.4421 36.5681 38.3115 35.9292C41.0016 33.9525 42.75 30.7439 42.75 27.125C42.75 22.3708 39.7333 18.3243 35.5227 16.8475C34.4182 16.4602 33.2326 16.25 32 16.25C26.0542 16.25 21.25 21.1277 21.25 27.125C21.25 30.7439 22.9984 33.9525 25.6885 35.9292C26.5579 36.5681 27.25 37.613 27.25 38.5V40.0547C27.25 41.5433 28.4567 42.75 29.9453 42.75H35C35.1381 42.75 35.25 42.8619 35.25 43C35.25 43.1381 35.1381 43.25 35 43.25H29.1813C28.1147 43.25 27.25 44.1147 27.25 45.1813C27.25 45.9864 27.7494 46.707 28.5032 46.9897L30.6833 47.8072C31.5322 48.1256 32.4678 48.1256 33.3167 47.8072L36.2633 46.7022C36.6512 46.5568 36.8477 46.1245 36.7022 45.7367C36.5568 45.3488 36.1245 45.1523 35.7367 45.2978L32.79 46.4027C32.2807 46.5938 31.7193 46.5938 31.21 46.4027L29.0299 45.5852C28.8615 45.5221 28.75 45.3611 28.75 45.1813C28.75 44.9431 28.9431 44.75 29.1813 44.75H35C35.9665 44.75 36.75 43.9665 36.75 43C36.75 42.0335 35.9665 41.25 35 41.25H29.9453C29.2852 41.25 28.75 40.7148 28.75 40.0547V38.5C28.75 36.9519 27.6536 35.5119 26.5767 34.7205C24.2585 33.017 22.75 30.251 22.75 27.125Z" fill="#170038"/>
<path d="M31.3859 19.3706C31.7953 19.3075 32.1782 19.5883 32.2413 19.9977C32.3043 20.4071 32.0235 20.7901 31.6141 20.8531C27.9289 21.4205 25.75 24.2952 25.75 28.0001C25.75 28.4143 25.4142 28.7501 25 28.7501C24.5858 28.7501 24.25 28.4143 24.25 28.0001C24.25 23.645 26.8833 20.0638 31.3859 19.3706Z" fill="#170038"/>
<path d="M32.1997 32.2499C32.6139 32.2497 32.9498 32.5854 32.95 32.9996L32.9502 33.4997C32.9504 33.9139 32.6147 34.2498 32.2005 34.25C31.7863 34.2502 31.4504 33.9145 31.4502 33.5003L31.45 33.0002C31.4498 32.586 31.7855 32.2501 32.1997 32.2499Z" fill="#170038"/>
<path d="M32.9502 31.0556V25C32.9502 24.5858 32.6144 24.25 32.2002 24.25C31.786 24.25 31.4502 24.5858 31.4502 25V31.0556C31.4502 31.4698 31.786 31.8056 32.2002 31.8056C32.6144 31.8056 32.9502 31.4698 32.9502 31.0556Z" fill="#170038"/>
</svg>
