<svg width="64" height="64" viewBox="0 0 64 64" fill="none" xmlns="http://www.w3.org/2000/svg">
<path d="M22.8789 27.5556C22.8789 27.1414 23.2147 26.8056 23.6289 26.8056H35.887C36.3012 26.8056 36.637 27.1414 36.637 27.5556C36.637 27.9698 36.3012 28.3056 35.887 28.3056H23.6289C23.2147 28.3056 22.8789 27.9698 22.8789 27.5556Z" fill="white"/>
<path d="M27.5 30.8056C27.0858 30.8056 26.75 31.1414 26.75 31.5556C26.75 31.9698 27.0858 32.3056 27.5 32.3056H35.5C35.9142 32.3056 36.25 31.9698 36.25 31.5556C36.25 31.1414 35.9142 30.8056 35.5 30.8056H27.5Z" fill="white"/>
<path d="M23.5 34.8056C23.0858 34.8056 22.75 35.1414 22.75 35.5556C22.75 35.9698 23.0858 36.3056 23.5 36.3056H32.5C32.9142 36.3056 33.25 35.9698 33.25 35.5556C33.25 35.1414 32.9142 34.8056 32.5 34.8056H23.5Z" fill="white"/>
<path fill-rule="evenodd" clip-rule="evenodd" d="M44.75 28.5338L45.6221 28.1518C46.3371 27.8385 46.9445 27.3059 47.3397 26.6226C50.81 20.6231 51.6959 17.0389 51.587 14.7255C51.5331 13.5807 50.809 12.8088 49.9037 12.5012C49.029 12.2041 47.9851 12.3293 47.1261 12.8724C43.1916 15.3595 40.9001 17.7557 39.5402 19.8289L39.5403 19.8139C39.5403 19.3997 39.2045 19.0639 38.7903 19.0639H21C18.9289 19.0639 17.25 20.7428 17.25 22.8139V41.33C17.25 43.4011 18.9289 45.08 21 45.08H41C43.0711 45.08 44.75 43.4011 44.75 41.33V28.5338ZM47.9276 14.1403C48.4242 13.8263 48.9981 13.7778 49.4212 13.9215C49.8136 14.0549 50.0671 14.3387 50.0887 14.796C50.1771 16.6761 49.4643 19.9537 46.0413 25.8716C45.8103 26.2708 45.4507 26.5893 45.0202 26.7778L40.8624 28.5992C43.6288 22.8828 46.3149 19.3627 47.5205 18.1495C47.8125 17.8557 47.811 17.3809 47.5172 17.0889C47.2234 16.7969 46.7485 16.7984 46.4565 17.0922C45.173 18.3838 42.6122 21.7513 39.9479 27.0617L39.7584 23.1156C39.7424 22.7833 39.7955 22.4756 39.9186 22.2127C40.905 20.1047 43.0268 17.2382 47.9276 14.1403ZM43.25 29.1909L39.9076 30.6552L39.7689 30.9626C39.1092 32.4241 38.2627 34.2997 37.7037 35.8154C37.588 36.1292 37.2846 36.3193 36.9675 36.3054L36.9516 36.3056H34.5C34.0858 36.3056 33.75 35.9698 33.75 35.5556C33.75 35.1414 34.0858 34.8056 34.5 34.8056H36.4821C37.051 33.3374 37.8138 31.6476 38.4034 30.3416L38.5845 29.9402L38.2601 23.1876C38.2345 22.6556 38.3163 22.0977 38.56 21.5769C38.7249 21.2245 38.9156 20.858 39.1371 20.4791C39.0334 20.5332 38.9154 20.5639 38.7903 20.5639H21C19.7574 20.5639 18.75 21.5712 18.75 22.8139V41.33C18.75 42.5727 19.7574 43.58 21 43.58H41C42.2426 43.58 43.25 42.5727 43.25 41.33V29.1909Z" fill="white"/>
</svg>
