<svg width="64" height="64" viewBox="0 0 64 64" fill="none" xmlns="http://www.w3.org/2000/svg">
<path d="M24.7217 24.75C24.7217 19.8738 28.7077 15.9385 33.5834 16.0007L36.5834 16.039C41.372 16.1001 45.2217 19.9994 45.2217 24.7883V47.8898C45.2217 48.304 44.886 48.6398 44.4717 48.6398H34.6116L34.5967 48.6399H19.752C17.8191 48.6399 17.3131 45.9679 19.1121 45.2611L24.7217 43.0573V39.3899C24.7217 39.2117 24.7839 39.048 24.8877 38.9193C24.9251 38.8729 24.9684 38.8304 25.0173 38.7933C25.0533 38.7657 25.092 38.7414 25.1327 38.7207L32.6193 34.7279C32.9848 34.533 33.4391 34.6712 33.634 35.0367C33.829 35.4022 33.6907 35.8565 33.3252 36.0514L26.2217 39.8399V42.4681L42.1975 36.1919C42.583 36.0404 43.0184 36.2302 43.1698 36.6157C43.3213 37.0012 43.1315 37.4365 42.746 37.588L19.6606 46.6572C19.5741 46.6912 19.5414 46.7345 19.525 46.7673C19.5043 46.8085 19.4935 46.8685 19.5064 46.9364C19.5193 47.0044 19.5512 47.0563 19.5856 47.0871C19.6129 47.1116 19.659 47.1399 19.752 47.1399H25.4568L25.4717 47.1398H43.7217V24.7883C43.7217 20.8203 40.5319 17.5895 36.5643 17.5389L33.5643 17.5006C29.5244 17.449 26.2217 20.7098 26.2217 24.75V31.2686L26.2518 31.2528C26.6188 31.0607 27.072 31.2024 27.2641 31.5694C27.4562 31.9363 27.3145 32.3896 26.9476 32.5817L19.8193 36.3138C19.4524 36.506 18.9992 36.3642 18.807 35.9973C18.6149 35.6303 18.7566 35.1771 19.1236 34.985L24.7217 32.0539V24.75Z" fill="white"/>
<path d="M37.0882 29.3838C37.2896 29.4459 37.4555 29.5899 37.5455 29.7805C37.6354 29.971 37.641 30.1906 37.5609 30.3856L36.0765 33.9976C35.9191 34.3807 35.4809 34.5637 35.0977 34.4062C34.7146 34.2488 34.5317 33.8106 34.6891 33.4274L35.3907 31.7201L22.9586 38.2292C22.5917 38.4213 22.1384 38.2796 21.9463 37.9126C21.7542 37.5457 21.8959 37.0924 22.2629 36.9003L34.9065 30.2805L33.2676 29.7749C32.8718 29.6528 32.65 29.2329 32.7721 28.8371C32.8942 28.4413 33.314 28.2194 33.7098 28.3415L37.0882 29.3838Z" fill="white"/>
</svg>
