<svg width="64" height="64" viewBox="0 0 64 64" fill="none" xmlns="http://www.w3.org/2000/svg">
<path fill-rule="evenodd" clip-rule="evenodd" d="M29.2861 19.5171C31.2861 17.5171 37.7861 16.798 40.2861 19.298C42.7861 21.798 42.4577 23.0171 43.2861 23.0171C44.1146 23.0171 44.2861 22.8455 44.2861 22.0171V23.1105C44.2861 21.8366 43.6359 20.4612 42.7862 19.298C42.3653 18.7219 42.1844 18.0874 41.6168 17.5808C41.1182 17.1358 40.2906 16.5171 39.2861 16.5171C38.1786 16.5171 34.0457 16.1995 31.9833 16.0283C30.6654 15.8045 27.8544 16.9033 26.2861 19.5171C25.5243 20.7868 25.3318 21.8089 25.1023 23.36C24.8652 24.9623 24.7861 26.5364 24.7861 27.517V29.517C24.7861 30.3455 25.4577 31.017 26.2861 31.017C27.1146 31.017 27.7861 30.3455 27.7861 29.517C27.7861 29.517 27.7861 31.5171 27.7861 27.517C27.7861 23.517 27.4748 21.3284 29.2861 19.5171Z" fill="#895DEA"/>
<path fill-rule="evenodd" clip-rule="evenodd" d="M20.2861 47.0001C17.5131 47.0453 17.163 45.3816 19.7858 44.4999L23.2861 43C24.0494 42.7434 27.3389 41.1055 27.7861 42C28.1611 42.75 26.7861 43 25.7861 43.5V43.5C25.2339 43.6841 25.3663 44.5 25.9484 44.5L40.2861 44.5C41.0932 44.4868 43.7803 44.6563 43.7861 45C43.7996 45.7893 44.0932 46.9868 43.2861 47L20.2861 47.0001Z" fill="#895DEA"/>
<path d="M34.1316 32.5739L23.5042 37.6566C23.0922 37.8536 22.5979 37.7177 22.3446 37.3377C22.0449 36.8881 22.1965 36.2782 22.6718 36.0212L34.2585 29.7582C35.2727 29.21 36.2564 30.5298 35.4412 31.345L34.4073 32.3789C34.3271 32.459 34.2339 32.525 34.1316 32.5739Z" fill="#EBA038"/>
<path d="M24.2501 23.8599C24.2501 18.9837 28.236 15.0484 33.1117 15.1106L36.1117 15.1489C40.9003 15.21 44.7501 19.1092 44.7501 23.8982V46.9996C44.7501 47.4139 44.4143 47.7496 44.0001 47.7496H34.14L34.1251 47.7498H19.2804C17.3474 47.7498 16.8414 45.0777 18.6405 44.371L24.2501 42.1672V38.4998C24.2501 38.3216 24.3122 38.1579 24.4161 38.0292C24.4534 37.9827 24.4967 37.9403 24.5456 37.9031C24.5816 37.8756 24.6203 37.8513 24.6611 37.8306L32.1476 33.8378C32.5131 33.6428 32.9674 33.7811 33.1624 34.1466C33.3573 34.5121 33.219 34.9664 32.8535 35.1613L25.7501 38.9498V41.5779L41.7258 35.3017C42.1114 35.1503 42.5467 35.34 42.6981 35.7255C42.8496 36.1111 42.6598 36.5464 42.2743 36.6978L19.1889 45.7671C19.1024 45.8011 19.0698 45.8443 19.0533 45.8771C19.0326 45.9184 19.0219 45.9784 19.0347 46.0463C19.0476 46.1142 19.0796 46.1661 19.1139 46.197C19.1412 46.2215 19.1874 46.2498 19.2804 46.2498H24.9852L25.0001 46.2496H43.2501V23.8982C43.2501 19.9302 40.0603 16.6994 36.0926 16.6488L33.0926 16.6105C29.0527 16.5589 25.7501 19.8196 25.7501 23.8599V30.3784L25.7801 30.3627C26.1471 30.1706 26.6003 30.3123 26.7924 30.6792C26.9846 31.0462 26.8428 31.4994 26.4759 31.6916L19.3477 35.4237C18.9807 35.6158 18.5275 35.4741 18.3353 35.1071C18.1432 34.7402 18.2849 34.287 18.6519 34.0948L24.2501 31.1638V23.8599Z" fill="#170038"/>
<path d="M36.6166 28.4937C36.8179 28.5558 36.9839 28.6998 37.0738 28.8903C37.1637 29.0809 37.1693 29.3005 37.0892 29.4954L35.6048 33.1074C35.4474 33.4906 35.0092 33.6735 34.6261 33.5161C34.2429 33.3586 34.06 32.9204 34.2174 32.5373L34.9191 30.8299L22.4869 37.339C22.12 37.5312 21.6667 37.3894 21.4746 37.0225C21.2825 36.6555 21.4242 36.2023 21.7912 36.0102L34.4348 29.3903L32.796 28.8847C32.4002 28.7626 32.1783 28.3428 32.3004 27.947C32.4225 27.5512 32.8424 27.3293 33.2382 27.4514L36.6166 28.4937Z" fill="#170038"/>
</svg>
