<svg width="64" height="64" viewBox="0 0 64 64" fill="none" xmlns="http://www.w3.org/2000/svg">
<path fill-rule="evenodd" clip-rule="evenodd" d="M34.9999 20.6936C35.778 19.9096 36.2926 19.9157 37.0767 20.6938C38.2873 21.895 38.9996 23.6099 38.9996 25.453V43.0002C38.9996 44.1047 38.1041 45.0002 36.9996 45.0002H28.538C27.9995 45 27.0654 44.9998 27.1037 44.5329C27.1037 43.4283 28.8954 42.5 30 42.5H34.74C35.8445 42.5 36.74 41.6046 36.74 40.5L36.7403 25.4199C36.7403 24.8721 36.7403 24.3553 36.6694 23.8221C36.5958 23.2681 36.3835 22.7396 36.0409 22.298C35.472 21.5649 34.768 20.9274 34.9999 20.6936Z" fill="#895DEA"/>
<path fill-rule="evenodd" clip-rule="evenodd" d="M34.9999 20.6936C35.778 19.9096 36.2926 19.9157 37.0767 20.6938C38.2873 21.895 38.9996 23.6099 38.9996 25.453V43.0002C38.9996 44.1047 38.1041 45.0002 36.9996 45.0002H28.538C27.9995 45 27.0654 44.9998 27.1037 44.5329C27.1037 43.4283 28.8954 42.5 30 42.5H34.74C35.8445 42.5 36.74 41.6046 36.74 40.5L36.7403 25.4199C36.7403 24.8721 36.7403 24.3553 36.6694 23.8221C36.5958 23.2681 36.3835 22.7396 36.0409 22.298C35.472 21.5649 34.768 20.9274 34.9999 20.6936Z" fill="#895DEA"/>
<path d="M26.6964 41.0608L26.6496 41.0352C26.1351 40.754 25.9718 40.0924 26.2965 39.6041L32.8584 29.7351C33.511 28.7537 35.0276 29.5121 34.6337 30.623L34.5415 30.8829C34.5139 30.9607 34.4768 31.0347 34.4311 31.1034L28.008 40.738C27.7205 41.1692 27.1512 41.3093 26.6964 41.0608Z" fill="#EBA038"/>
<path d="M22 24.75C22 19.8739 25.9859 15.9385 30.8617 16.0007L33.8617 16.039C38.6502 16.1001 42.5 19.9994 42.5 24.7883V47.8898C42.5 48.304 42.1642 48.6398 41.75 48.6398H25.75C25.3358 48.6398 25 48.304 25 47.8898C25 47.4756 25.3358 47.1398 25.75 47.1398H41V24.7883C41 20.8203 37.8102 17.5895 33.8425 17.5389L30.8425 17.5006C26.8026 17.449 23.5 20.7098 23.5 24.75V43.3899C23.5 43.8041 23.1642 44.1399 22.75 44.1399C22.3358 44.1399 22 43.8041 22 43.3899V24.75Z" fill="#170038"/>
<path d="M25 24.9651C25 21.7559 27.627 19.1679 30.8358 19.2158L33.8358 19.2605C36.9776 19.3075 39.5 21.8677 39.5 25.0099V44.8899C39.5 45.3041 39.1642 45.6399 38.75 45.6399H27.75C27.3358 45.6399 27 45.3041 27 44.8899C27 44.4757 27.3358 44.1399 27.75 44.1399H38V25.0099C38 23.3854 37.0879 21.9713 35.7449 21.2563C35.7393 21.2662 35.7334 21.2762 35.7273 21.286L28.8869 32.286C28.6682 32.6377 28.2057 32.7456 27.8539 32.5268C27.5022 32.3081 27.3944 31.8456 27.6131 31.4939L34.2686 20.7913C34.1191 20.7731 33.9673 20.7627 33.8134 20.7604L30.8134 20.7156C28.4417 20.6802 26.5 22.5931 26.5 24.9651V39.2473L32.9563 28.7889C33.1739 28.4364 33.636 28.3271 33.9885 28.5447C34.341 28.7623 34.4503 29.2244 34.2327 29.5769L26.3951 42.2727C26.3819 42.2949 26.3675 42.3165 26.3521 42.3372C26.2872 42.4248 26.2059 42.4947 26.1153 42.5451C26.0249 42.5956 25.9229 42.628 25.8143 42.6372C25.7249 42.645 25.6337 42.6368 25.5452 42.6116C25.4566 42.5865 25.3747 42.5456 25.3027 42.492C25.2151 42.4271 25.1453 42.3459 25.0949 42.2553C25.0443 42.1648 25.0119 42.0628 25.0027 41.9542C25.0005 41.9285 24.9996 41.9026 25 41.8767V24.9651Z" fill="#170038"/>
<path d="M36.1309 31.2438C35.774 31.0335 35.3142 31.1522 35.1039 31.5091L32.9484 35.1657C32.7381 35.5225 32.8568 35.9823 33.2137 36.1926C33.5705 36.403 34.0303 36.2842 34.2406 35.9274L36.3961 32.2708C36.6064 31.914 36.4877 31.4542 36.1309 31.2438Z" fill="#170038"/>
<path d="M31.071 38.2562C30.864 38.615 30.987 39.0736 31.3458 39.2807C31.7045 39.4877 32.1632 39.3647 32.3702 39.0059L32.929 38.0376C33.136 37.6788 33.013 37.2201 32.6543 37.0131C32.2955 36.8061 31.8368 36.9291 31.6298 37.2878L31.071 38.2562Z" fill="#170038"/>
</svg>
