<svg width="64" height="64" viewBox="0 0 64 64" fill="none" xmlns="http://www.w3.org/2000/svg">
<path d="M21.25 24.1026C21.25 19.2264 25.2359 15.291 30.1117 15.3533L33.1117 15.3916C37.9002 15.4527 41.75 19.3519 41.75 24.1409V47.2423C41.75 47.6565 41.4142 47.9923 41 47.9923H25C24.5858 47.9923 24.25 47.6565 24.25 47.2423C24.25 46.8281 24.5858 46.4923 25 46.4923H40.25V24.1409C40.25 20.1729 37.0602 16.9421 33.0925 16.8914L30.0925 16.8531C26.0526 16.8016 22.75 20.0623 22.75 24.1026V42.7425C22.75 43.1567 22.4142 43.4925 22 43.4925C21.5858 43.4925 21.25 43.1567 21.25 42.7425V24.1026Z" fill="white"/>
<path d="M24.25 24.3177C24.25 21.1085 26.877 18.5204 30.0858 18.5683L33.0858 18.6131C36.2276 18.66 38.75 21.2203 38.75 24.3624V44.2425C38.75 44.6567 38.4142 44.9925 38 44.9925H27C26.5858 44.9925 26.25 44.6567 26.25 44.2425C26.25 43.8282 26.5858 43.4925 27 43.4925H37.25V24.3624C37.25 22.738 36.3379 21.3239 34.9949 20.6088C34.9893 20.6188 34.9834 20.6287 34.9773 20.6385L28.1369 31.6385C27.9182 31.9903 27.4557 32.0981 27.1039 31.8794C26.7522 31.6606 26.6444 31.1981 26.8631 30.8464L33.5186 20.1439C33.3691 20.1257 33.2173 20.1152 33.0634 20.1129L30.0634 20.0681C27.6917 20.0327 25.75 21.9456 25.75 24.3177V38.5998L32.2063 28.1414C32.4239 27.789 32.886 27.6796 33.2385 27.8972C33.591 28.1148 33.7003 28.5769 33.4827 28.9294L25.6451 41.6252C25.6319 41.6475 25.6175 41.669 25.6021 41.6897C25.5372 41.7774 25.4559 41.8472 25.3653 41.8976C25.2749 41.9482 25.1729 41.9805 25.0643 41.9897C24.9749 41.9975 24.8837 41.9893 24.7952 41.9641C24.7066 41.9391 24.6247 41.8981 24.5527 41.8446C24.4651 41.7796 24.3953 41.6984 24.3449 41.6078C24.2943 41.5174 24.2619 41.4154 24.2527 41.3068C24.2505 41.281 24.2496 41.2552 24.25 41.2292V24.3177Z" fill="white"/>
<path d="M35.3809 30.5964C35.024 30.386 34.5642 30.5048 34.3539 30.8616L32.1984 34.5182C31.9881 34.875 32.1068 35.3348 32.4637 35.5452C32.8205 35.7555 33.2803 35.6367 33.4906 35.2799L35.6461 31.6233C35.8564 31.2665 35.7377 30.8067 35.3809 30.5964Z" fill="white"/>
<path d="M30.321 37.6088C30.114 37.9675 30.237 38.4262 30.5958 38.6332C30.9545 38.8402 31.4132 38.7172 31.6202 38.3585L32.179 37.3901C32.386 37.0313 32.263 36.5727 31.9043 36.3656C31.5455 36.1586 31.0868 36.2816 30.8798 36.6404L30.321 37.6088Z" fill="white"/>
</svg>
