<svg width="64" height="64" viewBox="0 0 64 64" fill="none" xmlns="http://www.w3.org/2000/svg">
<path fill-rule="evenodd" clip-rule="evenodd" d="M35 20.4997C35 18.3078 33.0586 16.624 30.8887 16.934L30.4289 16.9997L19.5 16.9997C18.9477 16.9997 18.5 16.4476 18.5 16.9999C18.5 17.5522 18.9477 17.9999 19.5 17.9999L31 17.9999C32.5 18 33 19.6713 33 20.4997L33 25.9997C33 26.552 33.4477 26.9997 34 26.9997C34.5523 26.9997 35 26.552 35 25.9997L35 20.4997Z" fill="#895DEA"/>
<path fill-rule="evenodd" clip-rule="evenodd" d="M43.9997 25C47.3134 25 48.9997 27 48.9997 29L48.9997 29.5C48.9997 30.6046 49.9998 30.5 49.4996 30.5C48.1307 30.5 47.9997 30 46.9997 29C45.9997 28 44.4997 28 43.9997 28L34.9997 28C33.8951 28 32.9997 28.8954 32.9997 30L32.9997 38.7492C33.9032 39.5424 34.3165 40.851 33.8456 42.1067L32.4997 44.5C32.1601 45.4054 30.9997 45.9679 30.6428 45.9679C29.6914 45.7954 28.9997 44.9669 28.9997 44L28.9997 31C28.9997 27.6863 31.686 25 34.9997 25L43.9997 25Z" fill="#895DEA"/>
<path d="M27.4136 20.9733C28.6599 22.063 28.5946 24.1765 27.2679 25.6937C25.3992 27.187 27.2463 24.0898 26 23C24.7537 21.9102 21.8222 23.4186 23.149 21.9013C24.4757 20.3841 26.1674 19.8835 27.4136 20.9733Z" fill="#EBA038"/>
<path d="M36.25 24.25V20C36.25 17.3766 34.1234 15.25 31.5 15.25H20.5C17.8766 15.25 15.75 17.3766 15.75 20L15.75 25.25H14C13.5858 25.25 13.25 25.5858 13.25 26C13.25 26.4142 13.5858 26.75 14 26.75L23 26.75C23.4142 26.75 23.75 26.4142 23.75 26C23.75 25.5858 23.4142 25.25 23 25.25L17.25 25.25L17.25 20C17.25 18.2051 18.7051 16.75 20.5 16.75L31.5 16.75C33.2949 16.75 34.75 18.2051 34.75 20V24.25H33.5C30.8766 24.25 28.75 26.3766 28.75 29V33.25H20.5C18.7051 33.25 17.25 31.7949 17.25 30V29.5C17.25 29.0858 16.9142 28.75 16.5 28.75C16.0858 28.75 15.75 29.0858 15.75 29.5V30C15.75 32.6234 17.8766 34.75 20.5 34.75H28.75L28.75 44.7934C28.75 46.5099 30.9641 47.2004 31.9398 45.7882L34.117 42.6369C34.3525 42.2961 34.2671 41.8289 33.9263 41.5935C33.5855 41.358 33.1184 41.4434 32.883 41.7842L30.7057 44.9355C30.5663 45.1373 30.25 45.0386 30.25 44.7934V29C30.25 27.2051 31.7051 25.75 33.5 25.75L45.5 25.75C47.2949 25.75 48.75 27.2051 48.75 29V38.2105C48.75 40.0054 47.2949 41.4605 45.5 41.4605L37.5 41.4605C37.0858 41.4605 36.75 41.7963 36.75 42.2105C36.75 42.6247 37.0858 42.9605 37.5 42.9605L45.5 42.9605C48.1234 42.9605 50.25 40.8339 50.25 38.2105V29C50.25 26.3766 48.1234 24.25 45.5 24.25L36.25 24.25Z" fill="#170038"/>
<path d="M25.75 31.25C25.3358 31.25 25 30.9142 25 30.5V30C25 29.5858 25.3358 29.25 25.75 29.25C26.1642 29.25 26.5 29.5858 26.5 30V30.5C26.5 30.9142 26.1642 31.25 25.75 31.25Z" fill="#170038"/>
<path d="M23.8056 22.8C23.8056 21.6478 24.7083 20.75 25.7778 20.75C26.8472 20.75 27.75 21.6478 27.75 22.8C27.75 23.4134 27.492 23.9591 27.0869 24.3331C27.0445 24.3723 27.0006 24.4126 26.9555 24.454C26.5911 24.7885 26.1486 25.1947 25.7938 25.6441C25.3895 26.1562 25.0278 26.8095 25.0278 27.6V28C25.0278 28.4142 25.3636 28.75 25.7778 28.75C26.192 28.75 26.5278 28.4142 26.5278 28V27.6C26.5278 27.2859 26.6693 26.956 26.9711 26.5736C27.2465 26.2248 27.5958 25.9034 27.9723 25.557L28.1046 25.4351C28.8097 24.784 29.25 23.842 29.25 22.8C29.25 20.8594 27.7152 19.25 25.7778 19.25C24.0967 19.25 22.7188 20.4617 22.3836 22.05H20C19.5858 22.05 19.25 22.3858 19.25 22.8C19.25 23.2142 19.5858 23.55 20 23.55H23.0556C23.4698 23.55 23.8056 23.2142 23.8056 22.8Z" fill="#170038"/>
<path d="M23.75 29C23.75 29.4142 23.4142 29.75 23 29.75H20C19.5858 29.75 19.25 29.4142 19.25 29C19.25 28.5858 19.5858 28.25 20 28.25H23C23.4142 28.25 23.75 28.5858 23.75 29Z" fill="#170038"/>
<path d="M35.25 30.5C34.8358 30.5 34.5 30.8358 34.5 31.25C34.5 31.6642 34.8358 32 35.25 32H44.75C45.1642 32 45.5 31.6642 45.5 31.25C45.5 30.8358 45.1642 30.5 44.75 30.5H35.25Z" fill="#170038"/>
<path d="M41 34.75L37.5 34.75C37.0858 34.75 36.75 34.4142 36.75 34C36.75 33.5858 37.0858 33.25 37.5 33.25L41 33.25C41.4142 33.25 41.75 33.5858 41.75 34C41.75 34.4142 41.4142 34.75 41 34.75Z" fill="#170038"/>
<path d="M35 35.75C34.5858 35.75 34.25 36.0858 34.25 36.5C34.25 36.9142 34.5858 37.25 35 37.25H41.5C41.9142 37.25 42.25 36.9142 42.25 36.5C42.25 36.0858 41.9142 35.75 41.5 35.75H35Z" fill="#170038"/>
</svg>
