<svg width="64" height="64" viewBox="0 0 64 64" fill="none" xmlns="http://www.w3.org/2000/svg">
<path d="M36.25 24.25V20C36.25 17.3766 34.1234 15.25 31.5 15.25H20.5C17.8766 15.25 15.75 17.3766 15.75 20L15.75 25.25H14C13.5858 25.25 13.25 25.5858 13.25 26C13.25 26.4142 13.5858 26.75 14 26.75L23 26.75C23.4142 26.75 23.75 26.4142 23.75 26C23.75 25.5858 23.4142 25.25 23 25.25L17.25 25.25L17.25 20C17.25 18.2051 18.7051 16.75 20.5 16.75L31.5 16.75C33.2949 16.75 34.75 18.2051 34.75 20V24.25H33.5C30.8766 24.25 28.75 26.3766 28.75 29V33.25H20.5C18.7051 33.25 17.25 31.7949 17.25 30V29.75L20 29.75C20.4142 29.75 20.75 29.4142 20.75 29C20.75 28.5858 20.4142 28.25 20 28.25L16.5 28.25C16.0858 28.25 15.75 28.5858 15.75 29V30C15.75 32.6234 17.8766 34.75 20.5 34.75H28.75V38C28.75 40.6234 30.8766 42.75 33.5 42.75H39.5008C39.915 42.75 40.2508 42.4142 40.2508 42C40.2508 41.5858 39.915 41.25 39.5008 41.25H33.5C31.7051 41.25 30.25 39.7949 30.25 38V29C30.25 27.2051 31.7051 25.75 33.5 25.75L45.5 25.75C47.2949 25.75 48.75 27.2051 48.75 29V44.7394C48.75 44.9565 48.4924 45.0704 48.3318 44.9244L45.1592 42.0402C44.8986 41.8033 44.75 41.4674 44.75 41.1153V36C44.75 33.3766 42.6234 31.25 40 31.25L37.0715 31.25L38.4801 30.0762C38.7983 29.811 38.8413 29.3381 38.5762 29.0199C38.311 28.7017 37.8381 28.6587 37.5199 28.9238L34.5199 31.4238C34.358 31.5587 34.2603 31.7555 34.2508 31.966C34.2412 32.1765 34.3207 32.3813 34.4697 32.5303L36.9697 35.0303C37.2626 35.3232 37.7374 35.3232 38.0303 35.0303C38.3232 34.7374 38.3232 34.2626 38.0303 33.9697L36.8107 32.75L40 32.75C41.7949 32.75 43.25 34.2051 43.25 36V41.1153C43.25 41.8901 43.5768 42.6289 44.1501 43.1501L47.3228 46.0343C48.447 47.0563 50.25 46.2587 50.25 44.7394V29C50.25 26.3766 48.1233 24.25 45.5 24.25L36.25 24.25Z" fill="white"/>
<path d="M38.4701 36.5307C38.1769 36.238 38.1766 35.7632 38.4693 35.4701C38.762 35.177 39.2368 35.1766 39.5299 35.4693L40.0307 35.9693C40.3238 36.262 40.3242 36.7369 40.0315 37.03C39.7388 37.3231 39.2639 37.3234 38.9708 37.0307L38.4701 36.5307Z" fill="white"/>
<path d="M26.1997 28.2499C26.6139 28.2497 26.9498 28.5854 26.95 28.9996L26.9502 29.4997C26.9504 29.9139 26.6147 30.2498 26.2005 30.25C25.7863 30.2502 25.4504 29.9145 25.4502 29.5003L25.45 29.0002C25.4498 28.586 25.7855 28.2501 26.1997 28.2499Z" fill="white"/>
<path d="M20 22.0498C19.5858 22.0498 19.25 22.3856 19.25 22.7998C19.25 23.214 19.5858 23.5498 20 23.5498H23.0556C23.4698 23.5498 23.8056 23.214 23.8056 22.7998C23.8056 22.3856 23.4698 22.0498 23.0556 22.0498H20Z" fill="white"/>
<path d="M26.9502 21V27.0556C26.9502 27.4698 26.6144 27.8056 26.2002 27.8056C25.786 27.8056 25.4502 27.4698 25.4502 27.0556V21C25.4502 20.5858 25.786 20.25 26.2002 20.25C26.6144 20.25 26.9502 20.5858 26.9502 21Z" fill="white"/>
</svg>
