<?xml version="1.0" encoding="UTF-8" standalone="no"?>
<!-- Created with Inkscape (http://www.inkscape.org/) -->

<svg
   width="320"
   height="320"
   viewBox="0 0 84.666665 84.666669"
   version="1.1"
   id="svg5"
   shape-rendering="crispEdges"
   xmlns="http://www.w3.org/2000/svg"
   xmlns:svg="http://www.w3.org/2000/svg">
  <defs
     id="defs2" />
  <path
     id="rect4865"
     style="fill:#5227a7;fill-opacity:1;fill-rule:evenodd;stroke-width:1.00157"
     d="M 80 40 L 80 60 L 90 60 L 90 70 L 100 70 L 100 80 L 80 80 L 80 70 L 70 70 L 70 90 L 80 90 L 80 100 L 100 100 L 100 110 L 90 110 L 70 110 L 70 100 L 60 100 L 60 120 L 70 120 L 70 130 L 90 130 L 90 140 L 100 140 L 100 210 L 210 210 L 220 210 L 220 60 L 210 60 L 210 50 L 100 50 L 90 50 L 90 40 L 80 40 z "
     transform="scale(0.26458333)" />
  <path
     id="rect862"
     style="fill:#f2a52b;fill-opacity:1;fill-rule:evenodd;stroke-width:1.00157"
     d="m 140,130 v 10 h -10 v 30 h 10 v 10 h 10 v 10 h 10 v 10 h 10 v -10 h 10 v -10 h 10 v -10 h 10 v -30 h -10 v -10 z"
     transform="scale(0.26458333)" />
  <path
     id="rect872"
     style="fill:#7f3300;fill-opacity:1;fill-rule:evenodd;stroke-width:1.00157"
     d="m 150,140 v 10 h 10 v -10 z m 20,0 v 10 h 10 v -10 z"
     transform="scale(0.26458333)" />
  <path
     id="rect901"
     style="fill:#000000;fill-opacity:0.99;fill-rule:evenodd;stroke-width:1.00157"
     d="m 100,80 v 20 h 10 v 10 h 10 v 10 h 20 v -10 h 10 v -10 h 20 v 10 h 10 v 10 h 20 v -10 h 10 v -10 h 10 V 80 Z"
     transform="scale(0.26458333)" />
</svg>
