<?xml version="1.0" encoding="UTF-8" standalone="no"?>
<!-- Created with Inkscape (http://www.inkscape.org/) -->

<svg
   width="320"
   height="320"
   viewBox="0 0 84.666665 84.666669"
   version="1.1"
   id="svg5"
   shape-rendering="crispEdges"
   xmlns="http://www.w3.org/2000/svg"
   xmlns:svg="http://www.w3.org/2000/svg">
  <defs
     id="defs2" />
  <path
     id="rect4865"
     style="fill:#5227a7;fill-opacity:1;fill-rule:evenodd;stroke-width:1.00157"
     d="m 80,40 v 20 h 10 v 10 h 10 V 80 H 80 V 70 H 70 v 20 h 10 v 10 h 20 v 10 H 90 70 V 100 H 60 v 20 h 10 v 10 h 20 v 10 h 10 v 70 h 110 10 V 60 H 210 V 50 H 100 90 V 40 Z"
     transform="scale(0.26458333)" />
  <path
     id="rect8494"
     style="fill:#f2a52b;fill-opacity:1;fill-rule:evenodd;stroke-width:1.00157"
     d="m 140,130 v 10 h -10 v 20 h 10 v 10 h 10 v 10 h 10 v 10 h 10 v -10 h 10 v -10 h 10 v -10 h 10 v -20 h -10 v -10 z"
     transform="scale(0.26458333)" />
  <path
     id="rect12247"
     style="fill:#7f3300;fill-opacity:1;fill-rule:evenodd;stroke-width:1.00157"
     d="m 150,140 v 10 h 10 v -10 z m 20,0 v 10 h 10 v -10 z"
     transform="scale(0.26458333)" />
  <path
     id="rect4603"
     style="fill:#ff0000;fill-opacity:1;fill-rule:evenodd;stroke-width:1.00157"
     d="m 120,90 v 30 h 30 V 90 Z m 50,0 v 30 h 30 V 90 Z"
     transform="scale(0.26458333)" />
  <path
     id="rect4607"
     style="fill:#ffffff;fill-opacity:1;fill-rule:evenodd;stroke-width:1.00157"
     d="m 120,90 v 10 h 10 V 90 Z m 50,0 v 10 h 10 V 90 Z"
     transform="scale(0.26458333)" />
</svg>
