<?xml version="1.0" encoding="UTF-8" standalone="no"?>
<!-- Created with Inkscape (http://www.inkscape.org/) -->

<svg
   width="120"
   height="170"
   viewBox="0 0 31.749999 44.979168"
   version="1.1"
   id="svg5"
   shape-rendering="crispEdges"
   sodipodi:docname="faceAcc-smokes.svg"
   inkscape:version="1.1.2 (b8e25be833, 2022-02-05)"
   xmlns:inkscape="http://www.inkscape.org/namespaces/inkscape"
   xmlns:sodipodi="http://sodipodi.sourceforge.net/DTD/sodipodi-0.dtd"
   xmlns="http://www.w3.org/2000/svg"
   xmlns:svg="http://www.w3.org/2000/svg">
  <sodipodi:namedview
     id="namedview10"
     pagecolor="#505050"
     bordercolor="#eeeeee"
     borderopacity="1"
     inkscape:pageshadow="0"
     inkscape:pageopacity="0"
     inkscape:pagecheckerboard="0"
     showgrid="false"
     inkscape:zoom="2.01875"
     inkscape:cx="-30.216718"
     inkscape:cy="150.09288"
     inkscape:window-width="1920"
     inkscape:window-height="974"
     inkscape:window-x="-11"
     inkscape:window-y="-11"
     inkscape:window-maximized="1"
     inkscape:current-layer="svg5" />
  <defs
     id="defs2" />
  <path
     id="rect9734"
     style="opacity:1;fill:#60634f;fill-opacity:1;fill-rule:evenodd;stroke-width:0.264999"
     d="m 18.520833,34.395833 v 2.645833 H 2.6458333 0 V 39.6875 h 2.6458333 v 2.645833 H 13.229167 v 2.645833 H 23.8125 v -2.645833 -5.291667 -2.645833 z" />
  <path
     id="rect9786"
     style="opacity:1;fill:#ff0000;fill-opacity:0.9;fill-rule:evenodd;stroke-width:0.264999"
     d="m 23.812503,42.333335 h 2.645833 v 2.645833 h -2.645833 z" />
  <path
     id="rect10030"
     style="opacity:1;fill:#ff6a00;fill-opacity:0.898039;fill-rule:evenodd;stroke-width:0.264999"
     d="m 23.812503,39.687499 h 2.645833 v 2.645833 h -2.645833 z" />
  <path
     id="rect10054"
     style="opacity:1;fill:#f2a52b;fill-opacity:0.898039;fill-rule:evenodd;stroke-width:0.264999"
     d="m 23.812503,37.041667 h 2.645833 V 39.6875 h -2.645833 z" />
  <path
     id="rect10078"
     style="opacity:1;fill:#f1e816;fill-opacity:0.9;fill-rule:evenodd;stroke-width:0.264999"
     d="m 23.812503,34.395835 h 2.645833 v 2.645833 h -2.645833 z" />
  <path
     id="rect10376"
     style="opacity:1;mix-blend-mode:darken;fill:#cccccc;fill-opacity:0.67;fill-rule:evenodd;stroke-width:0.264999"
     d="M 29.104166,0 V 5.2916666 H 31.75 V 0 Z m 0,5.2916666 h -2.645833 v 2.6458333 h 2.645833 z M 23.8125,10.583333 v 2.645834 h 2.645833 v -2.645834 z m 2.645833,2.645834 V 23.8125 h 2.645833 V 21.166666 H 31.75 V 15.875 h -2.645834 v -2.645833 z m 0,10.583333 H 23.8125 v 5.291666 h 2.645833 z m 0,5.291666 v 5.291667 h 2.645833 v -5.291667 z" />
</svg>
