<?xml version="1.0" encoding="UTF-8" standalone="no"?>
<!-- Created with Inkscape (http://www.inkscape.org/) -->

<svg
   width="140"
   height="100"
   viewBox="0 0 37.041666 26.458334"
   version="1.1"
   id="svg5"
   shape-rendering="crispEdges"
   sodipodi:docname="bodyAcc-poolychain.svg"
   inkscape:version="1.1.2 (b8e25be833, 2022-02-05)"
   xmlns:inkscape="http://www.inkscape.org/namespaces/inkscape"
   xmlns:sodipodi="http://sodipodi.sourceforge.net/DTD/sodipodi-0.dtd"
   xmlns="http://www.w3.org/2000/svg"
   xmlns:svg="http://www.w3.org/2000/svg">
  <sodipodi:namedview
     id="namedview6"
     pagecolor="#505050"
     bordercolor="#eeeeee"
     borderopacity="1"
     inkscape:pageshadow="0"
     inkscape:pageopacity="0"
     inkscape:pagecheckerboard="0"
     showgrid="false"
     inkscape:zoom="2.01875"
     inkscape:cx="69.845201"
     inkscape:cy="-30.216718"
     inkscape:window-width="1920"
     inkscape:window-height="974"
     inkscape:window-x="-11"
     inkscape:window-y="-11"
     inkscape:window-maximized="1"
     inkscape:current-layer="svg5" />
  <defs
     id="defs2" />
  <path
     id="rect5608"
     style="fill:#ffd800;fill-opacity:1;fill-rule:evenodd;stroke-width:0.264999"
     d="M 0,0 V 2.6458333 5.2916666 H 2.6458333 V 7.9374999 H 7.9374999 V 5.2916666 H 5.2916666 V 2.6458333 H 2.6458333 V 0 Z M 7.9374999,7.9374999 V 10.583333 H 10.583333 V 7.9374999 Z m 2.6458331,2.6458331 v 2.645834 h 2.645834 V 15.875 h -2.645834 v 7.9375 h 2.645834 v 2.645833 H 23.8125 V 23.8125 h 2.645833 V 15.875 H 23.8125 v -2.645833 h 2.645833 v -2.645834 h -5.291667 v 2.645834 H 15.875 v -2.645834 z m 15.875,0 h 2.645833 V 7.9374999 h -2.645833 z m 2.645833,-2.6458331 h 5.291667 V 5.2916666 h 2.645833 V 2.6458333 0 H 34.395833 V 2.6458333 H 31.75 v 2.6458333 h -2.645834 z" />
  <path
     id="rect5758"
     style="fill:#ffe97f;fill-opacity:1;fill-rule:evenodd;stroke-width:0.264999"
     d="m 15.875,15.875 v 5.291666 2.645834 h 2.645833 v -2.645834 h 2.645833 V 15.875 Z" />
</svg>
