<?xml version="1.0" encoding="UTF-8" standalone="no"?>
<!-- Created with Inkscape (http://www.inkscape.org/) -->

<svg
   width="140"
   height="130.00002"
   viewBox="0 0 37.041666 34.395838"
   version="1.1"
   id="svg5"
   shape-rendering="crispEdges"
   sodipodi:docname="bodyAcc-suit-tan.svg"
   inkscape:version="1.1.2 (b8e25be833, 2022-02-05)"
   xmlns:inkscape="http://www.inkscape.org/namespaces/inkscape"
   xmlns:sodipodi="http://sodipodi.sourceforge.net/DTD/sodipodi-0.dtd"
   xmlns="http://www.w3.org/2000/svg"
   xmlns:svg="http://www.w3.org/2000/svg">
  <sodipodi:namedview
     id="namedview10"
     pagecolor="#505050"
     bordercolor="#eeeeee"
     borderopacity="1"
     inkscape:pageshadow="0"
     inkscape:pageopacity="0"
     inkscape:pagecheckerboard="0"
     showgrid="false"
     inkscape:zoom="2.01875"
     inkscape:cx="69.845201"
     inkscape:cy="-30.216718"
     inkscape:window-width="1920"
     inkscape:window-height="974"
     inkscape:window-x="-11"
     inkscape:window-y="-11"
     inkscape:window-maximized="1"
     inkscape:current-layer="svg5" />
  <defs
     id="defs2" />
  <path
     id="rect37661"
     style="fill:#ff9955;fill-opacity:1;fill-rule:evenodd;stroke-width:0.264999"
     d="M 0,0 V 2.6458333 5.2916666 7.9374999 34.395833 h 15.875 2.645833 V 15.875 H 15.875 V 7.9374999 H 7.9374999 V 5.2916666 H 5.2916666 V 2.6458333 H 2.6458333 V 0 Z M 34.395833,0 V 2.6458333 H 31.75 v 2.6458333 h -2.645834 v 2.6458333 h -7.9375 V 34.395833 h 15.875 V 7.9374999 5.2916666 2.6458333 0 Z" />
  <path
     id="rect37679"
     style="fill:#c87137;fill-rule:evenodd;stroke-width:0.264999"
     d="m 18.520832,15.875003 h 2.645833 v 18.520834 h -2.645833 z" />
  <path
     id="rect37681"
     style="fill:#ffcc00;fill-opacity:1;fill-rule:evenodd;stroke-width:0.264999"
     d="m 18.520833,18.520833 v 2.645833 h 2.645833 v -2.645833 z m 0,5.291667 v 2.645833 h 2.645833 V 23.8125 Z m 0,5.291666 V 31.75 h 2.645833 v -2.645834 z" />
  <path
     id="rect37809"
     style="fill:#d38d5f;fill-opacity:1;fill-rule:evenodd;stroke-width:0.264999"
     d="M 0,0 V 2.6458333 H 2.6458333 V 0 Z M 2.6458333,2.6458333 V 5.2916666 H 5.2916666 V 2.6458333 Z M 5.2916666,5.2916666 V 7.9374999 H 7.9374999 V 5.2916666 Z M 7.9374999,7.9374999 V 10.583333 H 10.583333 V 7.9374999 Z m 0,2.6458331 H 5.2916666 v 2.645834 h 2.6458333 z m 0,2.645834 V 15.875 H 10.583333 V 13.229167 Z M 10.583333,15.875 v 2.645833 h 2.645834 V 15.875 Z m 2.645834,0 H 15.875 v -2.645833 h -2.645833 z m 2.645833,0 v 2.645833 h 2.645833 V 15.875 Z m 0,2.645833 h -2.645833 v 2.645833 H 15.875 Z m 0,2.645833 V 23.8125 h 2.645833 v -2.645834 z m 0,2.645834 h -2.645833 v 2.645833 H 15.875 Z m 0,2.645833 v 2.645833 h 2.645833 v -2.645833 z m 0,2.645833 H 13.229167 V 31.75 H 15.875 Z m 0,2.645834 v 2.645833 h 2.645833 V 31.75 Z m -2.645833,0 h -2.645834 v 2.645833 h 2.645834 z m -2.645834,0 V 29.104166 H 7.9374999 V 31.75 Z m -2.6458331,0 H 5.2916666 v 2.645833 h 2.6458333 z m -2.6458333,0 V 29.104166 H 2.6458333 V 31.75 Z m -2.6458333,0 H 0 v 2.645833 h 2.6458333 z m 0,-2.645834 V 26.458333 H 0 v 2.645833 z m 0,-2.645833 H 5.2916666 V 23.8125 H 2.6458333 Z m 0,-2.645833 V 21.166666 H 0 V 23.8125 Z m 0,-2.645834 H 5.2916666 V 18.520833 H 2.6458333 Z m 0,-2.645833 V 15.875 H 0 v 2.645833 z m 0,-2.645833 H 5.2916666 V 13.229167 H 2.6458333 Z m 0,-2.645833 V 10.583333 H 0 v 2.645834 z m 0,-2.645834 H 5.2916666 V 7.9374999 H 2.6458333 Z m 0,-2.6458331 V 5.2916666 H 0 V 7.9374999 Z M 5.2916666,15.875 v 2.645833 H 7.9374999 V 15.875 Z m 2.6458333,2.645833 v 2.645833 h 2.6458331 v -2.645833 z m 2.6458331,2.645833 V 23.8125 h 2.645834 v -2.645834 z m 0,2.645834 H 7.9374999 v 2.645833 h 2.6458331 z m 0,2.645833 v 2.645833 h 2.645834 v -2.645833 z m -2.6458331,0 H 5.2916666 v 2.645833 h 2.6458333 z m 0,-2.645833 V 21.166666 H 5.2916666 V 23.8125 Z M 34.395833,0 v 2.6458333 h 2.645833 V 0 Z m 0,2.6458333 H 31.75 v 2.6458333 h 2.645833 z m 0,2.6458333 v 2.6458333 h 2.645833 V 5.2916666 Z m 0,2.6458333 H 31.75 v 2.6458331 h 2.645833 z m 0,2.6458331 v 2.645834 h 2.645833 v -2.645834 z m 0,2.645834 H 31.75 V 15.875 h 2.645833 z m 0,2.645833 v 2.645833 h 2.645833 V 15.875 Z m 0,2.645833 H 31.75 v 2.645833 h 2.645833 z m 0,2.645833 V 23.8125 h 2.645833 v -2.645834 z m 0,2.645834 H 31.75 v 2.645833 h 2.645833 z m 0,2.645833 v 2.645833 h 2.645833 v -2.645833 z m 0,2.645833 H 31.75 V 31.75 h 2.645833 z m 0,2.645834 v 2.645833 h 2.645833 V 31.75 Z m -2.645833,0 h -2.645834 v 2.645833 H 31.75 Z m -2.645834,0 V 29.104166 H 26.458333 V 31.75 Z m -2.645833,0 H 23.8125 v 2.645833 h 2.645833 z m -2.645833,0 V 29.104166 H 21.166666 V 31.75 Z m 0,-2.645834 h 2.645833 V 26.458333 H 23.8125 Z m 0,-2.645833 V 23.8125 h -2.645834 v 2.645833 z m 0,-2.645833 h 2.645833 V 21.166666 H 23.8125 Z m 0,-2.645834 v -2.645833 h -2.645834 v 2.645833 z m 0,-2.645833 h 2.645833 V 15.875 H 23.8125 Z m 0,-2.645833 V 13.229167 H 21.166666 V 15.875 Z m 2.645833,0 h 2.645833 v -2.645833 h -2.645833 z m 2.645833,-2.645833 H 31.75 v -2.645834 h -2.645834 z m 0,-2.645834 V 7.9374999 h -2.645833 v 2.6458331 z m 0,-2.6458331 H 31.75 V 5.2916666 h -2.645834 z m 0,7.9375001 v 2.645833 H 31.75 V 15.875 Z m 0,2.645833 h -2.645833 v 2.645833 h 2.645833 z m 0,2.645833 V 23.8125 H 31.75 v -2.645834 z m 0,2.645834 h -2.645833 v 2.645833 h 2.645833 z m 0,2.645833 v 2.645833 H 31.75 v -2.645833 z" />
  <path
     id="rect37687"
     style="fill:#b3b3b3;fill-opacity:1;fill-rule:evenodd;stroke-width:0.264999"
     d="m 10.583333,2.6458333 v 2.6458333 5.2916664 2.645834 H 15.875 v -2.645834 h 5.291666 v 2.645834 h 5.291667 V 10.583333 5.2916666 2.6458333 H 21.166666 V 5.2916666 H 15.875 V 2.6458333 Z" />
  <path
     id="rect37693"
     style="fill:#008080;fill-opacity:1;fill-rule:evenodd;stroke-width:0.264999"
     d="m 10.583333,0 v 15.875 h 2.645834 V 0 Z M 23.8125,0 v 15.875 h 2.645833 V 0 Z m -5.291667,5.2916666 v 2.6458333 h 2.645833 V 5.2916666 Z m 0,2.6458333 H 15.875 v 2.6458331 h 2.645833 z" />
</svg>
